<?xml version="1.0" encoding="UTF-8" standalone="no"?>
<!-- Created with Inkscape (http://www.inkscape.org/) -->

<svg
   xmlns:dc="http://purl.org/dc/elements/1.1/"
   xmlns:cc="http://creativecommons.org/ns#"
   xmlns:rdf="http://www.w3.org/1999/02/22-rdf-syntax-ns#"
   xmlns:svg="http://www.w3.org/2000/svg"
   xmlns="http://www.w3.org/2000/svg"
   xmlns:sodipodi="http://sodipodi.sourceforge.net/DTD/sodipodi-0.dtd"
   xmlns:inkscape="http://www.inkscape.org/namespaces/inkscape"
   width="365.625"
   height="45.583092"
   id="svg2"
   version="1.1"
   inkscape:version="0.48.4 r9939"
   sodipodi:docname="call_money_line.svg"
   inkscape:export-filename="/run/user/1000/gvfs/smb-share:server=10.0.0.117,share=it/Josh/Logos/money_line.png"
   inkscape:export-xdpi="300.0896"
   inkscape:export-ydpi="300.0896">
  <defs
     id="defs4" />
  <sodipodi:namedview
     id="base"
     pagecolor="#ffffff"
     bordercolor="#666666"
     borderopacity="1.0"
     inkscape:pageopacity="0.0"
     inkscape:pageshadow="2"
     inkscape:zoom="2.8"
     inkscape:cx="152.56218"
     inkscape:cy="74.959295"
     inkscape:document-units="px"
     inkscape:current-layer="layer1"
     showgrid="false"
     inkscape:window-width="1920"
     inkscape:window-height="1056"
     inkscape:window-x="1600"
     inkscape:window-y="24"
     inkscape:window-maximized="1"
     fit-margin-top="0"
     fit-margin-left="0"
     fit-margin-right="0"
     fit-margin-bottom="0" />
  <metadata
     id="metadata7">
    <rdf:RDF>
      <cc:Work
         rdf:about="">
        <dc:format>image/svg+xml</dc:format>
        <dc:type
           rdf:resource="http://purl.org/dc/dcmitype/StillImage" />
        <dc:title></dc:title>
      </cc:Work>
    </rdf:RDF>
  </metadata>
  <g
     inkscape:label="Layer 1"
     inkscape:groupmode="layer"
     id="layer1"
     transform="translate(-129.13505,-218.26903)">
    <g
       id="g3832">
      <flowRoot
         style="font-size:40px;font-style:normal;font-weight:normal;line-height:125%;letter-spacing:0px;word-spacing:0px;fill:#000000;fill-opacity:1;stroke:none;font-family:Sans"
         id="flowRoot3002"
         xml:space="preserve"><flowRegion
           id="flowRegion3004"><rect
             y="185.93361"
             x="32.142857"
             height="90.714287"
             width="239.28572"
             id="rect3006" /></flowRegion><flowPara
           id="flowPara3008" /></flowRoot>      <g
         transform="matrix(0.52247969,0,0,0.52247969,244.59017,214.81007)"
         id="Layer_1"
         style="fill:#e77207;fill-opacity:1" />
      <g
         transform="matrix(0.52247969,0,0,0.52247969,362.59017,214.81007)"
         id="Isolation_Mode"
         style="fill:#384343;fill-opacity:1">
        <path
           id="path2989"
           d="m 49.995,73.34 c 0.539,-1.803 2.271,-3.193 4.526,-3.643 -0.876,-0.861 -1.396,-1.963 -1.396,-3.178 0,-1.043 0.383,-2.002 1.046,-2.795 l -12.536,-4.59 c 0.462,1.539 0.718,3.166 0.718,4.842 0,2.188 -0.416,4.258 -1.152,6.141 l 8.794,3.223 z m -4.174,-7.479 c 0.504,-1.375 2.028,-2.082 3.408,-1.576 1.375,0.5 2.083,2.027 1.578,3.4 -0.503,1.375 -2.028,2.082 -3.404,1.58 -1.376,-0.503 -2.087,-2.031 -1.582,-3.404 z M 65.085,21.012 c -1.947,-0.71 -3.962,-0.817 -5.854,-0.429 -0.732,0.148 -1.442,-0.32 -1.597,-1.048 -0.149,-0.731 0.315,-1.447 1.047,-1.595 2.364,-0.485 4.897,-0.349 7.322,0.539 2.438,0.882 4.465,2.403 5.962,4.294 0.466,0.589 0.367,1.435 -0.221,1.897 -0.581,0.461 -1.432,0.361 -1.893,-0.225 -1.2,-1.507 -2.81,-2.72 -4.766,-3.433 z M 50.753,32.376 68.668,38.94 63.339,53.494 h 3.578 l 5.123,-13.98 c 1.054,-2.876 -0.385,-6.052 -3.217,-7.088 L 54.837,27.303 c -2.829,-1.036 -5.974,0.458 -7.027,3.335 l -1.321,3.604 c 0.955,1.047 1.82,2.444 2.091,4.066 l 2.173,-5.932 z m 10.302,-1.113 c 0.315,0 0.555,0.259 0.555,0.564 0,0.305 -0.239,0.564 -0.555,0.564 -0.316,0 -0.556,-0.259 -0.556,-0.564 0,-0.305 0.239,-0.564 0.556,-0.564 z m -3.166,1.02 c 0.096,-0.26 0.386,-0.391 0.642,-0.298 l 4.334,1.587 c 0.26,0.095 0.393,0.382 0.298,0.642 -0.074,0.203 -0.266,0.328 -0.47,0.328 -0.058,0 -0.115,-0.01 -0.172,-0.03 l -4.334,-1.587 c -0.26,-0.096 -0.393,-0.383 -0.298,-0.642 z m 10.268,-5.835 c 0.411,0.625 0.245,1.456 -0.379,1.871 -0.624,0.408 -1.456,0.237 -1.867,-0.382 -0.302,-0.458 -0.677,-0.87 -1.106,-1.213 -0.441,-0.352 -0.936,-0.63 -1.492,-0.834 -0.554,-0.201 -1.115,-0.305 -1.672,-0.32 -0.551,-0.015 -1.104,0.063 -1.628,0.222 -0.716,0.201 -1.465,-0.201 -1.678,-0.912 -0.213,-0.716 0.192,-1.459 0.91,-1.675 0.788,-0.24 1.623,-0.353 2.464,-0.337 0.84,0.029 1.703,0.18 2.527,0.482 0.834,0.302 1.589,0.737 2.252,1.258 0.655,0.529 1.216,1.154 1.669,1.84 z M 66.974,15.827 c -2.817,-1.024 -5.724,-1.222 -8.475,-0.725 -0.733,0.136 -1.434,-0.349 -1.567,-1.083 -0.133,-0.74 0.35,-1.438 1.084,-1.569 3.205,-0.58 6.604,-0.349 9.881,0.844 3.279,1.192 6.037,3.202 8.121,5.703 0.474,0.574 0.396,1.426 -0.184,1.903 -0.571,0.474 -1.424,0.394 -1.895,-0.174 -1.787,-2.153 -4.145,-3.872 -6.965,-4.899 z m 11.2,34.649 c 0,1.801 -2.049,3.276 -4.554,3.276 h -0.003 -4.948 l 2.397,-6.543 h 2.554 c 2.505,-0.001 4.554,1.47 4.554,3.267 z M 79.927,17.165 C 79.359,17.647 78.503,17.58 78.024,17.008 75.653,14.215 72.551,11.989 68.859,10.645 65.169,9.302 61.363,9.018 57.755,9.633 57.016,9.757 56.326,9.263 56.198,8.529 c -0.121,-0.737 0.367,-1.433 1.105,-1.56 4.048,-0.696 8.344,-0.367 12.479,1.139 4.14,1.506 7.635,4.013 10.299,7.153 0.482,0.569 0.412,1.418 -0.154,1.904 z m -8.117,40.446 -0.003,1.775 c 0,1.311 -1.217,2.383 -2.705,2.383 h -6.384 c -2.502,0 -4.552,-1.471 -4.552,-3.271 0,-1.799 2.05,-3.27 4.552,-3.27 h 6.387 c 1.485,10e-4 2.705,1.073 2.705,2.383 z m -4.836,8.02 v 1.779 c 0,1.307 -1.22,2.381 -2.708,2.381 H 59.41 59.409 c -2.503,0 -4.552,-1.473 -4.552,-3.271 0,-1.801 2.049,-3.273 4.552,-3.271 h 10e-4 4.855 c 1.491,-0.001 2.709,1.073 2.709,2.382 z M 55.722,79.529 c 0,0 -3.489,4.145 -13.237,5.494 -4.667,2.383 -7.175,4.168 -11.699,8.355 L 19.599,75.563 c 4.096,-2.551 8.298,-7.412 8.298,-7.412 -0.172,-6.295 1.264,-9.004 4.291,-14.266 0.375,-0.639 0.75,-1.278 1.125,-1.917 1.781,-3.036 3.563,-6.07 5.344,-9.105 1.222,-2.083 2.053,-4.319 3.243,-6.394 2.596,-4.524 5.801,1.625 4.737,4.496 -0.732,1.977 -4.633,12.018 -6.909,17.86 0.571,1.592 0.894,3.326 0.894,5.152 0,2.617 -0.662,5.049 -1.785,7.121 l 11.021,4.039 c 0.35,2.412 2.775,4.25 5.864,4.392 z m 6.413,-5.879 v 1.775 c 0,1.313 -1.219,2.383 -2.708,2.383 h -3.326 -0.003 c -2.501,0 -4.549,-1.471 -4.549,-3.27 0,-1.799 2.048,-3.268 4.549,-3.268 h 0.003 3.329 c 1.489,0.001 2.705,1.074 2.705,2.38 z"
           inkscape:connector-curvature="0"
           style="fill:#384343;fill-opacity:1" />
      </g>
      <text
         sodipodi:linespacing="125%"
         id="text3010"
         y="255.21931"
         x="127.14286"
         style="font-size:40px;font-style:normal;font-weight:normal;line-height:125%;letter-spacing:0px;word-spacing:0px;fill:#384343;fill-opacity:1;stroke:none;font-family:Sans"
         xml:space="preserve"><tspan
           y="255.21931"
           x="127.14286"
           id="tspan3012"
           sodipodi:role="line"
           style="font-weight:bold;-inkscape-font-specification:Sans Bold">Call Money  Line</tspan></text>
    </g>
  </g>
</svg>
