<?xml version="1.0" encoding="UTF-8" standalone="no"?>
<svg
   xmlns:dc="http://purl.org/dc/elements/1.1/"
   xmlns:cc="http://creativecommons.org/ns#"
   xmlns:rdf="http://www.w3.org/1999/02/22-rdf-syntax-ns#"
   xmlns:svg="http://www.w3.org/2000/svg"
   xmlns="http://www.w3.org/2000/svg"
   xmlns:sodipodi="http://sodipodi.sourceforge.net/DTD/sodipodi-0.dtd"
   xmlns:inkscape="http://www.inkscape.org/namespaces/inkscape"
   version="1.1"
   id="Layer_1"
   x="0px"
   y="0px"
   width="40.951"
   height="58.980999"
   viewBox="0 0 40.951 58.980999"
   enable-background="new 0 0 100 100"
   xml:space="preserve"
   inkscape:version="0.48.4 r9939"
   sodipodi:docname="petition.svg"
   inkscape:export-filename="/home/josh/PycharmProjects/savings_champion/savings_champion/pages/static/img/petition/sharing/petition.png"
   inkscape:export-xdpi="725.25702"
   inkscape:export-ydpi="725.25702"><metadata
     id="metadata25"><rdf:RDF><cc:Work
         rdf:about=""><dc:format>image/svg+xml</dc:format><dc:type
           rdf:resource="http://purl.org/dc/dcmitype/StillImage" /><dc:title></dc:title></cc:Work></rdf:RDF></metadata><defs
     id="defs23" /><sodipodi:namedview
     pagecolor="#ffffff"
     bordercolor="#666666"
     borderopacity="1"
     objecttolerance="10"
     gridtolerance="10"
     guidetolerance="10"
     inkscape:pageopacity="0"
     inkscape:pageshadow="2"
     inkscape:window-width="1364"
     inkscape:window-height="717"
     id="namedview21"
     showgrid="false"
     fit-margin-top="0"
     fit-margin-left="0"
     fit-margin-right="0"
     fit-margin-bottom="0"
     inkscape:zoom="37.330202"
     inkscape:cx="-2.2094209"
     inkscape:cy="46.424234"
     inkscape:window-x="0"
     inkscape:window-y="312"
     inkscape:window-maximized="1"
     inkscape:current-layer="Layer_1" /><rect
     style="fill:#f3f3f3;fill-opacity:1;stroke:none"
     id="rect3000-4-2"
     width="34.945206"
     height="45.653969"
     x="2.7936256"
     y="10.450951"
     ry="0.25530937" /><g
     id="g4"
     transform="translate(-28.899,-20.057)"><g
       id="XMLID_27_"><g
         id="g7"><path
           inkscape:connector-curvature="0"
           id="path9"
           d="m 60.646,41.998 0.85,0.69 c 0.344,0.271 0.453,0.706 0.236,0.977 l -1.559,1.939 h 0.473 v 1.812 h -1.922 l -2.791,3.461 h 4.713 v 1.812 h -6.18 l -7.104,8.843 c -0.219,0.253 -0.67,0.235 -1.016,-0.036 l -3.805,-3.062 c -0.346,-0.272 -0.453,-0.726 -0.236,-0.979 l 3.842,-4.766 H 36.146 v -1.812 h 11.451 l 2.791,-3.461 H 36.146 v -1.812 h 15.709 l 2.863,-3.568 H 36.146 v -1.812 h 20.039 l 0.508,-0.635 c 0.201,-0.254 0.654,-0.236 0.996,0.037 l 0.744,0.598 h 1.576 l 0.637,0.508 v 1.266 z" /><path
           inkscape:connector-curvature="0"
           id="path11"
           d="m 60.01,40.224 -1.23,-0.996 c -0.582,-0.471 -0.852,-1.126 -0.582,-1.469 l 0.637,-0.779 c 0.27,-0.345 0.977,-0.217 1.557,0.254 l 2.863,2.302 c 0.436,0.344 0.688,0.796 0.688,1.142 0,0.125 -0.035,0.235 -0.107,0.325 L 63.199,41.8 c -0.271,0.326 -0.959,0.217 -1.557,-0.254 L 60.646,40.732 60.01,40.224 z" /><path
           inkscape:connector-curvature="0"
           id="path13"
           d="m 69.85,30.476 v 43.85 c 0,2.592 -2.283,4.712 -5.092,4.712 h -30.75 c -2.828,0 -5.109,-2.12 -5.109,-4.712 v -43.85 c 0,-2.61 2.281,-4.73 5.109,-4.73 h 5.201 c -0.217,0.107 -0.4,0.235 -0.58,0.381 -0.543,0.452 -0.924,1.051 -1.18,1.739 -0.197,0.525 -0.342,1.105 -0.434,1.704 h -3.443 c -0.924,0 -1.703,0.615 -1.703,1.321 v 37.455 6.396 c 0,0.706 0.779,1.322 1.703,1.322 H 64.34 c 0.906,0 1.688,-0.616 1.688,-1.322 V 40.677 30.891 c 0,-0.706 -0.781,-1.321 -1.688,-1.321 H 60.682 C 60.573,28.934 60.391,28.374 60.157,27.866 60.083,27.683 59.993,27.52 59.884,27.358 59.866,27.287 59.831,27.23 59.794,27.16 59.687,26.997 59.575,26.851 59.468,26.707 59.341,26.561 59.216,26.435 59.087,26.324 58.942,26.199 58.816,26.091 58.669,25.999 58.524,25.909 58.362,25.818 58.218,25.746 h 6.541 c 2.807,-10e-4 5.091,2.119 5.091,4.73 z" /><polygon
           id="polygon15"
           points="60.646,66.533 60.646,68.346 36.146,68.346 36.146,66.533 39.877,66.533 " /><path
           inkscape:connector-curvature="0"
           id="path17"
           d="m 59.395,29.569 c 0.145,0.813 0.217,1.649 0.217,2.393 -1.068,-0.11 -3.551,-0.11 -9.404,-0.11 h -2.664 c -5.58,0.018 -7.99,0.018 -9.041,0.11 0,-0.871 0.055,-1.669 0.182,-2.393 0.107,-0.636 0.234,-1.214 0.434,-1.704 0.254,-0.653 0.58,-1.159 0.998,-1.522 0.398,-0.345 0.887,-0.525 1.467,-0.525 h 2.555 v -0.072 l 0.018,-0.327 c 0.092,-3.007 2.158,-5.362 4.713,-5.362 2.553,0 4.639,2.355 4.729,5.362 v 0.327 0.072 h 2.609 c 0.562,0 1.014,0.146 1.412,0.398 0.129,0.09 0.256,0.183 0.363,0.29 0.145,0.128 0.273,0.271 0.381,0.436 0.127,0.145 0.217,0.325 0.326,0.508 0.074,0.126 0.127,0.271 0.199,0.416 0.215,0.525 0.379,1.105 0.506,1.703 z m -9.043,-3.824 c 0.398,-0.398 0.654,-0.943 0.654,-1.541 0,-1.177 -0.961,-2.138 -2.139,-2.138 -1.195,0 -2.156,0.961 -2.156,2.138 0,0.598 0.252,1.143 0.633,1.541 0.4,0.381 0.926,0.598 1.523,0.598 0.578,0 1.104,-0.217 1.485,-0.598 z" /><polygon
           id="polygon19"
           points="39.877,65.646 41.256,59.05 41.727,59.431 46.004,62.892 " /></g></g></g></svg>