<?xml version="1.0" encoding="utf-8"?>
<!-- Generator: Adobe Illustrator 16.0.0, SVG Export Plug-In . SVG Version: 6.00 Build 0)  -->
<!DOCTYPE svg PUBLIC "-//W3C//DTD SVG 1.1//EN" "http://www.w3.org/Graphics/SVG/1.1/DTD/svg11.dtd">
<svg version="1.1" id="Layer_1" xmlns="http://www.w3.org/2000/svg" xmlns:xlink="http://www.w3.org/1999/xlink" x="0px" y="0px"
	 width="100px" height="34.66px" viewBox="0 0 100 34.66" enable-background="new 0 0 100 34.66" xml:space="preserve">
<g>
	<path fill="#010101" d="M99.012,33.044l-0.145-0.912c-0.426,0.067-6.813,0.656-98.479,0.656v1.871
		c50.979,0,75.098-0.185,86.355-0.34C100,34.137,100,34.137,100,33.044H99.012z"/>
	<path fill="#010101" d="M0.568,31.557c0.414,0,1.097-0.549,4.354-3.645c0.99,0.943,2.177,2.078,3.601,3.445l1.296-1.349
		c-1.392-1.336-2.544-2.442-3.537-3.393c1.003-0.959,2.188-2.098,3.601-3.454l-1.296-1.349c-1.458,1.398-2.662,2.55-3.665,3.504
		c-4.03-3.837-4.163-3.822-4.666-3.652l0.295,0.938L0,23.322c0.055,0.044,0.541,0.44,3.555,3.293
		c-2.956,2.798-3.436,3.189-3.49,3.231l0.536,0.766L0.306,31.5C0.398,31.531,0.477,31.557,0.568,31.557z"/>
	<path fill="#010101" d="M15.082,32.75c2.579-1.367,5.121-2.81,7.277-4.779c0.109-0.101,2.016-1.97,2.083-2.036
		c2.014-2.096,3.858-4.342,5.617-6.654c-0.767,2.239-1.423,4.513-2.155,6.764c-0.503,1.245-0.63,2.526-0.596,3.85
		c0.03,0.883,0.138,1.523,1.158,1.55c3.362-1.053,5.972-3.429,8.376-5.849c1.201-1.271,2.416-2.531,3.663-3.759
		c0.292,0.177,0.532,0.441,0.748,0.696c0.541,0.741,1.054,1.152,1.975,1.237c0.979,0.009,1.962-0.167,2.935-0.017
		c1.065,0.345,2.153,0.612,3.233,0.908c0.61,0.174,1.228,0.371,1.864,0.44c1.155,0.124,2.816,0.069,3.902,0.047
		c2.396-0.047,4.793-0.113,7.189-0.168c6.013-0.135,12.031-0.099,18.04-0.398c3.106-0.153,4.35-0.285,7.405-0.548
		c1.137-0.139,2.273-0.279,3.41-0.421l3.523-2.628c-1.141,0.15-2.282,0.3-3.425,0.452c-2.804,0.269-4.666,0.471-7.504,0.645
		c-5.983,0.365-11.978,0.369-17.973,0.365c-2.473-0.001-4.474,0.008-6.913-0.023c-0.547-0.007-2.87-0.034-3.643-0.12
		c-0.612-0.068-1.225-0.26-1.816-0.423c-1.061-0.317-2.128-0.612-3.166-0.994c-0.976-0.265-1.983-0.073-2.982-0.069
		c-0.913,0.052-1.202-0.099-1.77-0.866c-0.131-0.155-0.566-0.68-0.71-0.804c-2.054-1.775-5.451,1.703-6.567,2.377
		c-2.056,1.881-3.947,3.932-5.896,5.922c-0.211,0.204-0.392,0.38-0.579,0.561c-0.01-0.177-0.011-0.345-0.021-0.399
		c-0.037-1.252,0.129-2.462,0.558-3.648c0.7-2.319,1.369-4.651,2.226-6.92c0.719-1.801,1.441-3.6,2.25-5.363
		c0.911-2.129,1.734-4.292,2.456-6.493c0.446-1.356,0.918-2.761,0.795-4.209c-0.653-2.812-4.817,1.164-5.336,3.106
		c-1.057,2.306-2.147,4.594-3.091,6.95c-0.166,0.379-1.089,2.499-1.269,2.874c-0.995,2.068-2.249,3.993-3.556,5.873
		c-2.098,2.799-4.323,5.501-6.788,7.987c-1.024,0.986-2.036,1.966-3.154,2.847c-0.288,0.227-1.207,0.828-0.877,0.665
		c1.474-0.724,5.012-2.857,3.032-1.666L15.082,32.75z M39.321,21.749C37.408,22.803,38.287,22.044,39.321,21.749L39.321,21.749z
		 M32.484,28.404c-0.091,0.046-0.181,0.106-0.273,0.152C32.989,28.11,33.353,27.896,32.484,28.404z"/>
</g>
</svg>
