<?xml version="1.0" encoding="UTF-8" standalone="no"?>
<!-- Created with Inkscape (http://www.inkscape.org/) -->

<svg
   xmlns:dc="http://purl.org/dc/elements/1.1/"
   xmlns:cc="http://creativecommons.org/ns#"
   xmlns:rdf="http://www.w3.org/1999/02/22-rdf-syntax-ns#"
   xmlns:svg="http://www.w3.org/2000/svg"
   xmlns="http://www.w3.org/2000/svg"
   xmlns:sodipodi="http://sodipodi.sourceforge.net/DTD/sodipodi-0.dtd"
   xmlns:inkscape="http://www.inkscape.org/namespaces/inkscape"
   width="744.09448819"
   height="1052.3622047"
   id="svg3782"
   version="1.1"
   inkscape:version="0.48.4 r9939"
   inkscape:export-filename="/home/josh/PycharmProjects/savings_champion/savings_champion/resources/img/press/the_independent.png"
   inkscape:export-xdpi="208.50133"
   inkscape:export-ydpi="208.50133"
   sodipodi:docname="bbc_radio_2.svg">
  <defs
     id="defs3784" />
  <sodipodi:namedview
     id="base"
     pagecolor="#ffffff"
     bordercolor="#666666"
     borderopacity="1.0"
     inkscape:pageopacity="0.0"
     inkscape:pageshadow="2"
     inkscape:zoom="2.8"
     inkscape:cx="280.53608"
     inkscape:cy="514.40086"
     inkscape:document-units="px"
     inkscape:current-layer="layer1"
     showgrid="false"
     inkscape:window-width="1920"
     inkscape:window-height="1056"
     inkscape:window-x="0"
     inkscape:window-y="24"
     inkscape:window-maximized="1" />
  <metadata
     id="metadata3787">
    <rdf:RDF>
      <cc:Work
         rdf:about="">
        <dc:format>image/svg+xml</dc:format>
        <dc:type
           rdf:resource="http://purl.org/dc/dcmitype/StillImage" />
        <dc:title></dc:title>
      </cc:Work>
    </rdf:RDF>
  </metadata>
  <g
     inkscape:label="Layer 1"
     inkscape:groupmode="layer"
     id="layer1">
    <rect
       style="fill:none;stroke:#4d4d4d;stroke-width:2;stroke-miterlimit:4;stroke-opacity:1;stroke-dasharray:none"
       id="rect3790"
       width="358.57144"
       height="175.71428"
       x="143.17825"
       y="438.54935"
       ry="28.571428" />
    <g
       display="none"
       id="_x32_px_Stroke"
       style="display:none"
       transform="matrix(1.7603128,0,0,1.7603128,145.81066,350.99683)">
      <path
         id="path5770"
         d="M 198,2 V 198 H 2 V 2 h 196 m 2,-2 H 0 V 200 H 200 V 0 l 0,0 z"
         display="inline"
         inkscape:connector-curvature="0"
         style="fill:#a9a9a9;display:inline" />
    </g>
    <g
       id="g5772"
       transform="matrix(1.7603128,0,0,1.7603128,145.81066,350.99683)">
      <g
         id="g5774" />
      <g
         id="g5776" />
    </g>
    <g
       id="Guides"
       transform="matrix(1.7603128,0,0,1.7603128,145.81066,350.99683)" />
    <g
       id="g6355"
       transform="translate(-2.536026,-1.6699785)">
      <rect
         width="78.623711"
         height="88.082207"
         x="337.97"
         y="481.92242"
         id="rect3867"
         style="fill:none;stroke:none;marker:none;visibility:visible;display:inline;overflow:visible" />
      <path
         inkscape:connector-curvature="0"
         d="m 208.34527,467.88429 0,24.4755 26.01829,0 0,-24.4755 -26.01829,0 z m 29.97987,0 0,24.4755 26.00522,0 0,-24.4755 -26.00522,0 z m 29.9668,0 0,24.4755 26.00522,0 0,-24.4755 -26.00522,0 z m 13.87207,3.20326 c 0.10509,0 0.16362,0 0.27456,0 0.23355,0 0.47096,0.009 0.7191,0.0261 0.1372,0.006 0.2841,0.009 0.41838,0.0262 0.21311,0.0146 0.40292,0.0362 0.60143,0.0654 l 0.14382,0.0262 c 0.11385,0.0233 0.245,0.026 0.35301,0.0523 0.14597,0.0175 0.2681,0.058 0.40531,0.0784 0.13721,0.0234 0.27102,0.0463 0.40531,0.0785 0.073,0.0263 0.15944,0.0406 0.23534,0.0523 0.12262,0.0379 0.23763,0.0783 0.36609,0.10459 0.0876,0.0292 0.19423,0.0551 0.28764,0.0785 l 0.0915,0.0261 c 0.10802,0.0321 0.20145,0.0652 0.30072,0.0915 0.13429,0.038 0.24778,0.0797 0.37916,0.11767 0.10801,0.0379 0.21453,0.0725 0.31379,0.1046 0.13428,0.0496 0.26531,0.087 0.37916,0.13074 0.20727,0.0759 0.38856,0.14789 0.54913,0.2092 0.34448,0.13721 0.56221,0.20919 0.5622,0.20919 l 0,3.29478 -0.33994,-0.19612 c -0.12845,-0.0672 -0.28968,-0.15792 -0.47068,-0.24842 -0.10218,-0.0555 -0.20717,-0.10575 -0.32686,-0.16996 -0.14597,-0.0613 -0.30288,-0.14345 -0.45761,-0.22227 -0.19559,-0.0817 -0.39847,-0.16807 -0.6145,-0.26149 -0.16057,-0.0555 -0.32319,-0.12466 -0.48376,-0.18304 0,0 -0.10373,-0.0345 -0.28764,-0.1046 -0.11385,-0.038 -0.25782,-0.0782 -0.41838,-0.13075 -0.1051,-0.0321 -0.21441,-0.0594 -0.33994,-0.0915 -0.20435,-0.0555 -0.42018,-0.11158 -0.65373,-0.16997 -0.15472,-0.0233 -0.33043,-0.0463 -0.49683,-0.0784 -0.19268,-0.0321 -0.39708,-0.0551 -0.60143,-0.0785 -0.11093,-0.0117 -0.22316,-10e-4 -0.33993,-0.013 -0.1664,-0.006 -0.32459,-0.0203 -0.49684,-0.0262 -0.0817,0 -0.16375,0 -0.24841,0 -0.23063,0 -0.46373,0.0217 -0.70603,0.0392 -0.13136,0.006 -0.26377,0.0145 -0.39223,0.0262 -0.13137,0.0204 -0.25072,0.0391 -0.37916,0.0654 -0.11094,0.0175 -0.23332,0.0391 -0.35301,0.0654 -0.11386,0.0292 -0.23916,0.0623 -0.35302,0.0915 -0.12844,0.0379 -0.2464,0.087 -0.36608,0.13074 -0.11678,0.035 -0.229,0.0768 -0.33994,0.11767 -0.11386,0.0409 -0.22609,0.0942 -0.33994,0.14382 -0.70647,0.31529 -1.40334,0.77576 -2.01347,1.3859 -0.035,0.0438 -0.087,0.0928 -0.13075,0.13074 -0.0759,0.0847 -0.14928,0.17391 -0.22227,0.2615 -0.0467,0.0642 -0.0942,0.12313 -0.14382,0.19611 -0.13428,0.18684 -0.27407,0.37537 -0.37916,0.56221 -0.0555,0.0847 -0.0942,0.1739 -0.14382,0.26149 -0.0555,0.11385 -0.10727,0.22316 -0.15689,0.33994 -0.0409,0.0817 -0.0783,0.15943 -0.1046,0.23534 -0.0496,0.13137 -0.0957,0.25947 -0.13074,0.37916 -0.0438,0.13429 -0.0725,0.25363 -0.1046,0.37916 -0.0438,0.18975 -0.0783,0.36381 -0.10459,0.53605 -0.0321,0.2715 -0.0595,0.51335 -0.0654,0.70603 l 0,0.20919 c 0,0.0934 -0.006,0.21149 0,0.33994 0.006,0.0847 0.009,0.17962 0.0262,0.28764 0.0233,0.27149 0.0679,0.58965 0.14382,0.92829 0.0438,0.12261 0.0739,0.25655 0.11767,0.37916 0.0584,0.16348 0.10715,0.33627 0.18305,0.49683 0.0438,0.0992 0.084,0.20438 0.13074,0.30072 0.0613,0.11677 0.12606,0.24207 0.19612,0.35301 0.0438,0.0847 0.0942,0.16527 0.14382,0.23534 0.0584,0.0876 0.11158,0.16083 0.16997,0.24841 0.0671,0.0817 0.13481,0.17975 0.19611,0.26149 0.13137,0.14889 0.26367,0.29274 0.41839,0.44454 l 0.0392,0.0392 0.0392,0.0261 0.0523,0.0523 0.1046,0.10459 c 0.0817,0.0701 0.17822,0.14637 0.27456,0.22227 0.0876,0.0759 0.18407,0.14065 0.27457,0.19612 0.0817,0.0613 0.17543,0.11159 0.24841,0.16997 0.0876,0.0438 0.16236,0.084 0.23535,0.13074 0.16056,0.0905 0.31735,0.18267 0.48375,0.26149 0.073,0.0379 0.15221,0.0696 0.22227,0.1046 0.0525,0.0175 0.0971,0.0377 0.14382,0.0523 0.0671,0.0292 0.13036,0.0551 0.20919,0.0784 0.46417,0.16932 0.95651,0.29451 1.4382,0.37917 0.30361,0.0496 0.60005,0.0812 0.88907,0.10459 0.25398,0.0175 0.48264,0.0131 0.71909,0.0131 0.11678,0 0.23765,0.006 0.36609,0 0.18684,-0.006 0.41003,-0.0348 0.64065,-0.0523 0.15765,-0.0175 0.30429,-0.0478 0.47069,-0.0654 0.0701,-0.0117 0.13328,-0.0246 0.20919,-0.0392 0.5897,-0.1051 1.24734,-0.25732 1.97425,-0.52298 0.38535,-0.13428 0.77816,-0.30416 1.18978,-0.49683 0.23938,-0.11969 0.4768,-0.2304 0.7191,-0.35301 0.21603,-0.12261 0.4391,-0.26518 0.6668,-0.40531 l 0.23534,-0.13075 c 0.0379,-0.0175 0.0739,-0.0551 0.11767,-0.0784 l 0,3.34707 c -0.0613,0.0175 -0.12034,0.0463 -0.16997,0.0784 -0.13428,0.0584 -0.27254,0.12174 -0.39223,0.18304 -0.14305,0.0671 -0.28994,0.13634 -0.41839,0.18305 -0.21895,0.10217 -0.41039,0.17404 -0.5622,0.23534 -0.11969,0.0438 -0.21174,0.0783 -0.28764,0.10459 l -0.15689,0.0523 c -0.15473,0.0584 -0.30428,0.11311 -0.47069,0.1569 -0.14012,0.0496 -0.29564,0.0797 -0.44453,0.11767 -0.20435,0.0525 -0.41295,0.11742 -0.64065,0.16996 -0.14305,0.0233 -0.29273,0.0551 -0.44454,0.0785 -0.2423,0.0496 -0.49989,0.0856 -0.77139,0.11767 -0.17224,0.0233 -0.34922,0.0348 -0.53606,0.0523 l -0.0915,0.0131 c -0.47001,0.0379 -0.96781,0.0654 -1.51664,0.0654 l -0.22227,0 c -0.15181,-0.0117 -0.29997,-0.0203 -0.45761,-0.0262 -0.29777,-0.0117 -0.59282,-0.0434 -0.87599,-0.0784 -0.2861,-0.0321 -0.5668,-0.0782 -0.8237,-0.13074 -0.32696,-0.0642 -0.64067,-0.14345 -0.94136,-0.22227 -0.18391,-0.0496 -0.34934,-0.0956 -0.50991,-0.1569 -0.1664,-0.0555 -0.34502,-0.10866 -0.49683,-0.16996 -0.42038,-0.17224 -0.79593,-0.35938 -1.13748,-0.54913 -0.16932,-0.10218 -0.32751,-0.21023 -0.49683,-0.30072 -0.14597,-0.0934 -0.27102,-0.18838 -0.40531,-0.28764 -0.11386,-0.073 -0.21745,-0.16236 -0.31379,-0.23534 -0.10802,-0.0788 -0.20438,-0.17543 -0.30072,-0.24841 -0.14012,-0.11678 -0.25946,-0.23193 -0.37916,-0.33994 l -0.0653,-0.0653 c -0.13721,-0.13429 -0.27686,-0.28981 -0.40531,-0.44454 -0.11677,-0.13428 -0.23484,-0.26226 -0.33994,-0.40531 -0.10801,-0.12844 -0.21745,-0.2695 -0.31378,-0.41838 -0.0759,-0.11386 -0.14637,-0.22024 -0.22227,-0.33994 -0.0934,-0.15472 -0.18114,-0.31304 -0.27457,-0.47068 -0.14304,-0.2715 -0.27978,-0.55208 -0.40531,-0.84985 -0.0759,-0.19559 -0.1522,-0.38691 -0.22226,-0.58835 -0.0555,-0.1664 -0.10726,-0.32751 -0.1569,-0.49683 -0.0263,-0.13137 -0.0551,-0.26378 -0.0784,-0.39224 -0.0146,-0.0671 -0.0276,-0.11882 -0.0392,-0.18304 -0.0321,-0.1518 -0.074,-0.33043 -0.0915,-0.49683 l -0.013,-0.0915 c -0.0117,-0.13721 -0.0247,-0.27826 -0.0392,-0.41839 0,-0.1372 1e-5,-0.27533 0,-0.41838 0,-0.181 -0.002,-0.37105 0.0131,-0.54913 0.0146,-0.24522 0.042,-0.46956 0.0654,-0.70603 0.0993,-0.71231 0.27052,-1.39597 0.50991,-2.02655 0.20726,-0.50796 0.44177,-0.98722 0.7191,-1.42512 0.0438,-0.0759 0.0811,-0.14929 0.13074,-0.22227 0.0759,-0.11093 0.1536,-0.20869 0.23534,-0.31378 0.1051,-0.14305 0.18979,-0.28994 0.30072,-0.41839 0.0992,-0.12261 0.20285,-0.23624 0.31378,-0.35301 0.0905,-0.12261 0.21593,-0.23192 0.32687,-0.33994 0.12553,-0.11385 0.25795,-0.24347 0.39223,-0.36608 0.14889,-0.13429 0.31736,-0.26087 0.48376,-0.39224 0.073,-0.0555 0.1536,-0.12174 0.23534,-0.18304 0.0993,-0.073 0.1913,-0.12606 0.28764,-0.19612 0.17224,-0.11386 0.35214,-0.22177 0.53606,-0.32686 0.19267,-0.11386 0.38832,-0.2087 0.60142,-0.31379 0.24231,-0.12261 0.51297,-0.23916 0.78448,-0.35301 0.51963,-0.20436 1.09387,-0.37271 1.71276,-0.50991 0.0934,-0.0175 0.19854,-0.0377 0.30071,-0.0523 0.0759,-0.0204 0.14928,-0.0334 0.22227,-0.0392 l 0.16997,-0.0262 0.14382,-0.0261 0.13074,-0.0131 c 0.1518,-0.0292 0.28981,-0.0406 0.44454,-0.0523 0.10509,-0.0117 0.22176,-0.0174 0.32686,-0.0261 0.18975,-0.0117 0.37092,-0.0203 0.57528,-0.0262 z m -66.98077,0.20919 5.72664,0 c 3.07113,0 4.43226,1.62124 4.43226,1.62124 0,0 1.24208,1.06465 1.24208,2.94177 0,1.85668 -0.84288,2.63269 -1.08518,2.86332 -0.50504,0.5138 -1.16363,0.81062 -1.16363,0.81062 0,0 1.45161,0.31997 2.60183,1.46434 1.34872,1.35165 1.25515,3.09867 1.25515,3.09867 0,0 0.0911,1.67822 -1.35975,3.13788 -1.78954,1.7837 -5.02062,1.69969 -5.02062,1.69969 l -6.62878,0 0,-17.62445 0,-0.0131 z m 29.9668,0 5.71357,0 c 3.07112,0 4.44533,1.62124 4.44533,1.62124 0,0 1.24208,1.06465 1.24208,2.94177 0,1.85668 -0.84871,2.63269 -1.08518,2.86332 -0.5138,0.5138 -1.16364,0.81062 -1.16364,0.81062 0,0 1.45163,0.31997 2.60183,1.46434 1.34581,1.35165 1.24208,3.09867 1.24208,3.09867 0,0 0.10715,1.67822 -1.34667,3.13788 -1.78663,1.7837 -5.02061,1.69969 -5.02062,1.69969 l -6.62878,0 0,-17.62445 0,-0.0131 z m -26.81584,2.79795 0,4.54993 1.51665,0 c 0,0 0.10689,0 0.23534,0 0.10218,-0.006 0.23776,-10e-4 0.33994,-0.013 0.31528,-0.0233 0.75048,-0.0532 1.1767,-0.16997 0.0876,-0.0292 0.16376,-0.0623 0.24842,-0.0915 0.33572,-0.11678 0.65692,-0.28792 0.90214,-0.53606 0.19851,-0.19851 0.33804,-0.41738 0.43146,-0.62758 0.10801,-0.25689 0.14522,-0.52362 0.15689,-0.69294 0.0117,-0.16348 0.0131,-0.2615 0.0131,-0.2615 l 0,-0.18304 c -0.0175,-0.19559 -0.0545,-0.53024 -0.2092,-0.83677 -0.073,-0.1518 -0.18242,-0.29717 -0.31378,-0.43146 -0.17808,-0.1664 -0.38972,-0.29882 -0.61451,-0.39223 -0.42621,-0.18977 -0.90598,-0.26428 -1.32052,-0.28764 -0.17809,-0.0117 -0.33348,-0.0261 -0.47069,-0.0261 l -2.09192,0 z m 29.9668,0 0,4.54993 1.51664,0 c 0,0 0.0981,0 0.23535,0 0.11385,-0.006 0.229,-10e-4 0.33993,-0.013 0.30653,-0.0233 0.73449,-0.0532 1.16364,-0.16997 0.0905,-0.0292 0.17543,-0.0623 0.24841,-0.0915 0.33281,-0.11678 0.66415,-0.28792 0.91522,-0.53606 0.19559,-0.19851 0.33081,-0.41738 0.41838,-0.62758 0.11094,-0.25689 0.14954,-0.52362 0.16997,-0.69294 0.006,-0.16348 0,-0.2615 0,-0.2615 1e-5,0 0,-0.0663 0,-0.18304 -0.006,-0.19559 -0.0486,-0.53024 -0.20919,-0.83677 -0.073,-0.1518 -0.18382,-0.29717 -0.32686,-0.43146 -0.1664,-0.1664 -0.36941,-0.29882 -0.58836,-0.39223 -0.42913,-0.18977 -0.91474,-0.26428 -1.32052,-0.28764 -0.181,-0.0117 -0.34655,-0.0261 -0.48376,-0.0261 l -2.07885,0 z m -29.9668,7.32173 0,4.79835 3.12481,0 c 0,0 0.062,0 0.16997,0 0.10217,0 0.25046,-0.0203 0.43146,-0.0261 0.34156,-0.038 0.78387,-0.0966 1.21593,-0.24842 0.39994,-0.12261 0.77434,-0.32257 1.07211,-0.6145 0.11386,-0.11677 0.20158,-0.22748 0.27457,-0.35301 0.2423,-0.38243 0.30211,-0.7718 0.31378,-0.99367 0.0146,-0.0992 0.0131,-0.15689 0.0131,-0.15689 l 0,-0.11767 c -0.0146,-0.0963 -0.0187,-0.27509 -0.0654,-0.47068 -0.0555,-0.22478 -0.16758,-0.48695 -0.36609,-0.73218 -0.0321,-0.0467 -0.071,-0.0957 -0.11767,-0.13074 -0.0934,-0.0934 -0.17531,-0.16528 -0.27457,-0.23534 -0.17807,-0.12261 -0.37816,-0.24652 -0.58835,-0.33994 -0.28609,-0.12553 -0.59397,-0.21034 -0.94137,-0.27456 -0.1664,-0.0292 -0.35937,-0.0639 -0.54913,-0.0785 -0.11969,-0.0175 -0.24347,-0.0203 -0.36608,-0.0261 -0.1051,-0.006 -0.22177,0 -0.32686,0 l -3.02022,0 z m 29.9668,0 0,4.79835 3.12481,0 c 0,0 0.0635,0 0.15689,0 0.11386,0 0.26062,-0.0203 0.44454,-0.0261 0.32988,-0.038 0.78387,-0.0966 1.21593,-0.24842 0.39118,-0.12261 0.76418,-0.32257 1.05903,-0.6145 0.11386,-0.11677 0.20882,-0.22748 0.28764,-0.35301 0.23647,-0.38243 0.30212,-0.7718 0.31379,-0.99367 0.006,-0.0992 0,-0.15689 0,-0.15689 0,0 0,-0.0447 0,-0.11767 0,-0.0963 -0.003,-0.27509 -0.0523,-0.47068 -0.0613,-0.22478 -0.16757,-0.48695 -0.36608,-0.73218 -0.0438,-0.0467 -0.087,-0.0957 -0.13075,-0.13074 -0.0847,-0.0934 -0.1753,-0.16528 -0.27456,-0.23534 -0.17224,-0.12261 -0.36801,-0.24652 -0.57528,-0.33994 -0.27734,-0.12553 -0.6012,-0.21034 -0.95444,-0.27456 -0.1664,-0.0292 -0.35646,-0.0639 -0.54913,-0.0785 -0.11678,-0.0175 -0.2304,-0.0203 -0.35301,-0.0261 -0.11386,-0.006 -0.22025,0 -0.33994,0 l -3.00714,0 z m 36.80477,16.73538 c -6.55678,1e-5 -10.85185,4.77025 -10.85185,10.38117 0,5.49124 4.19022,10.38117 10.79955,10.38117 6.85164,0 10.94338,-4.92788 10.94338,-10.38117 -10e-6,-5.63428 -4.20876,-10.38117 -10.89108,-10.38117 z m -52.59879,0.14382 -8.62918,20.21321 c -1.29106,-1.78364 -1.81565,-2.51776 -2.65413,-3.87006 -1.53848,-2.51644 -2.67738,-4.38146 -4.51071,-5.59589 2.16613,-0.8612 3.3863,-2.60812 3.3863,-4.95524 0,-3.49734 -2.54897,-5.67435 -6.64185,-5.67435 l -5.11214,0 0,20.23936 2.91562,0 0,-8.78608 1.21593,0 c 1.49177,0 2.6937,0.48435 5.37362,4.64146 l 2.66721,4.14462 3.46474,0 2.79795,0 2.54953,-5.96198 8.61611,0 2.69335,5.96198 2.96792,0 -9.04757,-20.35703 -2.0527,0 z m 13.50598,0.11767 0,20.22629 7.89701,0 c 6.67939,0 10.73418,-4.91898 10.73418,-10.10661 0,-4.77308 -3.28104,-10.11968 -10.76033,-10.11968 l -7.87086,0 z m 21.97827,0 0,20.22629 2.91561,0 0,-20.22629 -2.91561,0 z m 17.12762,2.41879 c 4.54245,0 7.88393,3.24894 7.88393,7.70089 0,4.42277 -3.34148,7.71397 -7.88393,7.71397 -4.51327,-0.003 -7.87086,-3.2912 -7.87086,-7.71397 0,-4.45195 3.35759,-7.70089 7.87086,-7.70089 z m -73.85796,0.0784 1.86965,0 c 2.81131,0 3.94114,1.16188 3.96158,3.05943 0.0321,1.69321 -0.85251,3.28171 -3.96158,3.28171 l -1.86965,0 0,-6.34114 z m 37.66769,0.11767 4.47148,0 c 5.67223,-10e-6 8.25002,3.44109 8.25002,7.50477 0,2.4931 -1.5159,7.50478 -8.09312,7.50478 l -4.62838,0 0,-15.00955 z m -15.44101,1.72583 3.26863,7.32174 -6.28884,0 3.02021,-7.32174 z"
         id="path300"
         style="fill:#4d4d4d;fill-opacity:1;fill-rule:evenodd" />
      <path
         inkscape:connector-curvature="0"
         d="m 377.53195,463.92011 c -35.41423,0 -64.11986,28.72023 -64.11986,64.15198 0,35.4405 28.70563,64.16073 64.11986,64.16073 35.42298,0 64.12278,-28.72023 64.12278,-64.16073 0,-35.42883 -28.6998,-64.15198 -64.12278,-64.15198 m 34.41874,104.23127 -70.8051,0 36.54984,-42.91395 c 5.20514,-5.8795 8.0252,-9.87312 8.0252,-14.14992 0,-3.84474 -2.6303,-7.99309 -6.88667,-7.99309 -5.10588,0 -7.66612,5.04166 -7.87047,8.61198 l -0.181,3.38641 -23.45379,0 0.1956,-3.76884 c 0.3474,-6.60933 1.45965,-10.23804 4.56581,-14.95566 6.28237,-9.55784 15.09286,-14.21123 26.92193,-14.21123 19.9331,0 32.311,10.51246 32.311,27.44158 0,7.13481 -2.45807,12.90629 -8.12154,19.1799 l -14.53528,16.60799 23.28447,0 0,22.76483 z"
         id="path324"
         style="fill:#808080" />
    </g>
  </g>
</svg>
