<?xml version="1.0" encoding="UTF-8" standalone="no"?>
<!-- Created with Inkscape (http://www.inkscape.org/) -->

<svg
   xmlns:dc="http://purl.org/dc/elements/1.1/"
   xmlns:cc="http://creativecommons.org/ns#"
   xmlns:rdf="http://www.w3.org/1999/02/22-rdf-syntax-ns#"
   xmlns:svg="http://www.w3.org/2000/svg"
   xmlns="http://www.w3.org/2000/svg"
   xmlns:sodipodi="http://sodipodi.sourceforge.net/DTD/sodipodi-0.dtd"
   xmlns:inkscape="http://www.inkscape.org/namespaces/inkscape"
   width="744.09448819"
   height="1052.3622047"
   id="svg3782"
   version="1.1"
   inkscape:version="0.48.4 r9939"
   inkscape:export-filename="/home/josh/PycharmProjects/savings_champion/savings_champion/resources/img/press/bbc_radio_4.png"
   inkscape:export-xdpi="208.50133"
   inkscape:export-ydpi="208.50133"
   sodipodi:docname="bbc_radio_4.svg">
  <defs
     id="defs3784">
    <inkscape:perspective
       sodipodi:type="inkscape:persp3d"
       inkscape:vp_x="0 : 11 : 1"
       inkscape:vp_y="0 : 1000 : 0"
       inkscape:vp_z="39 : 11 : 1"
       inkscape:persp3d-origin="19.5 : 7.3333333 : 1"
       id="perspective2908" />
    <inkscape:perspective
       sodipodi:type="inkscape:persp3d"
       inkscape:vp_x="0 : 0.5 : 1"
       inkscape:vp_y="0 : 1000 : 0"
       inkscape:vp_z="1 : 0.5 : 1"
       inkscape:persp3d-origin="0.5 : 0.33333333 : 1"
       id="perspective2824" />
    <inkscape:perspective
       id="perspective10"
       inkscape:persp3d-origin="372.04724 : 350.78739 : 1"
       inkscape:vp_z="744.09448 : 526.18109 : 1"
       inkscape:vp_y="0 : 1000 : 0"
       inkscape:vp_x="0 : 526.18109 : 1"
       sodipodi:type="inkscape:persp3d" />
  </defs>
  <sodipodi:namedview
     id="base"
     pagecolor="#ffffff"
     bordercolor="#666666"
     borderopacity="1.0"
     inkscape:pageopacity="0.0"
     inkscape:pageshadow="2"
     inkscape:zoom="1.4"
     inkscape:cx="296.92281"
     inkscape:cy="420.83908"
     inkscape:document-units="px"
     inkscape:current-layer="layer1"
     showgrid="false"
     inkscape:window-width="1920"
     inkscape:window-height="1056"
     inkscape:window-x="1920"
     inkscape:window-y="24"
     inkscape:window-maximized="1" />
  <metadata
     id="metadata3787">
    <rdf:RDF>
      <cc:Work
         rdf:about="">
        <dc:format>image/svg+xml</dc:format>
        <dc:type
           rdf:resource="http://purl.org/dc/dcmitype/StillImage" />
        <dc:title />
      </cc:Work>
    </rdf:RDF>
  </metadata>
  <g
     inkscape:label="Layer 1"
     inkscape:groupmode="layer"
     id="layer1">
    <rect
       style="fill:none;stroke:#4d4d4d;stroke-width:2;stroke-miterlimit:4;stroke-opacity:1;stroke-dasharray:none"
       id="rect3790"
       width="358.57144"
       height="175.71428"
       x="143.17825"
       y="438.54935"
       ry="28.571428"
       inkscape:export-filename="/home/josh/PycharmProjects/savings_champion/savings_champion/resources/img/press/bbc_radio_4.png"
       inkscape:export-xdpi="208.50133"
       inkscape:export-ydpi="208.50133" />
    <g
       display="none"
       id="_x32_px_Stroke"
       style="display:none"
       transform="matrix(1.7603128,0,0,1.7603128,145.81066,350.99683)">
      <path
         id="path5770"
         d="M 198,2 V 198 H 2 V 2 h 196 m 2,-2 H 0 V 200 H 200 V 0 l 0,0 z"
         display="inline"
         inkscape:connector-curvature="0"
         style="fill:#a9a9a9;display:inline" />
    </g>
    <g
       id="g5772"
       transform="matrix(1.7603128,0,0,1.7603128,145.81066,350.99683)">
      <g
         id="g5774" />
      <g
         id="g5776" />
    </g>
    <g
       id="Guides"
       transform="matrix(1.7603128,0,0,1.7603128,145.81066,350.99683)" />
    <g
       transform="matrix(9.6289936,0,0,9.6289936,860.45814,525.71028)"
       id="g3034" />
    <g
       id="g3170"
       transform="matrix(0.61698412,0,0,0.61698412,99.468286,58.685343)">
      <rect
         style="fill:#ffffff;fill-opacity:1;fill-rule:nonzero;stroke:none;marker:none;visibility:visible;display:inline;overflow:visible"
         id="rect4125"
         y="679.81793"
         x="383.80304"
         height="153.13689"
         width="124.40331" />
      <path
         style="fill:#4d4d4d;fill-opacity:1;fill-rule:evenodd"
         id="path352"
         d="m 168.13365,658.32728 0,40.54775 43.09498,0 0,-40.54775 -43.09498,0 z m 49.67965,0 0,40.54775 43.09498,0 0,-40.54775 -43.09498,0 z m 49.645,0 0,40.54775 43.09498,0 0,-40.54775 -43.09498,0 z m 22.99438,5.31973 c 0.17481,0 0.27849,0 0.46786,0 0.38361,0 0.7732,0.0228 1.19564,0.052 0.22337,0.01 0.4552,0.0229 0.69313,0.052 0.3399,0.0243 0.6575,0.0554 0.9877,0.10397 l 0.24259,0.0173 c 0.18452,0.0389 0.38246,0.0824 0.57183,0.1213 0.22822,0.0291 0.44758,0.063 0.67579,0.12129 0.24279,0.0389 0.46214,0.0852 0.6758,0.13863 0.13111,0.034 0.26468,0.0672 0.38122,0.0866 0.20394,0.0534 0.41016,0.11987 0.62381,0.17328 0.14567,0.0389 0.31733,0.0679 0.46786,0.1213 l 0.13862,0.052 c 0.17481,0.0437 0.35475,0.0949 0.51985,0.13863 0.20879,0.0631 0.41016,0.1351 0.62381,0.20793 0.18452,0.0583 0.36722,0.12473 0.53717,0.17328 0.21365,0.0874 0.40741,0.15243 0.60648,0.22527 0.34476,0.12625 0.66103,0.23697 0.91839,0.32923 0.58755,0.22822 0.91839,0.36389 0.91839,0.36389 l 0,5.44103 -0.5545,-0.31191 c -0.2088,-0.11168 -0.46899,-0.26535 -0.77976,-0.41587 -0.1651,-0.0874 -0.35542,-0.19261 -0.5545,-0.29458 -0.24279,-0.10197 -0.48775,-0.23003 -0.74511,-0.34656 -0.33019,-0.15539 -0.65818,-0.30001 -1.02236,-0.45053 -0.25735,-0.0971 -0.54459,-0.20994 -0.79709,-0.31191 0,0 -0.17928,-0.0394 -0.48519,-0.15595 -0.18452,-0.0486 -0.40873,-0.12054 -0.67579,-0.20794 -0.17481,-0.0631 -0.37761,-0.12958 -0.57183,-0.17328 -0.34476,-0.0874 -0.70597,-0.16281 -1.109,-0.25992 -0.24764,-0.0389 -0.52032,-0.0901 -0.79709,-0.13863 -0.32534,-0.0534 -0.67484,-0.0824 -1.00503,-0.12129 -0.18452,-0.0194 -0.37275,-0.0277 -0.57183,-0.052 -0.27678,-0.01 -0.5404,-0.008 -0.83175,-0.0173 -0.1311,0 -0.26259,0 -0.39854,0 -0.38361,0 -0.76557,0.018 -1.17831,0.052 -0.21851,0.01 -0.42748,0.0326 -0.64114,0.052 -0.21851,0.034 -0.41016,0.0603 -0.62381,0.10397 -0.18452,0.0291 -0.39493,0.0824 -0.58916,0.1213 -0.18452,0.0534 -0.39008,0.10739 -0.58916,0.15595 -0.20394,0.0631 -0.41226,0.12748 -0.60648,0.19061 -0.19423,0.0728 -0.38245,0.12263 -0.57183,0.19061 -0.18937,0.068 -0.36512,0.15519 -0.5545,0.24259 -1.17508,0.53413 -2.317,1.29465 -3.32699,2.30464 -0.068,0.068 -0.1351,0.15243 -0.20794,0.22526 -0.13595,0.13111 -0.25497,0.27992 -0.38121,0.41588 -0.0923,0.11168 -0.17253,0.22241 -0.25993,0.32923 -0.23307,0.31077 -0.43166,0.62495 -0.60648,0.93572 -0.0923,0.14082 -0.17461,0.28753 -0.24259,0.4332 -0.0874,0.18452 -0.1947,0.36513 -0.27725,0.5545 -0.0583,0.14082 -0.11711,0.27992 -0.15596,0.41588 -0.0825,0.21365 -0.15243,0.40739 -0.22526,0.60648 -0.068,0.21851 -0.12958,0.41987 -0.17328,0.62381 -0.0777,0.31562 -0.13929,0.60696 -0.17328,0.88373 -0.0583,0.4613 -0.0943,0.8724 -0.10397,1.17831 l 0,0.34657 c 0,0.16023 0.008,0.35817 0.0173,0.57182 0.01,0.14567 0.006,0.29305 0.0347,0.46786 0.0437,0.45158 0.12881,0.98655 0.25992,1.55953 0.0583,0.19908 0.11777,0.41987 0.19061,0.62381 0.0874,0.26707 0.16833,0.53765 0.29457,0.81442 0.068,0.1651 0.1351,0.3201 0.20794,0.48519 0.0971,0.19423 0.20784,0.39978 0.32923,0.58915 0.0728,0.15053 0.15033,0.26259 0.2426,0.39855 0.0923,0.1311 0.18013,0.2702 0.27725,0.41587 0.10682,0.13111 0.22726,0.27021 0.32923,0.41588 0.21851,0.24764 0.44549,0.50232 0.69313,0.74511 l 0.0693,0.0693 0.052,0.052 0.0866,0.0866 0.17329,0.15596 c 0.14567,0.10197 0.30761,0.23764 0.46785,0.36389 0.14568,0.11168 0.30001,0.23697 0.45053,0.32923 0.13597,0.10197 0.27715,0.19746 0.39855,0.29458 0.13596,0.068 0.25497,0.13996 0.38122,0.20794 0.26706,0.15538 0.53764,0.28962 0.81442,0.41587 0.14081,0.0534 0.25982,0.11016 0.38122,0.17328 0.0826,0.0291 0.14757,0.0624 0.22526,0.0866 0.11168,0.0437 0.23279,0.0998 0.36389,0.13863 0.77207,0.28163 1.57276,0.47813 2.37395,0.62381 0.50986,0.0728 0.97485,0.14414 1.45556,0.17328 0.42245,0.034 0.81966,0.052 1.21297,0.052 0.19423,0 0.39283,-0.0249 0.60648,-0.0347 0.30591,-0.01 0.65609,-0.0305 1.03969,-0.0693 0.25735,-0.0194 0.5127,-0.0603 0.77976,-0.10396 0.11654,-0.01 0.23764,-0.0326 0.36389,-0.052 0.9663,-0.18452 2.07079,-0.45157 3.27501,-0.88373 0.62639,-0.22336 1.29285,-0.49394 1.95808,-0.81442 0.39817,-0.19909 0.80993,-0.40255 1.21296,-0.60649 0.36418,-0.20879 0.70807,-0.43025 1.09167,-0.65846 l 0.38122,-0.20794 c 0.0583,-0.0388 0.1351,-0.0852 0.20794,-0.13862 l 0,5.54499 c -0.10682,0.034 -0.19471,0.0824 -0.27725,0.12129 -0.23308,0.10683 -0.47671,0.22241 -0.6758,0.32924 -0.23793,0.10197 -0.45242,0.19746 -0.67579,0.29457 -0.34476,0.15539 -0.67836,0.2744 -0.93572,0.38122 -0.19908,0.068 -0.36379,0.13234 -0.48518,0.19061 l -0.2426,0.0693 c -0.25735,0.0923 -0.52032,0.18709 -0.79709,0.25993 -0.23793,0.0874 -0.45796,0.1351 -0.71045,0.20793 -0.33991,0.0777 -0.69074,0.17738 -1.07434,0.25992 -0.23308,0.0437 -0.48775,0.10464 -0.74511,0.13863 -0.40302,0.0825 -0.81338,0.13719 -1.26495,0.19061 -0.28649,0.0389 -0.58544,0.0748 -0.90106,0.10397 l -0.15596,0.0173 c -0.7672,0.0631 -1.60455,0.10397 -2.51257,0.10397 l -0.34656,0 c -0.24765,-0.0194 -0.50509,-0.0326 -0.76244,-0.052 -0.49528,-0.0243 -0.97694,-0.0582 -1.43823,-0.1213 -0.47587,-0.0437 -0.94439,-0.12539 -1.38625,-0.20794 -0.53413,-0.11168 -1.07185,-0.24525 -1.57686,-0.38121 -0.29134,-0.0825 -0.55497,-0.15795 -0.83175,-0.25992 -0.27677,-0.0874 -0.55707,-0.19261 -0.81442,-0.29458 -0.68465,-0.28163 -1.32064,-0.58544 -1.88876,-0.90106 -0.27678,-0.16995 -0.55012,-0.34714 -0.83175,-0.50252 -0.23793,-0.15538 -0.45242,-0.30276 -0.67579,-0.46786 -0.17481,-0.1311 -0.34713,-0.2723 -0.50252,-0.39854 -0.17966,-0.13111 -0.34713,-0.28201 -0.50251,-0.39855 -0.22337,-0.20394 -0.41502,-0.39978 -0.62381,-0.58915 l -0.10397,-0.10397 c -0.22822,-0.22337 -0.4573,-0.47043 -0.6758,-0.72778 -0.19423,-0.21366 -0.39701,-0.4254 -0.57183,-0.65847 -0.17966,-0.22336 -0.33256,-0.45795 -0.50251,-0.71045 -0.12625,-0.18452 -0.26258,-0.38245 -0.39855,-0.57183 -0.14081,-0.2525 -0.28267,-0.49052 -0.4332,-0.76244 -0.23308,-0.45158 -0.47185,-0.92561 -0.67579,-1.4209 -0.12625,-0.30591 -0.25221,-0.62771 -0.36389,-0.95305 -0.0874,-0.27677 -0.17738,-0.55497 -0.25993,-0.83174 -0.0437,-0.21851 -0.0998,-0.44482 -0.13862,-0.65847 -0.0194,-0.11168 -0.0326,-0.20023 -0.052,-0.31191 -0.0486,-0.25735 -0.0949,-0.53764 -0.13862,-0.81442 l -0.0173,-0.15595 c -0.0194,-0.23308 -0.0499,-0.47738 -0.0693,-0.71045 -0.01,-0.22822 -0.0173,-0.43787 -0.0173,-0.6758 0,-0.30591 0.0152,-0.61248 0.0347,-0.91839 0.034,-0.39331 0.0603,-0.77738 0.10397,-1.16098 0.16024,-1.1848 0.46338,-2.31281 0.8664,-3.36165 0.33505,-0.84004 0.71702,-1.62826 1.17831,-2.35662 0.0583,-0.1214 0.13301,-0.2425 0.22527,-0.36389 0.11653,-0.18452 0.21822,-0.36237 0.36389,-0.53717 0.1651,-0.22822 0.32076,-0.44482 0.51984,-0.65847 0.15053,-0.20394 0.33047,-0.4074 0.51985,-0.60648 0.14567,-0.2088 0.34503,-0.39703 0.51984,-0.57183 0.21851,-0.18937 0.43025,-0.4074 0.65847,-0.60649 0.25735,-0.20394 0.50298,-0.43719 0.77976,-0.64113 0.13596,-0.10683 0.26258,-0.18014 0.39855,-0.27725 0.16024,-0.1214 0.3298,-0.23974 0.48518,-0.34657 0.28649,-0.18937 0.58268,-0.36236 0.88374,-0.53717 0.33019,-0.18937 0.65056,-0.36236 1.00503,-0.53717 0.39817,-0.19423 0.84803,-0.38245 1.2996,-0.57183 0.86432,-0.33019 1.79507,-0.61809 2.82448,-0.83174 0.15539,-0.034 0.32286,-0.0797 0.50252,-0.10397 0.11168,-0.0291 0.24249,-0.045 0.36389,-0.0693 l 0.27725,-0.052 0.24259,-0.0173 0.20794,-0.0173 c 0.25735,-0.0437 0.50508,-0.0624 0.76243,-0.0866 0.16995,-0.0194 0.34018,-0.0374 0.51985,-0.052 0.30105,-0.0194 0.62286,-0.0423 0.95304,-0.052 z m -111.00378,0.36389 9.49579,0 c 5.09366,0 7.34712,2.66852 7.34712,2.66852 0,0 2.06204,1.79133 2.06204,4.90385 0,3.06882 -1.3991,4.33726 -1.80212,4.73057 -0.83519,0.84004 -1.92342,1.3516 -1.92342,1.3516 0,0 2.41125,0.51487 4.3147,2.4086 2.22877,2.23364 2.06204,5.12912 2.06204,5.12912 0,0 0.16826,2.80246 -2.23533,5.21576 -2.95713,2.95228 -8.31748,2.80715 -8.31748,2.80715 l -11.00334,0 0,-29.21517 z m 49.66232,0 9.47847,0 c 5.09851,0 7.36444,2.66852 7.36444,2.66852 0,0 2.06205,1.79133 2.06205,4.90385 0,3.06882 -1.41367,4.33726 -1.80213,4.73057 -0.84975,0.84004 -1.94074,1.3516 -1.94074,1.3516 0,0 2.41886,0.51487 4.33202,2.4086 2.22878,2.23364 2.06204,5.12912 2.06204,5.12912 0,0 0.18283,2.80246 -2.23532,5.21576 -2.95228,2.95228 -8.31749,2.80715 -8.31749,2.80715 l -11.00334,0 0,-29.21517 z m -44.42924,4.64393 0,7.53772 2.51258,0 c 0,0 0.16756,0.01 0.38121,0 0.17481,0 0.39703,-0.0152 0.57183,-0.0347 0.50985,-0.0291 1.23181,-0.10035 1.94075,-0.29458 0.14567,-0.0437 0.2702,-0.0998 0.41587,-0.13862 0.55356,-0.20394 1.09481,-0.48833 1.50755,-0.90106 0.34475,-0.33019 0.55507,-0.69493 0.71045,-1.03969 0.1748,-0.43216 0.2405,-0.84469 0.25992,-1.12632 0.0243,-0.28649 0.0347,-0.43321 0.0347,-0.43321 l 0,-0.32923 c -0.034,-0.32048 -0.10654,-0.86878 -0.36389,-1.36892 -0.12625,-0.2525 -0.29163,-0.50442 -0.51985,-0.72778 -0.29134,-0.26706 -0.63114,-0.47605 -1.00503,-0.64114 -0.70893,-0.30591 -1.51115,-0.44634 -2.20066,-0.48519 -0.29135,-0.0194 -0.56612,-0.0173 -0.77977,-0.0173 l -3.46562,0 z m 49.66233,0 0,7.53772 2.49524,0 c 0,0 0.17033,0.01 0.39855,0 0.18937,0 0.3776,-0.0152 0.57183,-0.0347 0.50985,-0.0291 1.21933,-0.10035 1.92342,-0.29458 0.14566,-0.0437 0.29448,-0.0998 0.41587,-0.13862 0.56327,-0.20394 1.09271,-0.48833 1.52487,-0.90106 0.32534,-0.33019 0.53013,-0.69493 0.6758,-1.03969 0.18451,-0.43216 0.24811,-0.84469 0.27725,-1.12632 0.01,-0.28649 0.0173,-0.43321 0.0173,-0.43321 -1e-5,0 0,-0.12529 0,-0.32923 -0.01,-0.32048 -0.0844,-0.86878 -0.34656,-1.36892 -0.12626,-0.2525 -0.28953,-0.50442 -0.53717,-0.72778 -0.27678,-0.26706 -0.6062,-0.47605 -0.97038,-0.64114 -0.71379,-0.30591 -1.53543,-0.44634 -2.20067,-0.48519 -0.30591,-0.0194 -0.57373,-0.0173 -0.79709,-0.0173 l -3.44829,0 z m -49.66233,12.11234 0,7.97092 5.1811,0 c 0,0 0.1073,-0.0173 0.27725,-0.0173 0.1651,-0.01 0.42673,-0.0249 0.72778,-0.0347 0.56327,-0.0631 1.29141,-0.17309 2.01006,-0.41588 0.64581,-0.20879 1.27704,-0.54164 1.76747,-1.02236 0.18937,-0.19908 0.34161,-0.39492 0.46786,-0.58915 0.39817,-0.6361 0.49556,-1.27437 0.51984,-1.62884 0.0194,-0.17481 0.0173,-0.27725 0.0173,-0.27725 l 0,-0.17328 c -0.0194,-0.15539 -0.036,-0.45929 -0.10397,-0.77977 -0.0923,-0.37875 -0.2763,-0.81756 -0.60649,-1.23029 -0.0534,-0.0728 -0.1351,-0.1351 -0.20793,-0.20794 -0.14567,-0.14567 -0.29029,-0.29448 -0.45053,-0.41587 -0.29135,-0.20394 -0.61591,-0.38179 -0.97038,-0.53718 -0.471,-0.20394 -0.99626,-0.35617 -1.55952,-0.46785 -0.28649,-0.0534 -0.59516,-0.10188 -0.90107,-0.1213 -0.19908,-0.0291 -0.41225,-0.0326 -0.60648,-0.052 -0.17966,-0.01 -0.37969,0 -0.5545,0 l -5.00782,0 z m 49.66233,0 0,7.97092 5.1811,0 c 0,0 0.10454,-0.0173 0.25992,-0.0173 0.18937,-0.01 0.42187,-0.0249 0.72778,-0.0347 0.5487,-0.0631 1.30388,-0.17309 2.02739,-0.41588 0.64581,-0.20879 1.26456,-0.54164 1.75013,-1.02236 0.18453,-0.19908 0.33191,-0.39492 0.46786,-0.58915 0.39332,-0.6361 0.5129,-1.27437 0.53717,-1.62884 0.01,-0.17481 0,-0.27725 0,-0.27725 0,0 0,-0.0665 0,-0.17328 0,-0.15539 -0.0166,-0.45929 -0.10396,-0.77977 -0.10197,-0.37875 -0.26868,-0.81756 -0.58916,-1.23029 -0.0728,-0.0728 -0.15243,-0.1351 -0.22526,-0.20794 -0.13111,-0.14567 -0.28544,-0.29448 -0.45054,-0.41587 -0.28648,-0.20394 -0.60828,-0.38179 -0.95304,-0.53718 -0.46129,-0.20394 -0.98932,-0.35617 -1.57686,-0.46785 -0.27677,-0.0534 -0.59029,-0.10188 -0.90106,-0.1213 -0.2088,-0.0291 -0.39769,-0.0326 -0.60648,-0.052 -0.17966,-0.01 -0.35541,0 -0.5545,0 l -4.99049,0 z m 60.9949,27.72495 c -10.87198,-0.005 -17.98657,7.91779 -17.98657,17.2068 0,9.09477 6.92808,17.2068 17.8826,17.2068 11.35269,0 18.14252,-8.16544 18.14252,-17.2068 0,-9.33756 -6.9772,-17.2068 -18.03855,-17.2068 z m -87.16033,0.25992 -14.29568,33.46056 c -2.14622,-2.95162 -3.02906,-4.15944 -4.41866,-6.39407 -2.55412,-4.18078 -4.4114,-7.26788 -7.45109,-9.28786 3.57868,-1.42273 5.59698,-4.32894 5.59698,-8.21352 0,-5.80259 -4.21989,-9.39183 -11.00334,-9.39183 l -8.45611,0 0,33.52987 4.81721,0 0,-14.5556 2.01006,0 c 2.47156,0 4.45879,0.79578 8.90664,7.67635 l 4.41866,6.87925 5.75293,0 4.6266,0 4.24539,-9.87702 14.24369,0 4.48798,9.87702 4.90385,0 -14.9888,-33.70315 -3.39631,0 z m 22.37057,0.17328 0,33.5472 13.08272,0 c 11.0662,0 17.79595,-8.15954 17.79595,-16.7736 0,-7.90026 -5.44851,-16.7736 -17.83061,-16.7736 l -13.04806,0 z m 36.42366,0 0,33.52987 4.81721,0 0,-33.52987 -4.81721,0 z m 28.38343,4.00279 c 7.51665,0 13.06538,5.39982 13.06538,12.77081 0,7.32243 -5.54872,12.78814 -13.06538,12.78814 -7.48269,0 -13.04806,-5.47056 -13.04806,-12.78814 0,-7.37099 5.57024,-12.77081 13.04806,-12.77081 z m -122.38835,0.13863 3.10173,0 c 4.66149,0 6.54583,1.91329 6.58467,5.0598 0.0388,2.81147 -1.43275,5.45835 -6.58467,5.45835 l -3.10173,0 0,-10.51815 z m 62.4158,0.19061 7.3991,0 c 9.4007,0 13.67187,5.71639 13.67187,12.44157 0,4.14194 -2.50323,12.44157 -13.39462,12.44157 l -7.67635,0 0,-24.88314 z m -25.57627,2.85913 5.40637,12.12967 -10.43152,0 5.02515,-12.12967 z"
         inkscape:connector-curvature="0" />
      <path
         style="fill:#4d4d4d"
         id="path376"
         d="m 448.48493,651.77726 c -58.69118,0 -106.25589,47.59728 -106.25589,106.30787 -10e-6,58.71059 47.56472,106.29055 106.25589,106.29055 58.6766,0 106.23856,-47.57995 106.23856,-106.29055 0,-58.71059 -47.56195,-106.30787 -106.23856,-106.30787 z m 11.12464,30.79203 24.98711,0 -0.0519,85.87805 21.60813,-0.052 -0.0173,31.91835 -21.60813,0 0.0693,27.3784 -38.7283,0.0346 -0.052,-24.62325 c 10e-6,0 -0.039,-2.7128 -3.29234,-2.82448 l -55.36327,0.0347 0.0173,-22.71714 c 0.01,-3.31161 1.64529,-8.18369 3.62157,-10.83006 l 59.19278,-79.39734 c 1.986,-2.65123 6.30549,-4.80959 9.6171,-4.79988 z m -10.4835,61.87863 c -8.40527,0.17966 -15.0964,7.15537 -14.90217,15.56063 0.18453,7.2933 5.6426,13.27855 12.77081,14.5556 l 5.47568,0.97038 c -1.4276,9.68717 -5.03877,16.95043 -13.18668,22.9424 10.9788,-4.87516 19.39953,-15.39028 23.28896,-26.52932 3.8943,-11.1536 1.67899,-27.8056 -13.4466,-27.49969 z"
         inkscape:connector-curvature="0" />
    </g>
  </g>
</svg>
