<?xml version="1.0" encoding="UTF-8" standalone="no"?>
<!-- Created with Inkscape (http://www.inkscape.org/) -->

<svg
   xmlns:dc="http://purl.org/dc/elements/1.1/"
   xmlns:cc="http://creativecommons.org/ns#"
   xmlns:rdf="http://www.w3.org/1999/02/22-rdf-syntax-ns#"
   xmlns:svg="http://www.w3.org/2000/svg"
   xmlns="http://www.w3.org/2000/svg"
   xmlns:sodipodi="http://sodipodi.sourceforge.net/DTD/sodipodi-0.dtd"
   xmlns:inkscape="http://www.inkscape.org/namespaces/inkscape"
   width="744.09448819"
   height="1052.3622047"
   id="svg3782"
   version="1.1"
   inkscape:version="0.48.4 r9939"
   inkscape:export-filename="/home/josh/PycharmProjects/savings_champion/savings_champion/resources/img/press/bbc_radio_5_live.png"
   inkscape:export-xdpi="208.50133"
   inkscape:export-ydpi="208.50133"
   sodipodi:docname="bbc_radio_5_live.svg">
  <defs
     id="defs3784">
    <inkscape:perspective
       sodipodi:type="inkscape:persp3d"
       inkscape:vp_x="0 : 11 : 1"
       inkscape:vp_y="0 : 1000 : 0"
       inkscape:vp_z="39 : 11 : 1"
       inkscape:persp3d-origin="19.5 : 7.3333333 : 1"
       id="perspective2908" />
    <inkscape:perspective
       sodipodi:type="inkscape:persp3d"
       inkscape:vp_x="0 : 0.5 : 1"
       inkscape:vp_y="0 : 1000 : 0"
       inkscape:vp_z="1 : 0.5 : 1"
       inkscape:persp3d-origin="0.5 : 0.33333333 : 1"
       id="perspective2824" />
    <inkscape:perspective
       id="perspective10"
       inkscape:persp3d-origin="372.04724 : 350.78739 : 1"
       inkscape:vp_z="744.09448 : 526.18109 : 1"
       inkscape:vp_y="0 : 1000 : 0"
       inkscape:vp_x="0 : 526.18109 : 1"
       sodipodi:type="inkscape:persp3d" />
  </defs>
  <sodipodi:namedview
     id="base"
     pagecolor="#ffffff"
     bordercolor="#666666"
     borderopacity="1.0"
     inkscape:pageopacity="0.0"
     inkscape:pageshadow="2"
     inkscape:zoom="1.979899"
     inkscape:cx="433.23526"
     inkscape:cy="487.55091"
     inkscape:document-units="px"
     inkscape:current-layer="layer1"
     showgrid="false"
     inkscape:window-width="1920"
     inkscape:window-height="1056"
     inkscape:window-x="1920"
     inkscape:window-y="24"
     inkscape:window-maximized="1" />
  <metadata
     id="metadata3787">
    <rdf:RDF>
      <cc:Work
         rdf:about="">
        <dc:format>image/svg+xml</dc:format>
        <dc:type
           rdf:resource="http://purl.org/dc/dcmitype/StillImage" />
        <dc:title></dc:title>
      </cc:Work>
    </rdf:RDF>
  </metadata>
  <g
     inkscape:label="Layer 1"
     inkscape:groupmode="layer"
     id="layer1">
    <rect
       style="fill:none;stroke:#4d4d4d;stroke-width:2;stroke-miterlimit:4;stroke-opacity:1;stroke-dasharray:none"
       id="rect3790"
       width="358.57144"
       height="175.71428"
       x="143.17825"
       y="438.54935"
       ry="28.571428"
       inkscape:export-filename="/home/josh/PycharmProjects/savings_champion/savings_champion/resources/img/press/bbc_radio_4.png"
       inkscape:export-xdpi="208.50133"
       inkscape:export-ydpi="208.50133" />
    <g
       display="none"
       id="_x32_px_Stroke"
       style="display:none"
       transform="matrix(1.7603128,0,0,1.7603128,145.81066,350.99683)">
      <path
         id="path5770"
         d="M 198,2 V 198 H 2 V 2 h 196 m 2,-2 H 0 V 200 H 200 V 0 l 0,0 z"
         display="inline"
         inkscape:connector-curvature="0"
         style="fill:#a9a9a9;display:inline" />
    </g>
    <g
       id="g5772"
       transform="matrix(1.7603128,0,0,1.7603128,145.81066,350.99683)">
      <g
         id="g5774" />
      <g
         id="g5776" />
    </g>
    <g
       id="Guides"
       transform="matrix(1.7603128,0,0,1.7603128,145.81066,350.99683)" />
    <g
       transform="matrix(9.6289936,0,0,9.6289936,860.45814,525.71028)"
       id="g3034" />
    <g
       id="g3951"
       transform="translate(-8.964601,0.47287151)">
      <rect
         width="61.332424"
         height="79.869469"
         x="309.11591"
         y="486.82095"
         id="rect4399"
         style="fill:none;stroke:none;marker:none;visibility:visible;display:inline;overflow:visible" />
      <path
         inkscape:connector-curvature="0"
         d="m 195.94799,474.95669 0,20.73259 22.04233,0 0,-20.73259 -22.04233,0 z m 25.39661,0 0,20.73259 22.02638,0 0,-20.73259 -22.02638,0 z m 25.38065,0 0,20.73259 22.02638,0 0,-20.73259 -22.02638,0 z m 11.97953,2.69939 c 0.19712,0 0.39469,0.022 0.60697,0.0319 0.1162,0.0124 0.25114,0.0121 0.36738,0.0319 0.1769,0.0105 0.3418,0.028 0.51112,0.0479 l 0.11187,0.0159 c 0.10109,0.0225 0.20999,0.028 0.30348,0.0479 0.11877,0.0174 0.2217,0.0549 0.33543,0.0799 0.11619,0.02 0.22423,0.0414 0.33542,0.0639 0.0708,0.0199 0.147,0.0304 0.20765,0.0479 0.10355,0.0275 0.19734,0.0524 0.30348,0.0799 0.0784,0.0249 0.1747,0.0575 0.25556,0.0798 l 0.0639,0.0159 c 0.091,0.0225 0.16964,0.044 0.25557,0.0639 0.11373,0.0324 0.22928,0.0744 0.33542,0.11187 0.0935,0.0324 0.18309,0.0684 0.27154,0.0958 0.11117,0.0374 0.20745,0.0744 0.30348,0.11186 0.18195,0.0599 0.34524,0.11234 0.47918,0.15973 0.2982,0.11974 0.4632,0.19167 0.46322,0.19167 l 0,2.77926 -0.28752,-0.15973 c -0.1087,-0.0549 -0.22919,-0.12534 -0.38334,-0.20764 -0.0885,-0.0425 -0.18391,-0.1073 -0.28751,-0.15974 -0.12383,-0.0549 -0.24688,-0.11584 -0.38335,-0.17569 -0.16678,-0.0699 -0.34515,-0.14131 -0.5271,-0.22363 -0.13393,-0.0474 -0.26537,-0.1073 -0.39931,-0.15972 0,0 -0.10146,-0.0384 -0.25557,-0.0958 -0.0909,-0.0249 -0.19895,-0.0485 -0.33542,-0.0958 -0.0909,-0.0249 -0.19734,-0.0574 -0.30348,-0.0799 -0.17185,-0.0423 -0.35688,-0.0963 -0.55906,-0.14375 -0.1314,-0.0199 -0.27123,-0.0365 -0.41529,-0.0639 -0.16173,-0.0225 -0.33928,-0.0439 -0.51112,-0.0639 -0.0961,-0.0105 -0.18643,-0.0195 -0.2875,-0.0319 -0.14153,-0.005 -0.27126,0 -0.41529,0 -0.0708,-0.005 -0.13437,-0.0159 -0.20765,-0.0159 -0.19207,0 -0.39722,0.0145 -0.60696,0.0319 -0.11116,0.0105 -0.21333,0.022 -0.31946,0.0319 -0.11374,0.0225 -0.22929,0.028 -0.33543,0.0478 -0.0961,0.0199 -0.18895,0.0414 -0.28751,0.0639 -0.1011,0.0249 -0.20745,0.0524 -0.30348,0.0798 -0.10871,0.0324 -0.2209,0.0584 -0.31945,0.0958 -0.1011,0.0324 -0.18895,0.0769 -0.28751,0.11186 -0.0935,0.0424 -0.19148,0.0644 -0.28751,0.11187 -0.59892,0.27189 -1.1885,0.66813 -1.70908,1.18198 -0.0353,0.0374 -0.0579,0.0819 -0.0958,0.11187 -0.0658,0.0723 -0.13103,0.14029 -0.19168,0.20763 -0.0455,0.0599 -0.0848,0.12083 -0.12777,0.17571 -0.1162,0.15715 -0.22848,0.31954 -0.31946,0.47918 -0.0429,0.0648 -0.0899,0.14629 -0.12778,0.22362 -0.0505,0.0923 -0.0848,0.19022 -0.12778,0.2875 -0.0353,0.0648 -0.0756,0.1403 -0.0958,0.20766 -0.0455,0.10975 -0.0764,0.2012 -0.11186,0.30348 -0.0329,0.1073 -0.0571,0.22567 -0.0798,0.33542 -0.0405,0.15965 -0.0756,0.30256 -0.0958,0.44724 -0.0329,0.23198 -0.0429,0.42885 -0.0479,0.59099 l 0,0.17569 c 0,0.0823 -0.005,0.17277 0,0.28752 0.005,0.0748 0.004,0.16826 0.0159,0.25557 0.0253,0.22948 0.0755,0.51176 0.14375,0.79863 0.0329,0.10473 0.0445,0.2062 0.0798,0.30347 0.048,0.13969 0.0991,0.28309 0.15973,0.41529 0.0353,0.0823 0.079,0.18924 0.11187,0.27154 0.0556,0.0972 0.10414,0.19023 0.15972,0.28752 0.0405,0.0674 0.0798,0.14279 0.12779,0.20764 0.0429,0.0723 0.0957,0.13531 0.14375,0.20765 0.0581,0.0648 0.1066,0.1403 0.15972,0.20764 0.11116,0.12472 0.24102,0.25863 0.36738,0.38334 l 0.0319,0.0319 0.0319,0.0319 0.0479,0.0479 0.0799,0.0799 c 0.0708,0.0549 0.15873,0.11327 0.2396,0.1757 0.0758,0.0599 0.14528,0.12331 0.22362,0.17569 0.0682,0.0524 0.14193,0.10133 0.20764,0.14376 0.0708,0.0424 0.12849,0.0769 0.19168,0.11187 0.13646,0.0773 0.27377,0.14528 0.41529,0.20765 0.0658,0.03 0.13102,0.0634 0.19167,0.0958 0.0429,0.015 0.0874,0.0379 0.12778,0.0479 0.0606,0.0249 0.11256,0.0464 0.1757,0.0639 0.39423,0.15216 0.80705,0.2521 1.21393,0.31946 0.26029,0.0324 0.50306,0.0599 0.75072,0.0798 0.21227,0.015 0.42328,0.0319 0.62293,0.0319 0.0985,0 0.18976,-0.0105 0.30348,-0.0159 0.15921,-0.005 0.33252,-0.017 0.5271,-0.0319 0.13142,-0.015 0.2578,-0.044 0.39932,-0.0639 0.0581,-0.005 0.11502,-0.0105 0.1757,-0.0159 0.50036,-0.0972 1.07396,-0.24121 1.69311,-0.46321 0.32094,-0.11479 0.66007,-0.24568 1.00628,-0.41529 0.19964,-0.0972 0.40732,-0.19871 0.60697,-0.30348 0.18699,-0.10976 0.36446,-0.21071 0.55904,-0.33543 l 0.19167,-0.11186 c 0.0329,-0.015 0.0764,-0.0414 0.11187,-0.0639 l 0,2.82717 c -0.0505,0.015 -0.10075,0.0414 -0.14376,0.0639 -0.11877,0.0498 -0.23433,0.10987 -0.33542,0.15972 -0.12131,0.0599 -0.24022,0.10988 -0.3514,0.15973 -0.18196,0.0773 -0.34525,0.13928 -0.47918,0.19167 -0.0961,0.0425 -0.17642,0.0734 -0.2396,0.0958 l -0.12778,0.0319 c -0.13394,0.0474 -0.25779,0.10133 -0.39931,0.14376 -0.11877,0.0424 -0.25447,0.0634 -0.38335,0.0958 -0.16932,0.0474 -0.3485,0.10133 -0.54308,0.14375 -0.12382,0.0199 -0.23848,0.0414 -0.36736,0.0639 -0.20723,0.0399 -0.42239,0.0709 -0.65489,0.0958 -0.1491,0.0199 -0.30147,0.0464 -0.4632,0.0639 l -0.0639,0 c -0.39676,0.0324 -0.83133,0.0479 -1.29379,0.0479 l -0.17571,0 c -0.12382,-0.0105 -0.25447,-0.0105 -0.38334,-0.0159 -0.25524,-0.015 -0.51065,-0.0315 -0.75072,-0.0639 -0.24007,-0.0275 -0.47788,-0.0535 -0.7028,-0.0958 -0.27546,-0.0599 -0.54086,-0.13781 -0.79863,-0.20765 -0.1491,-0.0424 -0.28721,-0.0754 -0.43126,-0.12778 -0.139,-0.0524 -0.27044,-0.0889 -0.39932,-0.14376 -0.35633,-0.14468 -0.68373,-0.31953 -0.97435,-0.47918 -0.14909,-0.0824 -0.2763,-0.17076 -0.41529,-0.25556 -0.12635,-0.0798 -0.23767,-0.1413 -0.3514,-0.22362 -0.0885,-0.0648 -0.18813,-0.1403 -0.27153,-0.20764 -0.0909,-0.0699 -0.17721,-0.14279 -0.25556,-0.20765 -0.11878,-0.0972 -0.2209,-0.2002 -0.31946,-0.28751 l -0.0479,-0.0639 c -0.11619,-0.10976 -0.23515,-0.23268 -0.3514,-0.36738 -0.0961,-0.11479 -0.19905,-0.23166 -0.2875,-0.3514 -0.0885,-0.11221 -0.18815,-0.22168 -0.27154,-0.35139 -0.0658,-0.0923 -0.12849,-0.18275 -0.19167,-0.28751 -0.0733,-0.12722 -0.14528,-0.26213 -0.22362,-0.39932 -0.11878,-0.22948 -0.24526,-0.46683 -0.3514,-0.71877 -0.0632,-0.15964 -0.12263,-0.33302 -0.1757,-0.49516 -0.0505,-0.14717 -0.0848,-0.28658 -0.12779,-0.43126 -0.0227,-0.10976 -0.0571,-0.2097 -0.0798,-0.31945 -0.0105,-0.0549 -0.0218,-0.12082 -0.0319,-0.1757 -0.0253,-0.1322 -0.0462,-0.25464 -0.0639,-0.39932 l -0.0159,-0.0958 c -0.0105,-0.11973 -0.0193,-0.23166 -0.0319,-0.35139 0,-0.11974 0,-0.23168 0,-0.3514 0,-0.15466 0.004,-0.31105 0.0159,-0.46321 0.0126,-0.19955 0.0252,-0.39643 0.0479,-0.591 0.0809,-0.60864 0.22657,-1.18874 0.43126,-1.72505 0.16932,-0.42156 0.37448,-0.82878 0.60696,-1.19795 0.0329,-0.0674 0.0663,-0.13181 0.11186,-0.19167 0.0606,-0.0972 0.12091,-0.18424 0.19167,-0.27154 0.0834,-0.11723 0.17045,-0.22816 0.27154,-0.33543 0.0783,-0.10976 0.16205,-0.21719 0.25556,-0.31946 0.0784,-0.10472 0.17804,-0.18422 0.27154,-0.27152 0.10613,-0.10227 0.22423,-0.21719 0.33543,-0.31946 0.13394,-0.11479 0.26032,-0.23316 0.39932,-0.33543 0.0658,-0.0549 0.14446,-0.0963 0.20763,-0.14375 0.0834,-0.0624 0.15621,-0.11584 0.2396,-0.17571 0.14657,-0.0923 0.30653,-0.17674 0.46321,-0.27153 0.16426,-0.0923 0.31825,-0.18672 0.49515,-0.27154 0.20723,-0.10472 0.44089,-0.19272 0.67086,-0.28751 0.44476,-0.17211 0.9304,-0.31901 1.45352,-0.43126 0.0809,-0.0174 0.16458,-0.0379 0.25556,-0.0479 0.0606,-0.0174 0.12849,-0.022 0.19168,-0.0319 l 0.14375,-0.0319 0.11186,-0.0159 0.11186,-0.0159 c 0.12888,-0.0199 0.24688,-0.022 0.38335,-0.0319 0.0859,-0.0105 0.17804,-0.0319 0.27153,-0.0319 0.15668,-0.0125 0.32584,-0.0105 0.49515,-0.0159 0.0885,0 0.13265,-0.0159 0.22362,-0.0159 z m -56.97467,0.20764 4.8557,0 c 2.60545,0 3.75359,1.35768 3.75359,1.35768 0,0 1.05419,0.91628 1.05419,2.50771 0,1.56651 -0.71079,2.20984 -0.91044,2.41188 -0.4296,0.42905 -0.9903,0.68683 -0.9903,0.68683 0,0 1.22877,0.25957 2.20423,1.2299 1.14225,1.13995 1.0542,2.63551 1.0542,2.63551 0,0 0.0967,1.42171 -1.13406,2.65146 -1.51121,1.50914 -4.26471,1.45351 -4.26473,1.45352 l -5.62238,0 0,-14.93449 z m 25.38064,0 4.85571,0 c 2.60543,0 3.76956,1.35768 3.76956,1.35768 0,0 1.05419,0.91628 1.05419,2.50771 0,1.56651 -0.72677,2.20984 -0.92641,2.41188 -0.43466,0.42905 -0.99031,0.68683 -0.99031,0.68683 0,0 1.24475,0.25957 2.22021,1.2299 1.13973,1.13995 1.0542,2.63551 1.0542,2.63551 0,0 0.0806,1.42171 -1.15004,2.65146 -1.51373,1.50914 -4.26471,1.45351 -4.26471,1.45352 l -5.6224,0 0,-14.93449 z m -22.69723,2.34799 0,3.86539 1.27781,0 c 1e-5,0 0.0805,0 0.19168,0 0.0885,-0.005 0.194,-0.004 0.28751,-0.0159 0.26282,-0.02 0.6449,-0.044 1.00628,-0.14375 0.0708,-0.0225 0.13689,-0.0575 0.20765,-0.0798 0.28303,-0.10473 0.55441,-0.25369 0.76668,-0.46321 0.16679,-0.16713 0.27306,-0.34751 0.3514,-0.52711 0.091,-0.217 0.13113,-0.43283 0.14376,-0.57501 0.0126,-0.13969 0.0159,-0.22363 0.0159,-0.22363 l 0,-0.15972 c -0.0177,-0.16962 -0.0443,-0.45187 -0.1757,-0.71877 -0.0632,-0.12472 -0.16287,-0.23915 -0.27154,-0.3514 -0.14909,-0.14717 -0.31906,-0.2581 -0.51112,-0.33542 -0.36137,-0.15964 -0.78027,-0.23313 -1.13407,-0.25557 -0.14657,-0.0105 -0.28812,-0.0159 -0.39931,-0.0159 l -1.757,0 z m 25.38064,0 0,3.86539 1.27782,0 c 1e-5,0 0.0805,0 0.19168,0 0.0961,-0.005 0.19653,-0.004 0.28751,-0.0159 0.26282,-0.02 0.64238,-0.044 1.00628,-0.14375 0.0758,-0.0225 0.14699,-0.0575 0.20765,-0.0798 0.28808,-0.10473 0.56279,-0.25369 0.78266,-0.46321 0.16678,-0.16713 0.26213,-0.34751 0.33542,-0.52711 0.0935,-0.217 0.13112,-0.43283 0.14376,-0.57501 0.007,-0.13969 0.0159,-0.22363 0.0159,-0.22363 0,0 -0.0134,-0.0625 -0.0159,-0.15972 -0.005,-0.16962 -0.0392,-0.45187 -0.17571,-0.71877 -0.0606,-0.12472 -0.15023,-0.23915 -0.27152,-0.3514 -0.14152,-0.14717 -0.31069,-0.2581 -0.49517,-0.33542 -0.36137,-0.15964 -0.77693,-0.23313 -1.11808,-0.25557 -0.15922,-0.0105 -0.29905,-0.0159 -0.41529,-0.0159 l -1.75701,0 z m -25.38064,6.19741 0,4.07305 2.6355,0 c -1e-5,0 0.0578,0 0.14375,0 0.0885,-0.005 0.21575,-0.006 0.36738,-0.0159 0.28808,-0.0324 0.66926,-0.083 1.03822,-0.20764 0.33105,-0.10975 0.64429,-0.27766 0.89448,-0.5271 0.0961,-0.0923 0.17388,-0.19872 0.23958,-0.30349 0.20723,-0.31928 0.26143,-0.641 0.27154,-0.83058 0.0126,-0.0873 0.0159,-0.14375 0.0159,-0.14375 l 0,-0.0958 c -0.0126,-0.0749 -0.026,-0.23469 -0.0639,-0.39932 -0.0505,-0.19457 -0.15268,-0.41092 -0.31946,-0.62294 -0.0279,-0.0374 -0.0605,-0.0584 -0.0958,-0.0958 -0.0783,-0.0723 -0.15873,-0.15876 -0.2396,-0.22361 -0.1491,-0.10473 -0.30735,-0.19422 -0.47918,-0.27154 -0.24513,-0.10473 -0.52147,-0.18221 -0.81461,-0.23959 -0.14404,-0.0275 -0.304,-0.0405 -0.4632,-0.0479 -0.1011,-0.0174 -0.20241,-0.0269 -0.30349,-0.0319 -0.0935,-0.005 -0.17803,-0.0159 -0.27154,-0.0159 l -2.55563,0 z m 25.38064,0 0,4.07305 2.63551,0 c 0,0 0.0604,0 0.14375,0 0.0885,-0.005 0.20816,-0.006 0.36737,-0.0159 0.28052,-0.0324 0.6718,-0.083 1.03823,-0.20764 0.33105,-0.10975 0.64429,-0.27766 0.89447,-0.5271 0.0935,-0.0923 0.17389,-0.19872 0.23959,-0.30349 0.20469,-0.31928 0.26143,-0.641 0.27154,-0.83058 0.005,-0.0873 0,-0.14375 0,-0.14375 0,0 0.002,-0.0385 0,-0.0958 0,-0.0749 -0.0105,-0.23469 -0.0479,-0.39932 -0.053,-0.19457 -0.13417,-0.41092 -0.30348,-0.62294 -0.0353,-0.0374 -0.0764,-0.0584 -0.11187,-0.0958 -0.0708,-0.0723 -0.15367,-0.15876 -0.23958,-0.22361 -0.14659,-0.10473 -0.29977,-0.19422 -0.47919,-0.27154 -0.23755,-0.10473 -0.51894,-0.18221 -0.81461,-0.23959 -0.14152,-0.0275 -0.304,-0.0405 -0.46321,-0.0479 -0.1011,-0.0174 -0.19987,-0.0269 -0.30348,-0.0319 -0.0961,-0.005 -0.17804,-0.0159 -0.27153,-0.0159 l -2.55563,0 z m 31.17876,14.18378 c -5.55206,-0.002 -9.2003,4.05406 -9.2003,8.80096 0,4.64713 3.55232,8.785 9.15238,8.785 5.80474,0 9.26417,-4.16283 9.26417,-8.785 1e-5,-4.77183 -3.5606,-8.80096 -9.21625,-8.80096 z m -44.54791,0.12778 -7.33148,17.10678 c -1.08962,-1.50358 -1.52886,-2.13084 -2.23619,-3.27441 -1.30398,-2.13025 -2.25825,-3.7162 -3.81747,-4.7439 1.83468,-0.73086 2.85911,-2.21276 2.85911,-4.20082 0,-2.96339 -2.15521,-4.79182 -5.6224,-4.79182 l -4.32859,0 0,17.13873 2.45979,0 0,-7.44329 1.03822,0 c 1.26357,0 2.28542,0.40116 4.55223,3.91331 l 2.26813,3.52998 2.923,0 2.37994,0 2.15631,-5.04738 7.28356,0 2.30007,5.04738 2.50773,0 -7.66691,-17.23456 -1.72505,0 z m 11.43646,0.0958 0,17.13873 6.67659,0 c 5.65566,0 9.10445,-4.18217 9.10445,-8.57735 0,-4.04597 -2.79003,-8.56138 -9.12042,-8.56138 l -6.66062,0 z m 18.60821,0 0,17.13873 2.4598,0 0,-17.13873 -2.4598,0 z m 14.50324,2.04451 c 3.84624,0 6.67659,2.75878 6.67659,6.53284 0,3.74165 -2.83035,6.53284 -6.67659,6.53284 -3.81846,0 -6.66064,-2.79119 -6.66064,-6.53284 2e-5,-3.77406 2.84218,-6.53284 6.66064,-6.53284 z m -62.56514,0.0639 1.59726,0 c 2.38307,10e-6 3.32901,0.97867 3.35428,2.58759 0.0227,1.43428 -0.7185,2.79522 -3.35428,2.79522 l -1.59726,0 0,-5.38281 z m 31.91349,0.11186 3.78553,0 c 4.80402,-10e-6 6.99605,2.90984 6.99605,6.35714 0,2.11029 -1.2775,6.35714 -6.8523,6.35714 l -3.92928,0 0,-12.71428 z m -13.08165,1.45351 2.76327,6.19742 -5.31892,0 2.55565,-6.19742 z"
         id="path476"
         style="fill:#4d4d4d;fill-opacity:1;fill-rule:evenodd" />
      <path
         inkscape:connector-curvature="0"
         d="m 339.2552,471.60242 c -29.99418,0 -54.30724,24.3362 -54.30724,54.33918 0,30.01295 24.31306,54.32321 54.30724,54.32321 29.99923,0 54.30723,-24.31026 54.30723,-54.32321 2e-5,-30.00298 -24.308,-54.33918 -54.30723,-54.33918 z m -18.83184,17.77763 46.27296,0 -3.19453,16.13245 -29.18216,0 c 0,0 -1.38918,6.3121 -2.02854,9.91905 2.90618,-1.5241 6.219,-2.25216 10.11073,-2.25216 13.75249,0 23.35211,10.48349 23.35211,25.49246 0,7.26627 -2.83693,14.04218 -8.00232,19.10338 -5.26902,5.15098 -12.248,7.91139 -19.6145,7.74677 -12.42829,0 -25.02976,-6.18213 -27.2814,-19.8541 l 19.79019,0 c 1.53901,2.30735 4.0718,3.67373 7.18773,3.67373 6.05494,0 9.3121,-5.50133 9.3121,-10.66978 0,-5.11358 -2.87557,-10.27045 -9.3121,-10.27045 -3.84625,-10e-6 -5.97392,1.11784 -8.41763,4.44042 l -0.57501,0.78265 -17.33041,0 8.91278,-44.24442 z m 80.43861,16.21231 -4.82376,36.59349 6.85229,0 4.82377,-36.59349 -6.8523,0 z m 11.32466,0 -0.73475,4.96751 6.86827,0 0.73475,-4.96751 -6.86827,0 z m 44.46804,8.51346 c -5.55708,0 -11.98855,3.71964 -13.35319,14.18376 -0.63936,4.84418 0.12767,8.54969 2.26812,10.98923 1.85995,2.12775 4.75929,3.24246 8.38568,3.24246 4.01808,0 7.68122,-1.54139 10.58991,-4.47236 l 0.55904,-0.57501 -4.48833,-4.31264 -0.55904,0.47919 c -1.5845,1.43928 -3.70028,2.34798 -5.54254,2.34798 -1.6325,0 -2.91802,-0.49513 -3.72164,-1.40559 -0.652,-0.74583 -0.9903,-1.7981 -0.9903,-3.08274 -2e-5,-0.13968 0.0219,-0.2731 0.0319,-0.41529 l 16.30815,0 0.65487,-5.0314 c 0.0809,-0.59617 0.11186,-1.18079 0.11186,-1.757 -0.002,-2.66155 -0.83496,-5.05132 -2.41188,-6.8523 -1.89279,-2.15019 -4.67108,-3.33829 -7.8426,-3.33829 z m -45.60211,0.30347 -3.62581,27.79253 6.8523,0 3.64178,-27.79253 -6.86827,0 z m 9.13639,0 6.54882,27.79253 5.46267,0 13.83238,-27.79253 -7.34745,0 c 0,0 -6.35921,13.64137 -7.84262,16.81928 -0.68483,-3.38494 -3.43413,-16.81928 -3.43413,-16.81928 l -7.21967,0 z m 35.81084,6.22937 c 1.24839,0 2.27516,0.4042 2.95495,1.15004 0.68992,0.75331 1.03823,1.86654 1.03823,3.25842 -1e-5,0.0349 0,0.0854 0,0.12779 l -9.34404,0 c 0.74802,-2.81621 2.72519,-4.53625 5.35086,-4.53625 z"
         id="path500"
         style="fill:#4d4d4d" />
    </g>
  </g>
</svg>
