<?xml version="1.0" encoding="UTF-8" standalone="no"?>
<!-- Created with Inkscape (http://www.inkscape.org/) -->

<svg
   xmlns:dc="http://purl.org/dc/elements/1.1/"
   xmlns:cc="http://creativecommons.org/ns#"
   xmlns:rdf="http://www.w3.org/1999/02/22-rdf-syntax-ns#"
   xmlns:svg="http://www.w3.org/2000/svg"
   xmlns="http://www.w3.org/2000/svg"
   xmlns:sodipodi="http://sodipodi.sourceforge.net/DTD/sodipodi-0.dtd"
   xmlns:inkscape="http://www.inkscape.org/namespaces/inkscape"
   width="744.09448819"
   height="1052.3622047"
   id="svg3782"
   version="1.1"
   inkscape:version="0.48.4 r9939"
   inkscape:export-filename="/home/josh/PycharmProjects/savings_champion/savings_champion/resources/img/press/daily_mail.png"
   inkscape:export-xdpi="208.50133"
   inkscape:export-ydpi="208.50133"
   sodipodi:docname="daily_mail.svg">
  <defs
     id="defs3784" />
  <sodipodi:namedview
     id="base"
     pagecolor="#ffffff"
     bordercolor="#666666"
     borderopacity="1.0"
     inkscape:pageopacity="0.0"
     inkscape:pageshadow="2"
     inkscape:zoom="2.8"
     inkscape:cx="307.36604"
     inkscape:cy="552.34895"
     inkscape:document-units="px"
     inkscape:current-layer="layer1"
     showgrid="false"
     inkscape:window-width="1920"
     inkscape:window-height="1056"
     inkscape:window-x="0"
     inkscape:window-y="24"
     inkscape:window-maximized="1" />
  <metadata
     id="metadata3787">
    <rdf:RDF>
      <cc:Work
         rdf:about="">
        <dc:format>image/svg+xml</dc:format>
        <dc:type
           rdf:resource="http://purl.org/dc/dcmitype/StillImage" />
        <dc:title></dc:title>
      </cc:Work>
    </rdf:RDF>
  </metadata>
  <g
     inkscape:label="Layer 1"
     inkscape:groupmode="layer"
     id="layer1">
    <rect
       style="fill:none;stroke:#4d4d4d;stroke-width:2;stroke-miterlimit:4;stroke-opacity:1;stroke-dasharray:none"
       id="rect3790"
       width="358.57144"
       height="175.71428"
       x="143.17825"
       y="438.54935"
       ry="28.571428" />
    <path
       style="fill:#4d4d4d"
       d="m 285.02429,553.02139 c -1.17787,-0.41402 -1.24338,-0.72424 -0.17502,-0.82896 3.43573,-0.33677 4.43225,-0.74257 5.1239,-2.08658 0.99848,-1.94022 0.43,-3.07728 -1.53697,-3.07418 -1.68988,0.002 -3.34071,0.58174 -5.8872,2.06508 -0.89624,0.52205 -2.76258,1.14883 -4.4823,1.50529 -1.67518,0.34724 -5.12964,0.31679 -6.76485,-0.0597 -4.99876,-1.15066 -7.81934,-3.81637 -7.81934,-7.38997 0,-3.00216 1.03988,-5.7248 2.9136,-7.62844 l 0.85761,-0.8713 -0.0953,-8.99182 c -0.0856,-8.07267 -0.11759,-9.01072 -0.31346,-9.17677 -0.11991,-0.10175 -0.66968,-0.38003 -1.22162,-0.61845 -1.73283,-0.74858 -2.49486,-1.39149 -2.14664,-1.81108 0.0987,-0.11888 1.68501,-1.21435 3.52529,-2.43446 l 3.346,-2.2184 0.41402,0.2103 c 0.22772,0.11565 0.77529,0.41182 1.21684,0.65812 0.44154,0.2463 1.52531,0.82811 2.40839,1.29291 4.2278,2.22531 5.01749,2.75887 5.01749,3.39005 0,0.40386 -0.28896,0.67093 -1.10384,1.0202 l -0.63554,0.27241 0,8.42275 0,8.42275 0.64725,0.47514 c 1.21362,0.89087 1.79687,1.07755 3.36673,1.07755 1.65935,0 2.57438,-0.31039 2.82195,-0.95726 0.0917,-0.23948 0.16988,-3.26201 0.21964,-8.48711 l 0.0772,-8.11518 -0.6563,-0.40436 c -2.28573,-1.4083 -3.39919,-2.19977 -3.39919,-2.41625 0,-0.31582 0.24191,-0.51783 2.74289,-2.29042 1.17745,-0.83453 2.43466,-1.74786 2.79383,-2.0296 0.43241,-0.33923 0.79094,-0.51229 1.06125,-0.51229 0.66451,0 9.2907,4.98759 9.77643,5.65262 l 0.26841,0.36754 -1.35986,1.3819 -1.35986,1.38191 -0.005,7.86894 c -0.005,7.59286 -0.0152,7.89034 -0.27555,8.47889 -0.37756,0.85349 -0.83687,1.41691 -1.56173,1.91563 -0.97657,0.6719 -2.01185,1.12518 -3.317,1.4523 -1.05948,0.26555 -1.42732,0.29302 -3.07655,0.22993 -3.44789,-0.13194 -6.42248,-1.01949 -8.74447,-2.6092 -1.44362,-0.98833 -2.321,-1.25057 -4.16371,-1.24445 -1.40485,0.005 -2.42109,0.2556 -3.83266,0.94646 -2.36675,1.15832 -3.61415,3.15914 -2.9437,4.72165 0.58376,1.36049 3.28182,2.63825 5.57081,2.63825 1.38706,0 2.66355,-0.32603 7.07008,-1.80571 5.03748,-1.69154 6.10055,-1.91131 8.44854,-1.74658 1.65153,0.11592 2.62757,0.36826 3.9691,1.02631 2.29709,1.12675 3.52369,3.1295 3.52369,5.75336 0,2.43268 -1.33777,4.50366 -3.88779,6.01859 -1.5533,0.92281 -2.73215,1.31137 -4.2305,1.39444 -1.1436,0.0634 -1.42773,0.0331 -2.1843,-0.23282 z m 63.55494,-12.68609 c -2.16161,-0.0988 -2.98136,-0.19174 -4.33467,-0.49125 -0.82262,-0.18205 -0.93506,-0.18228 -1.03586,-0.002 -0.086,0.15366 -0.22296,0.17728 -0.57175,0.0985 -0.25229,-0.057 -0.60348,-0.0757 -0.78042,-0.042 -0.21853,0.0418 -0.46207,-0.0565 -0.75913,-0.30652 l -0.43739,-0.36804 0.046,0.39038 c 0.042,0.35716 0.008,0.39407 -0.40942,0.43383 -0.26054,0.0248 -0.64589,-0.0591 -0.90061,-0.19631 -0.43042,-0.23179 -0.45131,-0.23142 -0.62866,0.0116 -0.15794,0.21599 -0.29642,0.23908 -0.99545,0.16602 -0.44659,-0.0466 -1.05827,-0.18342 -1.35929,-0.30386 -0.39087,-0.15639 -0.59596,-0.17862 -0.7175,-0.0778 -0.18121,0.15042 -1.10753,6.7e-4 -1.58855,-0.25672 -0.20824,-0.1114 -0.37951,-0.0378 -0.92949,0.4002 l -0.6742,0.53682 -0.85948,-0.67545 c -0.81181,-0.63796 -0.85947,-0.6575 -0.85947,-0.35205 0,0.38638 -0.51072,0.90525 -0.89105,0.90525 -0.14942,0 -0.38065,-0.12043 -0.51385,-0.2676 -0.1332,-0.14718 -0.32082,-0.26761 -0.41692,-0.26761 -0.48494,0 -0.91283,-0.95823 -0.57759,-1.29346 0.10121,-0.10121 0.082,-0.16608 -0.0655,-0.22274 -0.14845,-0.0569 -0.23097,0.0245 -0.28714,0.28328 -0.25817,1.18997 -0.38543,1.43449 -0.7273,1.39731 -0.39671,-0.0432 -0.66311,-0.10045 -0.93601,-0.20154 -0.69994,-0.25912 -0.94574,-0.23475 -1.25475,0.12455 l -0.31117,0.36178 -0.52159,-0.26975 c -0.47607,-0.24621 -0.56226,-0.25298 -0.98762,-0.0777 -0.30237,0.12467 -0.53478,0.14872 -0.66185,0.0686 -0.12828,-0.0809 -0.33203,-0.0556 -0.59076,0.0735 -0.32674,0.16301 -0.47424,0.16837 -0.85401,0.031 -0.36741,-0.13288 -0.83748,-0.13064 -2.3551,0.0116 -2.57709,0.24078 -9.05204,0.24172 -9.85228,0.001 -0.78623,-0.23607 -1.66614,-1.09588 -1.58041,-1.54434 0.0535,-0.27998 0,-0.33061 -0.41924,-0.40005 -0.72429,-0.11978 -0.81498,-0.10294 -0.81511,0.15173 0,0.34913 -0.48322,1.55486 -0.64448,1.60861 -0.077,0.0256 -0.2065,-0.0775 -0.28766,-0.22903 -0.20567,-0.38429 -0.53955,-0.35281 -0.53955,0.0509 0,0.42932 -0.22651,0.55486 -0.52072,0.2886 -0.12993,-0.11759 -0.34483,-0.2138 -0.47752,-0.2138 -0.37915,0 -1.07838,-0.49159 -1.42665,-1.00301 -0.42313,-0.6213 -0.62788,-0.59429 -0.67826,0.0895 -0.0227,0.30703 -0.11077,0.58111 -0.19582,0.60906 -0.0852,0.028 -0.3785,-0.14572 -0.65204,-0.3859 l -0.4974,-0.43671 0.0934,-1.63794 c 0.0514,-0.90085 0.13708,-1.8063 0.19055,-2.01209 0.10815,-0.41612 0.79758,-0.84192 1.36376,-0.84227 0.30109,-1.2e-4 0.37317,-0.0951 0.58366,-0.76955 0.34673,-1.1108 0.37998,-1.13562 1.37881,-1.02866 0.81014,0.0868 0.85886,0.0758 0.93345,-0.20937 0.0433,-0.1655 0.21202,-0.56429 0.37498,-0.88618 0.16295,-0.32188 0.25671,-0.58524 0.20835,-0.58524 -0.21825,0 -2.46006,0.69661 -3.03515,0.94312 -0.35155,0.15068 -0.84262,0.51164 -1.09126,0.80214 -0.52716,0.61586 -0.7906,0.57019 -1.15628,-0.20042 -0.18162,-0.38276 -0.19701,-0.57054 -0.0818,-0.99847 0.12815,-0.4759 0.11089,-0.5606 -0.17824,-0.87252 -1.13284,-1.22235 0.0604,-3.91247 2.27103,-5.12002 0.37668,-0.20577 0.89123,-0.64507 1.14341,-0.97622 0.62585,-0.82181 1.03308,-0.99844 2.3618,-1.02444 1.26224,-0.0247 1.34201,0.0378 1.12768,0.88202 l -0.13208,0.52041 1.42114,0.0971 c 2.44875,0.16735 5.98758,-0.12763 6.66754,-0.55575 0.1627,-0.1024 0.36016,-0.42521 0.4388,-0.71728 0.34741,-1.29017 -0.71791,-1.50019 -2.4696,-0.4869 -0.29678,0.17168 -0.76486,0.38496 -1.0402,0.47399 -0.66556,0.21517 -2.03876,0.21355 -2.76242,-0.004 -1.02776,-0.30792 -2.89017,-2.37639 -2.49524,-2.77132 0.062,-0.062 0.85239,0.14648 1.81119,0.47804 0.11037,0.0381 -0.0319,-0.17486 -0.31642,-0.47343 -0.31316,-0.32873 -0.47781,-0.60643 -0.41747,-0.70407 0.15291,-0.24741 1.3541,-0.0831 1.79944,0.24614 0.20867,0.15427 0.54565,0.32223 0.74885,0.37324 0.3658,0.0918 0.36725,0.0895 0.14722,-0.22457 -0.12222,-0.1745 -0.22224,-0.43182 -0.22224,-0.57183 0,-0.21738 0.0635,-0.24074 0.43485,-0.16 0.23917,0.0521 1.25535,0.14205 2.25816,0.20011 1.60881,0.0932 1.90048,0.1476 2.47958,0.46277 1.81171,0.98606 2.32923,3.15889 1.08885,4.57161 -0.9536,1.08609 -2.10381,1.37207 -6.39523,1.59006 -1.87654,0.0954 -3.42427,0.1806 -3.43941,0.18953 -0.0152,0.009 0.0584,0.25962 0.16331,0.55712 0.17417,0.49363 0.17074,0.54711 -0.0394,0.61186 -0.1266,0.039 -0.32756,0.12223 -0.44647,0.18495 -0.36822,0.19408 -1.14805,-0.0784 -1.8704,-0.65356 -0.78901,-0.62823 -1.10442,-0.67372 -1.72803,-0.24931 -0.66981,0.45587 -0.97652,0.94921 -0.99012,1.59262 -0.0151,0.71337 0.30281,0.91132 1.46802,0.91415 0.81483,0.002 2.22825,-0.35916 6.94937,-1.77569 1.10384,-0.33121 2.54889,-0.75492 3.21119,-0.94156 1.31303,-0.37006 2.4753,-0.84482 2.4753,-1.01113 0,-0.0578 0.0799,-0.10523 0.17763,-0.10523 0.20756,0 1.29546,-0.72721 1.55408,-1.03883 0.14052,-0.16932 0.1473,-0.36501 0.0324,-0.93706 -0.0798,-0.39768 -0.11064,-0.93614 -0.0684,-1.19658 0.0623,-0.38324 0.0109,-0.55309 -0.27425,-0.89079 -0.36757,-0.43682 -0.45895,-1.03816 -0.19752,-1.2996 0.11552,-0.11553 0.0329,-0.35632 -0.33449,-0.97295 -0.55201,-0.92665 -0.61046,-1.3683 -0.2175,-1.64354 0.15411,-0.10794 0.23788,-0.27477 0.19461,-0.38755 -0.0419,-0.10895 0.0206,-0.27813 0.13855,-0.37605 0.11797,-0.0978 0.29827,-0.37851 0.40063,-0.62352 0.1024,-0.24504 0.2807,-0.44552 0.39622,-0.44552 0.21576,0 0.19215,-0.30152 -0.0818,-1.04468 -0.10316,-0.27974 -0.0477,-0.33811 0.58825,-0.62056 0.38613,-0.17147 0.74557,-0.28588 0.79872,-0.25423 0.0532,0.0317 0.16712,0.2926 0.25321,0.57994 0.14176,0.4732 0.19103,0.51553 0.52265,0.4492 0.20222,-0.0405 0.40698,-0.008 0.45739,0.0744 0.0642,0.10392 0.16797,0.10663 0.35072,0.009 0.18686,-0.10002 0.34372,-0.0909 0.56053,0.0324 0.28759,0.16369 0.3693,0.18893 0.72497,0.22405 0.35524,0.035 0.71337,0.9042 0.71337,1.73124 0,0.64816 0.0682,0.91518 0.3345,1.30742 0.34156,0.50332 0.41655,0.92189 0.22051,1.23091 -0.10489,0.16519 0.17234,1.20451 0.62188,2.33207 0.15367,0.3855 0.17448,0.7338 0.092,1.53868 -0.19544,1.90479 -0.18882,1.95055 0.30253,2.09146 0.38841,0.11141 0.46571,0.0848 0.73588,-0.25223 1.44868,-1.80773 2.66936,-3.41481 2.86557,-3.77267 0.23454,-0.42784 0.23154,-0.44926 -0.34062,-2.42265 -0.56085,-1.93442 -0.571,-2.00312 -0.35716,-2.41665 0.12106,-0.23411 0.42227,-0.52204 0.66935,-0.63988 0.24708,-0.11784 0.51401,-0.35638 0.59319,-0.53013 0.0958,-0.21046 0.25658,-0.31594 0.48131,-0.31594 0.18556,0 0.33737,-0.063 0.33737,-0.13988 0,-0.0769 0.14924,-0.28913 0.33167,-0.47156 0.23612,-0.23612 0.42091,-0.30927 0.6414,-0.25394 0.21323,0.0536 0.38733,-0.008 0.55876,-0.19744 0.1385,-0.15302 0.41551,-0.27517 0.62406,-0.27517 0.37489,0 0.37507,-4.1e-4 0.41412,-1.02714 l 0.0391,-1.02714 0.94516,4e-4 c 0.51984,2.7e-4 1.01658,0.0445 1.10384,0.0984 0.0981,0.0606 0.15868,0.45817 0.15868,1.04108 0,0.81926 0.0289,0.93195 0.21956,0.85876 0.12081,-0.0463 0.37664,0.0196 0.56865,0.14655 0.19201,0.12699 0.51346,0.2142 0.71435,0.19393 0.25203,-0.0254 0.46417,0.07 0.68434,0.30745 0.17551,0.18937 0.44231,0.3443 0.59291,0.3443 0.15059,0 0.43843,0.19567 0.63961,0.43485 0.20118,0.23917 0.5356,0.50631 0.74314,0.59367 0.4077,0.17162 0.60015,0.64269 0.47167,1.15458 -0.0446,0.17736 0.008,0.4317 0.12171,0.59471 0.18374,0.26233 0.14154,0.43345 -0.53473,2.16805 -0.61471,1.5767 -0.71087,1.93452 -0.59074,2.19818 0.10392,0.22816 0.10099,0.39435 -0.0109,0.60333 l -0.15437,0.28842 0.50657,-0.2715 c 0.93978,-0.50369 1.35766,-0.36001 2.46508,0.84769 0.64921,0.70799 0.77897,0.79456 0.96256,0.64219 0.17019,-0.14125 0.18295,-0.24029 0.0644,-0.50044 -0.18517,-0.4064 0.009,-0.88643 0.48464,-1.19806 0.41836,-0.27413 0.84676,-0.15357 1.05154,0.29589 0.13747,0.30171 0.16213,0.31067 0.24427,0.0887 0.11166,-0.3016 -0.4751,-0.98273 -0.84655,-0.98273 -0.13706,0 -0.42685,-0.0919 -0.64397,-0.20414 -0.52783,-0.27295 -0.52674,-0.70588 0.002,-0.90557 0.3087,-0.11655 0.38142,-0.21194 0.32693,-0.42901 -0.0847,-0.33752 0.36169,-0.95003 0.7848,-1.07683 0.3462,-0.10381 1.43486,-1.11668 1.43486,-1.33503 0,-0.0817 -0.72296,-0.70768 -1.60659,-1.39115 -1.5297,-1.1832 -1.90724,-1.63584 -1.67621,-2.00966 0.17813,-0.28821 0.62987,-0.11605 2.43613,0.92852 1.92211,1.11155 2.3958,1.27986 2.26058,0.80327 -0.0418,-0.14718 -0.10848,-0.38294 -0.14825,-0.52394 -0.18195,-0.64467 0.92528,-0.48429 1.7234,0.24966 0.30615,0.28153 0.77577,0.60308 1.04361,0.71458 0.98757,0.41107 2.05141,1.62345 2.47415,2.81963 0.54667,1.54686 -0.0965,4.31787 -1.34739,5.80439 -0.18844,0.22397 -0.34263,0.47302 -0.34263,0.55344 0,0.0805 0.41997,0.35776 0.93326,0.61625 0.68577,0.34535 1.10606,0.46998 1.58485,0.46998 0.48169,0 0.71476,0.0697 0.89379,0.2676 0.1332,0.14718 0.38418,0.26759 0.55775,0.26759 0.17356,0 0.42012,0.0576 0.54791,0.1279 0.12776,0.0703 0.9062,0.27997 1.72979,0.46588 0.82361,0.18593 1.81401,0.45833 2.20089,0.60534 0.38689,0.14701 1.18566,0.33331 1.77503,0.41401 0.58937,0.0806 1.17982,0.20464 1.31209,0.27542 0.13228,0.0708 0.63129,0.1652 1.10892,0.20981 l 0.86841,0.0811 0.46884,-0.49712 c 0.32489,-0.34446 0.46886,-0.62249 0.46886,-0.90537 0,-0.33006 -0.035,-0.37918 -0.18289,-0.25647 -0.11913,0.0989 -0.72685,0.13956 -1.74262,0.11668 l -1.55973,-0.035 0.0876,-0.39943 c 0.0482,-0.2197 0.17823,-0.53768 0.28894,-0.70663 0.11076,-0.16895 0.17189,-0.33658 0.13597,-0.3725 -0.0359,-0.0359 -0.95604,0.004 -2.04471,0.0872 -3.74634,0.28857 -5.79486,0.0184 -6.89772,-0.90954 -0.79513,-0.66908 -1.05285,-1.71809 -0.70765,-2.88053 0.27117,-0.91309 1.33328,-1.97594 2.53786,-2.53964 0.79989,-0.3743 1.07597,-0.42821 2.64573,-0.51647 0.96395,-0.0542 1.77238,-0.0797 1.7965,-0.0569 0.0241,0.0231 -0.18652,0.29682 -0.4681,0.60848 -0.4675,0.5175 -0.48293,0.55758 -0.17764,0.46187 0.18387,-0.0577 0.57513,-0.26763 0.86949,-0.46664 0.29436,-0.19901 0.73987,-0.43161 0.99001,-0.51687 0.56071,-0.19111 1.61909,-0.20375 1.61909,-0.0193 0,0.0746 -0.19564,0.3105 -0.43475,0.52415 -0.23912,0.21365 -0.4047,0.41736 -0.36796,0.4527 0.13673,0.13151 1.68811,-0.19888 2.11491,-0.45037 0.51039,-0.30076 0.561,-0.31155 0.561,-0.11965 0,0.38342 -0.62725,1.43545 -1.19343,2.00164 -0.76964,0.76964 -1.36987,0.94004 -3.62336,1.02876 -1.30462,0.0514 -1.66857,0.0183 -2.3924,-0.2175 -0.54525,-0.1776 -1.20456,-0.27806 -1.82492,-0.27806 -1.17978,0 -1.51806,0.21102 -1.62577,1.01416 -0.10631,0.79202 0.2946,1.20479 1.49244,1.53695 1.19354,0.33096 1.49854,0.32469 3.68164,-0.0756 0.99347,-0.18217 2.26544,-0.37013 2.8266,-0.4177 l 1.02029,-0.0865 -0.0167,-0.69696 c -0.01,-0.42321 0.0568,-0.78582 0.17054,-0.92321 0.17513,-0.21151 0.20562,-0.20954 0.4683,0.0304 0.15452,0.14117 0.43149,0.30195 0.61546,0.35729 0.90617,0.27255 2.14006,1.50303 2.14137,2.13545 0,0.1485 0.15083,0.56619 0.3345,0.92822 0.49924,0.98408 0.37362,2.74444 -0.26467,3.70898 -0.1859,0.28091 -0.338,0.6987 -0.338,0.9284 0,0.50011 -0.74883,1.32749 -1.20145,1.32749 -0.25357,0 -0.28025,-0.0516 -0.20457,-0.39629 0.15273,-0.6954 -0.0562,-0.85407 -1.3598,-1.03254 -0.64971,-0.0889 -1.42211,-0.20064 -1.71646,-0.24818 l -0.53521,-0.0865 -0.0151,1.23306 -0.0151,1.23306 0.84495,-0.0679 c 0.5513,-0.0443 0.96012,-0.008 1.17635,0.10403 0.18228,0.0945 0.37543,0.13255 0.42922,0.0844 0.0538,-0.0482 0.0571,-0.0164 0.008,0.0704 -0.0499,0.0869 -0.0294,0.19581 0.0454,0.24204 0.0749,0.0462 0.13597,0.224 0.13597,0.39505 0,0.32618 0.2876,0.47066 0.94386,0.47419 0.29461,0.001 1.59834,0.69803 1.59834,0.85384 0,0.0303 0.12042,0.64037 0.26759,1.35567 0.14719,0.71531 0.26761,1.45621 0.26761,1.64645 0,0.51554 -0.61903,1.09645 -1.16839,1.09645 -0.43751,0 -0.44711,-0.0116 -0.36496,-0.44971 0.0728,-0.38792 0.0435,-0.4604 -0.21312,-0.52751 -0.36238,-0.0948 -0.9194,0.27645 -0.92532,0.61667 -0.002,0.16128 -0.25139,0.35471 -0.74799,0.58207 -0.8445,0.38662 -1.46513,0.35449 -1.87374,-0.097 -0.25185,-0.2783 -0.25023,-0.29267 0.14008,-1.22833 0.075,-0.17981 0.0323,-0.23415 -0.18423,-0.23415 -0.23194,0 -0.28192,0.0814 -0.28192,0.45919 0,0.34921 -0.0881,0.52096 -0.36796,0.71707 -0.80645,0.56523 -2.52091,0.93163 -4.84774,1.03606 -0.84767,0.038 -1.87235,0.0867 -2.2771,0.10804 -0.40474,0.0214 -1.60893,-9.4e-4 -2.67599,-0.0497 z m -18.25909,-0.81336 c 0.0449,-0.14153 0.0109,-0.47338 -0.0768,-0.73743 l -0.15846,-0.48011 -0.25175,0.38186 c -0.32609,0.49462 -0.32178,0.14376 0.008,-0.58079 l 0.2548,-0.56125 -0.47315,-0.27917 c -0.36373,-0.21461 -0.51579,-0.24381 -0.65745,-0.12622 -0.10131,0.0841 -0.27342,0.11875 -0.3824,0.0769 -0.24784,-0.095 -0.36846,0.0851 -0.25495,0.3809 0.0872,0.22708 0.19765,0.22611 1.16542,-0.0109 0.61923,-0.15128 0.40421,0.35736 -0.28666,0.67813 -0.47896,0.22239 -0.56786,0.32243 -0.53519,0.6021 0.0297,0.25507 0.12802,0.34562 0.41007,0.37802 0.2091,0.0241 0.46154,0.18101 0.57874,0.35988 0.23087,0.35235 0.5346,0.31444 0.66057,-0.0824 z m 3.03059,-0.33989 c 0.17274,-0.19116 0.22947,-0.53051 0.24299,-1.45278 0.0247,-1.6923 0.0164,-1.80545 -0.13387,-1.80545 -0.0801,0 -0.13381,0.52645 -0.13381,1.31175 0,1.30509 -0.002,1.3139 -0.43616,1.73449 l -0.43616,0.42274 -0.43354,-0.33929 -0.43353,-0.33929 0,-1.44572 c 0,-1.12185 -0.0449,-1.48302 -0.2007,-1.61229 -0.17657,-0.14655 -0.2007,0.0346 -0.2007,1.50839 l 0,1.67497 0.63424,0.53534 c 0.62966,0.53148 0.63667,0.53362 0.97005,0.29596 0.18469,-0.13166 0.43724,-0.35161 0.56119,-0.48882 z m 22.07863,0.42459 c 2.65552,-0.28183 3.14128,-0.57191 2.6981,-1.61125 -0.0936,-0.21949 -0.17288,-0.53885 -0.1762,-0.70969 -0.005,-0.27096 -0.0308,-0.28591 -0.19956,-0.11706 -0.1127,0.11269 -0.21048,0.52129 -0.23415,0.9783 -0.0322,0.62157 -0.0894,0.79404 -0.27477,0.82935 -0.20032,0.0381 -0.23416,-0.0631 -0.23416,-0.70116 0,-0.57365 -0.0463,-0.7457 -0.2007,-0.7457 -0.11038,0 -0.2007,-0.11348 -0.2007,-0.252 0,-0.25673 0.33721,-0.41175 0.90316,-0.41519 0.18729,-0.001 0.30104,-0.0836 0.30104,-0.21812 0,-0.15976 -0.0786,-0.19457 -0.30104,-0.13315 -1.50467,0.41562 -7.4338,0.8355 -9.86153,0.69837 -1.69088,-0.0956 -3.77719,-0.40884 -4.55898,-0.68467 l -0.49846,-0.17588 0.0312,1.21738 0.0311,1.21737 0.5078,0.17581 c 0.66685,0.23086 2.3569,0.57041 3.50089,0.70337 1.59092,0.18489 6.81092,0.15151 8.7668,-0.056 z m -7.35544,-0.39711 c -0.25933,-0.3297 -0.26906,-0.33146 -0.33965,-0.0615 -0.0472,0.1802 -0.15831,0.2611 -0.31629,0.23014 -0.20717,-0.0406 -0.24365,-0.18435 -0.24365,-0.96016 0,-0.50182 0.055,-0.94679 0.12223,-0.98883 0.0673,-0.042 0.26294,0.0871 0.43485,0.28697 0.28029,0.32585 0.31258,0.33581 0.31258,0.0962 0,-0.31154 0.15043,-0.43805 0.36398,-0.30609 0.19745,0.1221 0.26578,1.93172 0.0754,1.99522 -0.0783,0.0261 -0.26254,-0.10523 -0.40938,-0.29197 z m 2.1025,0.29343 c -0.005,-0.0184 -0.0394,-0.46996 -0.0771,-1.00349 l -0.0688,-0.97006 0.53456,0 c 0.46772,0 0.57117,0.0592 0.82718,0.47346 0.25692,0.41571 0.27234,0.52239 0.12635,0.87481 -0.18907,0.45648 -0.49316,0.65873 -0.99045,0.65873 -0.18881,0 -0.34708,-0.0151 -0.3517,-0.0335 z m 0.80916,-0.99561 c 0.001,-0.16123 -0.0583,-0.33035 -0.13175,-0.37583 -0.0814,-0.0503 -0.133,0.14311 -0.13175,0.49386 0.001,0.42153 0.037,0.52257 0.13175,0.37583 0.0714,-0.11037 0.13063,-0.33262 0.13175,-0.49386 z m 1.01217,0.87293 c -0.0332,-0.0982 -0.0784,-0.55415 -0.10045,-1.01343 -0.0433,-0.9021 0.007,-0.97123 0.70214,-0.97123 0.48785,0 0.7434,0.40212 0.52037,0.81885 -0.12416,0.23206 -0.10099,0.35241 0.12789,0.66187 0.38432,0.51982 0.10132,0.65953 -0.38737,0.19127 l -0.38018,-0.36424 -0.0438,0.37276 c -0.0468,0.3982 -0.33823,0.60035 -0.43857,0.30415 z m 0.72928,-1.39047 c 0,-0.10598 -0.0602,-0.19279 -0.1338,-0.19279 -0.0735,0 -0.1338,0.12403 -0.1338,0.27549 0,0.15152 0.0602,0.23828 0.1338,0.1928 0.0736,-0.0454 0.1338,-0.16945 0.1338,-0.2755 z m -7.34928,1.06026 c -0.39741,-0.50522 -0.36456,-1.165 0.0752,-1.51094 0.45066,-0.35451 0.61983,-0.3488 1.06719,0.036 0.26028,0.22388 0.36425,0.44 0.36425,0.75708 0,0.31707 -0.10392,0.53319 -0.36425,0.75708 -0.47351,0.40729 -0.80003,0.39609 -1.14242,-0.0392 z m 0.85637,-0.43888 c 0.10739,-0.33861 -0.0571,-0.97233 -0.23694,-0.91239 -0.30181,0.10056 -0.4174,0.47132 -0.25682,0.82372 0.18624,0.40876 0.38106,0.44374 0.49376,0.0886 z m 7.79747,0.64691 c -0.35825,-0.20866 -0.65298,-0.87676 -0.55647,-1.26135 0.0896,-0.35722 0.64018,-0.86874 0.93498,-0.86874 0.31602,0 0.85774,0.59336 0.94183,1.03159 0.0689,0.35912 0.0157,0.49614 -0.32436,0.83624 -0.43189,0.43189 -0.61978,0.48138 -0.99598,0.26226 z m 0.70243,-0.94052 c 0,-0.37328 -0.14873,-0.65437 -0.34626,-0.65437 -0.26653,0 -0.38351,0.6299 -0.19415,1.04548 0.15711,0.34482 0.16887,0.34811 0.35147,0.0984 0.10392,-0.1421 0.18894,-0.36237 0.18894,-0.48946 z m -10.30258,0.68635 c -0.11038,-0.0697 -0.20822,-0.18917 -0.21743,-0.26544 -0.035,-0.29044 -0.056,-0.30043 -0.26536,-0.1266 -0.18282,0.15173 -0.24317,0.14029 -0.40139,-0.0761 -0.17185,-0.23502 -0.18623,-0.23636 -0.18623,-0.0172 0,0.13059 -0.0752,0.2126 -0.16724,0.18225 -0.16931,-0.0559 -0.31175,-1.44511 -0.18266,-1.78151 0.11874,-0.30959 0.62557,-0.052 0.70795,0.35998 0.0907,0.45314 0.18654,0.48012 0.4137,0.11642 0.092,-0.14718 0.28703,-0.26759 0.4336,-0.26759 0.23875,0 0.26647,0.0904 0.26647,0.86969 0,0.47834 0.005,0.91335 0.01,0.96671 0.0163,0.15624 -0.19454,0.17647 -0.41143,0.0395 z m 11.19209,-0.57136 c -0.14459,-1.20369 -0.12545,-1.30456 0.2478,-1.30456 0.32706,0 0.3345,0.0222 0.3345,1.00351 0,0.88925 -0.0283,1.00349 -0.24897,1.00349 -0.20041,0 -0.26542,-0.13696 -0.33333,-0.70244 z m -36.34648,0.90968 c 1.14066,-0.1181 2.20639,-0.27056 2.36831,-0.33887 0.27297,-0.11514 0.29401,-0.21179 0.28871,-1.32706 -0.002,-0.66158 0.0335,-1.26634 0.0814,-1.3439 0.10987,-0.17768 0.0465,-0.17676 -0.42167,0.007 -2.15222,0.84088 -10.92007,1.06072 -13.33368,0.33433 -0.59662,-0.17956 -0.61336,-0.17705 -0.4802,0.0717 0.0758,0.14181 0.12546,0.64488 0.11013,1.11794 -0.0386,1.19456 0.24653,1.49217 1.61627,1.68656 1.15813,0.16437 7.47638,0.0305 9.7707,-0.20695 z m -7.89997,0.17001 c -0.002,-0.0235 -0.0139,-0.49432 -0.0236,-1.04625 -0.0171,-0.96092 -0.005,-1.00349 0.28747,-1.00349 0.29079,0 0.30544,0.048 0.30615,1.00349 0,0.91865 -0.0232,1.00712 -0.28168,1.04625 -0.15533,0.0235 -0.28505,0.0235 -0.28823,0 z m 1.54449,-0.0501 c -0.0735,-0.0328 -0.12494,-0.46587 -0.11399,-0.96265 l 0.0199,-0.90323 0.6492,0 c 0.48787,0 0.64921,0.0499 0.64921,0.2007 0,0.13132 -0.10403,0.18622 -0.30106,0.15885 -0.16558,-0.0231 -0.30104,0.0221 -0.30104,0.10034 0,0.0782 0.0903,0.1422 0.2007,0.1422 0.11154,0 0.20071,0.11887 0.20071,0.2676 0,0.14866 -0.0893,0.2676 -0.20071,0.2676 -0.11037,0 -0.2007,0.0942 -0.2007,0.20911 0,0.14005 0.0995,0.19529 0.30104,0.16725 0.19702,-0.0275 0.30106,0.0274 0.30106,0.15884 0,0.14061 -0.16026,0.20849 -0.5352,0.22676 -0.29436,0.0143 -0.59541,-6.8e-4 -0.669,-0.0334 z m 2.25985,-0.26287 c -0.25379,-0.25379 -0.31974,-0.46094 -0.31974,-1.00414 0,-0.63321 0.0226,-0.68118 0.30104,-0.64163 0.26227,0.0372 0.30625,0.13325 0.34149,0.7452 0.0616,1.07016 0.35007,0.8806 0.45807,-0.30104 0.0598,-0.65356 0.42982,-0.51611 0.47975,0.17817 0.0758,1.05521 -0.64421,1.63982 -1.26061,1.02344 z m -5.92164,-0.0504 c -0.12339,-0.0782 -0.18325,-0.39368 -0.1838,-0.96801 l -0.001,-0.85207 0.4196,-0.0421 c 0.32078,-0.0322 0.5138,0.0522 0.81935,0.35767 0.50832,0.50831 0.50519,0.84295 -0.0116,1.2781 -0.42705,0.35934 -0.72903,0.4249 -1.04242,0.22637 z m 0.7584,-0.83835 c 0.0221,-0.18461 -0.0531,-0.41312 -0.16723,-0.50781 -0.18185,-0.15091 -0.20748,-0.10262 -0.20748,0.39055 0,0.62159 0.30293,0.71639 0.37471,0.11719 z m 8.24671,0.64951 c -0.0403,-0.10522 -0.055,-0.51533 -0.0323,-0.91129 l 0.0411,-0.71995 0.52406,0 c 0.30031,0 0.54784,0.0714 0.5798,0.16725 0.0328,0.0982 -0.0595,0.16724 -0.22301,0.16724 -0.1533,0 -0.27875,0.0603 -0.27875,0.13381 0,0.0735 0.0902,0.13379 0.2007,0.13379 0.11038,0 0.2007,0.0903 0.2007,0.20071 0,0.11037 -0.0902,0.20069 -0.2007,0.20069 -0.11037,0 -0.2007,0.093 -0.2007,0.20658 0,0.12248 0.0953,0.19056 0.23414,0.16724 0.13642,-0.0229 0.23417,0.0445 0.23417,0.16139 0,0.27701 -0.97617,0.36073 -1.07908,0.0926 z m 2.21637,-0.77586 c 0,-0.53468 -0.0412,-0.66749 -0.18963,-0.61055 -0.30451,0.11682 -0.36501,-0.29191 -0.0668,-0.45151 0.34084,-0.18242 1.08813,-0.11398 1.16044,0.10641 0.0301,0.092 -0.0405,0.16726 -0.15696,0.16726 -0.16758,0 -0.21184,0.15376 -0.21184,0.73591 0,0.64669 -0.0324,0.73589 -0.2676,0.73589 -0.23265,0 -0.2676,-0.0893 -0.2676,-0.68332 z m 19.59242,1.33736 c -0.0504,-0.0818 -0.0179,-0.1945 0.0726,-0.25041 0.11334,-0.0701 -0.005,-0.23768 -0.38027,-0.53944 -0.59401,-0.47734 -0.60412,-0.66699 -0.0357,-0.66699 0.41029,0 1.06627,0.43457 1.51269,1.00208 0.2583,0.32836 0.30488,0.34541 0.37759,0.13816 0.0708,-0.20213 0.11101,-0.20956 0.27612,-0.0512 0.20603,0.1975 0.9291,0.54996 0.9291,0.45289 0,-0.0318 -0.15052,-0.20848 -0.3345,-0.39245 -0.21035,-0.21035 -0.3345,-0.48573 -0.3345,-0.74199 0,-0.22496 -0.0711,-0.40748 -0.15862,-0.40748 -0.25809,0 -0.77798,-0.56088 -0.77798,-0.83933 0,-0.14163 0.18742,-0.43258 0.41648,-0.64653 0.33158,-0.30976 0.40438,-0.47117 0.35728,-0.79213 -0.0769,-0.52356 0.15611,-0.70829 1.01724,-0.80668 0.53759,-0.0614 0.62692,-0.10261 0.4167,-0.19261 -0.14718,-0.063 -0.31575,-0.19423 -0.37459,-0.29178 -0.16623,-0.27549 -0.33345,-0.21983 -1.17556,0.39131 -0.71576,0.51947 -0.78388,0.61263 -0.78745,1.07704 -0.005,0.59608 -0.3014,1.2329 -0.66549,1.42776 -0.38198,0.20441 -1.11037,0.16696 -1.45564,-0.0748 -0.16697,-0.11694 -0.39494,-0.17758 -0.5066,-0.13473 -0.16116,0.0618 -0.12545,0.14475 0.17344,0.40196 0.48703,0.41918 0.34273,0.55589 -0.27553,0.26105 l -0.48444,-0.23102 -1.00247,0.52634 c -0.55137,0.28948 -1.00313,0.57487 -1.00391,0.63421 -0.002,0.1804 1.09446,0.60062 1.80484,0.69142 l 0.66901,0.0855 -0.37137,-0.31635 c -0.20424,-0.174 -0.32968,-0.35802 -0.27874,-0.40896 0.21969,-0.21969 0.97229,-0.0724 1.46907,0.28742 0.4407,0.31924 0.74062,0.4895 0.96177,0.54601 0.0228,0.005 -2e-5,-0.0564 -0.0507,-0.1382 z m -35.86763,-0.18575 c -0.0838,-0.21866 -0.31597,-0.27599 -0.31597,-0.078 0,0.10164 0.0937,0.17069 0.36374,0.26819 0.0161,0.006 -0.005,-0.0797 -0.0477,-0.19014 z m 20.7716,-0.66047 c -0.0686,-0.27319 -0.16815,-0.34303 -0.48914,-0.34303 -0.48848,0 -0.62972,0.28206 -0.38951,0.77788 0.15763,0.32544 0.17964,0.33412 0.23267,0.0919 0.0322,-0.14717 0.1221,-0.3457 0.19961,-0.44116 0.19884,-0.2447 0.37493,0.0631 0.29012,0.50695 -0.0624,0.32636 -0.0599,0.32754 0.0892,0.0432 0.0842,-0.16089 0.11449,-0.44688 0.067,-0.63555 z m 2.43698,-0.13336 c -0.0186,-0.41803 0.0294,-0.67968 0.13113,-0.7136 0.21687,-0.0722 0.20107,-0.41898 -0.0401,-0.88144 -0.10947,-0.21002 -0.16769,-0.4328 -0.12922,-0.49504 0.0725,-0.11732 -0.34738,-0.39418 -0.59777,-0.39418 -0.0784,0 -0.14258,0.12441 -0.14258,0.27639 0,0.15202 -0.0651,0.39787 -0.14446,0.54633 -0.11013,0.20575 -0.0981,0.32298 0.0508,0.49296 0.32309,0.36909 0.63589,1.0726 0.51119,1.14969 -0.0643,0.0397 -0.28291,-0.16764 -0.48601,-0.46071 -0.20311,-0.29307 -0.43634,-0.52953 -0.51833,-0.52546 -0.0819,0.004 -0.28731,0.18255 -0.45632,0.39662 -0.29248,0.37049 -0.29661,0.40548 -0.0858,0.72734 0.12184,0.18598 0.27897,0.30265 0.34915,0.25927 0.0702,-0.0434 0.24789,0.03 0.39493,0.16309 0.20184,0.18265 0.29234,0.20148 0.36937,0.0769 0.0755,-0.1221 0.1667,-0.0936 0.34994,0.10883 0.3352,0.37039 0.48242,0.12941 0.44408,-0.72694 z m 7.91842,0.72694 c 0,-0.0736 -0.10896,-0.13381 -0.24203,-0.13381 -0.13311,0 -0.35891,-0.0883 -0.50176,-0.19643 -0.29933,-0.22642 -0.46042,-0.25632 -0.46042,-0.0855 0,0.0657 0.2258,0.21315 0.50175,0.3276 0.60326,0.25022 0.70246,0.26267 0.70246,0.0881 z m 25.64306,-0.0855 c 0.30332,-0.14395 0.43677,-0.2857 0.38817,-0.41235 -0.0407,-0.10609 -0.0741,-0.23482 -0.0741,-0.28594 0,-0.0511 -0.23532,-0.0704 -0.52297,-0.0431 -0.34157,0.0325 -0.54514,0.1266 -0.58691,0.27113 -0.0352,0.12171 -0.10729,0.32663 -0.16034,0.45541 -0.12726,0.30916 0.3212,0.3161 0.95611,0.0148 z m -38.19445,-0.062 c 0.20623,-0.11038 0.30107,-0.10674 0.37589,0.0143 0.13583,0.21978 0.23883,0.0241 0.34857,-0.66231 0.0791,-0.49486 0.0607,-0.56326 -0.13997,-0.52244 -0.27128,0.0551 -1.24449,1.31808 -1.01572,1.31808 0.0855,0 0.27953,-0.0665 0.43123,-0.14762 z m 36.98067,-0.40851 c 0.31335,-0.60593 0.16437,-0.57804 -0.16965,0.0318 -0.15891,0.29011 -0.23291,0.49284 -0.16444,0.45054 0.0686,-0.0422 0.21881,-0.25935 0.33409,-0.48229 z m -55.73846,-0.2511 c 0,-0.12674 -0.13547,-0.32163 -0.30105,-0.43294 -0.16557,-0.11128 -0.25248,-0.25253 -0.1931,-0.3138 0.19469,-0.20098 0.82491,0.28046 0.97701,0.74636 l 0.14835,0.45447 0.23434,-0.35766 c 0.35381,-0.53998 0.18605,-0.99491 -0.408,-1.10636 -0.33667,-0.0631 -0.51337,-0.18546 -0.601,-0.41596 -0.18606,-0.48933 -0.15023,-1.17508 0.0931,-1.78333 l 0.21728,-0.54305 1.07183,0.0386 c 1.06309,0.0383 1.07378,0.0422 1.31066,0.48476 0.22253,0.4157 0.24839,0.42828 0.37903,0.18419 0.0771,-0.14406 0.20574,-0.55557 0.2859,-0.91444 0.39741,-1.77962 2.19573,-3.60197 4.15679,-4.21232 1.18429,-0.36858 1.54278,-0.32517 2.9295,0.35479 2.06241,1.01129 3.74162,1.26837 4.88561,0.74799 0.53703,-0.24429 1.1548,-0.78827 0.69468,-0.6117 -0.41696,0.16 -2.09958,-1.55333 -2.09958,-2.13789 0,-0.35882 0.18988,-0.23987 0.69314,0.43424 0.26549,0.35558 0.73696,0.84791 1.04773,1.09406 l 0.56507,0.44753 -0.21637,-0.41842 c -0.11901,-0.23011 -0.21638,-0.58137 -0.21638,-0.78053 0,-0.31487 0.0873,-0.23779 0.66929,0.5909 0.82454,1.17411 0.97729,1.26276 1.66775,0.96802 l 0.53075,-0.22656 1.09218,0.58101 c 0.60069,0.31955 1.59443,0.70801 2.2083,0.86325 0.61387,0.15523 1.34816,0.42871 1.63174,0.60772 0.91464,0.57738 1.50081,0.16099 0.90597,-0.64357 -0.25143,-0.34007 -0.25807,-0.38493 -0.057,-0.38493 0.28053,0 0.717,0.37914 0.717,0.62284 0,0.23942 0.12776,0.22695 0.42432,-0.0414 0.55702,-0.50409 0.0741,-0.98277 -0.99138,-0.98277 -0.51628,0 -0.53659,-0.0136 -0.29476,-0.19645 0.14286,-0.10804 0.47045,-0.20258 0.72802,-0.21009 0.38101,-0.0116 0.41843,-0.0345 0.20069,-0.12533 -0.37142,-0.15501 -0.85723,-0.0273 -1.38152,0.36326 l -0.44493,0.33143 -2.36489,-1.57061 c -1.30068,-0.86384 -2.61578,-1.77345 -2.92241,-2.02135 -0.30666,-0.24792 -0.5787,-0.3873 -0.60456,-0.30975 -0.0943,0.28281 -1.68035,-0.60099 -2.22267,-1.2385 -0.16905,-0.19873 -0.39101,-0.32923 -0.49326,-0.28999 -0.12545,0.0482 -0.28101,-0.14972 -0.47846,-0.60873 -0.16092,-0.37402 -0.33031,-0.67866 -0.37643,-0.67696 -0.0461,0.001 -0.52762,0.39048 -1.06997,0.86392 -0.97118,0.84782 -1.0228,0.87296 -3.41188,1.6615 -3.24334,1.07049 -4.05918,1.2957 -5.63702,1.556 -0.73589,0.12146 -1.84978,0.40081 -2.47529,0.6209 -1.16264,0.40906 -2.75338,0.62312 -3.40858,0.45867 -0.95689,-0.24016 -1.31802,-1.45154 -0.70425,-2.3623 0.49594,-0.73591 1.37756,-1.32999 1.97372,-1.32999 0.69871,0 1.07008,0.15971 1.68535,0.72476 0.61267,0.56266 0.85837,0.62894 0.4616,0.12456 -0.34759,-0.44187 -0.24387,-0.5865 0.15992,-0.22304 0.16531,0.14877 0.40332,0.30668 0.52895,0.35092 0.19839,0.0699 0.21046,0.033 0.0918,-0.28112 -0.0751,-0.19885 -0.28689,-0.51914 -0.47061,-0.71178 -0.30252,-0.31718 -0.31119,-0.35577 -0.0919,-0.40891 0.13322,-0.0323 1.68725,-0.0743 3.45341,-0.0934 4.57849,-0.0496 5.94316,-0.28271 6.82677,-1.16634 1.05175,-1.05172 0.66283,-3.2228 -0.6935,-3.87143 -0.34989,-0.16732 -1.02562,-0.28044 -2.11928,-0.35476 -0.88307,-0.06 -1.78442,-0.1711 -2.00299,-0.24686 l -0.3974,-0.13774 0.45294,0.46731 c 0.39087,0.40329 0.4214,0.47944 0.22272,0.55569 -0.32543,0.12493 -1.32306,-0.0326 -1.9186,-0.30286 -1.08765,-0.4936 -1.06016,-0.4893 -0.70353,-0.10973 0.18057,0.19219 0.52942,0.47375 0.77522,0.62568 0.24672,0.15246 0.3958,0.32736 0.33277,0.39037 -0.11733,0.11733 -2.36647,-0.0877 -2.63338,-0.24011 -0.0818,-0.0468 0.001,0.0832 0.18576,0.28873 0.57313,0.64025 1.80731,1.14117 2.8098,1.14043 1.0147,-8.1e-4 1.63123,-0.15293 2.74062,-0.67648 1.13494,-0.53561 1.76559,-0.60796 2.31365,-0.26542 0.56386,0.35243 0.72367,0.77252 0.54521,1.43312 -0.16772,0.62091 -0.6908,1.21411 -1.30022,1.47459 -0.90837,0.38827 -8.14372,0.5956 -8.70384,0.24942 -0.12313,-0.0761 -0.0816,-0.19513 0.15929,-0.45621 0.17924,-0.19429 0.36238,-0.45727 0.40701,-0.58438 0.0661,-0.18833 -0.0398,-0.16363 -0.57172,0.1334 -0.70897,0.39582 -1.00324,0.33654 -0.59552,-0.11991 0.25469,-0.28515 0.25439,-0.28584 -0.0789,-0.18763 -0.52337,0.15424 -1.48028,0.73999 -1.5636,0.95715 -0.0414,0.10805 -0.379,0.35031 -0.75008,0.53835 -1.03473,0.52433 -2.04553,1.55389 -2.36568,2.40957 -0.14918,0.39873 -0.27124,0.87516 -0.27124,1.05874 0,0.62238 0.36295,1.24778 0.86234,1.48591 l 0.47573,0.22686 -0.40143,0.39249 c -0.28953,0.28305 -0.40144,0.5186 -0.40144,0.84489 0,0.24884 0.034,0.45242 0.0756,0.45242 0.0414,0 0.22691,-0.17991 0.41194,-0.3998 0.58041,-0.68977 1.07408,-0.94524 2.62398,-1.35786 0.82755,-0.22031 1.76262,-0.48696 2.07795,-0.59254 0.9464,-0.31692 1.0095,-0.26819 0.57428,0.44357 -0.21374,0.34954 -0.48566,0.97234 -0.60427,1.38399 -0.30931,1.07348 -0.43713,1.2027 -1.21599,1.22936 -0.36594,0.0129 -0.82445,-0.0259 -1.01892,-0.0853 -0.33339,-0.10186 -0.36529,-0.0713 -0.55907,0.5384 -0.34175,1.07505 -0.49225,2.0124 -0.49225,3.06573 0,1.11342 0.22036,1.79228 0.76705,2.36304 0.32926,0.34375 0.36683,0.353 0.595,0.14651 0.13396,-0.12121 0.24355,-0.32415 0.24355,-0.45095 z m 13.5807,-7.37656 c -0.42589,-0.23496 -1.0111,-0.81653 -1.21566,-1.20808 -0.35728,-0.68387 0.0543,-0.50561 0.98767,0.42766 0.86647,0.86647 0.95917,1.18383 0.22799,0.78042 z m 0.72864,-0.35569 c -0.66906,-0.42477 -1.46713,-1.68026 -1.22317,-1.92422 0.0937,-0.0937 0.20401,-0.008 0.34816,0.27059 0.11605,0.22431 0.56963,0.72362 1.00809,1.10955 0.70172,0.6177 0.88695,0.92176 0.56147,0.92176 -0.0549,0 -0.36738,-0.16996 -0.69455,-0.37768 z m -12.91015,8.2811 c 0.0424,-0.0686 0.0157,-0.16236 -0.059,-0.20859 -0.0749,-0.0462 -0.13597,0.01 -0.13597,0.12455 0,0.23502 0.0803,0.26963 0.19499,0.084 z m 0.34022,-0.75303 c 0,-0.11476 -0.0612,-0.17078 -0.13599,-0.12454 -0.0749,0.0462 -0.10132,0.14009 -0.059,0.20859 0.11475,0.18558 0.19499,0.15099 0.19499,-0.084 z m 16.97784,-0.24195 c 0.11552,-0.13915 0.10337,-0.22315 -0.0505,-0.35089 -0.17185,-0.14262 -0.20235,-0.11501 -0.20235,0.18295 0,0.39943 0.0392,0.42544 0.25287,0.16794 z m 8.00032,-0.10973 c -0.0427,-0.10674 -0.0744,-0.0751 -0.0809,0.0809 -0.005,0.14104 0.0259,0.22006 0.0703,0.17561 0.0445,-0.0445 0.0492,-0.15986 0.0109,-0.25646 z m 1.73941,0 c -0.0427,-0.10674 -0.0744,-0.0751 -0.0809,0.0809 -0.005,0.14104 0.0259,0.22006 0.0703,0.17561 0.0445,-0.0445 0.0493,-0.15986 0.0109,-0.25646 z m 4.30121,-0.87153 c 0.44807,-1.01516 0.59084,-1.14438 0.51306,-0.46435 -0.0637,0.55683 -0.0566,0.57051 0.18162,0.35485 0.13631,-0.12339 0.31227,-0.18448 0.39101,-0.13581 0.27985,0.17295 0.28956,-0.31217 0.017,-0.84652 l -0.2768,-0.54258 -0.60222,0.64385 c -0.33125,0.3541 -0.60224,0.73246 -0.60224,0.84078 0,0.10836 -0.15052,0.33837 -0.3345,0.51119 -0.48211,0.45292 -0.45379,0.73755 0.0476,0.47828 0.23854,-0.12339 0.4886,-0.43886 0.6655,-0.83969 z m 24.39823,0.45161 c -0.0539,-0.44926 0.19985,-0.4667 0.39997,-0.0275 0.18215,0.3998 0.37896,0.31772 0.37896,-0.15806 0,-0.23312 -0.17476,-0.5085 -0.53209,-0.83837 -0.50356,-0.46489 -0.53681,-0.54447 -0.62033,-1.4847 -0.10947,-1.23197 -0.20871,-1.37123 -0.9138,-1.28167 -0.29858,0.0379 -0.80696,-0.002 -1.12974,-0.089 l -0.58685,-0.15798 -0.0482,-1.46511 c -0.0266,-0.80582 -0.081,-1.56843 -0.12106,-1.69469 -0.04,-0.12622 -0.0191,-0.26282 0.0466,-0.30342 0.0657,-0.0406 0.82101,0.0747 1.67844,0.25634 0.85742,0.1816 1.76735,0.33019 2.02208,0.33019 0.32407,0 0.60077,0.1208 0.92141,0.40236 0.38047,0.33405 0.47205,0.36649 0.53939,0.191 0.0446,-0.1163 0.0231,-0.31984 -0.048,-0.45243 -0.0977,-0.18263 -0.0618,-0.30181 0.14799,-0.49173 0.46425,-0.42016 0.67049,-0.97233 0.74854,-2.00422 0.0697,-0.92377 0.0504,-1.02176 -0.30801,-1.55655 -0.21039,-0.3139 -0.40455,-0.74999 -0.43144,-0.96908 -0.0777,-0.63236 -0.38041,-1.239 -0.70508,-1.41275 -0.26737,-0.1431 -0.28887,-0.13356 -0.2021,0.0896 0.15444,0.39717 0.15369,0.48033 -0.005,0.53909 -0.0819,0.0304 -0.22373,-0.12546 -0.31516,-0.34612 -0.16872,-0.4073 -0.97996,-1.13059 -1.11579,-0.99479 -0.10837,0.10837 0.0435,0.45665 0.41405,0.94972 0.39125,0.52066 0.39204,0.52026 -1.24257,0.6241 -0.6623,0.0421 -2.07723,0.22663 -3.14429,0.41011 -1.06705,0.18349 -2.27537,0.33477 -2.68516,0.33616 -2.47002,0.009 -3.98819,-1.63497 -2.78078,-3.01013 0.2317,-0.26388 0.58997,-0.56703 0.79616,-0.67366 0.52485,-0.27142 1.86139,-0.23994 3.13108,0.0738 1.66571,0.41151 4.31662,0.28853 5.12131,-0.23761 0.31669,-0.20706 0.89863,-0.94532 0.81282,-1.03114 -0.0614,-0.0614 -1.39644,0.25411 -1.8742,0.44305 -0.19552,0.0772 -0.73742,0.17703 -1.2042,0.22157 l -0.84873,0.081 0.49575,-0.30708 c 0.41129,-0.25476 1.33801,-1.49167 0.96252,-1.28467 -0.0662,0.0364 -0.4817,0.28575 -0.92344,0.55399 -0.82486,0.5009 -2.15236,0.77881 -2.69937,0.56515 -0.21602,-0.0844 -0.20185,-0.11746 0.12415,-0.28992 0.67574,-0.35748 0.44276,-0.49158 -0.7359,-0.42356 -1.98249,0.11436 -3.37086,1.01848 -3.79275,2.46973 -0.39015,1.34208 0.14238,2.18102 1.78385,2.81027 0.88076,0.33762 2.51986,0.39731 4.71835,0.17183 2.41159,-0.24734 3.80205,-0.29635 4.18125,-0.14736 0.51085,0.2007 0.45945,0.36995 -0.14155,0.46605 -0.47175,0.0755 -0.89913,0.40139 -1.1661,0.88932 -0.0703,0.12854 -0.005,0.10883 0.18143,-0.0548 0.32882,-0.28842 1.45784,-0.50831 1.75987,-0.34276 0.14958,0.082 0.0999,0.13091 -0.2007,0.19752 -0.7659,0.16975 -0.81755,0.19912 -0.59646,0.33894 0.31834,0.20131 1.22441,0.14845 1.4841,-0.0866 0.22168,-0.20062 0.25643,-0.18472 0.51178,0.23414 0.51711,0.84818 0.22862,1.79692 -0.68975,2.26842 -0.655,0.33626 -1.32771,0.32146 -2.96502,-0.0653 -0.74543,-0.17609 -1.65639,-0.3795 -2.02435,-0.452 -0.36795,-0.0725 -1.241,-0.25378 -1.94011,-0.4028 -0.69909,-0.14901 -1.50522,-0.31116 -1.7914,-0.36033 l -0.5203,-0.0894 0.38379,0.33013 c 0.34216,0.29432 0.36856,0.37151 0.24335,0.71198 -0.13086,0.3559 -0.0965,0.42283 0.50439,0.98398 0.58048,0.54206 0.65095,0.67179 0.70645,1.30087 0.0761,0.86297 0.34245,1.39688 0.90843,1.82123 0.81445,0.61063 1.57574,0.90775 2.53097,0.98784 1.42226,0.11926 1.51662,0.23952 1.51662,1.93294 0,0.76066 0.0523,1.42106 0.11618,1.46757 0.0639,0.0465 0.2746,0.042 0.46829,-0.01 0.28561,-0.0768 0.34402,-0.16233 0.30914,-0.45251 z m -36.04524,0.27775 c 0.0756,-0.092 0.15819,-0.31685 0.18363,-0.49968 0.0349,-0.25029 0.12725,-0.33295 0.37417,-0.3345 0.2347,-0.001 0.35452,-0.0971 0.42152,-0.33657 0.17721,-0.6332 0.12608,-1.1984 -0.13174,-1.45622 -0.16106,-0.16106 -0.22926,-0.37111 -0.18896,-0.58194 0.0514,-0.26859 -0.0276,-0.38344 -0.42462,-0.61769 -0.61862,-0.36498 -0.75577,-0.36092 -1.18308,0.0351 -0.29832,0.27649 -0.32033,0.34607 -0.15332,0.48468 0.1601,0.13287 0.195,0.11244 0.195,-0.11425 0,-0.3833 0.23932,-0.49274 0.52072,-0.23808 0.12994,0.11759 0.33877,0.21381 0.46406,0.21381 0.39664,0 0.41533,0.40011 0.0365,0.77904 -0.29796,0.29795 -0.39463,0.32924 -0.6072,0.19647 -0.21238,-0.13263 -0.26373,-0.11629 -0.3208,0.10197 -0.0373,0.14292 -0.19935,0.30844 -0.35994,0.36786 -0.26199,0.097 -0.27015,0.12608 -0.0795,0.28433 0.11682,0.097 0.21247,0.25978 0.21247,0.36177 0,0.15019 0.0495,0.15457 0.26012,0.0231 0.21548,-0.13457 0.3084,-0.11875 0.54152,0.0922 0.36344,0.3289 0.32076,0.93765 -0.0658,0.93765 -0.14717,0 -0.34286,0.0487 -0.43485,0.10815 -0.20742,0.13425 -0.43485,0.005 -0.43485,-0.24574 0,-0.10533 -0.0815,-0.15735 -0.18458,-0.11772 -0.38747,0.14868 -0.97316,-0.99718 -0.62096,-1.21484 0.0827,-0.0511 0.0716,-0.17627 -0.0301,-0.33906 -0.12596,-0.2018 -0.12544,-0.2938 0.002,-0.42195 0.0901,-0.0901 0.16392,-0.30427 0.16392,-0.47583 0,-0.17159 0.0903,-0.34661 0.20069,-0.38897 0.38568,-0.148 0.19714,-0.30082 -0.20023,-0.1623 -0.47625,0.16602 -0.69751,0.77257 -0.49697,1.36233 0.0903,0.26554 0.0797,0.47049 -0.0356,0.68573 -0.21859,0.40844 0.0136,0.84877 0.54521,1.0341 0.21662,0.0755 0.45492,0.25139 0.52954,0.39083 0.15903,0.29713 1.07805,0.35806 1.30126,0.0862 z m 0.0427,-1.29184 c -0.47592,-0.44457 -0.51657,-0.68212 -0.17031,-0.99547 0.4701,-0.42544 1.17904,-0.14967 0.87595,0.34073 -0.059,0.0955 -0.0906,0.33321 -0.0701,0.52834 0.0547,0.52105 -0.1661,0.56496 -0.63557,0.12647 z m 37.77198,0.54758 c -0.15498,-0.90278 -0.15609,-0.8989 0.24704,-0.85175 0.29935,0.035 0.36795,-0.0109 0.36795,-0.24099 0,-0.33181 -0.60891,-0.63194 -1.54142,-0.75976 l -0.59938,-0.0821 0,0.47747 c 0,0.36527 0.0651,0.49812 0.27683,0.56533 0.35339,0.11219 0.79242,0.82728 0.79308,1.29181 0,0.23332 0.082,0.3749 0.23464,0.4062 0.31311,0.0642 0.34854,-0.0648 0.22126,-0.80615 z m -61.02169,-2.40003 c 0.13085,-0.20925 -0.34981,-0.22837 -0.72281,-0.0287 -0.35968,0.19249 -0.3232,0.51264 0.0757,0.66429 0.32119,0.1221 0.33538,0.17657 0.35652,1.36815 l 0.022,1.24095 0.082,-1.5387 c 0.0451,-0.84628 0.12902,-1.61396 0.18654,-1.70594 z m 3.53512,2.7429 c -0.10935,-0.16558 -0.34253,-0.31551 -0.51807,-0.33318 -0.30463,-0.0306 -0.30629,-0.0267 -0.0367,0.0892 0.15534,0.0667 0.31903,0.21663 0.36374,0.33316 0.0447,0.11656 0.15075,0.2119 0.23565,0.2119 0.10327,0 0.0886,-0.0995 -0.0446,-0.30105 z m 27.41903,0.009 c -0.0427,-0.10675 -0.0744,-0.0751 -0.0809,0.0809 -0.005,0.14105 0.0258,0.22009 0.0703,0.17562 0.0445,-0.0445 0.0492,-0.15987 0.01,-0.25646 z m 9.27459,-0.10458 c 0,-0.29809 -0.0501,-0.37797 -0.20068,-0.32017 -0.35241,0.13522 -0.24821,0.57563 0.16724,0.70682 0.0184,0.007 0.0335,-0.16819 0.0335,-0.38665 z m -9.90118,0.0549 c 0,-0.11475 -0.0602,-0.17137 -0.1338,-0.12583 -0.0736,0.0454 -0.13381,0.13935 -0.13381,0.20861 0,0.0693 0.0603,0.12595 0.13381,0.12595 0.0735,0 0.1338,-0.0938 0.1338,-0.2086 z m 27.37552,0.039 c 0.0383,-0.0383 0.081,-0.54263 0.0949,-1.12077 l 0.0254,-1.05117 -1.1373,-0.0791 c -1.01391,-0.0704 -1.20522,-0.0453 -1.76338,0.23161 -0.34434,0.17085 -0.66401,0.372 -0.71034,0.44699 -0.11191,0.18111 0.80532,0.17936 1.1445,-0.002 0.40056,-0.21436 0.76415,0.0626 0.93124,0.70942 0.28873,1.11771 0.24306,1.06207 0.81726,0.99575 0.29044,-0.0335 0.55937,-0.0923 0.59766,-0.13061 z m -52.31525,-0.62332 c -0.0531,-0.40107 -0.0338,-0.69218 0.0495,-0.74365 0.0754,-0.0465 0.55337,-0.11953 1.06242,-0.16219 1.02855,-0.0864 1.11628,-0.24851 0.33556,-0.6208 -0.70111,-0.33434 -0.87418,-0.28293 -1.50223,0.44638 -0.39166,0.45477 -0.67827,0.66894 -0.89527,0.66894 -0.37736,0 -0.56017,-0.2297 -0.35007,-0.43983 0.0819,-0.0819 0.14891,-0.27609 0.14891,-0.43156 0,-0.25712 -0.0724,-0.2819 -0.80052,-0.2743 -0.7597,0.008 -0.80744,0.0282 -0.9366,0.39631 -0.15195,0.4331 -0.17811,0.93034 -0.0554,1.05304 0.0443,0.0442 0.23293,0.0228 0.41907,-0.0481 0.46157,-0.17548 0.78896,-0.046 1.06506,0.4215 0.20691,0.35026 0.30418,0.39326 0.88969,0.39326 l 0.6574,0 -0.0874,-0.65907 z m 28.66249,0.1719 c -0.0245,-0.1239 -0.27774,-0.28873 -0.58127,-0.37823 -0.2959,-0.0872 -0.70232,-0.26633 -0.90315,-0.39792 -0.30609,-0.20056 -0.36515,-0.20696 -0.36515,-0.0395 0,0.27255 0.26959,0.47459 1.02929,0.77144 0.80085,0.31291 0.87398,0.31686 0.82028,0.0443 z m -7.46852,-0.51565 -0.31694,-0.33736 0.29807,-0.40318 c 0.16395,-0.22173 0.25883,-0.46666 0.21086,-0.54429 -0.10728,-0.17354 -0.72782,0.70831 -0.72782,1.03429 0,0.33553 0.55151,0.88916 0.71896,0.7217 0.0893,-0.0893 0.0282,-0.24625 -0.18313,-0.47116 z m 11.37234,0.47183 c 0,-0.0713 -0.0903,-0.0949 -0.20069,-0.0525 -0.11038,0.0424 -0.2007,0.10067 -0.2007,0.12961 0,0.029 0.0902,0.0525 0.2007,0.0525 0.11038,0 0.20069,-0.0584 0.20069,-0.1296 z m -7.22518,-0.13011 c 0,-0.0693 -0.0603,-0.16311 -0.13381,-0.2086 -0.0736,-0.0455 -0.1338,0.0116 -0.1338,0.12596 0,0.11476 0.0602,0.2086 0.1338,0.2086 0.0736,0 0.13381,-0.0566 0.13381,-0.12596 z m 7.71799,-0.16678 c -0.0427,-0.10674 -0.0744,-0.0751 -0.0809,0.0809 -0.005,0.14104 0.0257,0.22007 0.0703,0.17561 0.0445,-0.0445 0.0493,-0.15987 0.0109,-0.25646 z m -1.1618,-0.0419 c 0,-0.11038 -0.0903,-0.20071 -0.20071,-0.20071 -0.20893,0 -0.26545,0.15824 -0.11153,0.3122 0.15395,0.15396 0.31221,0.0974 0.31221,-0.11154 z m 11.43056,-0.46158 c 0.44668,-0.29066 1.1017,-0.65633 1.45563,-0.81258 0.35392,-0.15626 0.67765,-0.37309 0.71937,-0.48183 0.0426,-0.11102 -0.11269,-0.43236 -0.35417,-0.73286 -0.48341,-0.60155 -0.4589,-0.87569 0.0894,-0.9994 1.31126,-0.29582 1.37717,-0.32764 1.37717,-0.66472 0,-0.18113 -0.0614,-0.32933 -0.13667,-0.32933 -0.0752,0 -0.20514,-0.1503 -0.28883,-0.33397 -0.12416,-0.27247 -0.11076,-0.37975 0.073,-0.58274 0.24356,-0.26912 0.16958,-0.68889 -0.12133,-0.68889 -0.37855,0 -0.96785,0.31392 -1.8676,0.99488 -1.26239,0.95543 -1.67249,1.35625 -1.67249,1.6347 0,0.12868 0.35597,0.58016 0.79104,1.00327 0.8237,0.80102 0.83784,0.90966 0.14555,1.11811 -0.18397,0.0554 -0.67899,0.27351 -1.10003,0.48468 -0.8964,0.44959 -1.0585,0.46115 -1.79228,0.12788 -0.6945,-0.31537 -0.9757,-0.18779 -0.6573,0.29819 0.24252,0.3701 0.5059,0.44196 1.73398,0.47298 0.71449,0.018 0.87432,-0.0325 1.60561,-0.50843 z m 2.8815,0.22743 c -0.20775,-0.22137 -0.27031,-0.4325 -0.23632,-0.79756 0.0456,-0.48926 0.0422,-0.49301 -0.22441,-0.25639 -0.14886,0.13207 -0.54159,0.39609 -0.87273,0.58672 -1.29573,0.74588 -1.29154,0.75928 0.23936,0.76402 l 1.37665,0.004 -0.28255,-0.30105 z m -42.46287,-0.0426 c -0.79936,-0.29295 -0.90163,-0.4261 -0.85676,-1.11542 0.0371,-0.56911 0.086,-0.64291 0.68718,-1.03546 l 0.64728,-0.42268 -0.37968,-0.073 c -0.20882,-0.0401 -0.68073,-0.11102 -1.04868,-0.15735 -0.36796,-0.0463 -0.84794,-0.1587 -1.06664,-0.2496 -0.37575,-0.15617 -0.4137,-0.14163 -0.68906,0.26415 -0.49884,0.73509 -0.51653,0.95678 -0.0839,1.05178 0.95301,0.20932 1.77596,1.03993 1.51445,1.52857 -0.12814,0.23946 -0.097,0.27383 0.29155,0.32205 0.23924,0.0297 0.67586,0.0593 0.97022,0.066 l 0.53519,0.0116 -0.52113,-0.19097 z m 6.37487,0.12389 c 0.34628,-0.0572 0.50176,-0.15214 0.50176,-0.30627 0,-0.12286 0.0666,-0.28998 0.1481,-0.37144 0.10837,-0.10837 0.0537,-0.20992 -0.20273,-0.37797 -0.47354,-0.31027 -0.9665,-0.28937 -1.33474,0.0565 l -0.30494,0.28647 -1.10504,-0.32007 c -0.60777,-0.17604 -1.20157,-0.41659 -1.31956,-0.53458 -0.19682,-0.19682 -0.19169,-0.23959 0.0624,-0.51833 0.15223,-0.16709 0.34664,-0.43927 0.43201,-0.60485 0.11837,-0.22967 0.2731,-0.3015 0.65228,-0.30289 0.57183,-0.002 1.09913,-0.12274 1.09913,-0.2516 0,-0.15133 -1.71875,-0.84552 -1.86682,-0.75399 -0.26909,0.1663 -0.43555,-0.0781 -0.21741,-0.31916 0.19033,-0.2103 0.16993,-0.26636 -0.24211,-0.66573 -0.24747,-0.23986 -0.67586,-0.51376 -0.95197,-0.60869 -0.43774,-0.15047 -0.6155,-0.13855 -1.38762,0.0931 -0.93565,0.28071 -1.93061,0.87911 -2.15319,1.29501 -0.11965,0.2235 -0.0415,0.27093 0.76734,0.46661 0.49526,0.11978 1.26174,0.26154 1.70328,0.31494 0.67615,0.0818 0.80915,0.14148 0.84298,0.37829 0.0469,0.3283 -0.71066,1.05389 -1.40189,1.3427 -0.32885,0.1374 -0.44458,0.26953 -0.44458,0.50755 0,0.2761 0.11875,0.36103 0.83625,0.59789 0.45994,0.15185 1.19751,0.36248 1.63904,0.46806 0.82843,0.1981 3.36298,0.2747 4.24815,0.12842 z m 22.57874,-0.19603 c 0,-0.0657 -0.0903,-0.11953 -0.2007,-0.11953 -0.11038,0 -0.2007,0.0885 -0.2007,0.19651 0,0.11965 0.0784,0.16639 0.2007,0.11952 0.11038,-0.0424 0.2007,-0.13079 0.2007,-0.1965 z m 6.92654,0.0143 c -0.092,-0.14718 -0.2881,-0.26061 -0.43597,-0.25207 -0.23524,0.0136 -0.23869,0.0233 -0.0277,0.078 0.19154,0.0497 0.20884,0.10164 0.084,0.25206 -0.1289,0.15533 -0.0937,0.18953 0.19473,0.18953 0.31852,0 0.33611,-0.0255 0.1849,-0.26761 z m 8.63037,0.194 c 0.11772,-0.0452 0.1688,-0.19393 0.13226,-0.38507 -0.0449,-0.23543 0.0528,-0.39713 0.40041,-0.6623 0.25298,-0.19295 0.52955,-0.35083 0.61459,-0.35083 0.25343,0 0.17528,-0.243 -0.10706,-0.3326 -0.14387,-0.0457 -0.5294,-0.38087 -0.8567,-0.7449 -0.32729,-0.36405 -0.65423,-0.6619 -0.72651,-0.6619 -0.17588,0 -0.56359,0.60418 -0.56359,0.87821 0,0.12029 0.18063,0.38736 0.40139,0.59359 0.42628,0.39821 0.52989,0.9817 0.26289,1.4806 -0.1458,0.27244 0.0267,0.34467 0.44224,0.1852 z m -10.41801,-0.24496 c -0.0453,-0.11823 0.0756,-0.2358 0.33569,-0.32649 0.22364,-0.0779 0.53719,-0.2634 0.69678,-0.41208 0.37003,-0.34474 1.26386,-0.48032 1.93608,-0.29367 0.73254,0.20338 1.29813,0.18213 1.93507,-0.0728 l 0.54816,-0.21932 -0.61233,-0.56219 c -0.53639,-0.49244 -0.61236,-0.63029 -0.61236,-1.11105 0,-0.48243 0.0928,-0.64912 0.76698,-1.37727 l 0.76698,-0.82844 -0.73353,0.38533 c -0.6128,0.32189 -0.94273,0.39643 -2.00463,0.45286 l -1.27109,0.0675 -0.22791,0.45653 c -0.27637,0.55365 -0.47953,0.69302 -0.8681,0.59548 -0.20587,-0.0516 -0.40073,0.0311 -0.64274,0.27317 -0.40065,0.40065 -0.63086,0.43519 -0.88222,0.13231 -0.13457,-0.16215 -0.31824,-0.19586 -0.74701,-0.13709 -0.4786,0.0655 -0.59991,0.0331 -0.76679,-0.2051 -0.11231,-0.16044 -0.47691,-0.35354 -0.84153,-0.44578 -0.53031,-0.13416 -0.66407,-0.23075 -0.76153,-0.54994 -0.21555,-0.70597 -0.37613,-0.9582 -0.70557,-1.10831 -0.43232,-0.19696 -0.8455,-0.18844 -0.90577,0.0187 -0.0268,0.092 -0.23279,0.76753 -0.45783,1.50122 -0.30285,0.98732 -0.36776,1.35958 -0.24977,1.43249 0.23384,0.14452 0.40665,-0.21105 0.97523,-2.00667 0.0352,-0.11129 0.4555,0.1861 1.13439,0.80279 1.02472,0.93087 1.1185,0.98426 1.88399,1.07299 1.64204,0.1903 2.30503,0.65545 2.01352,1.41267 -0.0778,0.20193 -0.17998,0.56284 -0.22723,0.80201 -0.0789,0.3993 -0.058,0.43485 0.25504,0.43485 0.235,0 0.31889,-0.0575 0.27003,-0.18476 z m 0.90039,-0.0545 c -0.0965,-0.0322 -0.23911,0.005 -0.31688,0.0828 -0.0993,0.0993 -0.047,0.11669 0.17551,0.0585 0.18093,-0.0473 0.24158,-0.10794 0.14137,-0.14137 z m -27.44727,-0.0284 c 0,-0.0736 -0.0603,-0.13379 -0.13381,-0.13379 -0.0736,0 -0.13378,0.0603 -0.13378,0.13379 0,0.0735 0.0601,0.13381 0.13378,0.13381 0.0736,0 0.13381,-0.0603 0.13381,-0.13381 z m 20.06998,-0.27548 c 0,-0.17051 -0.092,-0.25971 -0.2676,-0.25971 -0.30632,0 -0.32175,0.0502 -0.12712,0.41395 0.16483,0.30798 0.39467,0.21815 0.39467,-0.15424 z m 1.84754,0.26545 c -0.0264,-0.0791 -0.10511,-0.14384 -0.17503,-0.14384 -0.07,0 -0.1487,0.0648 -0.17506,0.14384 -0.0264,0.0791 0.0524,0.14384 0.17506,0.14384 0.12261,0 0.20142,-0.0648 0.17503,-0.14384 z m 3.64158,-0.19937 c 0.0717,-0.18876 0.13038,-0.35434 0.13025,-0.36795 -0.001,-0.087 -1.55673,-0.0573 -1.71754,0.0326 -0.16131,0.0902 -0.13817,0.1432 0.12429,0.28413 0.27617,0.14834 0.87532,0.33391 1.22892,0.38063 0.0571,0.008 0.16237,-0.14074 0.23414,-0.3295 z m -24.89011,0.0197 c 0,-0.33626 -0.15747,-0.61304 -0.3488,-0.61304 -0.22607,0 -0.22806,0.0297 -0.0311,0.46201 0.16886,0.3706 0.37992,0.45452 0.37992,0.15103 z m 0.93661,0.056 c 0,-0.0736 -0.0902,-0.1338 -0.2007,-0.1338 -0.11038,0 -0.2007,0.0603 -0.2007,0.1338 0,0.0735 0.0903,0.1338 0.2007,0.1338 0.11038,0 0.2007,-0.0603 0.2007,-0.1338 z m 0.80279,0.0821 c 0,-0.0283 -0.0899,-0.22406 -0.19987,-0.43485 -0.19765,-0.379 -0.29014,-0.16777 -0.12029,0.27482 0.07,0.18242 0.32017,0.30746 0.32017,0.16003 z m 33.51687,-0.41853 c 0,-0.30944 -0.0599,-0.39955 -0.26577,-0.39955 -0.27821,0 -0.41574,0.33594 -0.28113,0.6867 0.13981,0.36435 0.5469,0.15062 0.5469,-0.28715 z m -26.96067,0.11269 c 0,-0.23957 -0.36914,-0.71297 -0.55594,-0.71297 -0.0622,0 -0.11308,0.17621 -0.11308,0.39158 0,0.36086 0.10392,0.45761 0.56865,0.5295 0.0552,0.009 0.10034,-0.0852 0.10034,-0.20811 z m 8.8913,-0.19457 c 0.19354,-0.23001 0.33437,-0.43209 0.31294,-0.44908 -0.0214,-0.017 -0.23109,-0.0674 -0.46593,-0.11206 -0.37822,-0.0719 -0.45843,-0.0303 -0.70245,0.36453 -0.35669,0.57712 -0.34969,0.61484 0.11398,0.61484 0.27201,0 0.49566,-0.12622 0.7414,-0.41821 z m 2.88309,0.1506 c 0,-0.1784 -0.0893,-0.2676 -0.26761,-0.2676 -0.17839,0 -0.26759,0.0893 -0.26759,0.2676 0,0.1784 0.0893,0.26759 0.26759,0.26759 0.17841,0 0.26761,-0.0893 0.26761,-0.26759 z m -17.05949,-0.56866 c 0,-0.54471 -0.0594,-0.74654 -0.26487,-0.8988 -0.14568,-0.10793 -0.58285,-0.4843 -0.97147,-0.83624 -0.93127,-0.8434 -0.51842,-0.86187 0.54817,-0.0246 l 0.78362,0.61518 0.68818,-0.19063 c 0.57275,-0.15867 0.69492,-0.24696 0.72839,-0.52637 0.0221,-0.18465 -0.0531,-0.41321 -0.16725,-0.5079 -0.15561,-0.12914 -0.20747,-0.13193 -0.20747,-0.0116 0,0.1024 -0.16432,0.0594 -0.45064,-0.11746 -0.56092,-0.34665 -0.61976,-0.34657 -0.61976,9.5e-4 0,0.26895 -0.0155,0.26643 -0.41167,-0.0668 -0.46122,-0.38809 -0.79253,-0.44834 -0.79253,-0.14412 0,0.16106 -0.10909,0.18485 -0.53518,0.11669 -0.29437,-0.0472 -0.53522,-0.0438 -0.53522,0.008 0,0.16598 0.29482,0.67043 0.56595,0.96845 0.32406,0.35618 0.22454,0.56466 -0.22825,0.47811 -0.48314,-0.0923 -0.42014,0.0309 0.25236,0.49356 0.42403,0.29172 0.57201,0.47502 0.52589,0.65132 -0.0888,0.3399 0.27877,0.60066 0.95795,0.67944 0.0742,0.009 0.1338,-0.29749 0.1338,-0.68692 z m 7.47458,0.40783 c 0.20277,-0.32393 0,-0.45951 -0.29254,-0.19515 -0.13503,0.12222 -0.31603,0.22218 -0.40222,0.22218 -0.0861,0 -0.15673,0.0641 -0.15673,0.14268 0,0.22271 0.6922,0.0847 0.85149,-0.16971 z m 4.33822,-0.19665 c 0.38906,-0.18483 0.80516,-0.48525 0.92465,-0.66761 0.11952,-0.18236 0.47798,-1.12516 0.79664,-2.09509 0.45049,-1.37119 0.57966,-1.96445 0.58061,-2.66667 l 0.001,-0.90315 -1.80629,0 -1.80631,0 0,3.42091 0,3.42092 0.30105,-0.0867 c 0.16557,-0.0476 0.61937,-0.23785 1.00846,-0.42268 z m -1.73685,-2.95407 -0.0409,-3.31154 -1.90664,-0.0371 -1.90666,-0.0371 0,0.67266 c 0,0.56727 0.0392,0.67269 0.24955,0.67269 0.35297,0 0.95465,0.50712 0.95465,0.80461 0,0.13749 0.0641,0.28962 0.14251,0.33808 0.0874,0.0541 0.12962,0.5354 0.10909,1.24601 -0.027,0.93713 0.0133,1.22947 0.21234,1.53299 0.34051,0.51969 1.62748,1.38316 2.11919,1.42182 0.0593,0.005 0.0894,-1.48171 0.0668,-3.30306 z m 7.65254,3.11084 c 0,-0.11037 -0.0602,-0.2007 -0.13381,-0.2007 -0.0735,0 -0.13378,0.0903 -0.13378,0.2007 0,0.11038 0.0601,0.20071 0.13378,0.20071 0.0735,0 0.13381,-0.0902 0.13381,-0.20071 z m -4.42022,-0.86223 c -0.008,-0.12429 -0.6628,0.71917 -0.6635,0.85478 0,0.0695 0.14985,-0.0777 0.33383,-0.32703 0.18397,-0.24938 0.33233,-0.48687 0.32967,-0.52775 z m -15.51597,0.59463 c 0,-0.22572 -0.46378,-0.7359 -0.66899,-0.7359 -0.19766,0 -0.16262,0.30073 0.0744,0.63924 0.23722,0.33868 0.59452,0.39678 0.59452,0.0968 z m 21.15052,-0.28917 c 0.17841,-0.19583 0.25327,-0.31528 0.16637,-0.26541 -0.26006,0.14921 -0.35303,-0.17994 -0.12274,-0.43443 0.11758,-0.12993 0.2118,-0.29172 0.20935,-0.35952 -0.002,-0.0678 -0.1212,0.0168 -0.26384,0.188 -0.25103,0.30118 -0.5345,0.29717 -0.5345,-0.008 0,-0.0819 0.10533,-0.27399 0.23415,-0.42696 0.23277,-0.27649 0.23243,-0.27667 -0.0585,-0.0309 -0.29602,0.25013 -0.64486,0.1893 -0.53637,-0.0935 0.0324,-0.0847 -0.0744,-0.1618 -0.23809,-0.17173 -0.20862,-0.0129 -0.33424,0.0869 -0.42208,0.33449 -0.11269,0.31776 -0.0586,0.41471 0.54824,0.98298 0.37032,0.34675 0.67787,0.63274 0.68345,0.63555 0.005,0.002 0.15608,-0.15513 0.33448,-0.35097 z m -22.56287,0.10056 c 0.22805,-0.369 -0.41147,-0.73891 -1.00785,-0.58296 -0.30511,0.0797 -0.20408,0.30329 0.13712,0.30329 0.13383,0 0.31828,0.0903 0.40989,0.2007 0.18961,0.22846 0.35131,0.25617 0.46084,0.079 z m 10.64418,0.0214 c 0,-0.0551 -0.2439,-0.3713 -0.54155,-0.70245 -0.35358,-0.39336 -0.48603,-0.48614 -0.38208,-0.26759 0.35851,0.75358 0.925,1.34854 0.92363,0.97004 z m 9.23256,-0.16724 c 0,-0.14719 -0.0473,-0.26761 -0.10511,-0.26761 -0.0578,0 -0.10511,0.12042 -0.10511,0.26761 0,0.14717 0.0473,0.26759 0.10511,0.26759 0.0578,0 0.10511,-0.12042 0.10511,-0.26759 z m -22.21077,-0.0668 c 0.0916,-0.11038 0.239,-0.2007 0.32755,-0.2007 0.0886,0 0.30154,-0.14961 0.47331,-0.33245 0.38299,-0.40765 0.9321,-0.5225 1.80145,-0.37675 0.57276,0.0961 0.6986,0.0747 0.93634,-0.15858 0.27288,-0.2678 0.27299,-0.27257 0.017,-0.74728 -0.32531,-0.60311 -0.21498,-0.92714 0.31566,-0.92714 0.25978,0 0.44977,-0.0913 0.53977,-0.25948 0.2325,-0.43446 -0.0701,-0.44128 -0.7396,-0.0167 -1.2275,0.77846 -2.9394,0.82896 -4.55949,0.1345 l -0.64691,-0.27729 0.31885,0.3394 c 0.3029,0.32241 0.66865,0.48376 1.53215,0.67597 0.37776,0.0841 0.37957,0.0889 0.13381,0.36386 -0.35571,0.39777 -1.14801,0.87815 -1.67252,1.01408 -0.67437,0.17473 -0.62767,0.46419 0.11644,0.7217 0.82116,0.28418 0.90623,0.28778 1.10619,0.0469 z m 22.90653,-0.0936 c -0.0859,-0.0859 -0.20052,-0.11166 -0.2548,-0.0575 -0.0542,0.0543 -0.0116,0.15238 0.0943,0.21796 0.24989,0.15444 0.36273,0.0417 0.16057,-0.16056 z m 5.24616,0.18026 c 0.12687,-0.20535 -0.24584,-0.52791 -0.72373,-0.62628 l -0.46829,-0.0964 0.40139,0.40118 c 0.41552,0.41528 0.66897,0.51834 0.79063,0.32149 z m -18.23154,-1.21258 c -0.23793,-0.53145 -0.27206,-0.55792 -0.40324,-0.31281 -0.11463,0.21416 -0.0906,0.31551 0.12004,0.50608 0.14482,0.13104 0.2633,0.36942 0.2633,0.52974 0,0.41585 0.193,0.55764 0.24029,0.17654 0.0218,-0.17543 -0.0773,-0.58024 -0.22032,-0.89955 z m 1.79038,0.68403 c -0.0899,-0.0899 -0.47235,0.2438 -0.47235,0.41216 0,0.076 0.12081,0.0289 0.26842,-0.10479 0.14763,-0.1336 0.2394,-0.27194 0.20393,-0.30739 z m 25.88622,-0.10468 c 0,-0.39716 -0.44914,-0.7698 -0.79539,-0.6599 l -0.27939,0.0886 0.26979,0.37888 c 0.14838,0.20839 0.2698,0.47547 0.2698,0.59352 0,0.18114 0.0418,0.18854 0.26759,0.0475 0.14719,-0.092 0.2676,-0.29383 0.2676,-0.4487 z m -24.30797,-0.1558 c -0.25645,-0.18767 -0.47292,0.005 -0.35383,0.31607 0.0525,0.13689 0.12042,0.13942 0.32438,0.0116 0.241,-0.15035 0.24293,-0.17196 0.0295,-0.3282 z m 7.31539,-0.16725 c 0,-0.57127 0.24145,-0.73102 0.3688,-0.24403 l 0.0761,0.2912 0.10908,-0.29504 c 0.0681,-0.18428 0.0359,-0.51079 -0.086,-0.8699 -0.32333,-0.95234 0.11707,-2.00359 1.04581,-2.49628 0.69482,-0.3686 0.98935,-0.33966 4.16067,0.40885 l 1.86122,0.43929 0.3099,-0.36026 c 0.17045,-0.19815 0.46869,-0.86964 0.6628,-1.4922 0.19411,-0.62256 0.40625,-1.09897 0.47143,-1.05868 0.18444,0.11398 0.13945,1.30245 -0.072,1.90173 -0.18741,0.53119 -0.16323,0.69791 0.10121,0.69791 0.0735,0 0.0963,-0.0374 0.0506,-0.0832 -0.0457,-0.0457 0.0564,-0.36186 0.22706,-0.70246 0.17063,-0.34058 0.38323,-0.86008 0.47244,-1.15445 0.0893,-0.29435 0.18974,-0.62052 0.22336,-0.72482 0.0414,-0.12841 0.105,-0.14574 0.19712,-0.0537 0.18932,0.18933 -0.23146,1.80901 -0.61789,2.37847 l -0.30258,0.44587 0.40457,0.0809 c 0.58269,0.11656 1.20122,0.0996 1.12067,-0.0308 -0.0744,-0.12055 0.67085,-2.15006 0.864,-2.3525 0.0697,-0.0731 0.1506,-0.0354 0.19995,0.0933 0.11759,0.30641 -0.28149,1.5894 -0.63364,2.03708 l -0.29674,0.37723 0.92992,-0.0789 c 0.63799,-0.0541 1.21153,-0.21098 1.82717,-0.49982 0.65832,-0.30885 1.16775,-0.44143 1.91273,-0.49776 l 1.01545,-0.0768 -0.35258,-0.36802 c -0.29523,-0.30815 -0.32837,-0.41324 -0.20374,-0.64614 0.16681,-0.3117 -0.0545,-0.8195 -0.35722,-0.8195 -0.41039,0 -2.02528,-0.66246 -4.25984,-1.74749 -2.66648,-1.29476 -3.68758,-1.67463 -4.85682,-1.80692 -0.75178,-0.085 -0.79017,-0.0742 -1.05668,0.3001 -0.4251,0.59699 -0.83349,1.96004 -0.83349,2.78179 0,0.63698 0.0353,0.74013 0.25328,0.74013 0.26603,0 0.41572,-0.24642 0.41572,-0.68439 0,-0.32998 0.57852,-1.48237 0.8625,-1.71803 0.38677,-0.32099 0.38707,-0.0255 0.001,0.82749 -0.2622,0.5791 -0.38075,1.05968 -0.38268,1.55129 l -0.002,0.71225 -0.74068,-0.0832 c -1.98804,-0.22347 -3.43718,-0.29205 -3.8372,-0.18161 -0.61385,0.16949 -0.92338,0.62962 -1.32118,1.96386 -0.18988,0.63695 -0.46236,1.45913 -0.60549,1.82708 -0.56059,1.44122 -0.49964,1.79976 0.30674,1.80425 0.34042,0.001 0.36795,-0.038 0.36795,-0.53314 z m 9.79495,-3.17775 c 0.72175,-1.45292 0.90886,-1.87818 0.90893,-2.066 0,-0.30521 0.25043,-0.44277 0.34714,-0.19077 0.11063,0.28824 -0.29105,1.58088 -0.62194,2.00154 -0.24534,0.31189 -0.76648,0.52164 -0.63413,0.25523 z m -19.10488,2.79895 c -0.0778,-0.10403 -0.59171,0.26982 -0.52322,0.38063 0.0414,0.0673 0.1837,0.0191 0.31593,-0.10707 0.13225,-0.12609 0.22552,-0.2492 0.20729,-0.27356 z m 1.23675,-0.18985 c -0.0371,-0.092 -0.0675,-0.0167 -0.0675,0.16725 0,0.18397 0.0304,0.25923 0.0675,0.16725 0.0371,-0.092 0.0371,-0.24251 0,-0.3345 z m -3.57693,-0.42337 c 0.12992,-0.15657 0.0231,-0.22784 -0.61918,-0.41314 -0.42691,-0.12313 -1.07018,-0.37069 -1.42949,-0.55008 -0.40378,-0.20158 -0.75732,-0.29311 -0.92571,-0.23967 -0.23107,0.0734 -0.19286,0.1154 0.25188,0.27707 0.28838,0.10479 0.64532,0.2081 0.79319,0.2295 0.41309,0.0598 0.84722,0.32829 1.00388,0.621 0.16472,0.30779 0.69656,0.35107 0.92543,0.0753 z m 4.29112,-0.0193 c 0,-0.11476 -0.0603,-0.17137 -0.1338,-0.12597 -0.0735,0.0455 -0.1338,0.13936 -0.1338,0.2086 0,0.0693 0.0601,0.12597 0.1338,0.12597 0.0736,0 0.1338,-0.0939 0.1338,-0.20861 z m 15.24265,-0.49385 c 0.40543,0.24703 0.5165,0.21051 0.75348,-0.24775 0.17309,-0.33474 0.27923,-0.40263 0.54878,-0.35111 0.50812,0.0971 0.1854,-0.12608 -0.41818,-0.28924 -0.43595,-0.11785 -0.55123,-0.10804 -0.64219,0.0545 -0.14688,0.26246 -1.3897,0.26109 -2.37216,-0.002 -0.96297,-0.25848 -0.94704,-0.26278 -0.71934,0.19367 0.22162,0.44426 0.64364,0.63782 0.9095,0.41717 0.22822,-0.1894 0.58039,-0.0536 0.68074,0.26261 0.11141,0.3508 0.49493,0.38437 0.75945,0.0665 0.19226,-0.23109 0.26581,-0.24634 0.49992,-0.10371 z m -6.14426,-0.0957 c 0,-0.34789 -0.52164,-0.64263 -0.68397,-0.38648 -0.0631,0.0996 -0.11476,0.24129 -0.11476,0.31487 0,0.0735 0.0532,0.0497 0.11824,-0.0529 0.14611,-0.23076 0.54666,-0.097 0.54666,0.18255 0,0.1127 0.0302,0.2049 0.0668,0.2049 0.0368,0 0.0668,-0.11835 0.0668,-0.26289 z m 16.16346,-0.43414 c 0.03,-0.35085 -0.0401,-0.56049 -0.2676,-0.79902 -0.16948,-0.17784 -0.22841,-0.22039 -0.13094,-0.0946 0.12467,0.161 0.14917,0.41588 0.0826,0.85988 -0.076,0.50639 -0.0581,0.61903 0.0904,0.57019 0.10175,-0.0335 0.20327,-0.27489 0.22558,-0.53651 z m -26.88758,-4.43012 c 0.0846,-0.20716 0.14902,-0.50821 0.14302,-0.669 -0.009,-0.24119 -0.0442,-0.21619 -0.20125,0.14289 -0.29057,0.66447 -0.47949,2.28247 -0.3632,3.11047 0.0978,0.69664 0.10783,0.65736 0.18544,-0.73589 0.0452,-0.80951 0.15134,-1.6413 0.23599,-1.84847 z m -0.91647,2.85196 c 0,-0.0735 -0.15052,-0.13381 -0.33451,-0.13381 -0.18396,0 -0.33448,-0.0556 -0.33448,-0.12351 0,-0.068 0.15052,-0.30243 0.33448,-0.52107 0.18399,-0.21864 0.33451,-0.43398 0.33451,-0.47856 0,-0.0446 -0.286,-0.0714 -0.63555,-0.0597 -0.4885,0.0165 -0.53493,0.0338 -0.2007,0.0753 0.52662,0.0653 0.53392,0.11965 0.0799,0.59352 -0.2964,0.30936 -0.32678,0.4043 -0.18431,0.57597 0.18827,0.22684 0.94061,0.28422 0.94061,0.0717 z m -1.71832,-1.40507 c 0.0515,-0.82789 -0.0507,-0.92399 -0.35557,-0.33433 -0.11412,0.22077 -0.31141,0.40169 -0.43829,0.40207 -0.17245,5.2e-4 -0.12934,0.0837 0.17069,0.32968 0.22077,0.18096 0.44099,0.33119 0.48937,0.33384 0.0484,0.002 0.10857,-0.32643 0.1338,-0.73126 z m 12.02615,-1.10953 c -0.0697,-0.36762 -0.21935,-0.87042 -0.33253,-1.11734 l -0.20577,-0.44895 0.0513,0.46829 c 0.11515,1.05329 0.3985,2.15115 0.50568,1.95966 0.0594,-0.1062 0.0511,-0.49405 -0.0187,-0.86166 z m -5.06477,-1.99844 c -0.0232,-1.52565 -0.0554,-2.78719 -0.0715,-2.80341 -0.0163,-0.0163 -0.8854,-0.0714 -1.9315,-0.12248 l -1.90203,-0.093 0,0.86794 c 0,0.47736 0.0396,1.78065 0.0879,2.8962 l 0.0879,2.02827 1.88573,1.4e-4 1.88577,1.3e-4 -0.042,-2.77394 z m 4.12477,0.2649 c 0.001,-1.37982 0.0381,-2.64423 0.0826,-2.80981 l 0.0807,-0.30104 -1.88882,0 -1.8888,0 0,2.80978 0,2.80981 1.80629,0 1.80631,0 0.001,-2.50874 z m -11.77623,2.12618 c 0,-0.0632 0.22802,-0.37933 0.50669,-0.70245 0.30707,-0.35604 0.60327,-0.90375 0.75186,-1.39029 0.32124,-1.05185 0.6114,-1.60889 1.27604,-2.44972 0.48094,-0.60843 0.52658,-0.72419 0.37883,-0.96077 -0.22353,-0.35793 -0.30945,-0.33977 -0.49338,0.10435 -0.25311,0.61108 -1.09749,1.80303 -1.91217,2.69932 -0.73193,0.80523 -0.78307,0.83595 -1.24715,0.74887 -0.26616,-0.05 -0.56997,-0.12377 -0.67511,-0.16415 -0.14229,-0.0546 -0.19134,0.0417 -0.1917,0.37579 0,0.24704 -0.11514,0.63708 -0.25514,0.86675 -0.25261,0.41427 -0.25236,0.41986 0.0303,0.70246 0.22487,0.22488 0.44764,0.28486 1.05792,0.28486 0.42519,0 0.77306,-0.0517 0.77306,-0.11501 z m 16.3236,-0.41234 c 0,-0.55192 -0.1875,-0.86316 -0.21871,-0.36308 -0.01,0.15856 -0.062,0.42375 -0.11591,0.58933 -0.0743,0.22845 -0.0459,0.30105 0.11836,0.30105 0.16261,0 0.21631,-0.13087 0.21631,-0.5273 z m -0.98277,0.14882 c -0.29372,-0.32455 -0.27923,-0.58237 0.0568,-1.0095 l 0.27821,-0.35367 -0.89186,-1.06928 c -0.49052,-0.5881 -0.91342,-1.06927 -0.9398,-1.06927 -0.0264,0 0.0964,0.3161 0.27285,0.70245 0.37234,0.81536 0.73479,2.13269 0.73479,2.67067 0,0.31478 0.0556,0.37328 0.35525,0.37328 0.33567,0 0.34304,-0.0136 0.1338,-0.24468 z m -12.99019,-0.008 c -0.0909,-0.14711 -1.01264,-0.26599 -1.01264,-0.1306 0,0.0855 0.28933,0.15841 0.91104,0.22957 0.0963,0.0116 0.14205,-0.0335 0.10164,-0.0989 z m 11.61989,-0.16686 c -0.0289,-0.0469 0.0372,-0.1596 0.14683,-0.25055 0.1096,-0.0909 0.19706,-0.26333 0.19442,-0.38311 -0.004,-0.15881 -0.0864,-0.11811 -0.30606,0.15019 -0.16571,0.20237 -0.40438,0.36795 -0.53041,0.36795 -0.12596,0 -0.22912,0.0578 -0.22912,0.1284 0,0.0706 0.17477,0.11579 0.38837,0.10034 0.21359,-0.0154 0.36478,-0.0665 0.33597,-0.1132 z m -16.99374,-0.93308 c 0.14019,0.1553 0.29416,0.28237 0.34215,0.28237 0.12042,0 0.54593,-1.74431 0.50589,-2.07392 -0.0239,-0.19607 0.0346,-0.25603 0.21858,-0.22438 0.20194,0.0348 0.23642,-0.0177 0.17613,-0.26759 -0.0412,-0.17095 -0.0322,-0.55165 0.0201,-0.84602 0.0523,-0.29436 0.0562,-0.74593 0.009,-1.00349 l -0.0863,-0.4683 -0.0177,0.50594 c -0.0109,0.29652 -0.095,0.53567 -0.20472,0.57775 -0.10294,0.0395 -0.25793,0.35371 -0.34448,0.69826 -0.15822,0.62967 -0.48528,1.43171 -0.69968,1.71567 -0.15224,0.20166 -1.91883,-0.6582 -2.1184,-1.03108 -0.0786,-0.14706 -0.23955,-0.2504 -0.35743,-0.22965 -0.28391,0.05 -1.09757,-1.30237 -1.1044,-1.83549 -0.005,-0.36716 0.0393,-0.32917 0.51546,0.44497 0.30124,0.48974 0.54853,0.77164 0.58689,0.669 0.0456,-0.1221 0.18566,-0.0461 0.44936,0.24379 0.21071,0.23165 0.59384,0.53204 0.85139,0.66753 0.25758,0.13549 0.57368,0.3316 0.70246,0.43581 0.20541,0.16622 0.23415,0.16166 0.23415,-0.0373 0,-0.12467 0.12042,-0.46282 0.2676,-0.75131 0.15127,-0.29653 0.26759,-0.78858 0.26759,-1.13197 0,-0.61371 0.0917,-0.72983 0.36244,-0.45907 0.10857,0.10856 0.17388,-0.09 0.24362,-0.74121 0.0743,-0.6934 0.0446,-1.02234 -0.13475,-1.49178 -0.13133,-0.34392 -0.19427,-0.74456 -0.14671,-0.93406 0.0459,-0.18249 0.0156,-0.45833 -0.0673,-0.613 -0.12949,-0.24195 -0.23223,-0.26999 -0.7361,-0.20093 -1.2675,0.17374 -4.20427,1.72884 -4.20427,2.22631 0,0.0627 0.14232,0.28418 0.31628,0.4922 0.22326,0.26694 0.33425,0.59857 0.37727,1.12717 0.0335,0.41194 0.19166,0.99969 0.35138,1.30613 0.15971,0.30643 0.32989,0.80417 0.37817,1.1061 0.0674,0.42114 0.11592,0.49866 0.20868,0.33293 0.18315,-0.32724 0.28069,-0.26894 0.61987,0.37041 0.22084,0.41628 0.50102,0.68979 0.96569,0.9427 0.36002,0.19595 0.70032,0.42879 0.75623,0.51742 0.0644,0.10218 0.12713,0.0212 0.17136,-0.22157 l 0.0696,-0.38272 0.25488,0.28236 z m -1.75256,-3.7957 c -0.41542,-0.42889 -0.71001,-0.85386 -0.71001,-1.02423 0,-0.27361 0.0147,-0.27782 0.24467,-0.0697 0.28431,0.25729 0.84134,0.29789 0.79228,0.0577 -0.0184,-0.09 -0.15388,-0.22701 -0.30106,-0.30441 -0.14718,-0.0774 -0.28684,-0.27467 -0.31036,-0.43841 -0.0497,-0.34615 -0.0433,-0.3442 -0.48067,-0.14492 -0.27106,0.12351 -0.40046,0.11011 -0.67529,-0.07 -0.43527,-0.28521 -0.43391,-0.48421 0.004,-0.48421 0.18881,0 0.47095,-0.0682 0.62696,-0.1518 0.24222,-0.12964 0.32889,-0.0992 0.5933,0.20816 0.1703,0.19799 0.30965,0.44694 0.30965,0.55322 0,0.18792 0.4122,0.27162 0.5684,0.11539 0.0427,-0.0427 -0.0129,-0.29346 -0.12248,-0.55704 -0.2559,-0.61247 -0.0783,-0.98663 0.56361,-1.18755 0.40079,-0.12544 0.4622,-0.11489 0.4622,0.0796 0,0.12338 -0.1551,0.37002 -0.34467,0.5481 -0.27086,0.25446 -0.32794,0.40735 -0.26657,0.71411 0.0516,0.25825 0.007,0.46901 -0.13236,0.62286 -0.16109,0.17799 -0.17182,0.25639 -0.0457,0.33428 0.1024,0.0632 0.28042,-0.0434 0.47061,-0.28193 0.48321,-0.60601 0.56438,-0.066 0.19195,1.27714 -0.18053,0.65101 -0.35875,0.93659 -0.58445,0.93659 -0.0789,0 -0.46281,-0.32986 -0.85333,-0.73306 z m 0.94816,-0.14758 c 0.21612,-0.56317 -0.2122,-0.84299 -0.59124,-0.38626 -0.14061,0.16939 -0.12609,0.23815 0.084,0.39713 0.32809,0.24834 0.40847,0.24662 0.50728,-0.0109 z m 20.47803,2.72971 c -0.0425,-0.13391 -0.13747,-0.24347 -0.21107,-0.24347 -0.0739,0 -0.0949,0.12261 -0.0468,0.27416 0.0502,0.15835 0.001,0.40506 -0.11604,0.58406 -0.15421,0.23533 -0.16567,0.34732 -0.0476,0.46532 0.11798,0.11798 0.19673,0.036 0.32713,-0.34061 0.0944,-0.27281 0.13695,-0.60556 0.0944,-0.73946 z m -3.92283,0.52366 c -0.13213,-0.13116 -0.1475,-0.11579 -0.075,0.075 0.0502,0.13196 0.12506,0.20623 0.16626,0.16503 0.0412,-0.0412 8e-5,-0.14916 -0.0913,-0.23992 z m -9.82858,-0.0233 c 0.16833,0.23021 0.17839,0.2272 0.17839,-0.0535 0,-0.39971 -0.35007,-0.5107 -0.67716,-0.2147 -0.33824,0.30611 -0.67996,0.0704 -0.39526,-0.27254 0.0957,-0.11527 0.13752,-0.24603 0.093,-0.29056 -0.0446,-0.0446 -0.15226,0.0756 -0.23943,0.26687 -0.12467,0.27353 -0.12171,0.39219 0.0139,0.55551 0.15544,0.1873 0.20551,0.18595 0.51026,-0.0138 0.31737,-0.20794 0.34879,-0.20658 0.51633,0.0226 z m 10.61479,-1.16765 c 0,-0.0735 -0.24085,0.057 -0.53521,0.29009 -0.29435,0.23313 -0.5352,0.4841 -0.5352,0.55768 0,0.0735 0.24085,-0.057 0.5352,-0.29009 0.29436,-0.23313 0.53521,-0.4841 0.53521,-0.55768 z m 2.24114,0.43144 c 0.16558,-0.13813 0.29924,-0.30171 0.29705,-0.3635 -0.008,-0.20914 -1.974,-2.18625 -2.17458,-2.18625 -0.10947,0 -0.38053,0.0763 -0.60231,0.16954 l -0.4032,0.16953 0.31453,0.36567 c 0.17298,0.20111 0.40722,0.36566 0.52051,0.36566 0.11334,0 0.52258,0.39006 0.90956,0.86682 0.38698,0.47675 0.73369,0.8661 0.77049,0.86523 0.0369,-7.9e-4 0.20237,-0.11461 0.36795,-0.2527 z m 8.03469,-0.0343 c 0.0883,-0.0884 0.16055,-0.20873 0.16055,-0.26761 0,-0.19713 -0.20152,-0.10973 -0.37034,0.16057 -0.18297,0.29297 -0.046,0.36284 0.20979,0.10707 z m -0.6733,-0.24084 c -0.13362,-0.21397 -0.13362,-0.32123 0,-0.53521 0.13939,-0.22318 0.13362,-0.26759 -0.0346,-0.26759 -0.11102,0 -0.20183,-0.0638 -0.20183,-0.14171 0,-0.0779 -0.0606,-0.10413 -0.13477,-0.0584 -0.0741,0.0459 -0.17324,-0.0171 -0.22032,-0.13978 -0.0678,-0.17655 -0.12197,-0.13648 -0.26019,0.19222 -0.0961,0.2284 -0.26644,0.41526 -0.37868,0.41526 -0.26703,0 -0.66289,-0.61006 -0.56366,-0.86867 0.0473,-0.12338 0.001,-0.20172 -0.11914,-0.20172 -0.10804,0 -0.19648,-0.0666 -0.19648,-0.14795 0,-0.0814 -0.18213,0.047 -0.40474,0.28532 -0.3965,0.42445 -0.41029,0.42826 -0.67724,0.18666 -0.1585,-0.14345 -0.24547,-0.34996 -0.20788,-0.49366 0.0394,-0.15067 0.004,-0.22644 -0.0921,-0.19422 -0.0861,0.0291 -0.21851,-0.031 -0.29405,-0.13344 -0.17287,-0.23447 -0.64187,-0.0761 -0.5424,0.1831 0.0394,0.10251 -0.0428,0.30086 -0.18266,0.44067 -0.21586,0.21588 -0.22384,0.26589 -0.0529,0.33147 0.11077,0.0425 0.39327,0.0772 0.6279,0.0772 0.60152,0 2.13847,0.44587 3.16411,0.9179 0.47835,0.22016 0.88528,0.40473 0.90429,0.4102 0.0191,0.005 -0.0406,-0.11052 -0.13253,-0.2577 z m -20.00001,-0.20188 c -0.15852,-0.11102 -0.31424,-0.33682 -0.34605,-0.50175 -0.0531,-0.27522 -0.0593,-0.27182 -0.0762,0.0413 -0.0202,0.37935 0.1962,0.66231 0.50661,0.66231 0.14508,0 0.12081,-0.058 -0.0845,-0.20188 z m 14.47006,-0.36962 c 0.2681,-0.38591 0.30617,-0.49032 0.11965,-0.32843 -0.15035,0.13056 -0.36697,0.20147 -0.48134,0.15758 -0.22509,-0.0865 -0.44863,0.36651 -0.29978,0.60734 0.13997,0.22649 0.25232,0.15234 0.66144,-0.43649 z m 6.84,-0.41584 c 0.0439,-0.17508 0.0601,-0.49118 0.036,-0.70244 -0.0432,-0.37794 -0.0487,-0.37461 -0.33914,0.20671 -0.16239,0.32496 -0.26419,0.64106 -0.22624,0.70244 0.13903,0.22497 0.45168,0.10294 0.52937,-0.20671 z m -0.38195,-2.76572 c 0.0543,-0.74104 0.0129,-1.22111 -0.1561,-1.80204 -0.24674,-0.84878 -1.0209,-2.13022 -1.44055,-2.38449 -0.14099,-0.0854 -0.33726,-0.3463 -0.43618,-0.57975 -0.18096,-0.42701 -0.81001,-0.95247 -0.9603,-0.80218 -0.0445,0.0445 -0.007,0.2597 0.084,0.47843 0.14862,0.35878 0.12995,0.4433 -0.19096,0.86402 -0.19564,0.2565 -0.51443,0.57036 -0.70844,0.69746 l -0.35272,0.23112 0.4335,0.3619 0.43348,0.3619 -0.34903,0.22869 c -0.43969,0.2881 -0.79331,0.0696 -0.67167,-0.41482 0.11835,-0.47181 -0.0679,-0.38087 -0.8574,0.41858 -0.39628,0.40126 -0.84579,0.74746 -0.99892,0.76935 -0.22144,0.0317 -0.27843,0.13566 -0.27843,0.50808 0,0.43211 0.0284,0.46498 0.36795,0.42528 0.31005,-0.0362 0.36794,0.007 0.36794,0.2743 0,0.17451 -0.0727,0.38998 -0.16151,0.47882 -0.12621,0.12623 -0.10987,0.21257 0.0743,0.3947 0.22447,0.22199 0.25315,0.21239 0.59637,-0.1997 0.19828,-0.23811 0.55363,-0.49899 0.78961,-0.57973 0.3755,-0.12853 0.40954,-0.17809 0.27265,-0.39725 -0.25302,-0.40516 -0.0343,-0.43481 0.50546,-0.0686 0.89124,0.6048 1.66951,0.317 1.66951,-0.61736 0,-0.42123 0.17658,-0.58369 0.37457,-0.34461 0.0865,0.10436 0.0965,0.3876 0.0277,0.76397 -0.12081,0.65982 -0.62272,1.2081 -1.10584,1.2081 -0.15796,0 -0.48573,0.19242 -0.72836,0.42759 l -0.44115,0.42757 1.20759,0.43116 c 0.66415,0.23714 1.40169,0.55508 1.63897,0.70653 l 0.43141,0.27535 0.24421,-0.76615 c 0.13432,-0.42139 0.27757,-1.22072 0.31834,-1.7763 z m -11.53059,2.17331 c -0.0412,-0.0412 -0.14917,-10e-5 -0.23994,0.0913 -0.13115,0.13214 -0.11579,0.14751 0.075,0.075 0.13195,-0.0502 0.20621,-0.12506 0.16502,-0.16625 z m 5.10564,-0.0982 c 0.072,-0.2192 -0.30182,-0.64801 -0.4728,-0.54234 -0.0847,0.0524 -0.15409,0.2464 -0.15409,0.43116 0,0.26868 0.0581,0.32735 0.29058,0.29314 0.1598,-0.0235 0.31115,-0.10533 0.33631,-0.18196 z m 7.47917,-0.94369 c 0.0728,-0.38785 0.0351,-0.53586 -0.19463,-0.76563 l -0.28485,-0.28484 0.001,0.46458 c 0.004,1.03781 0.32013,1.42549 0.47763,0.58589 z m -16.80305,-0.47371 c 1.21423,-0.007 2.53522,0.0559 2.93555,0.13832 0.48204,0.0992 0.77275,0.105 0.86078,0.017 0.0731,-0.0731 0.0995,-0.16645 0.0584,-0.20744 -0.3736,-0.37362 -5.37261,-0.56948 -7.31911,-0.28677 -1.27012,0.18446 -1.82109,0.41745 -1.48237,0.62679 0.0679,0.042 0.71201,-0.002 1.43127,-0.0999 0.7193,-0.097 2.30125,-0.18153 3.51548,-0.1879 z m 11.86043,-0.1355 c 0.37986,-0.38902 0.44591,-0.51559 0.26897,-0.51559 -0.32735,0 -0.90272,0.31761 -1.24953,0.68974 l -0.29241,0.31377 0.38476,0.0138 c 0.28069,0.0109 0.52092,-0.12557 0.88821,-0.50174 z m -14.33573,-0.78201 c 0.88308,-0.0719 1.69425,-0.1317 1.80261,-0.13287 0.13153,-0.001 0.0981,-0.0715 -0.10066,-0.21064 -0.28805,-0.20175 -0.29009,-0.21899 -0.0632,-0.53099 0.29656,-0.40783 0.4482,-0.40981 0.82304,-0.0109 l 0.30068,0.32007 -0.29224,0.20471 c -0.2841,0.19898 -0.27597,0.20656 0.29128,0.27159 1.32761,0.15222 3.5086,0.3506 3.52518,0.32064 0.18039,-0.32587 1.25712,-3.10321 1.21815,-3.14218 -0.0301,-0.03 -0.0942,0.0704 -0.14261,0.22322 -0.10728,0.33791 -0.28058,0.356 -0.45331,0.0473 -0.10848,-0.19389 -0.14822,-0.15678 -0.25062,0.23415 -0.0908,0.34664 -0.0761,0.49851 0.0579,0.59839 0.14845,0.11063 0.14201,0.1875 -0.0371,0.4433 -0.32301,0.46119 -0.80308,0.60278 -1.18816,0.35046 -0.40691,-0.26663 -0.49703,-0.51343 -0.33911,-0.92877 0.0888,-0.23378 0.22764,-0.33335 0.46453,-0.33335 0.18581,0 0.33782,-0.0552 0.33782,-0.12287 0,-0.32774 -0.19299,-0.54614 -0.48263,-0.54614 -0.24524,0 -0.32017,-0.0722 -0.32017,-0.30893 0,-0.1699 -0.0892,-0.4258 -0.19816,-0.56864 -0.17152,-0.22481 -0.2162,-0.23275 -0.33245,-0.059 -0.0738,0.11037 -0.13522,0.36627 -0.13634,0.56864 -0.001,0.30274 -0.0613,0.36797 -0.33656,0.36797 -0.26759,0 -0.33449,0.0668 -0.33449,0.33449 0,0.19493 0.0769,0.3345 0.18432,0.3345 0.59977,0 0.59008,0.98608 -0.0116,1.21498 -0.68529,0.26054 -1.51036,-0.34203 -1.51036,-1.10306 0,-0.44599 0.17587,-0.57184 0.53243,-0.381 0.25305,0.13543 0.27037,0.10533 0.27037,-0.4697 0,-0.60818 -0.002,-0.61229 -0.29738,-0.4061 -0.16355,0.1145 -0.34417,0.20829 -0.40139,0.20829 -0.18038,0 -0.1127,-0.74015 0.0925,-1.01138 0.2965,-0.39201 0.25104,-0.45249 -0.29679,-0.39484 -0.27598,0.029 -0.60167,0.0563 -0.72378,0.0605 -0.20001,0.007 -0.19561,0.0624 0.0443,0.55884 0.32566,0.67402 0.17113,0.91116 -0.33454,0.51339 l -0.35742,-0.28114 0,0.74274 0,0.74275 0.33506,-0.15268 c 0.41696,-0.18997 0.52571,-0.0908 0.40925,0.37325 -0.10986,0.43792 -0.813,1.12316 -1.15239,1.12316 -0.1353,0 -0.41191,-0.14272 -0.61471,-0.31716 -0.36074,-0.3103 -0.36374,-0.32475 -0.13817,-0.66899 0.12687,-0.19351 0.34956,-0.35186 0.49506,-0.35186 0.31258,0 0.34824,-0.29913 0.0638,-0.53519 -0.15715,-0.13044 -0.24296,-0.1315 -0.39554,-0.005 -0.23933,0.19862 -0.47415,0.0728 -0.47415,-0.25426 0,-0.13383 -0.0893,-0.31744 -0.19849,-0.40804 -0.16466,-0.13666 -0.22167,-0.10381 -0.33448,0.19302 -0.0749,0.19677 -0.13604,0.44415 -0.13604,0.54975 0,0.11566 -0.1331,0.19199 -0.33449,0.19199 -0.28167,0 -0.33451,0.0627 -0.33451,0.39721 0,0.30236 0.049,0.37834 0.20569,0.31826 0.20302,-0.0779 0.73092,0.29004 0.73092,0.50947 0,0.0623 -0.12042,0.23348 -0.26761,0.38065 -0.3903,0.39031 -0.98752,0.34589 -1.3492,-0.10034 -0.19091,-0.23556 -0.26577,-0.2775 -0.208,-0.11656 0.0496,0.13826 0.15728,0.51761 0.23921,0.84303 0.1368,0.54325 0.17762,0.58553 0.49934,0.51703 0.19269,-0.0411 1.07288,-0.13345 1.95596,-0.20536 z m -0.93661,-0.26878 c -0.13839,-0.22395 0.0622,-0.4014 0.45391,-0.4014 0.45853,0 0.59344,0.12043 0.39826,0.35564 -0.17417,0.20984 -0.73222,0.23982 -0.85217,0.0457 z m 5.16948,-0.0109 c -0.26161,-0.10468 -0.2877,-0.16115 -0.15086,-0.32602 0.20907,-0.25192 0.41363,-0.25225 0.74266,-0.001 0.22479,0.17152 0.23274,0.21621 0.059,0.33245 -0.2366,0.15832 -0.2425,0.15827 -0.65083,-0.005 z m 7.4104,0.36283 c -0.13702,-0.10024 -0.37111,-0.1503 -0.52015,-0.11128 -0.26514,0.0693 -0.26537,0.073 -0.0109,0.17278 0.14323,0.056 0.3773,0.10609 0.52014,0.11128 0.25187,0.009 0.25219,0.004 0.0109,-0.17278 z m 7.82594,-0.25267 c -0.16583,-0.69143 -0.26915,-0.87252 -0.63446,-1.11188 -0.33786,-0.22137 -0.34178,-0.21997 -0.2582,0.0923 0.0466,0.17441 0.0857,0.38776 0.0867,0.47411 0.002,0.18897 0.64996,0.98031 0.80243,0.98031 0.0592,0 0.061,-0.19569 0.004,-0.43486 z m -29.27005,-2.47317 1.03695,-0.34559 0,-0.83211 c 0,-0.6125 -0.0586,-0.88056 -0.22221,-1.01573 -0.20285,-0.16767 -0.20622,-0.158 -0.0387,0.11089 0.13457,0.21612 0.14847,0.3939 0.0522,0.66769 -0.16368,0.46545 -0.52658,0.55103 -0.72941,0.17201 -0.1252,-0.2338 -0.10837,-0.33749 0.0913,-0.56105 0.23972,-0.26855 0.23854,-0.27229 -0.057,-0.18035 -0.21314,0.0663 -0.32536,0.0323 -0.38228,-0.11605 -0.0443,-0.1154 -0.13241,-0.20992 -0.19584,-0.20992 -0.0633,0 -0.0825,0.0854 -0.0424,0.1899 0.04,0.10446 -0.0342,0.35317 -0.16489,0.55274 -0.23535,0.35921 -0.23478,0.36192 0.0575,0.26918 0.39913,-0.12673 0.53876,0.24922 0.22242,0.59877 -0.2871,0.31724 -0.63636,0.33763 -0.8742,0.051 -0.13123,-0.15812 -0.13848,-0.27097 -0.0287,-0.44682 0.14565,-0.2332 0.0508,-0.54832 -0.17798,-0.59069 -0.0653,-0.0116 -0.10436,-0.0657 -0.0866,-0.11901 0.0178,-0.0534 -0.1172,-0.0289 -0.3,0.0545 -0.25631,0.11682 -0.2985,0.19215 -0.1845,0.32953 0.11114,0.13399 0.0964,0.19783 -0.0596,0.25767 -0.26697,0.1024 -0.14483,0.43176 0.15176,0.40914 0.31631,-0.0241 0.37056,0.54501 0.0823,0.86351 -0.27546,0.30438 -0.57912,0.3265 -0.93271,0.068 -0.24885,-0.18196 -0.24945,-0.19802 -0.0168,-0.45501 0.14408,-0.15924 0.18746,-0.29955 0.10782,-0.34878 -0.0732,-0.0453 -0.17289,-0.0183 -0.22131,0.0601 -0.0611,0.0988 -0.14694,0.0936 -0.28009,-0.0168 -0.2344,-0.19455 -0.26428,-0.16557 -0.37825,0.36692 -0.0752,0.3514 -0.051,0.41796 0.14647,0.4014 0.27191,-0.0228 0.40962,0.40616 0.19825,0.61754 -0.0984,0.0984 -0.20579,0.0867 -0.35714,-0.039 -0.1555,-0.12907 -0.13701,-0.0449 0.0656,0.29851 l 0.28214,0.47817 1.09942,-0.59733 c 0.60469,-0.32853 1.56604,-0.75284 2.13638,-0.94291 z m 7.27662,0.48958 c -0.15873,-0.59473 -0.28813,-0.66591 -0.40005,-0.22006 -0.11938,0.47576 0.0329,0.87791 0.30544,0.80662 0.2049,-0.0536 0.21694,-0.12828 0.0947,-0.58656 z m 21.65899,0.18147 c -0.23848,-0.37674 -0.72641,-0.83199 -0.89758,-0.83744 -0.24302,-0.008 0.24315,0.85415 0.60642,1.07506 0.51133,0.31096 0.59513,0.24259 0.29116,-0.23762 z m -0.87109,-1.50942 c -0.16669,-0.31148 -0.59537,-0.60381 -1.0704,-0.72997 -0.30489,-0.081 -0.29306,-0.0521 0.13381,0.3266 0.38205,0.33892 0.80977,0.61096 1.04165,0.66249 0.0211,0.005 -0.0263,-0.11192 -0.10511,-0.25912 z m -30.90507,-0.33773 c 0.0931,-0.11218 0.13108,-0.24209 0.0845,-0.28874 -0.0466,-0.0466 -0.0178,-0.1656 0.0643,-0.26436 0.0819,-0.0988 0.0927,-0.17957 0.0239,-0.17957 -0.19416,0 -0.85934,0.74307 -0.75688,0.84553 0.15174,0.15173 0.40543,0.10272 0.58437,-0.11283 z m 9.56399,-0.19746 c 0.23507,-0.25975 0.2337,-0.26761 -0.0461,-0.26761 -0.19914,0 -0.28834,0.0828 -0.28834,0.26761 0,0.14717 0.0207,0.26759 0.0461,0.26759 0.0254,0 0.15514,-0.12042 0.28834,-0.26759 z m 16.53199,-0.58185 c -0.13898,-0.36555 -0.40911,-0.48694 -0.40911,-0.18383 0,0.24269 0.44214,0.84414 0.49781,0.67715 0.0254,-0.0763 -0.0145,-0.29819 -0.0887,-0.49332 z m 0.74214,0.21667 c -0.13601,-0.136 -0.24825,0.0688 -0.13666,0.24933 0.0844,0.1364 0.11579,0.1365 0.16115,5.4e-4 0.031,-0.093 0.02,-0.2054 -0.0245,-0.24987 z m -8.10883,-0.10153 c 0,-0.15089 -1.10891,-0.74772 -1.85844,-1.00022 -1.0979,-0.36984 -1.48657,-0.36126 -1.48657,0.0329 0,0.27153 0.0705,0.30827 0.63556,0.33118 0.77172,0.0313 1.85388,0.27185 2.30804,0.51305 0.38733,0.20571 0.40141,0.21003 0.40141,0.12313 z m 1.07039,-0.20238 c 0,-0.14867 -0.0893,-0.26761 -0.2007,-0.26761 -0.24194,0 -0.25866,0.15612 -0.0402,0.37465 0.21592,0.21592 0.24084,0.20486 0.24084,-0.10707 z m -7.49813,-0.21026 c 0.40181,-0.10512 0.92865,-0.19114 1.17075,-0.19114 0.38033,0 0.44018,-0.0454 0.44018,-0.3345 0,-0.18397 -0.0508,-0.3345 -0.11282,-0.3345 -0.2135,0 -1.57331,0.50261 -2.13473,0.78902 -0.55431,0.28277 -0.78375,0.52969 -0.32807,0.35303 0.12879,-0.05 0.56291,-0.17678 0.96471,-0.28191 z m -11.31594,-0.0909 c 0.10338,-0.16398 0.0738,-0.28898 -0.11888,-0.50196 -0.2022,-0.22343 -0.2195,-0.30654 -0.0817,-0.3918 0.13525,-0.0835 0.10794,-0.17076 -0.12029,-0.38338 -0.31258,-0.29122 -0.78524,-0.2635 -0.54024,0.0317 0.0897,0.10815 0.0881,0.20742 -0.005,0.30072 -0.0964,0.0964 -0.0818,0.19661 0.0475,0.32595 0.10261,0.10262 0.22923,0.35599 0.28115,0.56285 0.0997,0.39728 0.30863,0.41901 0.53765,0.0559 z m 9.71568,-0.11656 c 0,-0.0645 -0.0903,-0.11745 -0.20071,-0.11745 -0.11539,0 -0.2007,0.12068 -0.2007,0.28397 0,0.23727 0.033,0.25659 0.2007,0.11746 0.11038,-0.0915 0.20071,-0.2194 0.20071,-0.28399 z m -8.55271,-0.002 c 0.14058,-0.26269 0.12673,-0.27995 -0.16254,-0.20251 -0.17392,0.0465 -0.36877,0.0855 -0.43296,0.0865 -0.0641,0.001 -0.0418,0.0921 0.0498,0.20252 0.22734,0.27394 0.36441,0.25221 0.54568,-0.0866 z m 22.873,-0.17421 c -0.20906,-0.39061 -0.56681,-0.57898 -0.44486,-0.23424 0.10772,0.30437 0.46718,0.71422 0.55204,0.62936 0.0373,-0.0373 -0.01,-0.21516 -0.10717,-0.39512 z m -10.10098,-0.14069 c 0.005,-0.28385 -0.16383,-0.46288 -0.43947,-0.46626 -0.0978,-0.001 -0.16724,0.1682 -0.16724,0.40866 0,0.34939 0.0449,0.40432 0.30105,0.36795 0.19555,-0.0278 0.30267,-0.13654 0.30566,-0.31035 z m 3.80869,-0.0711 c 0,-0.17247 -0.38121,-0.3282 -0.50366,-0.20577 -0.0498,0.0498 -0.002,0.14672 0.10609,0.21519 0.25899,0.16379 0.39752,0.1605 0.39752,-0.009 z m 5.16079,-0.6022 c -0.11901,-0.18161 -0.30884,-0.33021 -0.42189,-0.33021 -0.23197,0 -0.16123,0.17346 0.26238,0.6435 0.34009,0.37736 0.45899,0.14381 0.15951,-0.31329 z m -11.9718,0.25646 c 0.1552,-0.187 0.14537,-0.20955 -0.0729,-0.16725 -0.13873,0.0269 -0.27732,0.12415 -0.30795,0.21613 -0.0795,0.23869 0.1686,0.20684 0.38082,-0.0489 z m 1.39272,-0.58766 c 0.0662,-0.10717 -0.30663,-0.47756 -0.38862,-0.38602 -0.0259,0.0289 -0.0871,0.183 -0.13607,0.34247 -0.075,0.24417 -0.0456,0.2786 0.18617,0.218 0.15134,-0.0396 0.30369,-0.11811 0.33852,-0.17445 z m 4.21409,0.14269 c 0,-0.18646 -0.24598,-0.30467 -0.4157,-0.19978 -0.10316,0.0638 -0.0931,0.12635 0.0335,0.20655 0.23883,0.15135 0.38223,0.1488 0.38223,-0.007 z m -2.4084,-0.0639 c 0,-0.0308 0.0365,-0.1512 0.0813,-0.2676 0.0668,-0.17412 -0.0281,-0.21165 -0.53522,-0.21165 -0.58262,0 -0.79422,0.179 -0.5272,0.446 0.0961,0.0961 0.9812,0.12609 0.9812,0.0332 z m 1.17081,-0.2451 c -0.0832,-0.24998 -0.45664,-0.27727 -0.54768,-0.04 -0.059,0.15378 0.009,0.20726 0.26191,0.20726 0.21367,0 0.32061,-0.0626 0.28577,-0.16725 z m -1.40363,-0.91838 c -0.0627,-0.23975 -0.0304,-0.26899 0.21239,-0.19196 0.2367,0.0751 0.27082,0.0488 0.19693,-0.15201 -0.0492,-0.13358 -0.17186,-0.29252 -0.27262,-0.35318 -0.10783,-0.0649 -0.14958,-0.21626 -0.10154,-0.36794 0.0662,-0.20869 0.0165,-0.25768 -0.26173,-0.25768 -0.34673,0 -0.45844,0.18079 -0.20755,0.33586 0.19562,0.12094 0.007,0.36513 -0.21642,0.27957 -0.12235,-0.047 -0.18715,0.022 -0.18715,0.19947 0,0.14922 0.0603,0.23409 0.13379,0.18861 0.27829,-0.17198 0.42099,0.091 0.1887,0.34777 -0.2214,0.24464 -0.21456,0.25432 0.17945,0.25432 0.35109,0 0.39904,-0.0405 0.33565,-0.28283 z m 41.37628,23.49151 c -4.88441,-2.59458 -5.15937,-2.75149 -5.3386,-3.04645 -0.19506,-0.32103 0.19267,-0.65748 1.71199,-1.48567 l 1.15131,-0.62759 0,-10.4682 0,-10.46821 -2.57564,-1.82705 c -3.29717,-2.33886 -3.31156,-2.35038 -3.31156,-2.64998 0,-0.13898 0.13315,-0.32396 0.29588,-0.41105 0.16271,-0.0871 1.87111,-1.17298 3.79641,-2.41311 1.92531,-1.24012 3.56549,-2.25475 3.64488,-2.25475 0.0793,0 1.67573,0.8998 3.54748,1.99956 l 3.40317,1.99958 0.91823,-0.48134 c 0.50504,-0.26474 2.15255,-1.14444 3.66114,-1.9549 1.5086,-0.81047 3.23852,-1.73884 3.84428,-2.06307 0.60576,-0.32422 1.21145,-0.57012 1.34599,-0.54641 0.13452,0.0236 1.92352,0.97633 3.97553,2.11697 2.05198,1.14065 3.77153,2.06149 3.82117,2.04631 0.0496,-0.0152 1.87083,-1.1441 4.04706,-2.50875 2.17625,-1.36463 4.02186,-2.48116 4.10134,-2.48116 0.0795,0 0.36904,0.14319 0.64342,0.31818 0.27438,0.17499 2.12456,1.2659 4.1115,2.42425 1.98692,1.15833 3.89859,2.28583 4.24814,2.50555 l 0.63556,0.39951 0.002,12.3291 0.002,12.32909 0.31249,0.75977 c 0.41722,1.01439 1.02149,1.75008 1.96206,2.38881 0.74048,0.50285 1.04045,0.91345 0.86945,1.19013 -0.0717,0.11617 -6.0651,4.42668 -6.7108,4.82655 -0.24878,0.15405 -0.41584,0.11011 -1.40489,-0.36944 -2.50298,-1.21361 -4.17982,-2.98841 -4.92477,-5.21245 -0.27368,-0.8171 -0.27873,-1.03802 -0.28065,-12.30958 -0.001,-8.84315 -0.0399,-11.55134 -0.16726,-11.79893 -0.11243,-0.21851 -0.90404,-0.7034 -2.47331,-1.51492 l -2.30806,-1.19354 0,4.89334 0,4.89337 2.2667,0 c 1.34657,0 2.29983,0.0536 2.3483,0.13203 0.0449,0.0727 -0.97318,1.65312 -2.26236,3.51225 l -2.34396,3.38022 -0.004,4.16028 -0.004,4.16026 1.7394,1.17925 c 1.80172,1.22149 2.03011,1.51062 1.43835,1.82097 -0.16558,0.0868 -1.77621,1.073 -3.57916,2.19148 -1.80294,1.11848 -3.35096,2.0752 -3.44001,2.12602 -0.0906,0.0516 -1.8588,-0.81407 -4.014,-1.96541 -2.11864,-1.13182 -4.45416,-2.37539 -5.19007,-2.7635 -2.26777,-1.19601 -2.29524,-1.3033 -0.61004,-2.38272 l 1.19628,-0.76625 0.008,-3.57913 0.008,-3.57916 -2.34151,0 -2.34149,0 0.004,4.58265 0.004,4.58264 0.82474,0.53521 c 0.94368,0.61237 1.17214,0.89941 0.97044,1.21918 -0.12622,0.20005 -7.08631,4.21094 -7.27186,4.19054 -0.046,-0.005 -1.82962,-0.9367 -3.96372,-2.07033 z m 8.6301,-17.44593 0,-12.96926 -0.43485,0.12403 c -0.23917,0.0681 -0.51011,0.22602 -0.6021,0.35073 -0.13096,0.17756 -0.16725,2.90707 -0.16725,12.57769 0,9.78993 0.0346,12.35153 0.16725,12.35388 0.092,0.001 0.31777,0.12068 0.50175,0.26462 0.18397,0.14391 0.37965,0.263 0.43483,0.26464 0.0552,0.001 0.10035,-5.8332 0.10035,-12.96628 z m 17.12638,7.95175 0,-3.54571 -0.4683,0 -0.4683,0 0,3.31155 0,3.31155 0.36771,0.22191 c 0.20223,0.1221 0.41287,0.22744 0.46805,0.23415 0.0552,0.007 0.10035,-1.58333 0.10035,-3.53345 z m -14.38564,-8.16181 c 2.00412,-2.9854 2.02438,-3.01049 2.43128,-3.01049 l 0.31377,0 0,-3.45805 c 0,-3.12724 -0.0224,-3.47739 -0.23415,-3.66008 -0.12879,-0.11114 -1.18246,-0.6964 -2.3415,-1.30064 l -2.10734,-1.09864 0,7.66216 c 0,4.31617 0.0504,7.60667 0.11566,7.53505 0.0637,-0.07 0.88363,-1.27109 1.82227,-2.66931 z m 14.36182,-8.02402 c -0.0316,-2.75744 -0.0969,-5.05294 -0.14503,-5.10111 -0.0962,-0.0962 -0.74557,-0.12094 -0.83477,-0.0317 -0.0308,0.0308 -0.0186,2.32623 0.027,5.10111 l 0.083,5.04526 0.46363,0 0.46367,0 -0.0575,-5.01354 z m 58.03731,25.44056 c -2.59667,-1.32321 -4.61916,-2.43477 -4.72781,-2.59841 -0.28321,-0.42651 -0.11914,-0.71927 0.82903,-1.47905 0.62616,-0.50178 0.87016,-0.78859 0.90128,-1.05947 0.0234,-0.20427 0.005,-1.90676 -0.0417,-3.78331 -0.0463,-1.87655 -0.0915,-4.71736 -0.10034,-6.31293 l -0.0161,-2.90104 -1.17076,-0.61913 c -1.69228,-0.8949 -2.63578,-1.55935 -2.68289,-1.88939 -0.0865,-0.60515 0.83167,-1.34828 4.8558,-3.93063 1.17669,-0.7551 2.27752,-1.37291 2.44629,-1.37291 0.16874,0 0.4102,0.0901 0.53653,0.20047 0.31823,0.27772 2.75868,1.63787 6.27352,3.49644 1.63152,0.86271 3.03814,1.655 3.12583,1.76064 0.3296,0.39717 -0.23379,0.9072 -1.51064,1.36754 -0.37712,0.13595 -0.6771,0.33928 -0.73591,0.49879 -0.11837,0.32085 -0.0519,10.91403 0.0779,12.4309 l 0.0904,1.05624 1.2042,0.66583 c 1.64172,0.90774 2.26489,1.33806 2.31506,1.59863 0.0286,0.1482 -0.29927,0.44933 -1.00253,0.92092 -0.57471,0.38538 -2.16552,1.50352 -3.53509,2.48476 -1.36959,0.98123 -2.51357,1.7826 -2.54221,1.78081 -0.0286,-0.001 -2.09412,-1.04385 -4.58999,-2.3157 z m 18.92146,0.26869 c -5.25298,-2.37531 -5.77241,-2.64087 -6.02025,-3.07782 -0.19692,-0.34723 -0.18524,-0.36729 0.7787,-1.33772 l 0.97865,-0.98522 -0.0427,-12.29703 -0.0427,-12.29702 -0.29947,-0.60766 c -0.19498,-0.39559 -0.48982,-0.72247 -0.84486,-0.93661 -0.91131,-0.54964 -1.11376,-0.7405 -1.02655,-0.96777 0.0784,-0.2045 3.78633,-1.46548 9.29831,-3.16222 2.64303,-0.81358 2.99541,-0.88486 3.37382,-0.68232 l 0.29375,0.1572 -0.0981,14.27198 c -0.054,7.84958 -0.0543,14.73772 -0.001,15.30696 l 0.0972,1.03496 1.61058,1.03893 c 2.06204,1.33015 2.26719,1.50432 2.16944,1.84173 -0.0426,0.14718 -0.449,0.54759 -0.90305,0.8898 -0.45404,0.34218 -1.72868,1.32024 -2.83253,2.17342 -1.10385,0.85317 -2.06722,1.5492 -2.1408,1.54673 -0.0735,-0.002 -2.03041,-0.86212 -4.3485,-1.91032 z m -295.16257,1.5693 c -3.45153,-0.86192 -10.87178,-0.93803 -17.44012,-0.17889 -2.9575,0.34185 -2.96417,0.33748 -1.95109,-1.27104 2.79873,-4.44366 7.90287,-7.15909 13.47057,-7.1664 l 0.83624,-0.001 0,-11.23919 0,-11.2392 -1.77285,-0.008 c -0.97506,-0.004 -5.06872,-0.0563 -9.097,-0.1163 -5.53986,-0.0824 -7.37338,-0.1498 -7.52625,-0.27665 -0.33488,-0.27793 -0.23022,-0.61591 0.29967,-0.96774 0.27597,-0.18323 2.36188,-1.69648 4.63538,-3.36278 l 4.13363,-3.02964 11.68539,0 c 11.51501,0 11.6979,0.004 12.5425,0.28137 1.19264,0.39151 2.08266,1.19656 2.69214,2.4351 0.84664,1.7205 0.87387,2.0831 0.85405,11.37773 -0.0108,4.57451 -0.0549,10.17639 -0.10034,12.44862 l -0.0825,4.13133 -0.9366,0.24353 c -3.95767,1.02902 -7.54341,3.47928 -10.11842,6.91424 -0.57748,0.77033 -1.01476,1.23207 -1.15809,1.22286 -0.1266,-0.008 -0.56144,-0.0975 -0.96618,-0.19857 z m 2.62152,-11.72829 -0.0926,-4.98403 -0.62888,-0.56908 c -1.69541,-1.53417 -3.76126,-1.44952 -5.48653,0.2248 l -0.56126,0.54468 0,4.00206 0,4.00205 0.97004,0.15656 c 1.40335,0.22648 3.35067,0.7284 4.58266,1.18115 0.58871,0.21636 1.12414,0.40068 1.18982,0.40962 0.0696,0.009 0.0808,-2.06212 0.0268,-4.96781 z m -5.06678,-7.28057 c 1.4299,-0.70215 3.24091,-0.4204 4.58899,0.71393 l 0.39847,0.33529 0,-1.89151 0,-1.89152 -0.62296,0.42861 c -1.91459,1.31727 -3.89719,1.2125 -5.34822,-0.28258 -0.27912,-0.28759 -0.52858,-0.5018 -0.55437,-0.47603 -0.0356,0.0356 -0.0615,3.00382 -0.0346,3.96735 0.002,0.0801 0.18315,-0.005 0.40203,-0.1892 0.21891,-0.18417 0.74573,-0.50563 1.17075,-0.71434 z m 3.32849,-2.79851 c 0.36052,-0.18983 0.88126,-0.5633 1.15722,-0.82995 l 0.50175,-0.4848 0,-3.84515 c 0,-2.13292 -0.0536,-3.87827 -0.1203,-3.91954 -0.0662,-0.041 -1.54134,-0.1075 -3.27809,-0.14796 l -3.15774,-0.0735 0,3.74503 0,3.74503 0.76935,0.83159 c 0.93138,1.00675 1.55605,1.31755 2.65607,1.32152 0.6228,0.002 0.97171,-0.079 1.4718,-0.34221 z m 22.05264,21.6342 c -3.8714,-0.95219 -6.64121,-3.32353 -7.75401,-6.63846 -0.3264,-0.97235 -0.35903,-1.25476 -0.36329,-3.14301 -0.006,-2.87213 0.36723,-4.93679 1.22028,-6.74225 0.44719,-0.9465 2.27235,-3.05216 4.02021,-4.63807 2.64463,-2.39961 6.76281,-4.8722 12.43501,-7.46609 l 1.25179,-0.57243 3.49811,1.76678 c 3.54106,1.7885 6.30003,3.25175 7.20529,3.82144 0.96199,0.6054 1.03161,1.25264 0.20232,1.88127 -0.31048,0.23535 -0.7602,0.60827 -0.99936,0.8287 l -0.43485,0.40078 0,5.95968 0,5.95968 2.19573,1.46773 c 1.91574,1.28054 2.20788,1.52293 2.29087,1.90078 0.0852,0.38773 0.0401,0.48295 -0.42994,0.90918 -0.56932,0.51625 -5.12891,4.10742 -5.59187,4.4042 -0.29763,0.1908 -0.38287,0.1524 -8.89818,-4.0096 l -1.80931,-0.88434 -0.33449,0.24966 c -0.18398,0.13731 -1.59891,1.27194 -3.1443,2.52142 -3.12041,2.52291 -2.90889,2.42906 -4.56001,2.02295 z m 8.51376,-6.10619 0.39475,-0.20414 0,-6.60871 c 0,-3.63481 0.033,-6.6945 0.0731,-6.79935 0.0712,-0.18557 -0.23316,-0.40162 -3.97975,-2.82496 -0.64002,-0.41398 -1.21774,-0.75269 -1.28381,-0.75269 -0.2542,0 -1.83087,1.11616 -2.32893,1.64872 -1.95709,2.09259 -2.31349,6.54793 -0.78508,9.81424 0.95424,2.03926 3.12753,4.14384 5.60217,5.42506 1.06407,0.55092 1.67203,0.63043 2.30749,0.30183 z m 21.66893,4.07958 c -2.46527,-1.24818 -4.55756,-2.37134 -4.64956,-2.4959 -0.30783,-0.4169 -0.17281,-0.6903 0.69395,-1.40517 0.47364,-0.39067 0.90059,-0.82011 0.94876,-0.95435 0.0482,-0.13425 0.0435,-3.18412 -0.01,-6.7775 l -0.0981,-6.5334 -0.34904,-0.15711 c -0.19197,-0.0865 -1.02769,-0.55347 -1.85714,-1.03789 -2.49374,-1.45642 -2.45533,-1.52444 2.77042,-4.90766 1.43017,-0.9259 2.70348,-1.68345 2.82957,-1.68345 0.12609,0 0.6155,0.23465 1.08757,0.52143 0.47208,0.2868 2.67121,1.49559 4.88696,2.68619 2.21576,1.1906 4.06323,2.25482 4.10548,2.36495 0.0422,0.11011 0.0191,0.30818 -0.0515,0.44012 -0.14517,0.27124 -1.48212,0.9449 -1.87523,0.9449 -0.38922,0 -0.47073,0.64869 -0.47073,3.7464 0,4.05572 0.11695,9.89952 0.20089,10.03526 0.0401,0.0652 0.73403,0.49031 1.54174,0.94486 2.17922,1.22639 2.43778,1.53416 1.63685,1.94834 -0.23861,0.12338 -0.67513,0.39889 -0.97004,0.61224 -2.53762,1.83569 -5.64505,3.98616 -5.75415,3.98212 -0.0738,-0.002 -2.15111,-1.02621 -4.61638,-2.27438 z m 192.87254,2.0188 c -3.4439,-0.88559 -5.89467,-2.71772 -7.25799,-5.42594 -0.7795,-1.54848 -0.87974,-2.18173 -0.79934,-5.0499 0.0853,-3.04228 0.3216,-4.20283 1.23307,-6.0555 0.49245,-1.00099 0.84494,-1.47087 2.08887,-2.78451 1.81434,-1.91601 3.23204,-3.10129 5.45867,-4.56379 2.56803,-1.68673 5.10507,-3.04917 8.59609,-4.61626 l 1.55897,-0.6998 3.59232,1.83325 c 5.46656,2.78968 6.93722,3.60127 7.55447,4.16895 0.53871,0.49543 0.36764,0.94049 -0.68404,1.77959 -0.47835,0.38163 -0.91394,0.76329 -0.96801,0.84813 -0.0541,0.0848 -0.0992,2.81765 -0.10034,6.07293 l -0.002,5.91868 2.20521,1.47407 c 2.23686,1.49519 2.49611,1.76418 2.28123,2.36694 -0.0836,0.23461 -0.50813,0.58121 -4.45604,3.63841 l -1.79188,1.3876 -2.02941,-0.97629 c -1.11617,-0.53697 -3.42615,-1.65813 -5.13327,-2.49147 -1.70716,-0.83332 -3.18497,-1.51514 -3.2841,-1.51514 -0.0991,0 -0.74951,0.46441 -1.44533,1.03203 -5.37838,4.38743 -4.8711,4.107 -6.61714,3.65802 z m 8.50295,-6.09838 0.39475,-0.20414 0.0305,-5.48236 c 0.0167,-3.0153 0.0318,-6.09055 0.0335,-6.83389 l 0.002,-1.35153 -2.59038,-1.68157 -2.59042,-1.68156 -0.62078,0.32364 c -0.88365,0.46068 -2.3111,1.92115 -2.73569,2.79895 -0.88775,1.83535 -1.0037,5.07532 -0.25968,7.25594 0.2192,0.64243 0.6023,1.51475 0.85134,1.93846 0.60201,1.02423 2.47584,2.89593 3.77419,3.76995 1.92265,1.29425 2.86385,1.58554 3.70977,1.14811 z m -178.69641,6.01717 c -0.22077,-0.105 -2.0857,-0.94986 -4.14431,-1.87757 -5.29748,-2.3873 -5.68999,-2.60294 -5.68999,-3.12614 0,-0.11796 0.42149,-0.63265 0.93661,-1.14384 l 0.9366,-0.92942 -0.008,-10.84138 c -0.004,-5.96276 -0.0568,-11.52431 -0.11694,-12.359 -0.12673,-1.76076 -0.22627,-1.95712 -1.38986,-2.74055 -0.76258,-0.51343 -0.90406,-0.74949 -0.59287,-0.98916 0.1741,-0.13408 8.01733,-2.64393 10.62837,-3.40109 1.26914,-0.36804 1.5496,-0.40979 1.84586,-0.27482 l 0.34934,0.15918 -0.0806,14.55083 c -0.0443,8.00295 -0.0319,14.84704 0.0274,15.2091 0.0983,0.59838 0.16049,0.68598 0.68413,0.96287 0.31682,0.16755 0.85866,0.50574 1.20408,0.75155 0.34543,0.24582 0.90653,0.60844 1.24691,0.80582 0.64781,0.37568 0.86319,0.75993 0.60464,1.07868 -0.33793,0.41658 -5.61145,4.3723 -5.81827,4.36432 -0.12209,-0.005 -0.40266,-0.0944 -0.62343,-0.19938 z m -97.70738,-3.8897 c -0.29785,-0.12904 -0.18122,-0.52753 0.6075,-2.0754 0.42611,-0.83624 0.84758,-1.84114 0.9366,-2.23309 0.11706,-0.51556 0.16187,-2.97876 0.16187,-8.90559 0,-6.35366 0.0376,-8.23983 0.16723,-8.4019 0.19759,-0.24693 8.43815,-4.5805 8.94297,-4.70297 0.19823,-0.0481 0.4442,-0.0129 0.57525,0.0833 0.2114,0.15459 0.22831,0.7304 0.22082,7.52336 -0.008,7.0199 -0.021,7.40793 -0.29038,8.49327 -0.55467,2.23483 -1.62262,3.91777 -3.82564,6.02867 -1.56345,1.49806 -2.73174,2.28249 -5.13872,3.45031 -1.40917,0.6837 -2.03436,0.87994 -2.3575,0.73996 z m 299.92982,-24.33536 c -0.45366,-0.24654 -1.24948,-1.84313 -1.53363,-3.07686 -0.31299,-1.35896 -0.20876,-2.76105 0.27987,-3.76496 0.4464,-0.91711 1.75387,-2.28866 2.58678,-2.71358 1.66083,-0.8473 4.15142,0.2044 4.68258,1.9773 0.19308,0.64438 0.19858,1.66401 0.0129,2.33372 -0.42347,1.52495 -2.51735,3.91212 -4.29726,4.89919 -1.07588,0.59664 -1.21656,0.62471 -1.73093,0.34519 z m -223.15057,-0.42122 c -0.38564,-0.2701 -1.26719,-2.12837 -1.46926,-3.09708 -0.0814,-0.38997 -0.14789,-1.14429 -0.14789,-1.67627 0,-0.82422 0.0666,-1.10518 0.45048,-1.90006 0.54361,-1.1257 1.31013,-2.01793 2.25383,-2.6235 0.63726,-0.40892 0.7936,-0.45012 1.70802,-0.45011 0.86619,2e-5 1.10677,0.0555 1.7251,0.39797 0.84564,0.46833 1.30625,1.02433 1.56735,1.89183 0.40726,1.35327 0.14296,2.58169 -0.86398,4.01551 -1.1905,1.69521 -3.65224,3.66276 -4.58274,3.66276 -0.17892,0 -0.46733,-0.0995 -0.64091,-0.22105 z"
       id="path5662"
       inkscape:connector-curvature="0" />
  </g>
</svg>
