<?xml version="1.0" encoding="UTF-8" standalone="no"?>
<!-- Created with Inkscape (http://www.inkscape.org/) -->

<svg
   xmlns:dc="http://purl.org/dc/elements/1.1/"
   xmlns:cc="http://creativecommons.org/ns#"
   xmlns:rdf="http://www.w3.org/1999/02/22-rdf-syntax-ns#"
   xmlns:svg="http://www.w3.org/2000/svg"
   xmlns="http://www.w3.org/2000/svg"
   xmlns:sodipodi="http://sodipodi.sourceforge.net/DTD/sodipodi-0.dtd"
   xmlns:inkscape="http://www.inkscape.org/namespaces/inkscape"
   width="744.09448819"
   height="1052.3622047"
   id="svg3782"
   version="1.1"
   inkscape:version="0.48.4 r9939"
   inkscape:export-filename="/home/josh/PycharmProjects/savings_champion/savings_champion/resources/img/press/Daily_Telegraph.svg.png"
   inkscape:export-xdpi="208.50133"
   inkscape:export-ydpi="208.50133"
   sodipodi:docname="daily_telegraph.svg">
  <defs
     id="defs3784" />
  <sodipodi:namedview
     id="base"
     pagecolor="#ffffff"
     bordercolor="#666666"
     borderopacity="1.0"
     inkscape:pageopacity="0.0"
     inkscape:pageshadow="2"
     inkscape:zoom="1.4"
     inkscape:cx="12.269361"
     inkscape:cy="477.89767"
     inkscape:document-units="px"
     inkscape:current-layer="layer1"
     showgrid="false"
     inkscape:window-width="1920"
     inkscape:window-height="1056"
     inkscape:window-x="1920"
     inkscape:window-y="24"
     inkscape:window-maximized="1" />
  <metadata
     id="metadata3787">
    <rdf:RDF>
      <cc:Work
         rdf:about="">
        <dc:format>image/svg+xml</dc:format>
        <dc:type
           rdf:resource="http://purl.org/dc/dcmitype/StillImage" />
        <dc:title />
      </cc:Work>
    </rdf:RDF>
  </metadata>
  <g
     inkscape:label="Layer 1"
     inkscape:groupmode="layer"
     id="layer1">
    <rect
       style="fill:none;stroke:#4d4d4d;stroke-width:2;stroke-miterlimit:4;stroke-opacity:1;stroke-dasharray:none"
       id="rect3790"
       width="358.57144"
       height="175.71428"
       x="152.14285"
       y="438.54935"
       ry="28.571428" />
    <g
       transform="matrix(1.1665373e-5,0,0,1.1665373e-5,179.77864,503.07578)"
       style="fill-rule:evenodd;fill:#4d4d4d;fill-opacity:1"
       id="Ebene_x0020_1">
      <path
         inkscape:connector-curvature="0"
         d="m 2085110,1065220 c -62360,0 -114390,-7050 -173320,-13960 l 0,1023300 c 0,24350 -3480,31260 -17440,41640 l -582790,371250 c 86760,41640 190820,69470 298500,69470 367570,0 783740,-201350 978180,-704280 10340,-27830 34540,-34740 34540,13810 l 0,34740 c 0,551480 -419800,1047500 -1040550,1047500 -676450,0 -1082240,-509980 -1082240,-1040600 0,-398870 218250,-770070 714420,-926150 20920,-7100 24400,3280 10390,13810 -218450,169900 -336460,447480 -336460,725010 0,294870 118010,586260 381580,742490 l 145700,-111160 c 48740,-38160 58930,-72750 58930,-128400 l 0,-1262670 c -159510,-58930 -301580,-93670 -433610,-93670 -180280,0 -343420,79660 -502930,274100 -17290,20770 -27830,20770 -27830,0 20920,-391970 371200,-614040 718100,-614040 399020,0 766640,194440 1169140,194440 142070,0 287920,-31450 409270,-97290 17290,-6910 20720,6900 13810,20720 -124780,312310 -430180,419940 -735390,419940 l 0,0 z m 1887290,1852360 c -14010,13820 -14010,10390 -24400,3480 l -277520,-246270 c -27830,-24400 -41650,-45120 -41650,-90240 l 0,-950550 c 0,-10340 0,-20870 -13860,-31260 l -93670,-83330 c -10530,-6710 -24350,-10190 -38160,-3280 l -176810,83130 0,895240 c 0,13820 -3620,27680 10340,38020 l 79850,69320 c 20780,17300 55310,38210 86620,27830 l 27630,-10530 c 34730,-13870 41840,6900 20920,24340 l -319030,274100 c -14010,13820 -17480,10390 -27820,3480 l -281060,-249750 c -34530,-27830 -34530,-34730 -34530,-79850 l 0,-1540200 c 0,-17290 0,-20920 -17450,-34730 l -34730,-31310 c -34590,-31110 -48400,-24200 -93520,-3280 l -69470,31110 c -10380,3480 -20770,-10390 -3480,-27830 l 367620,-308680 c 14010,-13820 14010,-10340 24350,-3430 l 222070,204770 c 27830,27680 41690,44980 41690,90050 l 0,579300 461240,-291340 c 14010,-6960 27830,-6960 38220,3430 l 225550,208260 c 31100,27680 38010,48550 38010,83130 l 0,950560 c 0,17440 0,20910 17440,34730 l 86760,72750 c 34590,31300 48410,24350 93520,3620 l 69470,-31250 c 10340,-3480 20920,10340 3430,27630 l -367570,308830 z m 1477630,-1148220 -614040,385060 0,294820 c 0,27630 3480,38210 27830,48550 l 197720,104050 c 34540,17300 93670,34740 128410,13820 l 183860,-107340 c 31100,-17440 55500,-7050 38060,6960 l -502930,405780 c -10530,10340 -6910,6910 -20770,0 l -447620,-235940 c -34740,-17240 -45070,-24340 -45070,-72750 l 0,-1096240 c 0,-17440 7050,-24350 27630,-31260 l 732100,-235940 c 10390,-3420 20730,-6900 27630,6960 l 274100,485640 c 6910,10530 6910,20920 -6910,27830 z m -606930,-336520 -7110,3290 0,673310 242850,-201350 c 13960,-10330 13960,-17440 7050,-27630 l -242790,-447620 z m 3114480,1051130 -499500,430180 c -13960,10340 -24350,17250 -38160,10340 -298500,-149130 -555110,-232460 -815240,-232460 -215170,0 -426700,72800 -662590,229030 -20920,13820 -34730,10340 -20920,-13810 124970,-201350 291540,-412750 499650,-510040 3430,-13810 7050,-58930 7050,-121490 l 0,-1019830 c 0,-13860 6960,-20770 20780,-27680 l 395390,-239360 c -86760,17290 -183860,31300 -267190,31300 -360660,0 -544570,-180430 -610560,-464910 -3480,-14010 3430,-17440 13820,-14010 184050,90230 336650,121490 485830,121490 249700,0 606930,-135310 825580,-135310 440510,0 683500,183910 683500,784130 l 0,1134220 c 0,17490 -7100,27830 -17440,38210 z M 7537790,1311540 c 0,-319220 -100580,-405980 -256660,-405980 -114590,0 -260280,45120 -416320,79660 l 0,1040740 c 0,17490 -6900,31310 -17290,38410 l -412690,329220 c 107290,-44930 225350,-65700 343220,-65700 253180,0 520520,93520 735540,194290 17290,10340 24200,0 24200,-17490 l 0,-1193150 z m 1679520,1606040 c -13810,13820 -17290,10390 -27680,3480 l -315740,-277580 -374670,277580 c -13820,10340 -17300,6910 -31110,-3480 l -239370,-215160 c -38210,-31110 -41640,-38210 -41640,-79860 l 0,-1012770 c 0,-17440 13820,-20860 20720,-24340 l 804860,-333040 c 13820,-6900 27630,-6900 41640,6910 l 215020,215160 c 31110,31110 41790,48600 41790,69330 l 0,978370 62410,55460 c 76230,65840 86560,62410 121300,44920 l 48600,-24200 c 31250,-17240 55450,-3430 27630,20780 l -353760,298440 z M 8873890,1627090 c 0,-20920 -3620,-31260 -20720,-48550 l -124970,-124780 c -6910,-7100 -6910,-3480 -17440,0 l -86770,38020 0,1002720 c 0,34590 7110,51890 31460,72760 l 45120,41490 c 31100,27830 69270,41640 114390,20920 l 58930,-27830 0,-974750 0,0 z m 1151710,1290490 c -14020,13820 -17440,10390 -27830,3480 l -280810,-249750 c -34780,-27830 -34780,-34730 -34780,-79850 l 0,-957460 c 0,-17250 0,-20870 -17250,-34740 l -34730,-31110 c -34740,-31250 -48600,-24340 -93670,-3620 l -69520,31300 c -10330,3430 -20720,-10380 -3430,-27680 l 367770,-308830 c 14010,-13810 14010,-10390 24200,-3430 l 222070,204580 c 27830,27830 41640,45120 41640,90240 l 0,943790 c 0,13820 -3420,27680 10390,38020 l 79850,69320 c 20920,17300 55460,38210 86570,27830 l 27830,-10530 c 34730,-13870 41640,6900 20910,24340 l -319210,274100 z M 9848640,1172760 c -10190,10330 -13860,6900 -24200,0 L 9560680,940300 c -6910,-7110 -6910,-14010 3480,-24400 l 260280,-228980 c 10340,-6910 14010,-6910 24200,0 l 263720,232460 c 10380,6910 10380,13810 0,20920 l -263720,232460 z m 957460,1744820 c -13860,13820 -17290,10390 -27680,3480 l -281200,-249750 c -34540,-27830 -34540,-34730 -34540,-79850 l 0,-1540200 c 0,-17290 0,-20920 -17290,-34730 l -34730,-31310 c -34740,-31110 -48550,-24200 -93670,-3280 l -69320,31110 c -10540,3480 -20920,-10390 -3430,-27830 l 367570,-308680 c 13860,-13820 13860,-10340 24400,-3430 l 221870,204770 c 27830,27680 41690,44980 41690,90050 l 0,1526570 c 0,13820 -3480,27680 10530,38020 l 79660,69320 c 20730,17300 55510,38210 86620,27830 l 27970,-10530 c 34590,-13870 41490,6900 20720,24340 l -319170,274100 z m 1578410,239370 -381630,308680 c -10340,10340 -17440,7060 -24150,3430 -201350,-135310 -360720,-197670 -534240,-197670 -121490,0 -242790,24150 -399020,65840 -13870,3630 -17300,-6910 -10390,-17290 162990,-246280 364290,-322500 551680,-322500 277380,0 537610,169890 641670,239170 l 10380,-6910 c 27630,-62370 38220,-121500 38220,-176950 0,-176810 -145700,-319030 -326130,-409270 l -371250,274100 c -17290,10390 -20720,10390 -31100,3480 l -249760,-225550 c -34730,-31300 -34730,-31300 -34730,-79850 l 0,-974760 c 0,-17240 0,-20720 -17290,-34730 l -48700,-41640 c -34590,-31110 -48400,-24200 -93520,-3430 l -69470,31250 c -10380,3480 -20720,-10330 -3480,-27820 l 367770,-308640 c 13870,-13860 13870,-10380 24200,-3480 l 235940,215170 c 27630,27680 41640,45120 41640,90240 l 0,946870 c 0,17490 3480,34740 13810,45120 l 83340,76230 c 24150,24350 69270,14010 97090,0 l 55510,-24200 0,-964370 c 0,-17290 0,-17290 -17290,-31300 l -48750,-41640 c -34590,-31110 -45120,-27630 -93670,-13820 l -27680,7110 c -10330,3280 -20720,-10590 -3430,-27830 l 326130,-274100 c 13820,-13860 13820,-10380 24200,-3480 l 235890,215170 c 27820,27680 41640,45120 41640,90240 l 0,912340 c 145690,107480 208260,214960 208260,322500 0,121490 -59090,239360 -211690,364290 z m 2372730,-2091730 c -62410,0 -114440,-7050 -173380,-13960 l 0,1023300 c 0,24350 -3620,31260 -17440,41640 l -582590,371250 c 86570,41640 190620,69470 298300,69470 367580,0 783750,-201350 977990,-704280 10580,-27830 34930,-34740 34930,13810 l 0,34740 c 0,551480 -419790,1047500 -1040740,1047500 -676450,0 -1082430,-509980 -1082430,-1040600 0,-398870 218640,-770070 714660,-926150 20720,-7100 24350,3280 10340,13810 -218600,169900 -336470,447480 -336470,725010 0,294870 117870,586260 381590,742490 l 145690,-104250 c 52030,-34540 59130,-72750 59130,-128210 l 0,-1269770 c -159700,-58930 -301920,-93670 -433650,-93670 -180430,0 -343380,79660 -502890,274100 -17490,20770 -28020,20770 -28020,0 20920,-391970 371250,-614040 718240,-614040 398930,0 766500,194440 1168850,194440 142420,0 287920,-31450 409410,-97290 17440,-6910 20720,6900 14010,20720 -124970,312310 -430320,419940 -735530,419940 z m 1755210,704140 -613890,385060 0,294820 c 0,27630 3480,38210 27680,48550 l 197670,104050 c 34730,17300 93870,34740 128400,13820 l 183910,-107340 c 31310,-17440 55460,-7050 38210,6960 l -503120,405780 c -10340,10340 -6910,6910 -20730,0 l -447420,-235940 c -34780,-17240 -45120,-24340 -45120,-72750 l 0,-1096240 c 0,-17440 6710,-24350 27630,-31260 l 732110,-235940 c 10380,-3420 20720,-6900 27820,6960 l 273900,485640 c 7110,10530 7110,20920 -7050,27830 z m -606990,-336520 -6900,3290 0,673310 242840,-201350 c 13820,-10330 13820,-17440 6910,-27630 l -242850,-447620 z m 1092770,1484740 c -13960,13820 -17240,10390 -27630,3480 l -281200,-249750 c -34540,-27830 -34540,-34730 -34540,-79850 l 0,-1540200 c 0,-17290 0,-20920 -17490,-34730 l -34530,-31310 c -34740,-31110 -48750,-24200 -93670,-3280 l -69470,31110 c -10390,3480 -20920,-10390 -3480,-27830 l 367620,-308680 c 13820,-13820 13820,-10340 24350,-3430 l 222070,204770 c 27830,27680 41640,44980 41640,90050 l 0,1526570 c 0,13820 -3620,27680 10240,38020 l 80000,69320 c 20720,17300 55460,38210 86570,27830 l 27820,-10530 c 34740,-13870 41500,6900 20780,24340 l -319080,274100 z m 1446580,-1148220 -613890,385060 0,294820 c 0,27630 3280,38210 27670,48550 l 197680,104050 c 34590,17300 93670,34740 128250,13820 l 183910,-107340 c 31260,-17440 55460,-7050 38170,6960 l -503080,405780 c -10190,10340 -6760,6910 -20720,0 l -447480,-235940 c -34730,-17240 -45260,-24340 -45260,-72750 l 0,-1096240 c 0,-17440 7050,-24350 27820,-31260 l 732060,-235940 c 10380,-3420 20770,-6900 27680,6960 l 274100,485640 c 6900,10530 6900,20920 -6910,27830 z m -607330,-336520 -6560,3290 0,673310 242840,-201350 c 13620,-10330 13620,-17440 6710,-27630 l -242990,-447620 z m 1869990,1724110 -381630,308680 c -10330,10340 -17240,7060 -24150,3430 -201350,-135310 -360860,-197670 -534230,-197670 -121500,0 -242990,24150 -399030,65840 -13860,3630 -17290,-6910 -10380,-17290 162990,-246280 364290,-322500 551670,-322500 277530,0 537470,169890 641670,239170 l 10390,-6910 c 27630,-62370 38210,-121500 38210,-176950 0,-176810 -145700,-319030 -326130,-409270 l -374720,277580 c -13810,10340 -24200,6910 -34540,-3480 l -235930,-215160 c -34740,-31110 -41640,-44930 -41640,-79860 l 0,-1012770 c 0,-17440 13810,-20860 20770,-24340 l 797900,-329560 c 20920,-10380 34580,-10380 41490,-3480 l 222270,222070 c 27630,27680 41440,48600 41440,72750 l 0,922930 c 145700,107480 208260,214960 208260,322500 0,121490 -59080,239360 -211690,364290 z m -433610,-1536770 c 0,-14010 -3470,-24350 -17290,-38160 l -128400,-128260 c -6910,-7100 -10390,-3480 -20920,0 l -83330,38020 0,995670 c 0,55460 14210,62360 69510,114390 31260,27830 48360,38210 79810,38210 27830,0 72800,-20910 100620,-38210 l 0,-981660 z m 1564400,76230 c -17290,14010 -34590,20920 -51830,20920 -17490,0 -34930,-6910 -52030,-20920 l -211730,-180280 -20730,17290 0,964370 c 0,20920 0,24390 13820,34730 l 55500,48600 c 58940,48550 72760,55460 135320,31250 l 41640,-17440 c 27680,-10380 34580,3430 17290,20730 l -357430,301920 c -13620,13820 -17240,10390 -27630,3480 l -274100,-246270 c -31110,-27830 -41640,-38210 -41640,-76430 l 0,-988570 -83140,-86710 c -7100,-6950 -10380,-6950 -20920,0 l -104050,58940 c -31110,17240 -41640,-6960 -20720,-24200 l 357230,-301930 c 13820,-10380 20920,-10380 27830,-3480 l 242790,239370 239370,-235890 c 13860,-10380 24200,-13860 38010,0 l 183910,170050 c 34740,31100 55460,48540 76380,48540 13810,0 31300,-6900 52220,-20720 l 48350,-31450 c 31310,-20720 45120,10530 27830,27970 l -291540,246130 z m 1280110,1221170 c -13820,13820 -17440,10390 -27830,3480 l -315740,-277580 -374530,277580 c -13810,10340 -17240,6910 -31250,-3480 l -239220,-215160 c -38160,-31110 -41640,-38210 -41640,-79860 l 0,-1012770 c 0,-17440 13810,-20860 20770,-24340 l 805000,-333040 c 13670,-6900 27490,-6900 41300,6910 l 215160,215160 c 31310,31110 41650,48600 41650,69330 l 0,978370 62410,55460 c 76370,65840 86910,62410 121490,44920 l 48550,-24200 c 31110,-17240 55510,-3430 27680,20780 l -353800,298440 z m -343570,-1290490 c 0,-20920 -3280,-31260 -20580,-48550 l -124920,-124780 c -6910,-7100 -6910,-3480 -17490,0 l -86560,38020 0,1002720 c 0,34590 6900,51890 31100,72760 l 45120,41490 c 31110,27830 69470,41640 114590,20920 l 58740,-27830 0,-974750 0,0 z m 1977480,1037120 -315590,243040 c -34890,27630 -41840,20720 -83480,-3480 l -329410,-201350 0,405780 93520,80050 c 10530,6710 10530,13820 0,24200 l -273950,253180 c -6910,3430 -13820,10340 -27830,0 l -305200,-246270 c -10340,-6910 -6720,-13860 0,-24400 l 76420,-86760 0,-1491450 -76420,-93670 c -3430,-3670 -6720,-3670 -13820,0 l -104200,51980 c -24060,13870 -41500,-3430 -20770,-20720 l 353800,-298450 c 10390,-10380 24350,-10380 31260,-3480 l 256660,253180 464910,-249700 c 14010,-6960 24350,-3480 27630,0 l 232650,215170 c 17250,17240 38170,45070 38170,76170 l 0,1061520 c 0,24350 0,38210 -24350,55460 z m -412890,-1026740 c 0,-20720 -6910,-38210 -20720,-52020 l -97150,-93670 c -6910,-6910 -13810,-6910 -24350,-3480 l -173370,66040 0,1099530 97150,31250 c 79650,24210 114390,20780 149120,-10330 l 34730,-31310 c 31310,-27820 34590,-58930 34590,-114390 l 0,-891620 z m 1783720,1280110 c -14010,13820 -14010,10390 -24340,3480 l -277580,-246270 c -27630,-24400 -41450,-45120 -41450,-90240 l 0,-950550 c 0,-10340 0,-20870 -14010,-31260 l -93670,-83330 c -10380,-6710 -24200,-10190 -38010,-3280 l -177150,83130 0,895240 c 0,13820 -3480,27680 10530,38020 l 79660,69320 c 20920,17300 55510,38210 86960,27830 l 27630,-10530 c 34730,-13870 41490,6900 20720,24340 l -319020,274100 c -13820,13820 -17440,10390 -27830,3480 l -281000,-249750 c -34590,-27830 -34590,-34730 -34590,-79850 l 0,-1540200 c 0,-17290 0,-20920 -17440,-34730 l -34730,-31310 c -34740,-31110 -48550,-24200 -93480,-3280 l -69510,31110 c -10340,3480 -20920,-10390 -3430,-27830 l 367570,-308680 c 14010,-13820 14010,-10340 24400,-3430 l 222070,204770 c 27820,27680 41490,44980 41490,90050 l 0,579300 461440,-291340 c 14010,-6960 27630,-6960 38160,3430 l 225550,208260 c 31110,27680 38020,48550 38020,83130 l 0,950560 c 0,17440 0,20910 17290,34730 l 86960,72750 c 34530,31300 48350,24350 93470,3620 l 69470,-31250 c 10530,-3480 20770,10340 3480,27630 l -367630,308830 z"
         style="fill:#4d4d4d;fill-opacity:1"
         id="path11283" />
    </g>
  </g>
</svg>
