<?xml version="1.0" encoding="UTF-8" standalone="no"?>
<!-- Created with Inkscape (http://www.inkscape.org/) -->

<svg
   xmlns:dc="http://purl.org/dc/elements/1.1/"
   xmlns:cc="http://creativecommons.org/ns#"
   xmlns:rdf="http://www.w3.org/1999/02/22-rdf-syntax-ns#"
   xmlns:svg="http://www.w3.org/2000/svg"
   xmlns="http://www.w3.org/2000/svg"
   xmlns:sodipodi="http://sodipodi.sourceforge.net/DTD/sodipodi-0.dtd"
   xmlns:inkscape="http://www.inkscape.org/namespaces/inkscape"
   width="744.09448819"
   height="1052.3622047"
   id="svg3782"
   version="1.1"
   inkscape:version="0.48.4 r9939"
   inkscape:export-filename="/home/josh/PycharmProjects/savings_champion/savings_champion/resources/img/press/bbc_radio_5_live.png"
   inkscape:export-xdpi="208.50133"
   inkscape:export-ydpi="208.50133"
   sodipodi:docname="morningstar.svg">
  <defs
     id="defs3784">
    <inkscape:perspective
       sodipodi:type="inkscape:persp3d"
       inkscape:vp_x="0 : 11 : 1"
       inkscape:vp_y="0 : 1000 : 0"
       inkscape:vp_z="39 : 11 : 1"
       inkscape:persp3d-origin="19.5 : 7.3333333 : 1"
       id="perspective2908" />
    <inkscape:perspective
       sodipodi:type="inkscape:persp3d"
       inkscape:vp_x="0 : 0.5 : 1"
       inkscape:vp_y="0 : 1000 : 0"
       inkscape:vp_z="1 : 0.5 : 1"
       inkscape:persp3d-origin="0.5 : 0.33333333 : 1"
       id="perspective2824" />
    <inkscape:perspective
       id="perspective10"
       inkscape:persp3d-origin="372.04724 : 350.78739 : 1"
       inkscape:vp_z="744.09448 : 526.18109 : 1"
       inkscape:vp_y="0 : 1000 : 0"
       inkscape:vp_x="0 : 526.18109 : 1"
       sodipodi:type="inkscape:persp3d" />
  </defs>
  <sodipodi:namedview
     id="base"
     pagecolor="#ffffff"
     bordercolor="#666666"
     borderopacity="1.0"
     inkscape:pageopacity="0.0"
     inkscape:pageshadow="2"
     inkscape:zoom="1.979899"
     inkscape:cx="433.23526"
     inkscape:cy="487.55091"
     inkscape:document-units="px"
     inkscape:current-layer="layer1"
     showgrid="false"
     inkscape:window-width="1920"
     inkscape:window-height="1056"
     inkscape:window-x="1920"
     inkscape:window-y="24"
     inkscape:window-maximized="1" />
  <metadata
     id="metadata3787">
    <rdf:RDF>
      <cc:Work
         rdf:about="">
        <dc:format>image/svg+xml</dc:format>
        <dc:type
           rdf:resource="http://purl.org/dc/dcmitype/StillImage" />
        <dc:title></dc:title>
      </cc:Work>
    </rdf:RDF>
  </metadata>
  <g
     inkscape:label="Layer 1"
     inkscape:groupmode="layer"
     id="layer1">
    <rect
       style="fill:none;stroke:#4d4d4d;stroke-width:2;stroke-miterlimit:4;stroke-opacity:1;stroke-dasharray:none"
       id="rect3790"
       width="358.57144"
       height="175.71428"
       x="143.17825"
       y="438.54935"
       ry="28.571428"
       inkscape:export-filename="/home/josh/PycharmProjects/savings_champion/savings_champion/resources/img/press/bbc_radio_4.png"
       inkscape:export-xdpi="208.50133"
       inkscape:export-ydpi="208.50133" />
    <g
       display="none"
       id="_x32_px_Stroke"
       style="display:none"
       transform="matrix(1.7603128,0,0,1.7603128,145.81066,350.99683)">
      <path
         id="path5770"
         d="M 198,2 V 198 H 2 V 2 h 196 m 2,-2 H 0 V 200 H 200 V 0 l 0,0 z"
         display="inline"
         inkscape:connector-curvature="0"
         style="fill:#a9a9a9;display:inline" />
    </g>
    <g
       id="g5772"
       transform="matrix(1.7603128,0,0,1.7603128,145.81066,350.99683)">
      <g
         id="g5774" />
      <g
         id="g5776" />
    </g>
    <g
       id="Guides"
       transform="matrix(1.7603128,0,0,1.7603128,145.81066,350.99683)" />
    <g
       transform="matrix(9.6289936,0,0,9.6289936,860.45814,525.71028)"
       id="g3034" />
    <g
       id="g4005"
       transform="matrix(1.2738584,0,0,1.2738584,75.757728,462.69)"
       style="fill:#4d4d4d">
      <rect
         id="rect3977"
         height="40"
         width="3.638"
         y="30"
         x="195.78"
         style="fill:#4d4d4d" />
      <polygon
         id="polygon3979"
         points="257.463,33.331 253.521,33.331 253.521,70 249.86,70 249.86,33.331 245.854,33.331 245.854,30 257.463,30 "
         style="fill:#4d4d4d" />
      <polygon
         id="polygon3981"
         points="192.466,30 192.466,70 188.656,70 183.206,45.703 183.206,70 179.632,70 179.632,30 182.92,30 188.892,56.494 188.892,30 "
         style="fill:#4d4d4d" />
      <polygon
         id="polygon3983"
         points="100.589,30 104.076,54.111 107.364,30 113.407,30 113.407,70 109.831,70 109.831,35.713 105.418,70 102.442,70 98.1,35.713 98.1,70 94.5,70 94.5,30 "
         style="fill:#4d4d4d" />
      <path
         id="path3985"
         d="m 157.676,69.983 c 2.83,-3.835 4.5,-8.576 4.5,-13.708 0,-12.779 -10.357,-23.136 -23.134,-23.136 -12.776,0 -23.133,10.359 -23.133,23.136 0,5.13 1.67,9.873 4.494,13.708 h 4.811 c -3.492,-3.521 -5.65,-8.359 -5.65,-13.708 0,-10.76 8.723,-19.483 19.48,-19.483 10.759,0 19.483,8.725 19.483,19.483 0,5.345 -2.156,10.189 -5.641,13.708 h 4.79 z"
         inkscape:connector-curvature="0"
         style="fill:#4d4d4d" />
      <path
         id="path3987"
         d="m 270.631,70 h -3.557 l -0.941,-9.012 H 260.81 L 259.942,70 h -3.63 l 4.104,-40 h 5.548 l 4.667,40 z m -4.83,-12.623 -2.42,-22.057 -2.232,22.057 h 4.652 z"
         inkscape:connector-curvature="0"
         style="fill:#4d4d4d" />
      <path
         id="path3989"
         d="m 227.183,64.971 c 0,1.799 -1.061,2.72 -2.272,2.72 -1.211,0 -2.271,-0.921 -2.271,-2.72 V 34.783 c 0,-1.801 1.059,-2.723 2.271,-2.723 1.212,0 2.272,0.923 2.272,2.723 l -0.007,1.443 v 7.535 h 3.655 v -5.808 l -0.011,-1.679 c -0.024,-4.98 -1.973,-7.354 -6.037,-7.354 -3.621,0 -5.976,2.569 -5.976,6.509 l 0.004,1.468 v 25.016 l -0.004,1.62 c 0,5.122 1.986,7.62 6.061,7.62 4.066,0 5.963,-2.455 5.963,-7.727 V 48.887 h -6.715 v 3.5 h 3.061 v 11.259 l 0.006,1.325 z"
         inkscape:connector-curvature="0"
         style="fill:#4d4d4d" />
      <path
         id="path3991"
         d="M 242.17,64.016 V 53.619 l -8.333,-6.22 V 35.784 c 0,-4.565 2.058,-6.9 6.08,-6.9 4.086,0 5.94,2.319 5.972,7.449 l 0.007,1.594 v 5.892 h -3.724 v -7.904 l -0.011,-1.133 c 0,-1.802 -1.05,-2.723 -2.249,-2.723 -1.198,0 -2.249,0.923 -2.249,2.723 v 1.169 9.713 l 8.23,6.216 v 12.018 c 0,4.702 -2.091,7.219 -6.003,7.219 -3.957,0 -6.019,-2.375 -6.044,-6.959 l -0.012,-1.583 v -7.822 h 3.823 v 9.163 1.058 c 0,1.798 1.053,2.72 2.25,2.72 1.201,0 2.251,-0.922 2.251,-2.72 l 0.012,-0.958 z"
         inkscape:connector-curvature="0"
         style="fill:#4d4d4d" />
      <path
         id="path3993"
         d="m 177.433,69.998 h -3.649 c -0.497,-1.346 -0.716,-2.613 -0.741,-4.303 L 173.016,63.648 173,62.613 v -7.811 c 0,-1.637 -0.996,-2.383 -2.149,-2.383 h -2.596 V 70 h -3.572 V 30 h 4.657 c 5.233,0 7.25,1.913 7.25,7.03 v 7.508 c 0,3.368 -0.562,4.777 -3.199,5.749 0.038,0.014 0.074,0.025 0.108,0.039 2.489,0.723 3.047,1.668 3.076,4.826 l 0.013,1.447 v 7.305 c 0.003,2.662 0.2,4.104 0.845,6.094 z m -9.179,-36.851 v 15.841 h 1.284 c 2.356,0 3.463,-1.082 3.463,-3.378 v -8.151 c 0,-3.286 -0.762,-4.313 -3.193,-4.313 l -1.554,10e-4 0,0 z m 116.063,36.851 h -3.65 c -0.497,-1.346 -0.715,-2.613 -0.736,-4.303 l -0.031,-2.047 -0.013,-1.035 v -7.811 c 0,-1.637 -0.998,-2.383 -2.149,-2.383 h -2.597 V 70 h -3.574 V 30 h 4.661 c 5.232,0 7.245,1.913 7.245,7.03 v 7.508 c 0,3.368 -0.562,4.777 -3.196,5.749 0.037,0.014 0.073,0.025 0.109,0.039 2.488,0.723 3.047,1.668 3.075,4.826 l 0.012,1.447 v 7.305 c 0.002,2.662 0.199,4.104 0.844,6.094 z m -9.178,-36.851 v 15.841 h 1.282 c 2.359,0 3.466,-1.082 3.466,-3.378 v -8.151 c 0,-3.286 -0.76,-4.313 -3.194,-4.313 l -1.554,10e-4 0,0 z"
         inkscape:connector-curvature="0"
         style="fill:#4d4d4d" />
      <polygon
         id="polygon3995"
         points="215.521,30 215.521,70 211.711,70 206.259,45.703 206.259,70 202.686,70 202.686,30 205.972,30 211.946,56.494 211.946,30 "
         style="fill:#4d4d4d" />
      <path
         id="path3997"
         d="m 285.64,33.43 c 0,1.985 1.611,3.599 3.596,3.599 1.986,0 3.601,-1.613 3.601,-3.599 0,-1.986 -1.615,-3.6 -3.601,-3.6 -1.984,0 -3.596,1.614 -3.596,3.6 z m 0.367,0 c 0,-1.781 1.451,-3.231 3.229,-3.231 1.785,0 3.233,1.451 3.233,3.231 0,1.782 -1.448,3.23 -3.233,3.23 -1.778,-0.002 -3.229,-1.449 -3.229,-3.23 z m 1.973,-1.757 h 1.605 c 0.559,0 1.142,0.215 1.142,1.022 0,0.455 -0.205,0.892 -0.823,0.994 l 0.978,1.536 h -0.569 l -0.959,-1.507 h -0.906 v 1.507 h -0.467 v -3.552 l -10e-4,0 z m 0.468,1.636 h 1.062 c 0.438,0 0.752,-0.141 0.752,-0.614 0,-0.469 -0.312,-0.613 -0.752,-0.613 h -1.062 v 1.227 z"
         inkscape:connector-curvature="0"
         style="fill:#4d4d4d" />
    </g>
  </g>
</svg>
