<?xml version="1.0" encoding="UTF-8" standalone="no"?>
<!-- Created with Inkscape (http://www.inkscape.org/) -->

<svg
   xmlns:dc="http://purl.org/dc/elements/1.1/"
   xmlns:cc="http://creativecommons.org/ns#"
   xmlns:rdf="http://www.w3.org/1999/02/22-rdf-syntax-ns#"
   xmlns:svg="http://www.w3.org/2000/svg"
   xmlns="http://www.w3.org/2000/svg"
   xmlns:sodipodi="http://sodipodi.sourceforge.net/DTD/sodipodi-0.dtd"
   xmlns:inkscape="http://www.inkscape.org/namespaces/inkscape"
   width="744.09448819"
   height="1052.3622047"
   id="svg3782"
   version="1.1"
   inkscape:version="0.48.4 r9939"
   inkscape:export-filename="/home/josh/PycharmProjects/savings_champion/savings_champion/resources/img/press/daily_express.png"
   inkscape:export-xdpi="208.50133"
   inkscape:export-ydpi="208.50133"
   sodipodi:docname="sunday_telegraph.svg">
  <defs
     id="defs3784">
    <inkscape:perspective
       sodipodi:type="inkscape:persp3d"
       inkscape:vp_x="0 : 11 : 1"
       inkscape:vp_y="0 : 1000 : 0"
       inkscape:vp_z="39 : 11 : 1"
       inkscape:persp3d-origin="19.5 : 7.3333333 : 1"
       id="perspective2908" />
    <inkscape:perspective
       sodipodi:type="inkscape:persp3d"
       inkscape:vp_x="0 : 0.5 : 1"
       inkscape:vp_y="0 : 1000 : 0"
       inkscape:vp_z="1 : 0.5 : 1"
       inkscape:persp3d-origin="0.5 : 0.33333333 : 1"
       id="perspective2824" />
    <inkscape:perspective
       id="perspective10"
       inkscape:persp3d-origin="372.04724 : 350.78739 : 1"
       inkscape:vp_z="744.09448 : 526.18109 : 1"
       inkscape:vp_y="0 : 1000 : 0"
       inkscape:vp_x="0 : 526.18109 : 1"
       sodipodi:type="inkscape:persp3d" />
    <clipPath
       id="clipPath4006">
      <path
         id="path4008"
         d="m 0,0 782.362,0 0,1000.63 L 0,1000.63 0,0 z" />
    </clipPath>
    <clipPath
       id="clipPath4024">
      <path
         id="path4026"
         d="m 0,890.078 782.362,0 0,110.552 -782.362,0 0,-110.552 z" />
    </clipPath>
    <clipPath
       id="clipPath4620">
      <path
         id="path4622"
         d="m 0,0 782.362,0 0,1000.63 L 0,1000.63 0,0 z" />
    </clipPath>
    <clipPath
       id="clipPath4648">
      <path
         id="path4650"
         d="m 21.827,30.614 740.009,0 0,520.441 -740.009,0 0,-520.441 z" />
    </clipPath>
    <clipPath
       id="clipPath3005">
      <path
         id="path3007"
         d="m 0,0 782.362,0 0,1000.63 L 0,1000.63 0,0 z" />
    </clipPath>
    <clipPath
       id="clipPath3023">
      <path
         id="path3025"
         d="m 0,890.078 782.362,0 0,110.552 -782.362,0 0,-110.552 z" />
    </clipPath>
    <clipPath
       id="clipPath3619">
      <path
         id="path3621"
         d="m 0,0 782.362,0 0,1000.63 L 0,1000.63 0,0 z" />
    </clipPath>
    <clipPath
       id="clipPath3647">
      <path
         id="path3649"
         d="m 21.827,30.614 740.009,0 0,520.441 -740.009,0 0,-520.441 z" />
    </clipPath>
  </defs>
  <sodipodi:namedview
     id="base"
     pagecolor="#ffffff"
     bordercolor="#666666"
     borderopacity="1.0"
     inkscape:pageopacity="0.0"
     inkscape:pageshadow="2"
     inkscape:zoom="1.4"
     inkscape:cx="141.14696"
     inkscape:cy="568.90258"
     inkscape:document-units="px"
     inkscape:current-layer="layer1"
     showgrid="false"
     inkscape:window-width="1920"
     inkscape:window-height="1056"
     inkscape:window-x="0"
     inkscape:window-y="24"
     inkscape:window-maximized="1" />
  <metadata
     id="metadata3787">
    <rdf:RDF>
      <cc:Work
         rdf:about="">
        <dc:format>image/svg+xml</dc:format>
        <dc:type
           rdf:resource="http://purl.org/dc/dcmitype/StillImage" />
        <dc:title></dc:title>
      </cc:Work>
    </rdf:RDF>
  </metadata>
  <g
     inkscape:label="Layer 1"
     inkscape:groupmode="layer"
     id="layer1">
    <rect
       style="fill:none;stroke:#4d4d4d;stroke-width:2;stroke-miterlimit:4;stroke-opacity:1;stroke-dasharray:none"
       id="rect3790"
       width="358.57144"
       height="175.71428"
       x="142.25583"
       y="438.54935"
       ry="28.571428"
       inkscape:export-filename="/home/josh/PycharmProjects/savings_champion/savings_champion/resources/img/press/bbc_radio_4.png"
       inkscape:export-xdpi="208.50133"
       inkscape:export-ydpi="208.50133" />
    <g
       display="none"
       id="_x32_px_Stroke"
       style="display:none"
       transform="matrix(1.7603128,0,0,1.7603128,145.81066,350.99683)">
      <path
         id="path5770"
         d="M 198,2 V 198 H 2 V 2 h 196 m 2,-2 H 0 V 200 H 200 V 0 l 0,0 z"
         display="inline"
         inkscape:connector-curvature="0"
         style="fill:#a9a9a9;display:inline" />
    </g>
    <g
       id="g5772"
       transform="matrix(1.7603128,0,0,1.7603128,145.81066,350.99683)">
      <g
         id="g5774" />
      <g
         id="g5776" />
    </g>
    <g
       id="Guides"
       transform="matrix(1.7603128,0,0,1.7603128,145.81066,350.99683)" />
    <g
       transform="matrix(9.6289936,0,0,9.6289936,860.45814,525.71028)"
       id="g3034" />
    <g
       id="layer1-6"
       transform="matrix(0.34436458,0,0,0.34436458,162.91692,502.00269)"
       style="fill:#4d4d4d">
      <g
         id="Ebene_x0020_1"
         style="fill:#4d4d4d;fill-opacity:1;fill-rule:evenodd"
         transform="matrix(3.543307e-5,0,0,3.543307e-5,-1.59967e-4,1.882446e-4)">
        <path
           id="path10257"
           style="fill:#4d4d4d;fill-opacity:1"
           d="m 1911450,1181320 c -55680,0 -101920,-6170 -154460,-12350 l 0,911140 c 0,21540 -3140,27720 -15500,37040 l -518840,330450 c 77250,37070 169850,61750 265600,61750 327450,0 697980,-179140 870970,-626910 9320,-24710 30860,-31000 30860,12360 l 0,30860 c 0,490980 -373700,932680 -926510,932680 -602230,0 -963570,-454060 -963570,-926510 0,-355160 194530,-685620 636230,-824610 18530,-6140 21570,3040 9210,12360 -194530,151310 -299600,398380 -299600,645440 0,262560 105070,521940 339780,660940 l 129640,-98780 c 43350,-34040 52530,-64890 52530,-114280 l 0,-1124180 c -141960,-52530 -268600,-83430 -386020,-83430 -160640,0 -305780,71070 -447740,243920 -15500,18540 -24820,18540 -24820,0 18650,-348980 330460,-546660 639370,-546660 355170,0 682480,173000 1040790,173000 126600,0 256280,-27710 364350,-86430 15490,-6180 18530,6180 12350,18500 -111100,277960 -382880,373700 -654620,373700 z m 4364460,-503440 21680,0 c 237740,114240 408050,169960 661300,169960 101920,0 203850,-9330 287240,-37040 21670,-6320 24710,12320 12350,21540 l -379840,333590 c -18540,18540 -34040,27720 -58710,27720 -213030,0 -454450,-64860 -769410,-247070 -12350,-6140 -18530,-6140 -27850,0 -206850,114280 -185320,429270 108100,487990 l 593020,120420 c 410730,83390 531160,327450 531160,543620 0,265600 -250210,525020 -531160,738050 -12320,9320 -21650,12360 -34000,3140 -200710,-135920 -460130,-256380 -704160,-256380 -185310,0 -364480,61750 -500300,231700 -6180,9180 -15500,9180 -12320,-3140 71030,-389060 355130,-552840 673260,-552840 259420,0 537340,95750 741190,253250 9180,6170 15360,6170 21680,-3040 67890,-74070 89570,-148280 89570,-210030 0,-175990 -126750,-284100 -423200,-342810 l -515810,-105070 c -299590,-61740 -407560,-302630 -407560,-478620 0,-314990 311820,-577520 623770,-694940 z m 19224100,1852610 0,24890 -360,330 -327450,274770 c -12360,12360 -12360,9320 -21530,3180 l -247070,-219350 c -24820,-21570 -37180,-40070 -37180,-80280 l 0,-846260 c 0,-9180 0,-18500 -12350,-27710 l -83280,-74210 c -9330,-6150 -21650,-9180 -34000,-3000 l -157610,74060 0,796870 c 0,12360 -3030,24710 9330,33890 l 71030,61860 c 18530,15390 49390,33890 77250,24710 l 24670,-9320 c 30900,-12360 37040,6180 18540,21680 l -284100,243880 c -12350,12360 -15500,9320 -24710,3180 l -250210,-222390 c -30850,-24670 -30850,-30850 -30850,-71060 l 0,-1371240 c 0,-15360 0,-18540 -15500,-30860 l -30860,-27850 c -30890,-27720 -43210,-21540 -83420,-3040 l -61720,27710 c -9320,3180 -18530,-9180 -3180,-24670 l 327460,-274780 c 12350,-12360 12350,-9320 21680,-3140 l 197520,182170 c 24830,24820 37070,40180 37070,80390 l 0,515770 410850,-259530 c 12320,-6180 24680,-6180 33890,3140 l 200810,185350 c 27860,24680 34000,43220 34000,74070 l 0,846260 c 0,15390 0,18530 15400,30850 l 77210,64900 c 30890,27710 43210,21530 83420,3030 l 61710,-27860 c 1180,-390 2430,-460 3540,-390 z m -2334920,791620 -12000,0 c -1860,-820 -3930,-2040 -6140,-3680 l -271780,-219210 c -9320,-6180 -6140,-12350 0,-21680 l 67930,-77100 0,-1328030 -67930,-83390 c -3140,-3170 -6140,-3170 -12320,0 l -92750,46360 c -21530,12360 -37030,-3140 -18500,-18540 l 315100,-265700 c 9180,-9180 21540,-9180 27710,-3040 l 228530,225420 413880,-222380 c 12360,-6180 21680,-3040 24680,0 l 206990,191490 c 15390,15500 33890,40220 33890,68040 l 0,945040 c 0,21530 0,33890 -21530,49390 l -281060,216200 c -30900,24680 -37040,18500 -74110,-3140 l -293420,-179170 0,361450 83430,70930 c 9180,6170 9180,12350 0,21670 l -244060,225390 c -2110,1110 -4180,2640 -6540,3680 z m -3102610,0 -16530,0 -970,-500 c -179130,-120460 -321130,-176030 -475590,-176030 -108100,0 -216200,21570 -355160,58600 -12360,3150 -15500,-6180 -9330,-15390 145290,-219350 324310,-287240 491090,-287240 247070,0 478770,151320 571380,213030 l 9320,-6040 c 24680,-55670 33890,-108100 33890,-157600 0,-157490 -129640,-284100 -290270,-364340 l -333490,247060 c -12470,9180 -21680,6140 -30860,-3180 l -210170,-191490 c -30860,-27720 -37040,-40070 -37040,-70930 l 0,-901820 c 0,-15500 12360,-18500 18540,-21680 l 710440,-293420 c 18390,-9180 30860,-9180 37030,-3040 l 197570,197710 c 24820,24680 37140,43210 37140,64860 l 0,821470 c 129640,95740 185210,191490 185210,287240 0,108100 -52390,213030 -188350,324270 l -339670,274780 c -1500,1500 -2820,2750 -4180,3680 z m -6606810,0 -16500,0 -960,-500 c -179030,-120460 -321170,-176030 -475630,-176030 -108070,0 -216170,21570 -355130,58600 -12350,3150 -15390,-6180 -9210,-15390 145140,-219350 324310,-287240 490980,-287240 247060,0 478730,151320 571340,213030 l 9320,-6040 c 24710,-55670 34030,-108100 34030,-157600 0,-157490 -129780,-284100 -290410,-364340 l -330460,243880 c -15350,9320 -18530,9320 -27710,3180 l -222390,-200850 c -30850,-27710 -30850,-27710 -30850,-70930 l 0,-867930 c 0,-15360 0,-18500 -15500,-30860 l -43210,-37030 c -30860,-27860 -43220,-21540 -83390,-3040 l -61750,27720 c -9320,3140 -18540,-9180 -3140,-24680 l 327450,-274920 c 12320,-12360 12320,-9180 21530,-3040 l 210030,191530 c 24680,24680 37040,40070 37040,80250 l 0,843110 c 0,15500 3140,30860 12320,40180 l 74210,67930 c 21570,21640 61750,12320 86420,0 l 49400,-21570 0,-858580 c 0,-15500 0,-15500 -15360,-27860 l -43210,-37030 c -31000,-27860 -40180,-24710 -83430,-12360 l -24680,6180 c -9320,3140 -18530,-9210 -3140,-24710 l 290280,-244030 c 12350,-12360 12350,-9180 21670,-3040 l 210000,191530 c 24710,24680 37070,40070 37070,80250 l 0,812260 c 129640,95740 185310,191490 185310,287240 0,108100 -52530,213030 -188350,324270 l -339810,274780 c -1500,1500 -2820,2750 -4180,3680 z M 3591510,2830480 c -12360,12360 -12360,9320 -21680,3180 l -247060,-219350 c -24680,-21570 -37030,-40070 -37030,-80280 l 0,-846260 c 0,-9180 0,-18500 -12360,-27710 l -83390,-74210 c -9220,-6150 -21570,-9180 -34040,-3000 l -157490,74060 0,796870 c 0,12360 -3000,24710 9360,33890 l 71030,61860 c 18530,15390 49390,33890 77100,24710 l 24820,-9320 c 30860,-12360 37040,6180 18540,21680 l -284240,243880 c -12360,12360 -15360,9320 -24680,3180 l -250100,-222390 c -30850,-24670 -30850,-30850 -30850,-71060 l 0,-1371240 c 0,-15360 0,-18540 -15500,-30860 l -30890,-27850 c -30860,-27720 -43220,-21540 -83390,-3040 l -61750,27710 c -9320,3180 -18500,-9180 -3140,-24670 l 327450,-274780 c 12360,-12360 12360,-9320 21530,-3140 l 197680,182170 c 24710,24820 37030,40180 37030,80390 l 0,515770 410880,-259530 c 12320,-6180 24680,-6180 33890,3140 l 200810,185350 c 27720,24680 33900,43220 33900,74070 l 0,846260 c 0,15390 0,18530 15500,30850 l 77210,64900 c 30890,27710 43210,21530 83420,3030 l 61720,-27860 c 9210,-3000 18530,9330 3030,24830 l -327310,274770 z m 1315670,-1022250 -546660,342810 0,262560 c 0,24680 3040,34000 24710,43220 l 176000,92710 c 30850,15390 83390,30890 114280,12350 l 163640,-95740 c 27850,-15500 49530,-6180 34030,6180 l -447770,361340 c -9320,9180 -6180,6140 -18530,0 l -398490,-210030 c -30860,-15500 -40070,-21680 -40070,-64890 l 0,-975890 c 0,-15500 6180,-21680 24710,-27860 l 651590,-210030 c 9320,-3000 18530,-6180 24710,6180 l 244030,432380 c 6180,9350 6180,18530 -6180,24710 z m -540480,-299490 -6180,3040 0,599190 216210,-179140 c 12350,-9320 12350,-15500 6180,-24710 l -216210,-398380 z m 3988400,1324920 c -12360,12320 -12360,9180 -21680,3000 l -197530,-182170 c -24710,-24680 -37180,-40180 -37180,-80250 l 0,-31000 -410730,290420 c -12320,9180 -24680,6140 -34000,-3180 l -200710,-185310 c -27820,-24680 -34000,-43220 -34000,-74070 l 0,-886330 c 0,-15500 0,-15500 -15390,-30890 l -21680,-21640 c -27710,-27720 -43210,-21570 -83390,-3040 l -61750,27710 c -9170,3150 -18490,-9170 -3000,-24670 l 327310,-274920 c 12360,-12360 12360,-9220 21680,-3040 l 191350,176030 c 24820,24680 37180,40180 37180,80360 l 0,886320 c 0,9220 0,18540 12360,27720 l 83390,74210 c 9210,6180 21570,9210 33890,3030 l 157490,-104960 0,-806040 c 0,-12360 3150,-24710 -9210,-34040 l -27820,-24670 c -18540,-15400 -49390,-34040 -77250,-24720 l -24680,9320 c -30850,12360 -37030,-6170 -18530,-21670 l 284100,-244030 c 12350,-12360 15500,-9180 24820,-3040 l 206880,185350 c 30860,27720 30860,30860 30860,71070 l 0,895510 c 0,15500 0,18530 15500,30850 l 30850,27860 c 30900,27860 43250,21680 83430,3140 l 61710,-27850 c 9220,-3150 18540,9210 3040,24710 l -327310,274920 z m 1411060,-3180 c -12360,12360 -12360,9320 -21680,3180 l -247060,-219350 c -24680,-21570 -37040,-40070 -37040,-80280 l 0,-846260 c 0,-9180 0,-18500 -12360,-27710 l -83390,-74210 c -9170,-6150 -21530,-9180 -33890,-3000 l -157600,104920 0,766010 c 0,12360 -3030,24710 9320,33890 l 71070,61860 c 18500,15390 49360,33890 77210,24710 l 24720,-9320 c 30850,-12360 37030,6180 18500,21680 l -284100,243880 c -12470,12360 -15500,9320 -24820,3180 l -250100,-222390 c -30860,-24670 -30860,-30850 -30860,-71060 l 0,-855440 c 0,-15500 0,-18530 -15500,-30890 l -30850,-27820 c -30860,-27860 -43220,-21540 -83430,-3040 l -61710,27720 c -9320,3140 -18540,-9180 -3140,-24680 l 327410,-274920 c 12360,-12360 12360,-9180 21570,-3040 l 197680,182210 c 24670,24680 37030,40180 37030,80360 l 0,30890 410840,-290420 c 12360,-9180 24680,-6180 33900,3140 l 200810,185350 c 27710,24680 33890,43220 33890,74070 l 0,846260 c 0,15390 0,18530 15500,30850 l 77250,64900 c 30860,27710 43210,21530 83390,3030 l 61750,-27860 c 9320,-3000 18500,9330 3000,24830 l -327310,274770 z m 1328020,0 c -12320,12360 -15500,9320 -24680,3180 l -281090,-247060 -333490,247060 c -12320,9180 -9320,12320 -21640,3000 l -231570,-210030 c -15500,-12320 -24820,-30850 -24820,-58570 l 0,-938860 c 0,-15500 12320,-18530 18500,-21680 l 389200,-172950 -284130,-225430 c -98750,-80350 -145140,-151310 -145140,-237840 0,-138960 148180,-225390 373700,-225390 15360,0 18500,27710 0,27710 -58710,0 -92740,18500 -92740,46360 0,24680 6320,37030 71070,89570 l 441590,355160 c 182310,148280 228670,206890 228670,389170 l 0,824610 55570,49390 c 67890,58720 77210,55540 108070,40180 l 43210,-21680 c 27850,-15500 49390,-3140 24710,18540 l -314990,265560 z m -305770,-1176600 c 0,-49360 -12320,-68030 -92570,-129750 l -71070,-55570 -58710,30860 0,951220 c 0,30850 6180,46350 27850,64890 l 40040,37030 c 37070,34040 71070,46360 154460,-6180 l 0,-892500 z m 1615190,1176600 c -12350,12360 -15390,9320 -24710,3180 l -280960,-247060 -333590,247060 c -12360,9180 -15390,6140 -27720,-3180 l -213170,-191490 c -33890,-27720 -37070,-33890 -37070,-70930 l 0,-901820 c 0,-15500 12360,-18500 18540,-21680 l 716470,-296460 c 12360,-6140 24720,-6140 37070,6180 l 191500,191530 c 27820,27710 37030,43210 37030,61710 l 0,870970 55680,49390 c 67920,58720 77100,55540 107990,40180 l 43320,-21680 c 27720,-15500 49400,-3140 24720,18540 l -315100,265560 z m -305670,-1148850 c 0,-18540 -3140,-27750 -18500,-43250 l -111240,-111100 c -6180,-6180 -6180,-3150 -15500,0 l -77110,33890 0,892610 c 0,30890 6180,46250 27720,64780 l 40170,37150 c 27860,24710 61750,37030 101930,18530 l 52530,-24710 0,-867900 z m 3941150,-500310 c -55570,0 -101920,-6170 -154310,-12350 l 0,911140 c 0,21540 -3180,27720 -15500,37040 l -518840,330450 c 77250,37070 169850,61750 265600,61750 327310,0 697970,-179140 870930,-626910 9220,-24710 30890,-31000 30890,12360 l 0,30860 c 0,490980 -373700,932680 -926540,932680 -602190,0 -963530,-454060 -963530,-926510 0,-355160 194520,-685620 636120,-824610 18640,-6140 21670,3040 9320,12360 -194530,151310 -299600,398380 -299600,645440 0,262560 105070,521940 339780,660940 l 129630,-92600 c 46360,-31000 52540,-64900 52540,-114290 l 0,-1130350 c -142100,-52530 -268710,-83430 -386030,-83430 -160630,0 -305770,71070 -447870,243920 -15360,18540 -24680,18540 -24680,0 18500,-348980 330450,-546660 639230,-546660 355310,0 682620,173000 1040780,173000 126750,0 256390,-27710 364490,-86430 15500,-6180 18540,6180 12360,18500 -111110,277960 -382880,373700 -654770,373700 z m 1536170,626910 -546660,342810 0,262560 c 0,24680 3170,34000 24710,43220 l 175990,92710 c 30860,15390 83390,30890 114290,12350 l 163780,-95740 c 27710,-15500 49390,-6180 33890,6180 l -447770,361340 c -9320,9180 -6180,6140 -18500,0 l -398380,-210030 c -31000,-15500 -40210,-21680 -40210,-64890 l 0,-975890 c 0,-15500 6170,-21680 24710,-27860 l 651580,-210030 c 9360,-3000 18680,-6180 24720,6180 l 244020,432380 c 6180,9350 6180,18530 -6170,24710 z m -540490,-299490 -6170,3040 0,599190 216200,-179140 c 12360,-9320 12360,-15500 6180,-24710 l -216210,-398380 z m 966220,1321740 c -12360,12360 -15500,9320 -24710,3180 l -250210,-222390 c -30850,-24670 -30850,-30850 -30850,-71060 l 0,-1371240 c 0,-15360 0,-18540 -15500,-30860 l -30860,-27850 c -30890,-27720 -43210,-21540 -83280,-3040 l -61860,27710 c -9210,3180 -18530,-9180 -3030,-24670 l 327310,-274780 c 12350,-12360 12350,-9320 21680,-3140 l 197670,182170 c 24670,24820 37030,40180 37030,80390 l 0,1358880 c 0,12360 -3140,24710 9220,33890 l 71030,61860 c 18530,15390 49390,33890 77250,24710 l 24670,-9320 c 30900,-12360 37040,6180 18540,21680 l -284100,243880 z m 1294530,-1022250 -546660,342810 0,262560 c 0,24680 3140,34000 24680,43220 l 175990,92710 c 30890,15390 83430,30890 114280,12350 l 163780,-95740 c 27720,-15500 49390,-6180 33890,6180 l -447770,361340 c -9320,9180 -6140,6140 -18500,0 l -398520,-210030 c -30850,-15500 -40030,-21680 -40030,-64890 l 0,-975890 c 0,-15500 6140,-21680 24680,-27860 l 651620,-210030 c 9320,-3000 18500,-6180 24670,6180 l 244030,432380 c 6180,9350 6180,18530 -6140,24710 z m -540520,-299490 -6140,3040 0,599190 216170,-179140 c 12360,-9320 12360,-15500 6180,-24710 l -216210,-398380 z m 1265320,166710 c 0,-12360 -3150,-21570 -15500,-33890 l -114290,-114280 c -6170,-6180 -9170,-3150 -18500,0 l -74100,33890 0,886430 c 0,49390 12360,55570 61750,101930 27850,24710 43350,33890 71070,33890 24670,0 64850,-18500 89570,-33890 l 0,-874080 z m 1392910,68030 c -15500,12320 -31000,18500 -46350,18500 -15500,0 -30860,-6180 -46360,-18500 l -188350,-160630 -18540,15350 0,858620 c 0,18530 0,21670 12360,30850 l 49390,43210 c 52540,43360 64860,49540 120430,27860 l 37030,-15500 c 24720,-9210 30890,3140 15500,18640 l -318100,268600 c -12350,12360 -15490,9320 -24710,3180 l -244030,-219350 c -27710,-24710 -37030,-33890 -37030,-67930 l 0,-880140 -74100,-77220 c -6180,-6170 -9330,-6170 -18500,0 l -92750,52540 c -27710,15350 -37040,-6180 -18500,-21680 l 318100,-268740 c 12350,-9180 18530,-9180 24710,-3040 l 216210,213070 213130,-210030 c 12250,-9180 21570,-12360 33890,0 l 163680,151460 c 31000,27710 49490,43210 68030,43210 12360,0 27710,-6180 46250,-18530 l 43210,-27860 c 27820,-18500 40180,9320 24820,24710 l -259420,219350 z m 1126210,1087000 c -12350,12360 -15390,9320 -24710,3180 l -280950,-247060 -333600,247060 c -12360,9180 -15360,6140 -27710,-3180 l -213180,-191490 c -34030,-27720 -37030,-33890 -37030,-70930 l 0,-901820 c 0,-15500 12320,-18500 18500,-21680 l 716510,-296460 c 12320,-6140 24680,-6140 37040,6180 l 191490,191530 c 27850,27710 37030,43210 37030,61710 l 0,870970 55720,49390 c 67890,58720 77100,55540 107960,40180 l 43320,-21680 c 27710,-15500 49390,-3140 24710,18540 l -315100,265560 z m -305660,-1148850 c 0,-18540 -3150,-27750 -18650,-43250 l -111100,-111100 c -6180,-6180 -6180,-3150 -15500,0 l -77100,33890 0,892610 c 0,30890 6170,46250 27710,64780 l 40180,37150 c 27750,24710 61740,37030 101920,18530 l 52540,-24710 0,-867900 z m 1379590,9320 c 0,-18540 -6320,-34040 -18530,-46390 l -86570,-83390 c -6150,-6180 -12320,-6180 -21640,-3040 l -154360,58710 0,978940 86430,27850 c 71070,21540 101920,18500 132780,-9320 l 30890,-27710 c 27820,-24720 31000,-52570 31000,-101930 l 0,-793720 z"
           inkscape:connector-curvature="0" />
      </g>
    </g>
  </g>
</svg>
