<?xml version="1.0" encoding="UTF-8" standalone="no"?>
<!-- Created with Inkscape (http://www.inkscape.org/) -->

<svg
   xmlns:dc="http://purl.org/dc/elements/1.1/"
   xmlns:cc="http://creativecommons.org/ns#"
   xmlns:rdf="http://www.w3.org/1999/02/22-rdf-syntax-ns#"
   xmlns:svg="http://www.w3.org/2000/svg"
   xmlns="http://www.w3.org/2000/svg"
   xmlns:sodipodi="http://sodipodi.sourceforge.net/DTD/sodipodi-0.dtd"
   xmlns:inkscape="http://www.inkscape.org/namespaces/inkscape"
   width="744.09448819"
   height="1052.3622047"
   id="svg3782"
   version="1.1"
   inkscape:version="0.48.4 r9939"
   inkscape:export-filename="/home/josh/PycharmProjects/savings_champion/savings_champion/resources/img/press/sunday_telegraph.png"
   inkscape:export-xdpi="208.50133"
   inkscape:export-ydpi="208.50133"
   sodipodi:docname="the_courier.svg">
  <defs
     id="defs3784">
    <inkscape:perspective
       sodipodi:type="inkscape:persp3d"
       inkscape:vp_x="0 : 11 : 1"
       inkscape:vp_y="0 : 1000 : 0"
       inkscape:vp_z="39 : 11 : 1"
       inkscape:persp3d-origin="19.5 : 7.3333333 : 1"
       id="perspective2908" />
    <inkscape:perspective
       sodipodi:type="inkscape:persp3d"
       inkscape:vp_x="0 : 0.5 : 1"
       inkscape:vp_y="0 : 1000 : 0"
       inkscape:vp_z="1 : 0.5 : 1"
       inkscape:persp3d-origin="0.5 : 0.33333333 : 1"
       id="perspective2824" />
    <inkscape:perspective
       id="perspective10"
       inkscape:persp3d-origin="372.04724 : 350.78739 : 1"
       inkscape:vp_z="744.09448 : 526.18109 : 1"
       inkscape:vp_y="0 : 1000 : 0"
       inkscape:vp_x="0 : 526.18109 : 1"
       sodipodi:type="inkscape:persp3d" />
    <clipPath
       id="clipPath4006">
      <path
         id="path4008"
         d="m 0,0 782.362,0 0,1000.63 L 0,1000.63 0,0 z" />
    </clipPath>
    <clipPath
       id="clipPath4024">
      <path
         id="path4026"
         d="m 0,890.078 782.362,0 0,110.552 -782.362,0 0,-110.552 z" />
    </clipPath>
    <clipPath
       id="clipPath4620">
      <path
         id="path4622"
         d="m 0,0 782.362,0 0,1000.63 L 0,1000.63 0,0 z" />
    </clipPath>
    <clipPath
       id="clipPath4648">
      <path
         id="path4650"
         d="m 21.827,30.614 740.009,0 0,520.441 -740.009,0 0,-520.441 z" />
    </clipPath>
    <clipPath
       id="clipPath3005">
      <path
         id="path3007"
         d="m 0,0 782.362,0 0,1000.63 L 0,1000.63 0,0 z" />
    </clipPath>
    <clipPath
       id="clipPath3023">
      <path
         id="path3025"
         d="m 0,890.078 782.362,0 0,110.552 -782.362,0 0,-110.552 z" />
    </clipPath>
    <clipPath
       id="clipPath3619">
      <path
         id="path3621"
         d="m 0,0 782.362,0 0,1000.63 L 0,1000.63 0,0 z" />
    </clipPath>
    <clipPath
       id="clipPath3647">
      <path
         id="path3649"
         d="m 21.827,30.614 740.009,0 0,520.441 -740.009,0 0,-520.441 z" />
    </clipPath>
  </defs>
  <sodipodi:namedview
     id="base"
     pagecolor="#ffffff"
     bordercolor="#666666"
     borderopacity="1.0"
     inkscape:pageopacity="0.0"
     inkscape:pageshadow="2"
     inkscape:zoom="1.4"
     inkscape:cx="141.14696"
     inkscape:cy="568.90258"
     inkscape:document-units="px"
     inkscape:current-layer="layer1"
     showgrid="false"
     inkscape:window-width="1920"
     inkscape:window-height="1056"
     inkscape:window-x="0"
     inkscape:window-y="24"
     inkscape:window-maximized="1" />
  <metadata
     id="metadata3787">
    <rdf:RDF>
      <cc:Work
         rdf:about="">
        <dc:format>image/svg+xml</dc:format>
        <dc:type
           rdf:resource="http://purl.org/dc/dcmitype/StillImage" />
        <dc:title></dc:title>
      </cc:Work>
    </rdf:RDF>
  </metadata>
  <g
     inkscape:label="Layer 1"
     inkscape:groupmode="layer"
     id="layer1">
    <rect
       style="fill:none;stroke:#4d4d4d;stroke-width:2;stroke-miterlimit:4;stroke-opacity:1;stroke-dasharray:none"
       id="rect3790"
       width="358.57144"
       height="175.71428"
       x="142.25583"
       y="438.54935"
       ry="28.571428"
       inkscape:export-filename="/home/josh/PycharmProjects/savings_champion/savings_champion/resources/img/press/bbc_radio_4.png"
       inkscape:export-xdpi="208.50133"
       inkscape:export-ydpi="208.50133" />
    <g
       display="none"
       id="_x32_px_Stroke"
       style="display:none"
       transform="matrix(1.7603128,0,0,1.7603128,145.81066,350.99683)">
      <path
         id="path5770"
         d="M 198,2 V 198 H 2 V 2 h 196 m 2,-2 H 0 V 200 H 200 V 0 l 0,0 z"
         display="inline"
         inkscape:connector-curvature="0"
         style="fill:#a9a9a9;display:inline" />
    </g>
    <g
       id="g5772"
       transform="matrix(1.7603128,0,0,1.7603128,145.81066,350.99683)">
      <g
         id="g5774" />
      <g
         id="g5776" />
    </g>
    <g
       id="Guides"
       transform="matrix(1.7603128,0,0,1.7603128,145.81066,350.99683)" />
    <g
       transform="matrix(9.6289936,0,0,9.6289936,860.45814,525.71028)"
       id="g3034" />
    <path
       id="path6477"
       d="m 408.67373,523.01711 c 0,-2.19894 -1.10802,-3.83918 -2.87982,-4.83187 -1.54797,-0.83635 -3.1865,-1.13791 -8.13541,-1.13791 h -10.79737 l 0.37418,10.10967 v 5.0369 l -0.37418,10.21646 h 7.55192 L 394.0141,532.1939 v -1.51295 h 0.4485 l 7.94234,11.72856 h 8.14396 l -8.75648,-12.54099 c 4.39789,-0.92434 6.88131,-3.2369 6.88131,-6.85141 m -6.77965,0.81927 c 0,3.50601 -2.39629,5.33162 -6.78392,5.33162 -0.34855,0 -0.69711,-0.0402 -1.09606,-0.0769 l 0.14865,-10.13787 c 5.43585,0 7.73133,0.48353 7.73133,4.88313 m -34.65857,18.57313 h 17.92216 v -3.15063 c -3.57435,0.32207 -7.14443,0.4673 -10.62652,0.4673 -0.0897,-1.43691 -0.1401,-2.9772 -0.1401,-4.48502 0,-1.54542 0.0504,-3.08399 0.0504,-4.59523 3.52907,0 7.00945,0.10678 10.54024,0.32377 v -3.23861 c -3.53079,0.15292 -6.49859,0.22809 -10.54024,0.30242 0,-2.77645 0,-5.51872 0.23151,-8.29517 1.39335,0 6.96332,0.26654 10.49069,0.45534 v -3.1455 h -17.92729 c 0.2785,3.1848 0.37333,6.1116 0.37333,10.37622 v 5.05227 c -0.004,4.01602 -0.0957,6.77965 -0.37418,9.93284 m -2.16905,-10.18144 v -5.00101 c 0,-4.11341 0.0948,-6.94795 0.37418,-10.18144 h -7.09744 c 0.27593,3.23349 0.37332,6.06888 0.37332,10.18144 v 5.00101 c 0,4.11598 -0.0906,6.9488 -0.37332,10.18144 h 7.09744 c -0.27935,-3.23264 -0.37418,-6.06546 -0.37418,-10.18144 m -8.39596,10.18144 -8.40622,-12.53928 c 4.39788,-0.92605 6.88131,-3.24032 6.88131,-6.85312 0,-2.19894 -1.10802,-3.83918 -2.87982,-4.83187 -1.54797,-0.83635 -3.1865,-1.13791 -8.1337,-1.13791 H 333.3364 l 0.37247,10.10967 v 5.0369 l -0.37247,10.21646 h 7.55364 l -0.40579,-10.21644 v -1.51295 h 0.44851 l 7.59378,11.72856 h 8.14396 l 0,0 z M 341.58202,529.168 c -0.35026,0 -0.69369,-0.0402 -1.09777,-0.0769 l 0.15548,-10.13787 c 5.43073,0 7.73219,0.48353 7.73219,4.88313 -0.006,3.50259 -2.40227,5.33162 -6.7899,5.33162 m -9.91832,1.54371 c 0,-6.3021 0.0854,-10.67095 0.17001,-13.66523 h -5.68787 c 0.18538,3.35479 0.2187,6.67115 0.2187,10.01997 0,6.78136 0.40237,13.0809 -4.60036,13.0809 -4.82332,0 -5.51273,-1.45657 -5.51273,-10.34802 0,-4.22447 0.0384,-8.01581 0.52026,-12.75627 h -7.3862 c 0.0752,1.20455 0.14865,3.64867 0.14865,7.50836 0,2.62267 -0.0735,4.5901 -0.0735,8.52582 0,6.8497 4.87373,9.68253 11.21427,9.68253 7.20338,0.005 10.98874,-3.594 10.98874,-12.04806 m -23.59123,-1.12339 c 0,-8.85814 -5.93134,-12.93396 -13.4098,-12.93396 -8.18581,0 -13.58664,5.72801 -13.58664,12.97069 0,9.18704 6.03813,13.17658 13.48156,13.17658 7.86887,0 13.51488,-5.9339 13.51488,-13.21331 m -6.9582,-0.76972 c 0,8.01068 -2.57141,11.6884 -6.80442,11.6884 -3.9511,0 -6.08341,-2.72262 -6.08341,-10.55049 0,-6.31833 1.49501,-11.39367 6.32859,-11.39367 4.55251,-0.002 6.55924,3.89471 6.55924,10.25576 m -20.73705,-12.02585 c 0.14181,-1.58215 0.47328,-3.20359 1.08666,-4.76352 -2.17332,-1.35662 -6.3209,-2.37408 -9.62359,-2.37408 -9.89951,0 -18.74142,5.04801 -18.74142,17.86407 0,8.77528 6.4815,15.63865 17.42411,15.63865 3.8631,0 7.1188,-0.77741 9.61846,-2.13573 0.14352,-1.3344 0.52026,-2.68247 1.04138,-3.98099 l -0.61424,-0.37333 c -2.03065,2.08789 -5.51957,3.48124 -8.53607,3.48124 -5.42304,0 -10.50692,-3.75888 -10.50692,-13.33035 0,-9.84229 5.0369,-14.15816 10.08148,-14.15816 3.34882,0 5.75109,1.25153 8.10893,4.13135 l 0.66122,8.5e-4 0,0 z m -55.2914,25.61676 h 19.35738 v -3.46415 c -3.8614,0.32378 -7.72194,0.46559 -11.47996,0.46559 -0.1,-1.43606 -0.15036,-2.66795 -0.15036,-4.17407 0,-1.54797 0.0504,-2.93619 0.0504,-4.43547 3.81099,0 7.57157,0.10678 11.38171,0.32207 v -3.553 c -3.81014,0.15377 -7.02141,0.23151 -11.38171,0.30242 0,-2.77644 0,-5.048 0.2503,-7.82872 1.50612,0 7.52289,0.26654 11.33388,0.45619 v -3.4556 h -19.35908 c 0.30242,3.18565 0.40237,6.1133 0.40237,10.37621 v 5.05227 c -0.003,4.01944 -0.10252,6.78307 -0.40494,9.93626 M 222.71684,532.158 v -4.94549 c 0,-4.11084 0.0871,-6.93342 0.3494,-10.16349 h -7.10342 c 0.26653,3.19163 0.35367,6.02018 0.35367,10.09088 -1.67953,0.0367 -2.36297,0.0735 -5.49992,0.0735 -3.13952,0 -4.08522,-0.0367 -5.58792,-0.0735 0,-4.07582 0.088,-6.89754 0.35112,-10.09088 h -7.10343 c 0.26483,3.23007 0.35111,6.05692 0.35111,10.16349 v 4.94549 c 0,4.14587 -0.0888,6.99493 -0.35111,10.25149 h 7.10343 c -0.26569,-3.25656 -0.35112,-6.10562 -0.35112,-10.25149 v -2.11095 c 2.25448,-0.0752 3.33259,-0.14694 5.5435,-0.14694 2.25532,0 3.29158,0.1102 5.54263,0.14694 v 2.11095 c 0,4.14587 -0.088,6.99493 -0.35367,10.25149 h 7.10428 c -0.26227,-3.25827 -0.34855,-6.10818 -0.34855,-10.25149 M 196.866,521.5759 c -0.15035,-0.71247 -0.1794,-1.55481 -0.1794,-2.2502 0,-0.69368 0.0291,-1.73079 0.1794,-2.42618 -4.22276,0.13839 -6.45929,0.33915 -12.61103,0.33915 -6.15175,8.5e-4 -8.38658,-0.1999 -12.90748,-0.33915 0.1495,0.69368 0.26654,1.72908 0.26654,2.42618 0,0.69369 -0.11789,1.53773 -0.26654,2.2502 2.97976,-0.33488 7.15297,-0.62192 9.09221,-0.62192 0.14694,0.66635 0.14694,2.38603 0.14694,4.19798 v 4.4389 c 0,5.33931 -0.0982,8.62406 -0.39553,12.81607 1.1251,0.0128 2.4296,0.0111 4.06642,0.0111 1.63511,0 2.93107,0.002 4.06728,-0.0111 -0.29986,-4.19201 -0.3981,-7.47676 -0.3981,-12.81607 v -4.4389 c 0,-1.81195 0,-3.53163 0.0982,-4.19798 1.98537,0.003 6.15773,0.28875 8.84105,0.62192 m 247.00019,18.76621 c -0.76459,0 -1.26606,0.53393 -1.26606,1.20967 0,0.85771 0.56383,1.22847 1.26179,1.22847 0.73042,0 1.26349,-0.55187 1.26349,-1.23018 -0.006,-0.83037 -0.56041,-1.20796 -1.25922,-1.20796 z m -29.60117,0 c -0.76544,0 -1.26606,0.53393 -1.26606,1.20967 0,0.85771 0.56042,1.22847 1.26008,1.22847 0.72956,0 1.2635,-0.55187 1.2635,-1.23018 -0.009,-0.83037 -0.56042,-1.20796 -1.25752,-1.20796 z m 20.89338,-11.38001 c -4.44487,0 -7.3785,3.11218 -7.3785,7.04021 0,4.98991 3.27876,7.15468 7.31956,7.15468 4.27316,0 7.34006,-3.22153 7.34006,-7.17348 0,-4.81051 -3.21982,-7.02141 -7.28112,-7.02141 z m -0.19221,12.94848 c -2.14598,0 -3.30183,-1.47707 -3.30183,-5.72802 0,-3.43424 0.81072,-6.18591 3.4351,-6.18591 2.47317,0 3.56068,2.11778 3.56068,5.56997 0,4.34663 -1.39505,6.34396 -3.69395,6.34396 z m -7.6365,-9.84057 c 0.0564,-0.6561 0.19563,-1.33013 0.45021,-1.97512 -0.90128,-0.55871 -2.62268,-0.98243 -3.99125,-0.98243 -4.10657,0 -7.77404,2.09215 -7.77404,7.40926 0,3.64355 2.6876,6.48663 7.22473,6.48663 1.60351,0 2.95329,-0.32293 3.98954,-0.88419 0.0598,-0.55188 0.21699,-1.114 0.43227,-1.65391 l -0.25543,-0.15548 c -0.84233,0.86796 -2.29206,1.44289 -3.54189,1.44289 -2.24764,0 -4.3603,-1.55993 -4.3603,-5.53153 0,-4.07923 2.08874,-5.87154 4.18261,-5.87154 1.38993,0 2.38774,0.51685 3.36419,1.712 h 0.27679 v 0.002 h 0.002 v 0.002 z m 31.03296,4.42779 c 0,-3.424 0.0487,-5.79551 0.0914,-7.42208 h -3.08997 c 0.10166,1.82306 0.12045,3.62048 0.12045,5.43927 0,3.6837 0.22041,7.10428 -2.49794,7.10428 -2.61755,0 -2.99344,-0.79278 -2.99344,-5.61952 0,-2.29463 0.0197,-4.35347 0.28192,-6.92403 h -4.00919 c 0.0401,0.65695 0.082,1.97854 0.082,4.07582 0,1.42496 -0.0419,2.49282 -0.0419,4.63026 0,3.71958 2.65172,5.2573 6.09195,5.2573 3.90838,8.6e-4 5.96466,-1.9512 5.96466,-6.5413 m 13.37306,-7.42293 h -4.42181 l -4.14758,6.47552 V 534.556 c 0,-2.21262 0.047,-3.74949 0.19563,-5.48113 h -3.86224 c 0.14352,1.75727 0.19563,3.29072 0.19563,5.51957 v 2.6876 c 0,2.25191 -0.0521,3.79646 -0.19563,5.57083 h 3.86224 c -0.14864,-1.76753 -0.19563,-3.31892 -0.19563,-5.57083 v -0.90726 l 4.14758,6.47723 h 4.42181 l -4.59523,-6.88729 4.59523,-6.88985 z"
       inkscape:connector-curvature="0"
       style="fill:#4d4d4d" />
  </g>
</svg>
