<?xml version="1.0" encoding="UTF-8" standalone="no"?>
<!-- Created with Inkscape (http://www.inkscape.org/) -->

<svg
   xmlns:dc="http://purl.org/dc/elements/1.1/"
   xmlns:cc="http://creativecommons.org/ns#"
   xmlns:rdf="http://www.w3.org/1999/02/22-rdf-syntax-ns#"
   xmlns:svg="http://www.w3.org/2000/svg"
   xmlns="http://www.w3.org/2000/svg"
   xmlns:sodipodi="http://sodipodi.sourceforge.net/DTD/sodipodi-0.dtd"
   xmlns:inkscape="http://www.inkscape.org/namespaces/inkscape"
   width="744.09448819"
   height="1052.3622047"
   id="svg3782"
   version="1.1"
   inkscape:version="0.48.4 r9939"
   inkscape:export-filename="/home/josh/PycharmProjects/savings_champion/savings_champion/resources/img/press/financial_times.png"
   inkscape:export-xdpi="208.50133"
   inkscape:export-ydpi="208.50133"
   sodipodi:docname="the_times.svg">
  <defs
     id="defs3784" />
  <sodipodi:namedview
     id="base"
     pagecolor="#ffffff"
     bordercolor="#666666"
     borderopacity="1.0"
     inkscape:pageopacity="0.0"
     inkscape:pageshadow="2"
     inkscape:zoom="1.979899"
     inkscape:cx="299.47622"
     inkscape:cy="589.84503"
     inkscape:document-units="px"
     inkscape:current-layer="layer1"
     showgrid="false"
     inkscape:window-width="1920"
     inkscape:window-height="1056"
     inkscape:window-x="0"
     inkscape:window-y="24"
     inkscape:window-maximized="1" />
  <metadata
     id="metadata3787">
    <rdf:RDF>
      <cc:Work
         rdf:about="">
        <dc:format>image/svg+xml</dc:format>
        <dc:type
           rdf:resource="http://purl.org/dc/dcmitype/StillImage" />
        <dc:title></dc:title>
      </cc:Work>
    </rdf:RDF>
  </metadata>
  <g
     inkscape:label="Layer 1"
     inkscape:groupmode="layer"
     id="layer1">
    <rect
       style="fill:none;stroke:#4d4d4d;stroke-width:2;stroke-miterlimit:4;stroke-opacity:1;stroke-dasharray:none"
       id="rect3790"
       width="358.57144"
       height="175.71428"
       x="143.17825"
       y="438.54935"
       ry="28.571428" />
    <g
       display="none"
       id="_x32_px_Stroke"
       style="display:none"
       transform="matrix(1.7603128,0,0,1.7603128,145.81066,350.99683)">
      <path
         id="path5770"
         d="M 198,2 V 198 H 2 V 2 h 196 m 2,-2 H 0 V 200 H 200 V 0 l 0,0 z"
         display="inline"
         inkscape:connector-curvature="0"
         style="fill:#a9a9a9;display:inline" />
    </g>
    <g
       id="g5772"
       transform="matrix(1.7603128,0,0,1.7603128,145.81066,350.99683)">
      <g
         id="g5774" />
      <g
         id="g5776" />
    </g>
    <g
       id="g6123"
       transform="translate(0.49969226,6.0085947)">
      <g
         style="fill:#4d4d4d"
         transform="matrix(1.7603128,0,0,1.7603128,145.81066,350.99683)"
         id="g5780">
        <path
           id="path5782"
           d="m 66.864,93.643 -0.441,-0.009 -0.008,-1.32 c 0.284,-0.047 0.523,0.022 0.711,0.215 0.261,0.332 0.164,0.947 -0.262,1.114 m 1.019,-1.425 c -0.782,-0.332 -1.811,-0.247 -2.659,-0.26 0,0.096 -0.021,0.189 0.026,0.26 0.095,0 0.288,0.062 0.288,0.062 v 1.355 c -0.071,0 -0.241,0.009 -0.288,0.032 0,0.095 -0.026,0.189 0.022,0.26 0.832,-0.046 1.637,0.237 2.421,-0.023 0.331,-0.213 0.545,-0.569 0.545,-0.973 -0.021,-0.262 -0.092,-0.571 -0.355,-0.713 z"
           inkscape:connector-curvature="0"
           style="fill:#4d4d4d" />
        <path
           id="path5784"
           d="m 69.334,81.533 0.261,0.094 c 0,0 -0.104,0.204 -0.043,0.308 0.072,0.128 0.2,0.262 0.327,0.19 0.19,-0.103 0.31,-0.331 0.24,-0.499 h 0.188 l 0.027,0.171 c -0.026,0.308 -0.12,0.53 -0.537,0.506 -0.382,-0.02 -0.521,-0.424 -0.463,-0.77 m 0.827,1.148 c -0.003,-0.006 0.326,0.103 0.326,0.103 l 0.102,0.135 0.157,-1.818 -0.157,-0.127 c 0,0 -0.238,0.335 -0.774,0.335 -0.292,0 -0.606,-0.062 -0.861,-0.073 0.093,0.308 -0.042,0.671 0.15,1.029 0.206,0.382 0.631,0.44 1.057,0.416 z"
           inkscape:connector-curvature="0"
           style="fill:#4d4d4d" />
        <path
           id="path5786"
           d="m 72.252,81.518 h 0.188 c -0.071,0.168 0.048,0.396 0.235,0.5 0.131,0.069 0.256,-0.064 0.33,-0.193 0.061,-0.104 -0.045,-0.307 -0.045,-0.307 l 0.264,-0.093 c 0.055,0.345 -0.083,0.75 -0.466,0.771 -0.416,0.022 -0.509,-0.199 -0.533,-0.507 l 0.027,-0.171 m 0.659,0.938 c 0.602,-0.087 0.644,-0.913 0.621,-1.483 -0.379,0.189 -0.546,0.264 -0.924,0.278 -0.382,0.014 -0.697,-0.349 -0.697,-0.349 l -0.136,0.07 0.357,1.874 c 0,10e-4 0.203,-0.308 0.779,-0.39 z"
           inkscape:connector-curvature="0"
           style="fill:#4d4d4d" />
        <path
           id="path5788"
           d="m 92.56,95.326 c -0.024,-0.354 -0.143,-0.687 -0.497,-0.854 -0.192,-0.07 -0.478,-0.119 -0.642,0.025 -0.308,0.166 -0.287,0.497 -0.237,0.758 0.071,0.12 0.166,0.261 0.333,0.214 0.308,-0.189 -0.239,-0.545 0.212,-0.664 0.213,-0.025 0.335,0.237 0.405,0.379 0.023,0.356 -0.122,0.665 -0.429,0.831 -0.331,0.046 -0.664,0.118 -0.949,-0.071 -0.307,-0.237 -0.544,-0.57 -0.569,-0.973 -0.046,-0.546 0.31,-1.069 0.807,-1.306 1.092,-0.522 1.876,0.452 2.656,1.14 -0.402,0.049 -0.829,0.142 -1.09,0.521 m -4.391,-2.845 c -0.212,-0.334 -0.117,-0.806 0.026,-1.115 0.211,-0.358 0.567,-0.69 0.973,-0.76 0.567,-0.119 1.066,0.12 1.496,0.45 0.614,0.619 0.995,1.473 1.517,2.183 -0.595,-0.212 -1.447,-0.118 -1.946,0.404 -0.164,0.284 -0.331,0.546 -0.379,0.877 -0.451,-0.687 -1.069,-1.375 -1.687,-2.039 z m -5.241,2.183 c -1.424,-0.143 -2.751,0.071 -3.988,0.498 0.12,-0.808 0.144,-1.708 0.098,-2.515 0.686,-0.878 1.874,-0.782 2.939,-0.852 1.898,-0.073 3.485,0.319 5.338,0.687 0.382,1.091 1.613,1.827 2.041,2.895 -2.182,0.187 -4.222,-0.596 -6.428,-0.713 z m -0.617,1.233 c -1.045,0.071 -2.159,0.022 -3.085,-0.286 0.829,-0.475 1.899,-0.521 2.894,-0.546 l 0.237,0.025 c -0.069,0.262 -0.001,0.545 -0.046,0.807 z m -7.261,0 -8.091,-1.448 c -1.114,-0.213 -2.42,-0.119 -3.486,0.022 0.188,-0.71 0.259,-1.516 0.188,-2.254 0.121,-0.402 0.595,-0.379 0.903,-0.568 1.327,-0.332 2.727,0 4.034,0.145 3.299,0.615 6.526,1.351 9.964,1.564 0.12,0.76 -0.071,1.566 -0.048,2.301 0.239,0.379 0.665,0.356 1.021,0.451 -1.495,0.096 -3.038,-0.023 -4.485,-0.213 z M 66.651,95.589 C 65.607,95.564 64.466,95.516 63.518,95.185 L 63.4,95.043 c 0.902,-0.452 2.253,-0.38 3.273,-0.167 l -0.022,0.713 z m -13.644,0.023 c 1.021,-0.403 2.089,-0.665 3.061,-1.21 -1.018,-0.521 -2.109,-0.9 -3.061,-1.59 3.275,0.262 6.787,0.452 10.226,0.286 0.024,0.759 -0.283,1.471 -0.211,2.158 0.379,0.475 0.946,0.427 1.445,0.571 -3.772,0.307 -7.78,0.189 -11.46,-0.215 z m 7.001,-5.505 c 1.091,0 1.993,-0.404 2.989,-0.616 0.95,-0.144 1.898,0.046 2.753,-0.261 0.047,0.473 0.308,0.926 0.118,1.423 l -1.304,0.142 c -0.546,0.166 -1.188,0.426 -1.425,0.949 -0.116,-0.166 0.095,-0.57 -0.259,-0.57 -0.096,0 -0.213,0.047 -0.261,0.167 0.022,0.095 0.092,0.214 0.048,0.308 -0.286,0.095 -0.405,0.356 -0.237,0.594 -0.048,0.047 -0.142,0.024 -0.189,0.024 -0.238,-0.166 -0.144,-0.499 -0.404,-0.641 -0.094,-0.189 0.167,-0.308 0,-0.452 -0.119,-0.094 -0.332,-0.094 -0.427,0 -0.141,0.262 0.071,0.641 -0.356,0.712 l 0.095,0.428 c -0.308,0.143 -0.333,-0.237 -0.428,-0.38 -0.046,-0.236 -0.332,-0.379 -0.118,-0.616 0.072,-0.118 -0.095,-0.214 -0.19,-0.214 -0.143,-0.024 -0.236,0.07 -0.285,0.166 0.168,0.286 -0.167,0.405 -0.355,0.475 l 0.047,0.569 c -0.237,0 -0.308,-0.26 -0.379,-0.428 0.046,-0.237 -0.262,-0.188 -0.286,-0.403 0.164,-0.522 0.212,-1.233 0.853,-1.376 z m 4.696,-5.74 c 0.24,-1.613 1.898,-2.421 2.871,-3.536 0.024,0.687 -0.521,1.162 -0.973,1.614 l -1.898,1.922 z m 2.16,-4.533 c -0.024,0.948 -1.043,1.447 -1.708,1.969 0.283,-0.806 0.902,-1.615 1.708,-1.969 z m 0.496,-0.807 c 0.736,-0.095 1.426,0.119 1.949,0.618 0.055,-0.092 0.188,-0.144 0.235,-0.24 0,-0.023 0,-0.07 -0.022,-0.093 0.453,-0.14 0.941,-0.273 1.443,-0.307 0.598,-0.042 1.213,0.038 1.808,0.141 0.023,0.096 0.117,0.236 0.237,0.236 0.307,-0.166 0.472,-0.52 0.809,-0.665 0.283,-0.093 0.663,-0.164 0.948,-0.14 -0.097,0.426 -0.12,0.876 -0.5,1.21 -0.144,0.189 -0.449,0.071 -0.498,0.308 0.544,0.758 0.474,1.945 0.283,2.848 -0.12,0.213 -0.213,0.376 -0.571,0.498 -0.128,0.045 -0.348,0.049 -0.348,0.049 l -0.029,0.142 0.478,0.302 -0.043,0.275 -0.455,-0.214 -0.066,0.24 0.467,0.304 -0.049,0.23 -0.476,-0.19 -0.093,0.286 0.48,0.289 -0.095,0.425 -1.451,-0.562 c 0,0 0,-0.643 -0.001,-0.649 0.237,-0.12 0.473,-0.334 0.544,-0.594 0.025,-0.142 0.072,-0.38 -0.071,-0.499 -0.294,0.195 -0.519,0.286 -0.884,0.317 -0.452,0.042 -0.725,-0.095 -0.895,-0.198 -0.142,0.238 -0.064,0.468 0.093,0.687 0.137,0.19 0.515,0.306 0.515,0.306 v 0.686 l -1.368,0.646 -0.125,-0.374 0.438,-0.272 -0.096,-0.33 -0.454,0.264 -0.093,-0.222 0.494,-0.315 -0.111,-0.302 -0.504,0.271 -0.057,-0.174 0.493,-0.371 c 0,0 -0.027,-0.177 -0.031,-0.191 -0.405,-0.048 -0.902,-0.142 -1.043,-0.617 -0.238,-0.735 -0.263,-1.638 -0.214,-2.421 0.021,-0.119 0.307,-0.189 0.117,-0.308 -0.687,0.025 -0.973,-0.759 -1.188,-1.233 v -0.097 z m 0.999,-1.851 c -0.213,-0.075 -0.232,-0.282 -0.232,-0.282 0.284,-0.261 0.73,-0.477 1.085,-0.643 0.024,0.004 -0.024,0.477 0.002,0.479 -0.04,0.107 -0.133,0.032 -0.286,0.227 -0.128,0.163 0.032,0.487 0.237,0.473 0.182,-0.013 0.254,-0.021 0.259,-0.016 0.097,0.286 -0.112,0.416 -0.331,0.521 -0.309,0.151 -0.449,-0.261 -0.449,-0.261 l 0.237,-0.118 -0.308,-0.593 c 0.001,0 -0.102,0.254 -0.214,0.213 z m 4.866,1.092 c -0.026,0.07 -0.096,0.12 -0.143,0.167 -1.329,-0.26 -2.825,-0.143 -4.058,0.236 -0.071,-0.046 -0.142,-0.072 -0.19,-0.143 1.211,-0.52 2.99,-0.593 4.391,-0.26 z m -0.881,-2.255 c -0.007,-0.003 -0.253,0.43 -0.261,0.451 -0.143,0.024 -0.38,-0.054 -0.402,0.184 -0.12,0.333 0.12,0.577 0.381,0.481 0,0.141 -0.104,0.34 -0.287,0.402 -0.21,0.073 -0.454,-0.037 -0.527,-0.228 l 0.005,-0.15 0.242,0.008 -0.005,-0.74 -0.26,-0.003 0.023,-0.286 c 0,0 -0.244,-0.065 -0.375,-0.051 -0.131,0.014 -0.307,0.054 -0.307,0.054 v 0.328 l -0.218,0.001 -0.007,0.718 0.29,-0.006 c 0,0 0.011,0.371 -0.212,0.427 -0.368,0.092 -0.481,0.042 -0.553,-0.194 l -0.019,-0.161 c 0,0 0.338,0.008 0.329,-0.272 -0.005,-0.173 -0.021,-0.367 -0.224,-0.389 -0.139,-0.016 -0.166,0.062 -0.312,0.062 -0.019,-0.021 -0.142,-0.492 -0.147,-0.516 0.877,-0.285 1.921,-0.428 2.846,-0.12 z m 0.215,1.141 c 0.237,0.142 0.481,-0.043 0.499,-0.263 0.014,-0.202 -0.226,-0.323 -0.392,-0.345 l -0.035,-0.461 1.019,0.45 -0.07,0.311 -0.31,-0.144 -0.187,0.568 0.213,0.096 c 0,0 -0.116,0.391 -0.594,0.286 -0.198,-0.046 -0.214,-0.31 -0.143,-0.498 z m 5.244,6.049 c -0.998,-0.995 -2.848,-1.376 -2.966,-2.966 0.878,1.162 2.633,1.4 2.966,2.966 z m -0.381,-2.064 c -0.689,-0.475 -1.968,-0.758 -2.018,-1.875 0.95,0.214 1.522,1.091 2.018,1.875 z m -1.446,7.547 c -0.594,-0.168 -1.422,-0.168 -1.829,-0.857 -0.307,-0.496 -0.472,-1.231 -0.187,-1.825 0.022,1.184 1.256,1.921 2.016,2.682 z m 0.855,-0.074 c -0.855,-1.279 -2.8,-2.11 -2.563,-3.914 0.427,1.495 2.845,2.112 2.563,3.914 z m -1.899,-6.785 c 0.899,1.162 2.8,1.78 2.705,3.465 -0.806,-1.212 -2.705,-1.828 -2.705,-3.465 z m 2.395,5.172 c -0.83,-1.329 -2.966,-1.969 -2.61,-3.748 0.617,1.376 2.659,2.041 2.61,3.748 z m -6.691,0.498 0.287,-0.022 c -0.287,0.26 -0.428,0.616 -0.477,1.02 l -0.594,0.022 c 0.167,-0.332 0.309,-0.878 0.784,-1.02 z m 1.567,0.831 -0.998,0.093 c 0.025,-0.354 0.121,-0.782 0.429,-0.995 0.403,0.12 0.498,0.546 0.569,0.902 z m 1.423,-0.047 -0.688,-0.071 c -0.095,-0.286 -0.236,-0.571 -0.498,-0.809 0.57,-0.093 0.926,0.476 1.186,0.88 z m -0.974,-1.567 -2.135,0.119 c -0.164,-0.046 -0.237,-0.26 -0.118,-0.401 0.354,-0.286 0.735,-0.595 1.187,-0.617 0.475,0.093 0.947,0.212 1.256,0.568 0.048,0.167 -0.046,0.308 -0.19,0.331 z m -4.838,3.37 -0.024,0.759 -0.43,-0.047 c 0.027,-0.26 0.215,-0.522 0.454,-0.712 z m -0.405,-0.522 c 0.286,-1.044 1.9,-1.802 1.757,-3.157 0.285,0.404 0.332,0.997 0.188,1.448 -0.283,0.855 -1.328,1.141 -1.945,1.709 z m -0.545,1.185 -0.45,-0.045 c 0.047,-0.096 0.14,-0.191 0.237,-0.285 0.142,0.022 0.142,0.214 0.213,0.33 z M 66.603,89.23 c -0.401,-1.281 1.021,-2.112 1.566,-3.155 0.238,-0.356 0.356,-0.736 0.476,-1.14 0.567,1.804 -1.378,2.847 -2.042,4.295 z m -1.33,-2.991 c -0.26,-1.731 1.664,-2.704 2.374,-3.937 -0.072,1.614 -1.731,2.587 -2.374,3.937 z m 2.73,-2.515 c 0.476,1.828 -1.827,2.753 -2.113,4.39 -0.308,-1.85 1.47,-2.893 2.113,-4.39 z m 10.82,3.561 c 0.188,-0.262 0,-0.594 -0.047,-0.879 L 78.42,85.221 c 2.419,0.45 4.554,1.827 7.071,2.181 0.116,0.404 0.544,0.666 0.877,0.809 l 0.854,0.071 c 0.047,0.783 0.333,1.447 0.806,2.04 -0.356,0.38 -0.594,0.854 -0.806,1.234 -2.065,-0.308 -4.152,-0.809 -6.383,-0.57 0.381,-0.569 0.166,-1.282 0,-1.898 -0.354,-0.261 -0.476,-0.854 -0.997,-0.902 -0.355,0.404 0.381,0.711 0.381,1.162 0.188,0.618 0.071,1.306 -0.31,1.781 -0.521,0.261 -1.445,0.546 -1.422,1.353 -1.163,0 -2.207,-0.214 -3.299,-0.356 -0.497,-0.427 -0.83,-1.14 -1.565,-1.021 -0.144,-0.071 -0.309,-0.119 -0.473,-0.048 0.094,0.427 -0.642,0.31 -0.333,0.76 -0.403,0.168 -0.26,-0.498 -0.546,-0.641 0.049,-0.213 0.308,-0.543 -0.048,-0.639 -0.164,-0.025 -0.286,0.14 -0.308,0.26 0.237,0.452 -0.592,0.379 -0.259,0.831 -0.143,0.072 -0.333,-0.118 -0.356,-0.26 0.046,-0.262 -0.357,-0.404 -0.142,-0.69 0.093,-0.045 0.093,-0.211 0,-0.283 -0.071,-0.167 -0.263,-0.048 -0.356,0 -0.19,0.212 0.166,0.735 -0.357,0.687 l -0.021,0.31 c -0.476,0.119 -0.237,-0.499 -0.594,-0.618 0.021,-0.236 0.402,-0.522 0.047,-0.688 -0.143,0 -0.311,0.094 -0.355,0.261 0,0.213 -0.097,0.45 -0.356,0.45 l -0.022,0.379 c -0.476,0.073 -0.215,-0.543 -0.569,-0.688 0.044,-0.498 0.308,-0.995 0.735,-1.21 1.943,0.189 4.007,-0.9 5.741,0.286 0.781,-0.427 2.041,0.499 2.443,-0.666 l 0.168,-0.711 c 0.257,0.191 0.497,0.475 0.758,0.617 0.213,-0.19 0,-0.402 -0.022,-0.592 -0.215,-0.571 -0.381,-1.14 -0.452,-1.779 0.352,0.165 0.518,0.638 0.873,0.852 z m 7.404,-1.306 c 0.33,-0.426 0.757,-0.592 1.233,-0.617 0.45,0.025 0.851,0.165 1.139,0.57 0.687,0.974 -0.381,2.646 1.019,3.917 -0.332,-0.096 -0.592,0.093 -0.901,0.07 -0.855,-0.76 -0.76,-1.993 -0.641,-3.06 -0.071,-0.215 -0.166,-0.475 -0.427,-0.594 -0.308,-0.071 -0.665,0 -0.828,0.308 -0.025,0.189 0.022,0.499 0.257,0.546 0.097,0 0.167,-0.095 0.214,-0.166 -0.046,-0.094 -0.093,-0.166 -0.07,-0.286 0.07,-0.094 0.238,-0.094 0.355,-0.046 0.19,0.166 0.121,0.379 0.049,0.594 -0.237,0.261 -0.571,0.332 -0.901,0.261 -0.215,-0.12 -0.499,-0.309 -0.57,-0.546 -0.121,-0.31 -0.071,-0.691 0.072,-0.951 z m 0.07,-2.872 c -1.85,0.238 -4.485,1.995 -5.886,-0.189 -0.379,-0.71 -0.308,-1.731 0.215,-2.348 1.685,-1.781 3.914,0.189 5.859,-0.357 0.286,-0.237 0.592,-0.522 0.569,-0.925 l -0.022,-0.475 c 0.236,0.332 0.259,0.903 0.072,1.282 -0.097,0.309 -0.428,0.568 -0.736,0.688 -1.685,0.263 -3.227,-1.02 -4.864,-0.261 -0.451,0.332 -0.665,0.807 -0.687,1.33 0,0.38 0.095,0.711 0.354,0.972 1.4,1.188 3.038,-0.143 4.508,-0.285 0.807,-0.118 1.637,0.095 2.088,0.712 -0.069,0.118 -0.212,0.236 -0.307,0.332 -0.356,-0.238 -0.713,-0.498 -1.163,-0.476 z m -1.377,-0.71 c -0.924,0.142 -1.802,0.688 -2.752,0.402 -0.262,-0.119 -0.238,-0.449 -0.143,-0.665 0.262,-0.354 0.712,-0.142 1.093,-0.165 l 1.802,0.428 z m 2.23,-1.021 c -0.425,0.356 -1.019,0.379 -1.566,0.309 -1.399,0.022 -2.8,-1.164 -4.08,-0.19 l -0.142,0.213 c -0.071,-0.213 0.048,-0.663 0.401,-0.784 1.854,-0.877 5.173,2.065 5.744,-1.233 0.212,0.57 0.141,1.282 -0.357,1.685 z m 2.151,1.356 c 0.237,-0.142 0.595,-0.19 0.853,-0.071 0.334,0.167 0.666,0.45 0.687,0.854 -0.021,1.449 -0.638,2.522 -0.545,4.153 0.062,1.013 0.167,1.756 0.452,2.562 -1.352,-0.97 -1.433,-1.983 -1.4,-3.772 0.011,-0.566 -0.457,-0.992 -0.938,-1.305 -0.373,-0.243 -0.749,-0.143 -1.103,-0.167 0.734,-0.687 1.424,-1.471 1.994,-2.254 z m 1.874,-2.837 c 0.164,0.685 0.955,1.062 1.573,1.133 -0.545,0.499 -0.712,1.425 -1.544,1.566 -0.546,0.048 -1.02,-0.356 -1.186,-0.831 -0.284,-0.996 0.732,-1.133 1.157,-1.868 z m -0.218,7.517 c 0,-1.602 0.407,-3.211 1.205,-4.547 0.383,-0.643 0.823,-1.081 0.823,-1.081 L 92.979,80.641 C 92.528,80.616 92.074,80.439 91.754,80.073 91.446,79.717 91.34,79.47 91.34,78.936 c 0,-0.555 0.399,-1.136 0.989,-1.314 0.562,-0.171 1.161,-0.056 1.532,0.356 0.298,0.335 0.356,0.63 0.356,1.027 0,0.493 -0.329,0.875 -0.727,0.875 -0.248,0 -0.533,-0.056 -0.697,-0.356 -0.122,-0.224 -0.129,-0.64 0.123,-0.64 0.343,0 0.042,0.243 0.248,0.338 0.112,0.054 0.268,0.038 0.327,-0.081 0.069,-0.137 0.042,-0.315 -0.076,-0.446 -0.168,-0.191 -0.396,-0.223 -0.638,-0.142 -0.352,0.115 -0.488,0.519 -0.395,0.875 0.139,0.521 0.443,0.668 0.849,0.733 l 1.438,0.004 0.809,-0.545 1,-0.493 c 0,0 -0.094,-0.487 -0.261,-0.628 l -1.232,0.657 C 94.943,78.485 94.655,77.703 94.128,77.27 93.603,76.842 92.7,76.631 91.89,76.978 c -0.944,0.407 -1.382,1.342 -1.32,2.287 -0.64,0.809 -1.969,1.496 -1.399,2.706 -0.569,0.022 -0.855,0.688 -1.235,0.996 l -0.759,-0.616 0.617,-0.428 c 0.543,-0.641 0.83,-1.566 0.5,-2.396 -0.263,-0.856 -1.022,-1.732 -1.948,-1.852 -0.424,-0.094 -0.83,0 -1.138,0.261 -0.214,0.214 -0.263,0.546 -0.236,0.808 0.095,0.284 0.331,0.521 0.638,0.499 0.383,-0.119 -0.139,-0.31 0,-0.546 0.049,-0.189 0.286,-0.215 0.478,-0.189 0.284,0.118 0.451,0.426 0.379,0.709 -0.095,0.238 -0.356,0.405 -0.594,0.452 -1.685,-0.071 -3.487,-1.28 -5.053,-0.166 -0.877,0.427 -1.33,1.329 -1.424,2.231 -0.024,0.948 0.309,1.755 0.997,2.348 1.637,1.353 3.915,0.309 5.646,-0.165 0.308,-0.073 0.712,-0.073 0.856,0.236 -0.736,0.689 -1.542,1.424 -1.592,2.42 -2.418,-0.498 -4.46,-1.637 -6.879,-2.158 -0.286,0.023 -0.356,-0.334 -0.43,-0.499 l 0.904,0.309 0.046,-0.073 c -0.379,-0.711 -0.686,-1.471 -0.995,-2.182 0.309,0.022 0.545,0.308 0.853,0.261 v -0.144 c -1.09,-1.185 -1.517,-3.203 -3.323,-3.51 -0.044,-0.357 0.168,-0.666 0.145,-0.997 h -0.215 l -1.755,0.498 -0.07,-0.071 c 0.118,-0.5 0.451,-0.902 0.711,-1.329 -0.144,-0.215 0.214,-0.333 0.095,-0.594 -0.072,-0.308 -0.453,-0.285 -0.664,-0.237 0.047,-0.807 -0.784,0.071 -0.903,-0.592 -0.167,-0.119 -0.403,-0.048 -0.546,0.07 l -0.212,-0.286 c -0.192,-0.047 -0.428,0 -0.546,0.071 -0.072,-0.427 -0.593,-0.687 -0.404,-1.162 0.19,-0.022 0.332,0.024 0.522,0.048 0.024,-0.189 0.024,-0.523 0,-0.735 L 71.02,73.283 V 72.62 c -0.263,-0.024 -0.477,0.069 -0.76,0.047 0,0.214 0.118,0.475 0.118,0.712 h -0.64 c -0.024,0.237 0.046,0.473 0.071,0.712 0.213,0.023 0.403,-0.191 0.618,-0.047 0.142,0.498 -0.237,0.783 -0.308,1.186 L 70.07,75.159 c -0.189,-0.023 -0.356,-0.071 -0.5,0.071 -0.045,0.642 -0.521,-0.19 -0.757,0.285 0.048,0.64 -0.57,-0.096 -0.736,0.379 0.12,0.569 -0.45,0.143 -0.616,0.476 -0.212,0.26 0.189,0.497 0.071,0.735 0.425,0.308 0.76,0.806 0.902,1.282 -0.641,-0.145 -1.423,-0.072 -2.017,-0.286 0.024,0.379 0.308,0.687 0.284,1.043 -1.116,0.286 -1.826,1.399 -2.087,2.443 -0.167,0.571 -0.689,1.021 -0.665,1.639 0.236,0.023 0.427,-0.31 0.64,-0.215 -0.19,0.856 -0.712,1.566 -0.784,2.469 0.238,0.166 0.548,-0.356 0.856,-0.356 -0.12,0.927 0,1.828 -0.285,2.682 0.213,0.404 0.521,-0.331 0.807,-0.284 -0.024,0.306 0.093,0.688 0,0.973 -2.016,0.094 -3.821,0.759 -5.764,1.042 -0.738,0.285 -0.762,1.164 -1.022,1.78 -0.143,0.546 0.665,0.498 0.521,1.019 -3.155,0.026 -6.17,-0.426 -9.181,-0.71 1.352,1.043 2.8,1.899 4.271,2.682 v 0.071 c -1.591,0.712 -3.276,1.114 -4.962,1.566 4.201,0.591 8.494,0.996 12.958,0.852 1.637,-0.071 3.297,-0.117 4.839,-0.474 0.356,-0.236 0.097,-0.734 0.261,-1.02 4.96,0.642 9.894,2.419 15.162,1.329 0.71,0 0.308,-0.831 0.474,-1.139 2.419,0.048 4.652,1.069 7.118,0.617 0.402,0.57 0.997,0.854 1.662,0.712 1.139,-0.167 1.755,-1.875 3.108,-1.233 1.013,0.682 2.898,1.487 4.628,1.559 l -0.687,-0.727 c -5.024,-0.944 -7.612,-5.106 -7.612,-9.009 z"
           inkscape:connector-curvature="0"
           style="fill:#4d4d4d" />
        <path
           id="path5790"
           d="m 76.404,93.902 0,-0.259 -1.295,-0.214 v 0.308 l 0.125,0.02 0.008,1.144 c -0.096,0.19 -0.321,0.19 -0.546,0.19 -0.488,0 -0.309,-1.756 -0.309,-1.756 l -1.161,-0.167 -0.003,0.281 c 0,0 0.146,0.042 0.215,0.076 0.045,0.594 -0.141,1.281 0.403,1.66 0.379,0.237 0.962,0.359 1.456,0.114 0.021,0 0.161,0.17 0.161,0.17 l 0.898,0.121 0.007,-0.291 -0.172,-0.043 0.01,-1.375 0.203,0.021"
           inkscape:connector-curvature="0"
           style="fill:#4d4d4d" />
        <path
           id="path5792"
           d="m 72.233,94.486 c -0.208,0.061 -0.696,-0.01 -0.696,-0.01 l 0.002,-0.596 c 0,0 0.211,0.032 0.279,0.108 0.104,0.117 0.184,0.271 0.385,0.201 -0.029,0 0.009,-0.668 -0.008,-0.679 -0.072,-0.046 -0.254,-0.034 -0.277,0.085 -0.117,0.071 -0.402,0 -0.402,0 V 93.08 c 0,0 0.691,-0.015 0.904,0.286 0.095,0.134 0.144,0.391 0.144,0.391 l 0.329,0.021 -0.095,-0.728 -2.389,-0.443 v 0.267 l 0.254,0.082 -0.009,1.377 -0.267,-0.042 v 0.287 l 2.316,0.439 0.259,-0.71 -0.308,-0.118 c -0.105,0.158 -0.253,0.249 -0.421,0.297"
           inkscape:connector-curvature="0"
           style="fill:#4d4d4d" />
        <path
           id="path5794"
           d="m 83.971,92.279 -0.008,0.822 0.154,-0.012 c 0,0 0.142,-0.241 0.287,-0.318 0.089,-0.046 0.402,0 0.402,0 v 1.397 l -0.287,-0.004 v 0.238 l 1.351,0.237 0.006,-0.188 -0.243,-0.144 -0.004,-1.4 c 0,0 0.258,0.039 0.33,0.127 0.115,0.145 0.286,0.452 0.286,0.452 l 0.226,0.004 -0.006,-0.802 -2.494,-0.409"
           inkscape:connector-curvature="0"
           style="fill:#4d4d4d" />
        <path
           id="path5796"
           d="m 83.092,93.809 c -0.32,0.193 -0.781,0.025 -0.781,0.025 l 0.01,-0.468 c 0,0 0.43,-0.081 0.43,0.125 l 0.201,0.01 0.006,-0.609 -0.209,-10e-4 c 0,0 -0.101,0.27 -0.468,0.209 v -0.555 c 0.212,-0.096 0.443,-0.122 0.672,0.005 0.184,0.103 0.334,0.426 0.334,0.426 l 0.234,0.001 -0.143,-0.735 -2.301,-0.005 v 0.313 l 0.263,0.047 v 1.328 l -0.24,0.097 0.008,0.221 2.293,0.017 0.188,-0.594 -0.311,-0.043 c 10e-4,0 -0.096,0.134 -0.186,0.186"
           inkscape:connector-curvature="0"
           style="fill:#4d4d4d" />
        <path
           id="path5798"
           d="m 68.558,92.503 0.275,0.143 -0.009,1.356 c -0.071,0.049 -0.277,-0.019 -0.277,-0.019 l -0.031,0.247 c 0,0 1.44,0.287 1.44,0.268 V 94.23 l -0.222,-0.066 v -1.412 l 0.261,-0.012 v -0.212 l -1.438,-0.272 v 0.247"
           inkscape:connector-curvature="0"
           style="fill:#4d4d4d" />
        <path
           id="path5800"
           d="m 87.198,89.8 -0.166,-0.334 -3.559,-0.64 0.144,0.213 c 1.161,0.308 2.372,0.619 3.581,0.761"
           inkscape:connector-curvature="0"
           style="fill:#4d4d4d" />
        <path
           id="path5802"
           d="M 87.245,90.536 87.46,90.25 c -1.614,-0.261 -3.227,-0.547 -4.793,-0.903 l 0.143,0.19 c 1.444,0.428 2.916,0.808 4.435,0.999"
           inkscape:connector-curvature="0"
           style="fill:#4d4d4d" />
        <path
           id="path5804"
           d="m 86.936,89.039 c -0.022,-0.116 0.025,-0.308 -0.116,-0.353 -0.879,-0.122 -1.83,-0.215 -2.636,-0.334 l 0.12,0.144 c 0.853,0.234 1.756,0.449 2.632,0.543"
           inkscape:connector-curvature="0"
           style="fill:#4d4d4d" />
        <path
           id="path5806"
           d="m 102.732,79.362 c -1.697,0.45 -3.887,0.462 -5.573,0.011 l 0.004,-0.506 c 1.544,-0.644 4.009,-0.628 5.569,-0.082 v 0.577 m -6.08,-1.028 -0.154,0.054 c 0.427,0.379 0,0.994 0.499,1.329 1.756,0.545 4.009,0.45 5.766,-0.025 0.642,-0.26 0.028,-1.033 0.506,-1.412 -2.071,-0.755 -4.601,-0.73 -6.617,0.054 z"
           inkscape:connector-curvature="0"
           style="fill:#4d4d4d" />
        <path
           id="path5808"
           d="m 97.682,74.869 c -0.316,0.179 -0.299,0.315 -0.316,0.439 -0.024,0.162 0.206,0.438 0.206,0.438 0,0 -0.329,-0.085 -0.433,0.007 -0.24,0.211 -0.162,0.384 -0.142,0.64 0.011,0.147 0.117,0.214 0.215,0.309 0.14,-0.135 0.208,-0.175 0.523,-0.189 0.094,0.31 -0.04,0.687 -0.425,0.809 -0.438,0.138 -0.613,-0.083 -0.762,-0.382 0.117,-0.093 0.16,-0.112 0.42,-0.153 l -0.399,-0.842 -0.45,0.377 -0.151,-0.246 -0.055,-0.273 c 0.451,-0.335 1.245,-0.792 1.769,-0.934 m 4.434,0 c -0.522,0.014 -0.577,0.411 -0.493,0.741 -0.117,-0.072 -0.37,-0.246 -0.568,-0.094 -0.269,0.206 -0.197,0.6 -0.104,0.86 0.151,-0.151 0.371,-0.141 0.562,-0.068 -0.04,0.314 -0.176,0.629 -0.683,0.644 -0.588,0.016 -0.586,-0.512 -0.564,-0.63 0.142,-0.023 0.234,0.014 0.413,0.07 -0.098,-0.316 -0.083,-0.714 0.013,-1.015 h -0.411 l 0.109,-0.533 h -1.095 l 0.096,0.547 c -0.173,0.004 -0.294,-0.005 -0.426,0 0.167,0.328 0.238,0.729 0.095,0.981 0.167,-0.021 0.288,0.005 0.412,-0.05 0.049,0.19 -0.053,0.643 -0.492,0.686 -0.412,0.037 -0.646,-0.194 -0.682,-0.589 0.175,-0.083 0.271,-0.083 0.447,-0.014 0.05,-0.042 0.16,-0.174 0.139,-0.301 -0.038,-0.242 -0.027,-0.477 -0.275,-0.564 -0.19,-0.066 -0.437,0.098 -0.437,0.098 0,0 0.037,-0.334 -0.029,-0.479 -0.062,-0.141 -0.246,-0.273 -0.437,-0.288 1.26,-0.425 3.084,-0.549 4.41,-0.002 z m 1.619,0.836 -0.14,0.479 c -0.177,-0.137 -0.239,-0.193 -0.359,-0.311 l -0.428,0.806 c 0.13,0.024 0.324,0.033 0.416,0.177 -0.19,0.327 -0.492,0.52 -0.819,0.382 -0.409,-0.17 -0.356,-0.479 -0.289,-0.822 0.245,0 0.344,0.056 0.426,0.179 0.125,-0.123 0.396,-0.37 0.271,-0.698 -0.062,-0.169 -0.392,-0.213 -0.533,-0.164 0.18,-0.287 0.219,-0.628 -0.12,-0.835 0.52,0.166 1.103,0.475 1.575,0.807 z m -8.588,0.206 -0.097,0.103 c 0.642,0.569 0.999,1.282 1.307,1.995 2.136,-0.783 5.006,-0.854 7.095,-0.048 0.19,-0.428 0.307,-0.854 0.594,-1.232 0.164,-0.286 0.639,-0.783 0.639,-0.783 l -0.128,-0.102 c 0,0 0.185,-0.161 0.2,-0.303 0.028,-0.287 0.096,-0.568 -0.097,-0.735 -0.235,-0.141 -0.545,-0.119 -0.76,-0.048 0,-0.189 -0.045,-0.379 -0.188,-0.521 -0.237,-0.261 -0.616,-0.048 -0.831,0.023 0,-0.213 -0.095,-0.357 -0.26,-0.499 -0.238,-0.119 -0.545,-0.022 -0.735,0.142 -0.094,-0.142 -0.144,-0.332 -0.309,-0.45 -0.236,-0.189 -0.593,-0.025 -0.758,0.095 l -0.149,-0.463 -0.264,-0.623 -0.096,-0.617 0.841,0.206 v -1.16 l -0.841,0.216 0.166,-1.189 -1.276,-0.003 0.164,1.19 -0.903,-0.216 v 1.16 l 0.903,-0.206 -0.102,0.684 -0.223,0.596 -0.12,0.47 c -0.167,-0.119 -0.334,-0.212 -0.571,-0.189 -0.285,0 -0.38,0.308 -0.474,0.498 -0.167,-0.142 -0.379,-0.238 -0.618,-0.189 -0.284,0.072 -0.379,0.381 -0.473,0.594 l -0.166,-0.119 c -0.261,-0.048 -0.593,-0.048 -0.71,0.237 -0.143,0.096 0.093,0.522 -0.192,0.404 -0.259,-0.144 -0.593,-0.025 -0.735,0.212 -0.227,0.303 -0.065,0.732 0.167,0.87 z"
           inkscape:connector-curvature="0"
           style="fill:#4d4d4d" />
        <path
           id="path5810"
           d="m 97.898,79.382 0.782,0.116 0.144,-0.093 c 0.76,-0.093 1.508,-0.111 2.292,-0.017 l 0.094,0.124 0.715,-0.139 c -1.187,-0.378 -2.822,-0.382 -4.027,0.009"
           inkscape:connector-curvature="0"
           style="fill:#4d4d4d" />
        <path
           id="path5812"
           d="m 76.069,91.483 c 0.833,0.072 1.734,-0.117 2.587,-0.165 0.618,-0.285 0.592,-1.187 0.45,-1.756 -0.068,0 -0.14,0.048 -0.189,0.071 -0.141,0.451 0.072,1.092 -0.404,1.352 l -2.395,0.285 -0.049,0.213"
           inkscape:connector-curvature="0"
           style="fill:#4d4d4d" />
        <path
           id="path5814"
           d="m 86.936,91.222 c 0.096,-0.093 0.071,-0.237 0.119,-0.331 -1.493,-0.237 -2.989,-0.451 -4.413,-0.83 0,0.071 0.048,0.143 0.12,0.189 1.329,0.451 2.751,0.735 4.174,0.972"
           inkscape:connector-curvature="0"
           style="fill:#4d4d4d" />
        <path
           id="path5816"
           d="m 118.511,94.002 c 0,0 0.567,0.019 0.718,0 v -0.224 h -0.185 v -0.944 l 1.204,1.331 0.336,0.004 v -1.746 h 0.164 v -0.269 l -0.656,-0.019 v 0.247 h 0.181 l 0.002,0.533 -0.857,-0.813 -1.161,-0.024 0.028,0.264 h 0.411 l 0.011,1.397 -0.175,0.02 -0.021,0.243"
           inkscape:connector-curvature="0"
           style="fill:#4d4d4d" />
        <path
           id="path5818"
           d="m 116.999,93.951 c -0.277,0.051 -0.441,-0.235 -0.481,-0.688 -0.043,-0.477 -0.254,-0.958 0.266,-0.996 0.391,-0.029 0.383,0.416 0.434,0.771 0.059,0.432 0.082,0.856 -0.219,0.913 m -0.07,-1.897 c -0.381,0.047 -0.762,0.093 -1.021,0.403 -0.26,0.236 -0.356,0.594 -0.26,0.949 0.069,0.309 0.307,0.521 0.568,0.688 0.429,0.144 0.972,0.118 1.352,-0.071 0.522,-0.26 0.664,-0.877 0.476,-1.376 -0.238,-0.429 -0.665,-0.619 -1.115,-0.593 z"
           inkscape:connector-curvature="0"
           style="fill:#4d4d4d" />
        <path
           id="path5820"
           d="m 122.765,90.94 c -0.118,0 -0.237,0 -0.262,0.116 0.092,0.381 -0.095,0.973 0.262,1.258 0.973,0.167 1.923,0.404 2.774,0.877 0.072,0.047 0.312,0.121 0.287,-0.071 -0.76,-0.592 -1.688,-0.925 -2.636,-1.092 -0.497,-0.142 -0.118,-0.806 -0.425,-1.088"
           inkscape:connector-curvature="0"
           style="fill:#4d4d4d" />
        <path
           id="path5822"
           d="m 140.154,95.326 c 0.357,-0.118 0.949,-0.189 1.259,-0.592 -0.022,-0.712 -0.284,-1.399 -0.26,-2.136 1.992,-0.047 3.986,-0.236 5.952,-0.403 -0.973,0.712 -2.134,1.117 -3.225,1.613 0.878,0.57 2.063,0.831 3.108,1.235 -2.205,0.261 -4.533,0.45 -6.834,0.283 m -2.324,-0.165 c -0.023,-0.285 -0.236,-0.689 -0.048,-0.854 1.047,-0.096 2.186,-0.118 3.108,0.213 -0.071,0.308 -0.475,0.214 -0.688,0.356 -0.759,0.119 -1.563,0.238 -2.372,0.285 z m -7.022,0.214 c 0,-0.784 1.092,-0.403 1.329,-1.115 0.093,-0.38 0.044,-0.831 -0.19,-1.14 -0.712,-0.758 -1.757,-0.094 -2.608,-0.07 l -0.428,-0.287 c 3.653,-0.427 6.902,-1.992 10.795,-1.708 0.356,0.095 0.758,0.191 0.973,0.57 0.072,0.783 0.024,1.637 0.236,2.396 -3.583,-0.663 -6.811,0.689 -10.107,1.354 z m -0.451,-2.159 c 0.211,-0.119 0.498,-0.024 0.687,0.096 0.333,0.284 0.499,1.09 -0.022,1.304 -0.001,0 -0.64,-1.393 -0.665,-1.4 z m -1.281,-1.305 h 0.141 v 0.024 h -0.141 v -0.024 z m 0.641,3.961 c -0.618,0.333 -1.282,-0.022 -1.923,-0.045 -0.854,-0.119 -1.779,-0.263 -2.562,0.119 -0.616,-0.237 -1.21,-0.57 -1.779,-0.973 0.284,-0.546 0.971,-0.571 1.564,-0.619 0.833,0.262 1.52,0.95 2.562,0.69 0.239,0.022 0.475,-0.049 0.569,-0.286 -0.283,-0.45 -0.853,-0.427 -1.28,-0.568 -1.636,-0.356 -2.965,-1.426 -4.769,-1.354 -0.547,-0.618 -0.142,-1.566 -0.213,-2.35 0.116,-0.166 0.497,-0.355 0.307,-0.594 -0.069,-0.141 -0.262,-0.092 -0.356,-0.045 l -0.78,0.498 c 0.022,0.237 0.07,0.498 0.046,0.71 -0.522,-0.094 -1.139,-0.284 -1.757,-0.284 -0.164,-0.498 0.546,-0.096 0.501,-0.545 l 0.142,-1.805 c -0.024,-0.354 -0.594,-0.26 -0.308,-0.662 0.166,0.022 0.399,0.165 0.545,0 l 1.02,-1.663 c 0.048,-0.189 -0.094,-0.356 -0.213,-0.427 l 0.236,-0.26 c 0.262,0.45 0.759,0.022 1.14,0.022 0.379,-0.261 1.305,0.048 1.211,-0.71 v -0.095 l 0.428,-0.072 c -0.024,0.334 -0.051,0.806 -0.31,0.997 -0.614,0.222 -1.568,0.053 -2.15,0.342 l -0.508,0.892 c 1.305,-0.333 2.824,-0.309 4.106,-0.735 1.325,0.521 2.703,0.948 3.962,1.708 -0.475,0.64 -0.215,1.423 -0.119,2.181 -0.049,0.854 -0.523,1.542 -1.14,2.136 -0.545,-0.521 0.38,-0.902 0.428,-1.423 0.118,-0.308 0.237,-0.831 -0.072,-1.091 -0.473,0.023 -0.118,0.616 -0.333,0.854 -0.164,0.404 -0.474,0.712 -0.567,1.115 -0.285,-0.071 -0.569,-0.38 -0.735,-0.616 -0.144,-0.309 0.403,-0.665 -0.024,-0.877 -0.452,0.356 -0.854,0.877 -1.398,1.067 -0.072,0.07 -0.119,0.166 -0.072,0.237 0.332,0.38 0.737,-0.167 1.067,0.261 1.232,0.949 2.396,2.088 3.771,2.705 0.426,0.522 -0.024,1.092 -0.237,1.565 z m -7.735,-2.039 c 0,-0.238 0.26,-0.287 0.426,-0.332 0.782,-0.121 1.329,0.307 1.968,0.521 -0.473,0.097 -0.923,0.286 -1.326,0.617 -0.429,-0.094 -0.832,-0.402 -1.068,-0.806 z m -0.618,2.064 c 0.166,-0.119 0.452,-0.215 0.547,-0.452 l -0.024,-0.569 c 0.237,0.214 0.497,0.379 0.854,0.379 0,0.261 0.31,0.475 0.477,0.571 l -1.854,0.071 z m -2.893,-0.214 -0.094,-0.758 c 1.04,-0.071 2.086,0.048 2.987,0.451 l -0.024,0.094 c -0.877,0.285 -1.897,0.285 -2.869,0.213 z m -7.524,-0.64 c 0.285,-0.594 0.834,-1.188 1.329,-1.731 0.061,0.042 0.194,0.198 0.194,0.198 v 0.925 l -0.179,0.021 -0.016,0.23 0.709,-0.005 0.002,-0.209 -0.187,-0.037 -0.002,-0.555 0.713,0.759 0.686,-1.025 0.102,0.657 c 0,0 -0.124,0.046 -0.22,0.061 -0.023,0.119 0.015,0.27 0.015,0.27 l 1.295,-0.227 -0.043,-0.35 c 0,0 -0.168,0.046 -0.223,0.046 l -0.187,-1.258 0.226,-0.059 -0.039,-0.343 -0.829,0.142 -0.522,1.067 -0.867,-0.93 -0.225,0.004 0.144,-0.356 c 2.586,-0.283 5.313,-1.186 7.994,-0.426 0.229,0.098 0.368,0.243 0.445,0.417 0.258,0.585 -0.136,1.507 0.102,2.144 0.024,0.119 0.069,0.215 0.045,0.356 -3.532,-1.257 -6.88,0.831 -10.462,0.214 z m -0.544,-0.641 c -0.119,-0.403 -0.5,-0.997 -0.998,-1.234 -0.45,-0.212 -1.068,-0.142 -1.47,0.048 0.78,-1.091 1.376,-3.179 3.202,-2.68 0.429,0.14 0.808,0.593 0.856,1.02 0.259,1.28 -1.33,1.802 -1.59,2.846 z m -0.69,1.187 c -0.26,0.308 -0.641,0.427 -1.042,0.356 -0.31,-0.095 -0.478,-0.356 -0.592,-0.619 -0.05,-0.235 0.022,-0.472 0.237,-0.568 0.142,-0.023 0.307,0.023 0.332,0.167 0.045,0.166 -0.24,0.356 0.022,0.451 0.166,0.023 0.309,-0.167 0.331,-0.31 0.05,-0.308 -0.118,-0.594 -0.403,-0.712 -0.237,-0.071 -0.52,-0.022 -0.712,0.167 -0.236,0.167 -0.213,0.452 -0.236,0.688 -0.355,-0.308 -0.784,-0.451 -1.21,-0.451 0.782,-0.688 1.566,-1.519 2.681,-1.256 0.379,0.165 0.807,0.568 0.829,0.996 0.027,0.402 -0.022,0.783 -0.237,1.091 z m -0.628,-11.777 c -0.022,-0.356 0.081,-0.803 0.438,-1.083 0.315,-0.245 0.643,-0.379 0.999,-0.213 l 2.324,2.396 c -0.688,-0.166 -1.352,0.046 -1.824,0.641 -0.833,1.045 0.166,2.729 -0.737,3.772 l -0.831,0.807 c 0.64,-2.041 0.425,-4.512 -0.369,-6.32 z m -0.298,-1.392 c -0.686,-0.237 -0.906,-0.772 -1.453,-1.457 0.545,-0.073 1.099,-0.465 1.337,-1.011 0,-0.094 0.071,-0.142 0.071,-0.236 0.616,0.617 1.896,1.375 1.067,2.371 -0.287,0.237 -0.617,0.475 -1.022,0.333 z m 9.872,0.142 c 0.452,-0.379 0.713,-0.876 0.594,-1.448 0.049,-0.473 -0.475,-0.781 -0.735,-1.042 -1.66,-0.667 -3.229,0.591 -4.937,0.308 -0.354,-0.167 -0.639,-0.546 -0.639,-0.95 v -0.07 c 0.215,0.356 0.569,0.616 0.995,0.616 1.851,-0.119 4.462,-1.638 5.815,0.379 0.258,0.451 0.307,1.115 0.139,1.637 -0.118,0.499 -0.568,0.95 -0.995,1.21 -2.229,1.093 -4.367,-1.495 -6.454,0.143 l -0.284,-0.238 c 1.851,-2.016 4.319,0.546 6.501,-0.545 z m -0.26,-0.569 c 0.022,0.215 -0.239,0.428 -0.428,0.452 -1.021,0.142 -1.993,-0.166 -2.966,-0.381 1.019,-0.212 2.038,-0.639 3.108,-0.426 0.165,0.048 0.239,0.213 0.286,0.355 z m -6.526,-1.187 v -0.071 c 1.947,1.496 4.081,-0.237 6.17,-0.046 0.475,0.142 0.876,0.617 0.711,1.162 -0.074,-0.284 -0.377,-0.57 -0.687,-0.642 -2.088,-0.26 -4.674,1.852 -6.194,-0.403 z m 1.493,4.675 c 0.239,0.189 0.454,0.475 0.547,0.783 0.047,0.379 -0.093,0.688 -0.354,0.924 -0.192,0.238 -0.522,0.261 -0.829,0.19 -0.19,-0.046 -0.356,-0.286 -0.429,-0.476 -0.024,-0.189 0.072,-0.378 0.238,-0.426 0.448,-0.119 0.069,0.711 0.544,0.381 0.095,-0.167 0.048,-0.427 -0.071,-0.594 -0.166,-0.167 -0.473,-0.26 -0.711,-0.142 -0.76,0.521 -0.071,1.445 -0.237,2.229 -0.049,0.571 -0.307,1.044 -0.76,1.449 -0.258,-0.097 -0.616,-0.097 -0.876,0 0.782,-0.855 0.71,-2.161 0.663,-3.299 0.047,-0.404 0.308,-0.76 0.616,-1.021 0.522,-0.258 1.139,-0.258 1.659,0.002 z m 5.53,3.179 0.476,0.025 -0.097,1.207 -0.473,-0.045 0.094,-1.187 z m 0.665,-1.874 c 0.237,-0.285 0.331,-0.641 0.569,-0.926 l 0.381,0.237 c -0.166,0.38 -0.356,0.712 -0.594,1.044 -0.119,-0.094 -0.522,-0.142 -0.356,-0.355 z m 3.274,-2.539 c 0.143,0.048 0.094,0.284 0.143,0.428 -0.356,0.189 -0.76,0.214 -1.161,0.309 -0.073,-0.143 -0.096,-0.332 -0.073,-0.476 l 1.091,-0.261 z m 3.536,0.736 c 0.19,0.095 0.403,0.047 0.45,-0.167 -0.096,-0.713 0.547,-1.282 0.688,-1.97 0.521,0 0.995,-0.355 1.234,-0.829 0.094,-0.31 0.188,-0.737 0.024,-1.045 -0.071,-0.07 -0.192,-0.19 -0.264,-0.049 -0.07,0.404 -0.236,0.927 -0.711,1.046 -0.735,0.261 -1.564,0 -2.3,-0.119 -0.689,0.167 -1.447,0.142 -1.947,0.735 -0.19,0.167 -0.523,0.094 -0.712,-0.048 -0.117,-0.094 -0.263,-0.285 -0.07,-0.379 0.237,-0.167 0.664,0.023 0.854,-0.285 0.047,-0.261 -0.144,-0.476 -0.381,-0.569 -0.474,-0.286 -1.187,0.806 -1.163,-0.191 l 0.096,-0.663 c 0.213,0.142 0.547,0.237 0.782,0.142 0.144,-0.048 0.285,-0.212 0.215,-0.356 -0.215,-0.402 -0.499,0.024 -0.784,0 0.049,-0.308 0.451,-0.331 0.688,-0.45 0.924,-0.142 1.802,-0.452 2.467,-1.21 0.619,-0.189 1.329,0.307 1.898,-0.119 0.215,-0.499 0.616,-0.974 1.139,-1.234 0.071,0.593 0.356,1.353 -0.142,1.849 0.07,0.142 0.263,0.168 0.427,0.096 0.167,-0.096 0.167,-0.286 0.237,-0.453 1.662,0.999 2.254,2.826 1.945,4.699 -0.236,0.879 -0.476,1.756 -0.946,2.54 -0.024,0 -0.168,-0.26 -0.334,-0.238 0.07,-0.166 0.095,-0.498 -0.094,-0.64 -0.358,0 -0.476,0.521 -0.881,0.354 -0.116,0.12 -0.187,0.238 -0.187,0.382 0.07,0.093 0.187,0.045 0.259,0.164 0.024,0.215 -0.164,0.333 -0.33,0.38 -0.263,0.024 -0.524,-0.12 -0.594,-0.38 -0.026,-0.119 -0.072,-0.332 0.024,-0.402 0.164,0.048 0.45,0.38 0.497,0 0,-0.238 0.451,-0.498 0.072,-0.665 l -0.287,-0.071 c 0.05,-0.143 0.238,-0.214 0.215,-0.403 -0.264,-0.142 -0.497,-0.286 -0.807,-0.309 -0.118,0.096 -0.073,0.238 -0.073,0.379 -0.166,0.071 -0.235,-0.189 -0.403,-0.141 -0.117,0.237 -0.211,0.522 -0.283,0.783 l 0.427,0.142 c -0.166,0.236 -0.451,0.404 -0.711,0.333 -0.144,-0.096 -0.356,-0.167 -0.403,-0.356 -0.044,-0.116 0.05,-0.26 0.169,-0.283 z m 1.139,-8.71 c 0.355,-0.449 0.878,-0.828 1.352,-1.018 0,0.876 -0.713,1.516 -1.401,1.969 -0.234,-0.261 -0.048,-0.664 0.049,-0.951 z m 3.345,-0.544 c 0,0.902 -0.973,1.4 -1.235,2.206 -0.188,-0.046 -0.213,-0.284 -0.282,-0.427 -0.121,-0.948 0.851,-1.399 1.517,-1.779 z m 1.661,1.138 c -0.19,1.068 -1.423,1.141 -1.947,1.946 -0.211,0 -0.188,-0.236 -0.26,-0.355 0.19,-1.066 1.4,-1.233 2.207,-1.591 z m 1.517,1.803 c -0.758,0.69 -1.874,0.783 -2.821,0.997 -0.144,-0.071 -0.072,-0.286 -0.05,-0.403 0.715,-0.71 1.852,-0.521 2.871,-0.594 z m 0.592,1.828 c -0.735,0.522 -1.921,0.404 -2.846,0.308 -0.188,-0.071 -0.14,-0.285 0,-0.402 0.878,-0.57 1.947,-0.049 2.846,0.094 z m 0.123,1.733 c -0.881,0.237 -2.185,0.355 -2.826,-0.356 -0.022,-0.167 0.146,-0.238 0.259,-0.308 0.928,0.047 1.76,0.308 2.567,0.664 z m -0.383,1.637 c -0.926,0.26 -1.921,0.023 -2.488,-0.736 -0.024,-0.144 0.093,-0.237 0.211,-0.262 0.881,0.096 1.521,0.713 2.277,0.998 z m -2.705,0.71 c -0.045,-0.071 0,-0.189 -0.021,-0.283 0.114,-0.119 0.354,-0.095 0.497,-0.025 l 1.518,1.14 c -0.806,0.071 -1.473,-0.238 -1.994,-0.832 z m -0.448,1.282 c -0.05,-0.164 -0.144,-0.379 -0.025,-0.568 0.117,-0.023 0.19,-0.023 0.312,0 l 1.159,1.495 c -0.57,-0.073 -1.091,-0.452 -1.446,-0.927 z m -0.644,1.187 c -0.069,-0.167 -0.022,-0.404 0.146,-0.427 0.545,0.166 0.735,0.855 1.186,1.186 -0.523,0.047 -1.092,-0.284 -1.332,-0.759 z m -0.948,-0.214 c -0.096,-0.046 -0.213,-0.046 -0.282,-0.166 -0.026,-0.141 0.045,-0.284 0.166,-0.332 0.116,-0.024 0.26,0 0.26,0.142 0.047,0.143 -0.07,0.262 -0.144,0.356 z m 3.156,3.725 c 0.379,0 0.761,0 1.02,0.262 -1.446,0.427 -2.94,0.782 -4.484,1.019 1.14,-0.26 2.279,-0.899 3.464,-1.281 z m 13.168,3.227 c 1.473,-0.807 2.942,-1.708 4.273,-2.8 -2.967,0.427 -5.84,0.736 -8.971,0.713 -0.237,-0.072 -0.049,-0.451 -0.19,-0.618 -0.829,-1.209 -2.703,-0.854 -4.081,-0.806 -0.95,-0.096 -2.087,0.995 -2.752,-0.167 -0.428,-0.379 -1.042,-0.307 -1.611,-0.356 -1.021,0.237 -1.945,0.854 -2.967,1.021 0.307,-0.688 0.049,-1.496 0,-2.231 0.024,-0.165 0.049,-0.356 0.213,-0.427 0.381,0.688 1.091,1.043 1.802,0.997 0.024,-0.262 -0.377,-0.451 -0.426,-0.711 0.643,0.286 1.519,0.021 2.136,0.355 -0.022,-0.522 -0.713,-0.973 -0.995,-1.329 0.568,0 1.042,0.023 1.515,0.096 -0.164,-0.594 -0.637,-1.188 -1.042,-1.566 l 1.094,0.022 c 0.331,-0.047 0.734,0 1.042,-0.047 -0.215,-0.57 -0.809,-1.067 -1.329,-1.304 l 1.044,-0.142 c 0.31,-0.142 0.784,0.022 1.067,-0.142 -0.448,-0.642 -1.141,-0.998 -1.777,-1.331 l 1.564,-0.426 c 0.213,0 0.524,0.047 0.641,-0.048 -0.45,-0.617 -1.139,-0.901 -1.781,-1.14 v -0.047 c 0.356,-0.07 0.618,-0.379 0.93,-0.569 0.211,-0.142 0.543,-0.119 0.684,-0.331 -0.567,-0.523 -1.35,-0.617 -2.084,-0.807 v -0.072 c 0.471,-0.285 0.852,-0.736 1.326,-1.02 v -0.095 c -0.734,-0.475 -1.73,-0.475 -2.633,-0.451 0.237,-0.285 0.379,-0.594 0.448,-0.927 0.121,-0.309 0.381,-0.568 0.5,-0.829 -0.784,-0.143 -1.564,0.071 -2.255,0.355 l 0.403,-1.614 -0.071,-0.047 c -0.78,0.024 -1.518,0.426 -2.156,0.854 -0.049,-0.544 0.166,-0.997 0.26,-1.424 -0.641,0.048 -1.188,0.286 -1.732,0.57 -0.712,0.38 -1.47,1.02 -1.378,1.899 -0.045,0.045 -0.188,0.021 -0.162,0.141 0.259,0.189 0.33,0.545 0.401,0.807 -0.215,-0.143 -0.382,-0.38 -0.428,-0.618 -0.166,-0.285 -0.497,-0.545 -0.854,-0.379 0.142,0.167 0.332,0.473 0.332,0.735 -0.427,-0.213 -0.404,-0.686 -0.735,-0.972 -0.166,-0.096 -0.426,-0.167 -0.592,-0.048 l 0.307,0.522 -0.049,0.072 c -0.45,-0.215 -0.377,-0.713 -0.78,-0.95 -0.142,-0.119 -0.475,-0.119 -0.594,0 0.119,0.215 0.356,0.427 0.332,0.665 -0.545,-0.213 -0.711,-1.375 -1.471,-0.973 0.166,0.166 0.379,0.333 0.379,0.545 -0.475,-0.12 -0.498,-0.64 -0.854,-0.877 -0.19,-0.07 -0.429,-0.167 -0.571,-0.048 0.143,0.142 0.264,0.309 0.237,0.476 -0.33,-0.049 -0.308,-0.405 -0.567,-0.571 -0.142,-0.236 -0.428,-0.355 -0.713,-0.261 0.072,0.145 0.238,0.308 0.215,0.451 -0.309,-0.143 -0.284,-0.616 -0.689,-0.688 -0.142,0.025 -0.285,0.167 -0.237,0.357 0.096,0.167 0.237,0.308 0.403,0.379 0.711,-0.118 1.044,0.689 1.779,0.522 0.309,0.332 0.689,0.499 1.163,0.475 0.311,0.26 0.663,0.45 1.116,0.402 0.331,0.571 1.091,0.048 1.423,0.665 0.262,0.237 0.854,-0.047 0.926,0.356 H 126.3 c -0.876,-0.45 -1.517,0.286 -2.181,0.687 -0.809,0.356 -1.853,0.31 -2.47,1.021 -0.118,0.736 -0.475,1.613 -0.047,2.325 0.095,0.071 0.31,0.096 0.215,0.287 l 0.805,0.877 c 0.261,0.213 0.666,0.141 0.998,0.118 0.831,-0.616 2.039,-0.948 3.034,-0.427 -0.069,0.333 -0.162,0.735 -0.567,0.855 -0.143,0.095 -0.071,0.427 -0.356,0.307 -0.262,0 -0.355,0.287 -0.355,0.498 l 0.262,0.097 c 0.094,0.118 0.094,0.237 0,0.331 -0.142,0.166 -0.381,0.166 -0.569,0.119 -0.213,-0.094 -0.405,-0.332 -0.31,-0.594 0.117,-0.023 0.188,0.167 0.31,0.096 -0.024,-0.284 0.142,-0.475 0.142,-0.711 l -0.334,-0.047 c 0,-0.167 0.215,-0.308 0.168,-0.475 -0.237,-0.095 -0.569,-0.071 -0.831,-0.024 l -0.093,0.547 -0.665,0.07 c -0.123,-0.094 -0.07,-0.307 -0.263,-0.355 l -1.589,0.332 c -0.286,0.023 -0.663,0.238 -0.475,0.593 -0.31,0.261 -0.664,1.141 -1.163,0.595 -0.403,0.45 -0.688,1.066 -1.067,1.564 -0.19,0.215 -0.071,0.571 0.19,0.642 0,0.261 -0.118,0.498 -0.237,0.712 -0.19,-0.024 -0.379,0 -0.473,0.165 l -0.146,1.971 c 0.071,0.212 0.311,0.165 0.448,0.261 -0.021,0.093 0.049,0.236 -0.043,0.307 -2.064,-0.047 -3.87,0.594 -5.838,0.64 -0.168,-0.451 -0.356,-0.947 -0.784,-1.281 0.571,-0.546 0.737,-1.282 0.855,-2.017 0.664,0.047 1.209,-0.165 1.637,-0.712 1.354,0.048 2.846,0.191 4.173,-0.117 l -0.069,-0.07 c -0.233,-0.215 0.049,-0.405 0.069,-0.594 -1.301,0.119 -2.677,0.119 -3.984,0 0.168,-1.233 -1.043,-1.898 -1.73,-2.705 0.144,-0.143 0.309,-0.237 0.473,-0.333 1.686,-0.142 3.063,0.832 4.794,0.618 1.021,-0.143 2.185,-0.832 2.443,-1.922 0.215,-0.879 0.189,-1.945 -0.427,-2.633 -1.112,-1.281 -3.061,-1.164 -4.554,-0.783 -0.713,0.094 -1.757,0.64 -2.302,-0.145 -0.235,-0.33 -0.119,-0.854 -0.026,-1.186 -0.33,-0.047 -0.521,0.262 -0.735,0.428 -0.521,0.688 -0.379,1.708 -0.115,2.421 -0.521,-0.167 -0.809,-0.713 -0.975,-1.165 h -0.047 c -0.284,0.522 -0.118,1.236 0.072,1.757 0.26,0.594 0.949,0.973 1.421,1.162 -0.424,0.096 -0.78,0.404 -1.114,0.594 -0.188,-0.119 -0.307,-0.405 -0.497,-0.594 -0.166,-0.26 -0.737,-0.165 -0.594,-0.498 0.355,-1.092 -0.688,-1.731 -1.377,-2.396 -0.126,-0.922 -0.68,-2.122 -1.826,-2.421 -0.899,-0.234 -1.717,-0.127 -2.302,0.594 -0.386,0.478 -0.499,0.95 -0.426,1.518 -0.475,-0.166 -0.903,-0.523 -1.4,-0.568 -0.095,0.189 -0.104,0.431 -0.032,0.668 0.726,0.246 1.382,0.658 1.915,1.041 h 1.261 c 0.267,-0.038 0.49,-0.105 0.677,-0.334 0.217,-0.269 0.289,-0.563 0.142,-0.876 -0.138,-0.291 -0.271,-0.453 -0.689,-0.453 -0.36,0 -0.426,0.266 -0.426,0.523 0,0.224 0.108,0.261 0.239,0.238 0.13,-0.024 0.058,-0.204 0.141,-0.308 0.055,-0.069 0.111,-0.158 0.188,-0.119 0.142,0.071 0.202,0.177 0.24,0.331 0.065,0.289 -0.138,0.513 -0.405,0.643 -0.317,0.152 -0.62,0.027 -0.879,-0.215 -0.32,-0.3 -0.298,-0.695 -0.166,-1.114 0.128,-0.406 0.347,-0.637 0.735,-0.807 0.524,-0.229 0.986,-0.101 1.449,0.237 0.64,0.468 0.89,1.266 0.521,1.97 -0.284,0.543 -0.782,0.854 -1.354,0.806 v 1.067 c 1.708,2.042 2.147,3.986 2.147,5.739 0,4.051 -2.671,8.243 -7.793,9.063 l -0.658,0.712 c 1.831,-0.07 3.48,-0.739 4.952,-1.681 1.566,-0.617 2.136,1.686 3.702,1.233 0.451,-0.094 0.854,-0.521 1.139,-0.925 0.879,0.144 1.827,0.237 2.776,0.144 1.635,-0.073 3.133,-0.642 4.721,-0.594 0.022,0.331 -0.05,0.735 0.19,0.972 1.945,0.474 4.248,0.522 6.312,0.285 0.498,0.144 1.114,0.311 1.589,-0.023 1.09,-0.189 2.089,0.19 3.155,0.213 0.522,0.122 0.877,-0.165 1.139,-0.474 2.255,-0.568 4.484,-1.209 6.811,-1.542 0.308,0.025 0.117,0.522 0.213,0.76 0.261,0.427 0.808,0.379 1.235,0.498 4.15,0.38 8.467,-0.022 12.456,-0.663 -1.734,-0.503 -3.513,-0.907 -5.152,-1.594 z"
           inkscape:connector-curvature="0"
           style="fill:#4d4d4d" />
        <path
           id="path5824"
           d="m 112.823,89.751 2.989,-0.617 c 0.261,-0.141 0.735,-0.048 0.832,-0.38 -1.188,0.213 -2.351,0.475 -3.562,0.592 -0.212,0.027 -0.164,0.264 -0.259,0.405"
           inkscape:connector-curvature="0"
           style="fill:#4d4d4d" />
        <path
           id="path5826"
           d="m 112.823,90.486 c 1.376,-0.26 2.728,-0.498 4.034,-0.876 0.166,-0.072 0.424,-0.072 0.401,-0.333 -1.493,0.475 -3.155,0.571 -4.673,0.927 l 0.238,0.282"
           inkscape:connector-curvature="0"
           style="fill:#4d4d4d" />
        <path
           id="path5828"
           d="m 117.236,90.227 0.096,-0.166 c -1.4,0.308 -2.92,0.522 -4.345,0.782 l 0.121,0.286 c 1.399,-0.263 2.799,-0.476 4.128,-0.902"
           inkscape:connector-curvature="0"
           style="fill:#4d4d4d" />
        <path
           id="path5830"
           d="m 113.131,88.686 -0.022,0.283 c 0.878,-0.119 1.729,-0.308 2.563,-0.547 l 0.094,-0.164 -2.635,0.428"
           inkscape:connector-curvature="0"
           style="fill:#4d4d4d" />
        <path
           id="path5832"
           d="m 138.969,91.662 0.305,0.042 v 1.438 l -0.211,0.026 0.01,0.198 1.227,0.136 0.004,-0.217 -0.268,-0.083 -0.041,-1.437 c 0,0 0.16,0.059 0.245,0.124 0.098,0.075 0.075,0.24 0.075,0.24 l 0.194,0.069 c 0,0 0.001,-0.486 0,-0.493 -0.522,-0.215 -1.191,-0.312 -1.809,-0.289 l -0.017,0.686 0.183,-0.028 0.103,-0.412"
           inkscape:connector-curvature="0"
           style="fill:#4d4d4d" />
        <polyline
           id="polyline5834"
           points="138.639,93.08 138.446,93.074 138.29,91.704 138.542,91.675 138.469,91.412 137.19,91.555      137.213,91.794 137.403,91.768 137.594,93.168 137.403,93.239 137.429,93.476 138.659,93.325 138.639,93.08    "
           style="fill:#4d4d4d" />
        <path
           id="path5836"
           d="m 133.277,93.263 c 0.022,0.029 -0.158,-0.617 -0.158,-0.617 0,0 0.375,-0.213 0.524,0.188 0.108,0.287 -0.198,0.4 -0.366,0.429 m 1.048,-0.676 c -0.083,-0.403 -0.627,-0.397 -1.151,-0.293 0.022,0.005 -1.015,0.304 -1.015,0.304 l 0.052,0.194 0.143,-0.041 0.351,1.366 -0.12,0.173 0.073,0.181 0.997,-0.235 -0.111,-0.274 -0.081,0.021 -0.104,-0.492 c 0,0 0.273,-0.023 0.353,0.06 0.156,0.168 0.347,0.613 0.347,0.613 l 0.76,-0.221 -0.612,-0.701 c -0.002,0 0.245,-0.032 0.118,-0.655 z"
           inkscape:connector-curvature="0"
           style="fill:#4d4d4d" />
        <path
           id="path5838"
           d="m 136.146,93.547 c -0.304,0.096 -0.381,-0.158 -0.526,-0.632 -0.132,-0.434 -0.303,-0.864 0.04,-0.965 0.356,-0.103 0.505,0.386 0.604,0.744 0.135,0.488 0.199,0.755 -0.118,0.853 m 0.31,-1.779 c -0.431,-0.119 -0.928,-0.07 -1.282,0.166 -0.426,0.213 -0.476,0.665 -0.426,1.116 0.045,0.285 0.307,0.545 0.569,0.687 0.377,0.143 0.876,0.071 1.23,-0.094 0.336,-0.189 0.5,-0.546 0.5,-0.95 -0.023,-0.379 -0.213,-0.759 -0.591,-0.925 z"
           inkscape:connector-curvature="0"
           style="fill:#4d4d4d" />
        <path
           id="path5840"
           d="m 104.448,92.931 -0.19,-0.048 c 0.093,-0.12 0.356,-0.143 0.284,-0.354 -0.45,-0.382 -1.021,-0.215 -1.591,-0.262 l -0.094,-0.072 c 0.237,-0.261 0.663,-0.119 0.973,-0.119 0.142,0.024 0.307,-0.119 0.215,-0.261 -0.403,0.095 -0.95,0.049 -1.352,0.261 -0.097,0.096 -0.049,0.214 0.021,0.308 0.5,0.072 1.186,-0.167 1.566,0.214 l -0.117,0.047 c -0.62,-0.261 -1.328,0.166 -1.922,-0.143 l 0.094,-0.189 c -0.237,-0.189 -0.594,-0.237 -0.901,-0.213 -0.118,0.142 0.093,0.355 -0.047,0.521 -0.286,0 -0.143,-0.286 -0.215,-0.427 l -0.332,-0.022 c -0.19,0.094 -0.021,0.26 -0.069,0.378 0.284,0.118 0.401,0.45 0.616,0.64 -0.094,0.121 -0.286,0.355 -0.403,0.121 -0.144,0.046 -0.333,0.093 -0.381,0.235 0.284,0.572 0.808,0.025 1.161,-0.045 l 0.098,0.045 c 0.214,-0.308 0.593,-0.308 0.853,-0.379 0.192,0.237 -0.215,0.213 -0.307,0.357 -0.119,0.118 -0.31,-0.12 -0.379,0.094 0,0.096 -0.095,0.167 0,0.262 0.379,0.142 0.665,-0.285 1.066,-0.262 0.285,-0.023 0,-0.284 0.213,-0.403 0.166,-0.142 0.403,-0.237 0.547,0 l -0.166,0.165 c -0.119,-0.022 -0.146,-0.213 -0.284,-0.142 -0.072,0.048 -0.072,0.12 -0.072,0.167 -0.024,0.261 0.261,0.213 0.379,0.286 0.286,-0.215 0.568,-0.452 0.736,-0.76"
           inkscape:connector-curvature="0"
           style="fill:#4d4d4d" />
        <path
           id="path5842"
           d="m 100.912,81.875 h 4.271 v 4.745 h -4.271 v -4.745 z m -0.356,5.124 h 5.078 v -5.504 h -5.078 v 5.504 z"
           inkscape:connector-curvature="0"
           style="fill:#4d4d4d" />
        <path
           id="path5844"
           d="m 101.479,91.768 c 0.192,-0.023 0.382,-0.237 0.523,-0.166 0.095,0.023 0.072,-0.094 0.14,-0.12 0.454,-0.093 0.858,-0.403 1.378,-0.283 -0.022,0.047 0,0.166 -0.092,0.166 -0.215,0.213 -0.735,0 -0.76,0.402 0.094,0.026 0.166,0.166 0.307,0.118 0.188,-0.237 0.498,-0.165 0.782,-0.188 0.5,0.141 0.097,-0.404 0.5,-0.451 0.26,0.046 0.641,-0.119 0.829,0.143 0,0.07 -0.022,0.119 -0.071,0.141 -0.071,0.072 -0.164,0.024 -0.213,-0.048 -0.095,-0.071 -0.213,-0.023 -0.237,0.072 0.024,0.284 0.286,0.239 0.45,0.331 0.284,-0.165 0.428,-0.497 0.499,-0.806 -0.189,-0.047 -0.379,0 -0.521,-0.14 0.143,0 0.356,-0.12 0.307,-0.309 -0.473,-0.547 -1.376,-0.166 -2.063,-0.238 l -0.095,-0.072 c 0.31,-0.31 0.973,0.024 1.139,-0.403 -0.022,-0.07 -0.117,-0.07 -0.166,-0.07 -0.356,0.284 -0.995,0.023 -1.208,0.473 0.498,0.57 1.28,-0.024 1.945,0.166 0.093,-0.021 0.26,0.119 0.19,0.189 -0.807,-0.07 -1.779,0.167 -2.612,-0.07 0.049,-0.095 0.096,-0.141 0.118,-0.237 -0.284,-0.213 -0.712,-0.19 -1.021,-0.237 0,0.214 0.073,0.379 -0.047,0.544 -0.069,0.096 -0.164,-0.022 -0.212,-0.07 -0.096,-0.119 0,-0.189 0.025,-0.285 -0.049,-0.237 -0.264,-0.046 -0.406,-0.143 -0.141,0.048 -0.068,0.238 -0.141,0.357 0.403,0.07 0.332,0.615 0.688,0.711 -0.094,0.094 -0.166,0.189 -0.284,0.236 -0.095,-0.046 -0.071,-0.165 -0.166,-0.142 -0.144,0.095 -0.403,0.071 -0.381,0.308 0.189,0.526 0.522,0.002 0.876,0.121"
           inkscape:connector-curvature="0"
           style="fill:#4d4d4d" />
        <path
           id="path5846"
           d="m 100.771,89.941 c 0.116,0.07 0.235,-0.023 0.354,-0.048 0.332,0.048 0.594,-0.331 0.878,-0.234 0.496,-0.311 1.069,-0.475 1.686,-0.428 l -0.119,0.236 c -0.262,0.096 -0.712,-0.046 -0.807,0.237 0,0.238 0.261,0.145 0.401,0.215 0.265,-0.308 0.76,0 1.022,-0.26 -0.215,-0.215 0.164,-0.262 0.237,-0.404 0.284,0.166 0.735,-0.215 0.876,0.212 -0.116,0.263 -0.307,-0.189 -0.473,0.048 -0.049,0.287 0.237,0.309 0.426,0.404 0.31,-0.144 0.476,-0.475 0.476,-0.831 -0.166,-0.048 -0.354,0 -0.476,-0.142 0.097,-0.143 0.381,-0.07 0.334,-0.309 -0.594,-0.593 -1.542,-0.047 -2.304,-0.285 0,-0.048 0,-0.07 0.024,-0.094 0.334,-0.262 0.973,0.213 1.094,-0.308 -0.051,-0.096 -0.144,-0.048 -0.215,-0.048 -0.308,0.309 -1.022,-0.073 -1.139,0.475 0.047,0.141 0.215,0.165 0.332,0.188 0.641,0.048 1.423,-0.307 1.945,0.096 -0.948,0.07 -2.018,0.189 -2.943,-0.048 l 0.048,-0.19 c -0.259,-0.211 -0.617,-0.307 -0.95,-0.211 -0.022,0.118 0.073,0.211 0.047,0.331 -0.047,0.071 -0.021,0.238 -0.187,0.214 -0.215,-0.069 -0.119,-0.26 -0.096,-0.427 -0.046,-0.167 -0.238,-0.047 -0.332,-0.118 -0.213,0.022 -0.142,0.26 -0.213,0.401 0.285,0.167 0.426,0.5 0.688,0.735 -0.262,0.381 -0.568,-0.164 -0.784,0.286 -0.045,0.14 0.145,0.188 0.17,0.307"
           inkscape:connector-curvature="0"
           style="fill:#4d4d4d" />
        <path
           id="path5848"
           d="m 100.201,96.062 v -8.256 h 5.883 c 0.113,2.721 0.024,5.055 -2.373,6.145 -1.186,0.594 -2.586,1.044 -3.51,2.111 m 0,-14.9 h 5.789 v 6.193 h -5.789 c 0,-2.063 0,-6.193 0,-6.193 z m -0.45,6.193 h -5.744 v -6.193 h 5.744 c 0,0 0.02,4.152 0,6.193 z m 0,8.684 c -1.33,-1.447 -3,-1.468 -4.58,-2.871 -1.341,-1.185 -1.164,-3.618 -1.164,-5.362 h 5.744 v 8.233 z m -6.48,-4.865 c -1.304,-2.063 -1.281,-5.314 0,-7.401 v 7.401 z m 13.55,-7.45 c 0.643,1.09 0.963,2.421 0.96,3.758 -0.004,1.321 -0.324,2.647 -0.96,3.752 v -7.51 z m -2.172,10.577 c 0.958,-0.603 2.395,-2.074 3.069,-3.861 0.75,-1.999 0.679,-3.609 0.136,-5.559 -0.33,-1.179 -1.106,-2.164 -1.106,-2.164 v -2.361 h -2.628 l -0.896,-0.487 -0.521,0.163 0.577,0.324 h -6.498 l 0.641,-0.283 -0.578,-0.163 c 0,0 -0.67,0.355 -0.99,0.446 H 93.2 v 2.491 c -1.232,1.875 -1.83,4.771 -1.01,7.071 0.836,2.341 1.716,3.124 3.259,4.383 1.708,0.781 3.392,1.468 4.602,3.177 0.847,-1.645 2.572,-2.247 4.598,-3.177 z"
           inkscape:connector-curvature="0"
           style="fill:#4d4d4d" />
        <path
           id="path5850"
           d="m 94.553,83.393 c 0.354,-0.071 0.782,-0.095 1.068,-0.404 0.093,0.214 0.164,-0.022 0.286,-0.046 0.497,-0.073 0.924,-0.452 1.447,-0.262 l -0.026,0.024 c -0.071,0.332 -0.567,0.261 -0.853,0.307 -0.095,0.286 0.143,0.356 0.356,0.356 0.308,-0.236 0.831,-0.023 1.091,-0.284 -0.214,-0.189 0.142,-0.189 0.191,-0.38 0.285,0.165 0.736,-0.214 0.877,0.213 l -0.071,0.048 c -0.095,0 -0.193,-0.048 -0.287,-0.096 -0.048,0.025 -0.094,0.073 -0.07,0.142 -0.095,0.286 0.237,0.31 0.402,0.356 0.355,-0.141 0.405,-0.522 0.452,-0.853 -0.167,-0.095 -0.333,0.046 -0.452,-0.119 0.119,-0.047 0.38,-0.119 0.284,-0.333 -0.425,-0.45 -1.258,-0.237 -1.825,-0.212 -0.119,0.024 -0.286,0.024 -0.286,-0.143 0.095,-0.141 0.31,-0.048 0.476,-0.071 0.235,0.023 0.545,-0.023 0.449,-0.286 L 97.92,81.304 c -0.26,0.283 -0.71,0.071 -0.996,0.283 -0.025,0.12 -0.048,0.287 0.071,0.357 0.618,0.142 1.352,-0.213 1.994,0.073 0.044,0.045 0.022,0.117 -0.025,0.142 -0.901,-0.073 -1.968,0.19 -2.846,-0.096 l 0.071,-0.188 c -0.284,-0.143 -0.642,-0.404 -1.02,-0.215 -0.024,0.167 0.189,0.451 -0.095,0.547 -0.356,-0.121 0,-0.333 -0.168,-0.522 -0.094,0.022 -0.308,-0.048 -0.425,0.047 -0.262,0.499 0.425,0.665 0.593,1.043 l -0.071,0.071 c -0.097,0.071 -0.239,0.142 -0.263,-0.023 -0.188,-0.07 -0.259,0.143 -0.401,0.166 -0.142,0.191 0.143,0.333 0.214,0.404"
           inkscape:connector-curvature="0"
           style="fill:#4d4d4d" />
        <path
           id="path5852"
           d="m 96.592,90.772 1.806,1.139 -0.072,0.452 -2.136,-1.329 -0.166,-0.332 c 0.119,-0.237 0.404,-0.049 0.568,0.07 m 0.12,-0.854 c 0.593,0.379 1.209,0.713 1.756,1.138 l -0.047,0.404 c -0.665,-0.309 -1.307,-0.735 -1.874,-1.186 l 0.165,-0.356 z m 0.451,-0.594 1.376,0.807 -0.047,0.404 C 97.969,90.32 97.424,89.917 96.926,89.609 l 0.237,-0.285 z m 1.447,-0.26 -0.046,0.616 c -0.379,-0.119 -0.713,-0.404 -0.999,-0.616 h 1.045 z m -0.355,4.248 c -0.666,-0.356 -1.591,-0.831 -1.806,-1.663 0.643,0.356 1.258,0.76 1.85,1.162 -0.069,0.145 10e-4,0.357 -0.044,0.501 z m -0.476,0.45 c 0.476,0.26 0.831,0.759 1.354,0.877 0.262,-1.97 0.188,-6.358 0.188,-6.358 h -2.773 c -0.619,0.047 -0.24,0.854 -0.666,1.138 -0.097,0.072 -0.333,0.143 -0.405,-0.047 -0.022,-0.215 0.121,-0.355 0.264,-0.476 0.071,-0.188 0.166,-0.475 0,-0.639 -0.192,-0.167 -0.476,-0.189 -0.712,-0.143 -0.168,0.096 -0.287,0.262 -0.333,0.427 -0.096,0.285 0,0.617 0.236,0.783 0,0.213 -0.166,0.379 -0.307,0.523 -0.119,0.164 -0.025,0.402 0.117,0.521 0.263,1.518 1.542,3.061 3.037,3.394 z"
           inkscape:connector-curvature="0"
           style="fill:#4d4d4d" />
        <path
           id="path5854"
           d="m 104.803,82.516 c -0.047,-0.191 -0.237,-0.237 -0.401,-0.214 -0.453,0.403 -0.502,1.139 -0.287,1.684 0,0.357 0.856,0.712 0.334,0.949 -0.312,-0.213 -0.69,-0.404 -0.905,-0.735 -0.139,-0.357 0,-0.76 0.146,-1.068 0.119,-0.286 -0.047,-0.546 0.166,-0.782 -0.144,-0.048 -0.213,-0.167 -0.334,-0.239 -0.307,-0.024 -0.712,0 -0.9,0.261 -0.048,0.237 0.188,0.189 0.331,0.214 0.024,0.189 -0.331,0.023 -0.258,0.26 l 0.258,0.12 c -0.143,0.141 -0.331,0.285 -0.544,0.308 -0.285,-0.119 -0.595,-0.262 -0.688,-0.594 l 0.143,-0.119 c 0.023,-0.284 -0.309,-0.189 -0.451,-0.284 -0.023,0.166 -0.285,0.189 -0.261,0.402 0.356,0.308 0.592,0.832 0.993,1.092 -0.067,0.07 -0.14,0.095 -0.235,0.166 -0.116,0.072 -0.354,0.072 -0.354,-0.143 -0.309,-0.117 -0.166,0.262 -0.403,0.284 0.071,0.19 -0.049,0.263 0.022,0.451 l 0.215,0.024 c 0.332,-0.355 0.756,-0.212 1.161,-0.452 l 0.261,0.452 -0.354,0.096 c -0.283,0.212 0.26,0.402 0,0.617 -0.166,0.165 -0.356,-0.047 -0.403,-0.189 -0.287,-0.095 -0.144,0.283 -0.379,0.283 -0.166,0.215 0.189,0.191 0.092,0.428 0.072,0.071 0.121,0.096 0.215,0.119 0.164,-0.332 0.569,-0.237 0.856,-0.38 0.166,-0.022 0.401,-0.285 0.213,-0.426 0.142,0.022 0.26,-0.096 0.356,0.022 -0.142,0.522 0.594,0.381 0.567,0.783 -0.072,-0.022 -0.093,-0.141 -0.214,-0.093 -0.165,0.212 -0.215,0.424 0,0.617 0.263,-0.12 0.619,-0.356 0.69,-0.665 0.022,-0.286 -0.239,-0.334 -0.403,-0.475 0,-0.12 0.047,-0.238 0.069,-0.356 0.144,0.095 0.263,0.237 0.451,0.215 0.237,-0.025 0.307,-0.286 0.237,-0.475 -0.496,-0.475 -0.782,-1.115 -0.567,-1.828 0.045,-0.118 0.094,-0.379 0.307,-0.308 0.261,0.261 -0.141,0.474 -0.118,0.736 0,0.189 0.19,0.26 0.309,0.379 0.095,0.025 0.283,0.096 0.31,-0.071 -0.338,-0.237 -0.29,-0.686 -0.243,-1.066"
           inkscape:connector-curvature="0"
           style="fill:#4d4d4d" />
        <path
           id="path5856"
           d="m 98.633,84.769 c -0.094,0 -0.07,0.121 -0.07,0.189 0.046,0.214 0.286,0.192 0.427,0.263 0.33,-0.19 0.404,-0.523 0.474,-0.832 -0.144,-0.071 -0.38,0.049 -0.474,-0.118 0.118,-0.023 0.283,-0.142 0.283,-0.285 -0.474,-0.664 -1.399,-0.143 -2.111,-0.333 0.19,-0.355 0.759,-0.022 1.021,-0.285 0.071,-0.071 0,-0.188 -0.071,-0.213 -0.356,0.189 -0.808,0.119 -1.141,0.285 -0.118,0.142 -0.072,0.355 0.095,0.402 0.665,0.143 1.447,-0.283 1.967,0.143 l -0.07,0.094 c -0.901,-0.237 -1.851,0.145 -2.704,-0.069 -0.261,-0.048 0.047,-0.168 0,-0.309 H 96.12 c -0.213,-0.286 -0.618,-0.142 -0.854,-0.214 -0.189,0.166 0.141,0.262 0,0.452 -0.023,0.119 -0.166,0.189 -0.26,0.072 -0.165,-0.119 0.023,-0.238 0,-0.38 -0.097,-0.19 -0.239,0.022 -0.38,-0.096 -0.119,0.048 -0.143,0.189 -0.168,0.286 -0.023,0.142 0.143,0.19 0.239,0.237 0.07,0.26 0.426,0.402 0.354,0.64 -0.07,0.048 -0.236,0.214 -0.308,0 -0.188,-0.071 -0.259,0.166 -0.401,0.214 -0.025,0.19 0.093,0.238 0.213,0.356 0.379,-0.118 0.807,-0.096 1.139,-0.333 0.12,0.095 0.12,-0.071 0.215,-0.119 0.497,-0.094 0.948,-0.379 1.493,-0.309 -0.073,0.048 0.024,0.215 -0.117,0.215 -0.215,0.023 -0.382,0.236 -0.594,0.119 -0.141,-0.024 -0.215,0.117 -0.19,0.238 -0.024,0.213 0.214,0.117 0.332,0.165 0.262,-0.26 0.784,-0.189 1.138,-0.165 -0.261,0.26 -0.735,0.046 -1.043,0.283 -0.048,0.12 -0.025,0.263 0.093,0.334 0.643,0.164 1.354,-0.19 1.994,0.093 0.048,0.025 0.022,0.119 -0.022,0.142 -0.973,-0.213 -1.923,0.166 -2.871,-0.117 0.047,-0.048 0.118,-0.144 0.047,-0.238 H 96.05 c -0.191,-0.308 -0.593,-0.119 -0.856,-0.166 -0.045,0.214 0.143,0.404 -0.045,0.546 -0.307,-0.048 -0.142,-0.309 -0.239,-0.475 -0.117,0.024 -0.259,-0.094 -0.401,0.024 -0.024,0.119 -0.024,0.309 0,0.402 0.285,0.096 0.354,0.451 0.641,0.594 l -0.119,0.142 c -0.096,0.119 -0.262,0.023 -0.333,-0.071 -0.143,0.094 -0.426,0.142 -0.333,0.38 0.12,0.262 0.379,0.119 0.569,0.119 0.333,0.022 0.569,-0.309 0.832,-0.213 0.474,-0.308 1.02,-0.427 1.563,-0.5 0.193,0 0.026,0.167 0.026,0.262 -0.286,0.046 -0.547,0.094 -0.806,0.094 0,0.096 -0.145,0.215 0,0.285 0.33,0.167 0.735,-0.119 1.137,-0.025 0.522,0.049 0.023,-0.424 0.5,-0.542 0.284,0.094 0.592,-0.073 0.829,0.141 0,0.331 -0.237,0 -0.38,0.071 -0.07,0.023 -0.048,0.096 -0.048,0.167 -0.046,0.261 0.264,0.189 0.405,0.284 0.308,-0.19 0.379,-0.543 0.451,-0.854 -0.167,0.025 -0.333,0.049 -0.451,-0.093 0.118,-0.048 0.379,-0.142 0.283,-0.356 -0.521,-0.475 -1.352,-0.165 -1.991,-0.213 l -0.12,-0.095 0.093,-0.071 c 0.264,-0.167 0.808,0.118 0.904,-0.286 0,-0.141 -0.191,-0.071 -0.238,-0.071 0,-0.096 0.025,-0.19 -0.023,-0.237 0.191,-0.473 0.711,-0.165 1.067,-0.165 0.048,0.071 0.119,0.142 0.025,0.212 -0.167,0.069 -0.216,-0.12 -0.359,-0.097"
           inkscape:connector-curvature="0"
           style="fill:#4d4d4d" />
        <path
           id="path5858"
           d="m 129.858,84.578 c 0,0.097 0.118,0.12 0.188,0.144 0.571,-0.736 0.667,-1.71 0.689,-2.704 -0.096,-0.712 -0.213,-1.497 -0.807,-1.923 -0.096,0 -0.142,0.093 -0.142,0.189 0.881,1.234 0.545,3.014 0.072,4.294"
           inkscape:connector-curvature="0"
           style="fill:#4d4d4d" />
        <path
           id="path5860"
           d="m 126.491,79.312 0.33,0.238 c -0.096,0.141 -0.284,0.141 -0.45,0.167 0,-0.096 0.12,-0.239 0.12,-0.405 m -0.808,0.238 c 0.047,-0.119 0.07,-0.261 0.213,-0.334 l 0.048,0.381 -0.261,-0.047 z m 0.213,-0.713 c -0.401,0 -0.473,0.427 -0.71,0.616 0.116,0.263 0.426,0.381 0.71,0.427 0.522,0.145 1.116,0.048 1.448,-0.331 -0.476,-0.237 -0.833,-0.806 -1.448,-0.712 z"
           inkscape:connector-curvature="0"
           style="fill:#4d4d4d" />
      </g>
      <g
         style="fill:#4d4d4d"
         transform="matrix(1.7603128,0,0,1.7603128,145.81066,350.99683)"
         id="g5862">
        <g
           style="fill:#4d4d4d"
           id="g5864">
          <path
             id="path5866"
             d="m 38.481,122.073 v -0.824 c -1.965,0 -3.192,-0.455 -3.192,-2.523 v -13.949 c 3.883,0 4.804,0.697 5.166,3.758 h 0.913 v -5.574 H 23.973 v 5.574 h 0.911 c 0.361,-3.061 1.283,-3.758 5.166,-3.758 v 13.949 c 0,2.068 -1.227,2.523 -3.191,2.523 v 0.824 h 11.622"
             inkscape:connector-curvature="0"
             style="fill:#4d4d4d" />
          <path
             id="path5868"
             d="m 55.313,112.899 v 5.822 c 0,1.854 -1,2.471 -2.612,2.523 v 0.828 h 10.195 v -0.828 c -1.852,0 -2.577,-0.455 -2.577,-2.523 V 106.31 c 0,-2.068 0.725,-2.523 2.577,-2.523 v -0.826 H 52.701 v 0.826 c 1.612,0.053 2.612,0.668 2.612,2.523 v 5.051 h -6.566 v -5.051 c 0,-1.855 1.001,-2.471 2.612,-2.523 v -0.826 h -9.405 v 0.826 c 1.267,0.264 1.786,0.455 1.786,2.523 v 12.412 c 0,2.068 -0.724,2.523 -2.577,2.523 v 0.828 h 10.196 v -0.828 c -1.611,-0.053 -2.612,-0.67 -2.612,-2.523 V 112.9 h 6.566"
             inkscape:connector-curvature="0"
             style="fill:#4d4d4d" />
          <path
             id="path5870"
             d="m 79.861,122.073 v -5.674 h -0.669 c -1.075,4.082 -2.363,4.33 -4.135,4.33 h -2.362 c -1.128,0 -1.345,-0.379 -1.345,-1.398 v -6.461 c 2.856,0.049 4.847,-0.314 5.029,2.4 h 0.722 v -6.092 h -0.722 c -0.18,2.383 -2.288,2.15 -5.029,2.15 v -7.027 h 3.007 c 3.061,0 4.377,1.184 4.673,4.082 h 0.59 v -5.424 H 63.837 v 0.826 c 1.853,0 2.578,0.455 2.578,2.523 v 12.412 c 0,2.068 -0.725,2.523 -2.578,2.523 v 0.828 h 16.024"
             inkscape:connector-curvature="0"
             style="fill:#4d4d4d" />
        </g>
        <g
           style="fill:#4d4d4d"
           id="g5872">
          <path
             id="path5874"
             d="M 116.403,122.073 V 121.3 c -1.586,0 -2.214,-1 -2.214,-3.064 v -11.547 c 0,-2.066 0.441,-2.885 1.935,-2.885 v -0.844 h -8.928 v 0.844 c 1.514,0 1.959,0.818 1.959,2.885 v 11.547 c 0,2.064 -0.63,3.064 -2.237,3.064 v 0.773 h 9.485"
             inkscape:connector-curvature="0"
             style="fill:#4d4d4d" />
          <path
             id="path5876"
             d="m 129.348,122.073 5.928,-15.354 v 11.516 c 0,2.283 -0.409,2.822 -2.578,3.064 v 0.773 h 10.058 V 121.3 c -2.414,-0.242 -2.58,-1 -2.58,-3.064 v -11.367 c 0,-2.564 0.438,-2.699 2.58,-3.064 v -0.844 h -7.841 l -4.707,12.445 -4.624,-12.445 h -7.817 v 0.844 c 1.825,0 2.549,0.998 2.549,3.064 v 11.66 c 0,2.066 -0.373,2.441 -2.549,2.771 v 0.773 H 124.6 V 121.3 c -2.488,-0.377 -2.58,-0.705 -2.58,-2.771 v -10.992 l 5.838,14.537 h 1.49"
             inkscape:connector-curvature="0"
             style="fill:#4d4d4d" />
          <path
             id="path5878"
             d="m 160.106,122.073 v -5.674 h -0.669 c -1.074,4.082 -2.362,4.33 -4.134,4.33 h -2.364 c -1.127,0 -1.342,-0.379 -1.342,-1.398 v -6.461 c 2.855,0.049 4.845,-0.314 5.027,2.4 h 0.722 v -6.092 h -0.722 c -0.179,2.383 -2.29,2.15 -5.027,2.15 v -7.027 h 3.007 c 3.062,0 4.377,1.184 4.671,4.082 h 0.592 v -5.424 h -15.785 v 0.826 c 1.854,0 2.581,0.455 2.581,2.523 v 12.484 c 0,2.068 -0.728,2.525 -2.581,2.525 v 0.754 h 16.024"
             inkscape:connector-curvature="0"
             style="fill:#4d4d4d" />
          <path
             id="path5880"
             d="m 162.461,122.179 h 0.541 c 0.158,-0.482 0.479,-0.912 1.054,-0.912 0.557,0 3.074,1.285 6.095,1.285 2.669,0 6.015,-1.984 6.015,-6.467 0,-6.559 -10.494,-5.43 -10.494,-9.852 0,-1.637 1.512,-2.416 3.193,-2.416 2.507,0 4.27,1.908 5.048,4.35 h 0.581 v -5.207 h -0.814 c -0.136,0.412 -0.227,0.686 -0.634,0.686 -0.949,0 -1.721,-1.178 -4.471,-1.178 -3.354,0 -6.837,1.447 -6.837,5.656 0,7.031 10.63,6.061 10.63,10.465 0,1.432 -1.646,2.623 -3.621,2.623 -2.65,0 -5.292,-2.141 -5.744,-4.857 h -0.758 l 0.216,5.824"
             inkscape:connector-curvature="0"
             style="fill:#4d4d4d" />
          <path
             id="path5882"
             d="m 103.438,122.073 v -0.824 c -1.964,0 -3.191,-0.455 -3.191,-2.523 v -13.949 c 3.885,0 4.805,0.697 5.165,3.758 h 0.913 v -5.574 H 88.93 v 5.574 h 0.91 c 0.361,-3.061 1.283,-3.758 5.166,-3.758 v 13.949 c 0,2.068 -1.225,2.523 -3.191,2.523 v 0.824 h 11.623"
             inkscape:connector-curvature="0"
             style="fill:#4d4d4d" />
        </g>
      </g>
    </g>
    <g
       id="Guides"
       transform="matrix(1.7603128,0,0,1.7603128,145.81066,350.99683)" />
  </g>
</svg>
