<?xml version="1.0" encoding="UTF-8" standalone="no"?>
<!-- Created with Inkscape (http://www.inkscape.org/) -->

<svg
   xmlns:dc="http://purl.org/dc/elements/1.1/"
   xmlns:cc="http://creativecommons.org/ns#"
   xmlns:rdf="http://www.w3.org/1999/02/22-rdf-syntax-ns#"
   xmlns:svg="http://www.w3.org/2000/svg"
   xmlns="http://www.w3.org/2000/svg"
   xmlns:sodipodi="http://sodipodi.sourceforge.net/DTD/sodipodi-0.dtd"
   xmlns:inkscape="http://www.inkscape.org/namespaces/inkscape"
   width="744.09448819"
   height="1052.3622047"
   id="svg3782"
   version="1.1"
   inkscape:version="0.48.4 r9939"
   inkscape:export-filename="/home/josh/PycharmProjects/savings_champion/savings_champion/resources/img/press/the_guardian.png"
   inkscape:export-xdpi="208.50133"
   inkscape:export-ydpi="208.50133"
   sodipodi:docname="the_independent.svg">
  <defs
     id="defs3784" />
  <sodipodi:namedview
     id="base"
     pagecolor="#ffffff"
     bordercolor="#666666"
     borderopacity="1.0"
     inkscape:pageopacity="0.0"
     inkscape:pageshadow="2"
     inkscape:zoom="1.4"
     inkscape:cx="302.50743"
     inkscape:cy="390.22628"
     inkscape:document-units="px"
     inkscape:current-layer="layer1"
     showgrid="false"
     inkscape:window-width="1920"
     inkscape:window-height="1056"
     inkscape:window-x="0"
     inkscape:window-y="24"
     inkscape:window-maximized="1" />
  <metadata
     id="metadata3787">
    <rdf:RDF>
      <cc:Work
         rdf:about="">
        <dc:format>image/svg+xml</dc:format>
        <dc:type
           rdf:resource="http://purl.org/dc/dcmitype/StillImage" />
        <dc:title></dc:title>
      </cc:Work>
    </rdf:RDF>
  </metadata>
  <g
     inkscape:label="Layer 1"
     inkscape:groupmode="layer"
     id="layer1">
    <rect
       style="fill:none;stroke:#4d4d4d;stroke-width:2;stroke-miterlimit:4;stroke-opacity:1;stroke-dasharray:none"
       id="rect3790"
       width="358.57144"
       height="175.71428"
       x="143.17825"
       y="438.54935"
       ry="28.571428" />
    <g
       display="none"
       id="_x32_px_Stroke"
       style="display:none"
       transform="matrix(1.7603128,0,0,1.7603128,145.81066,350.99683)">
      <path
         id="path5770"
         d="M 198,2 V 198 H 2 V 2 h 196 m 2,-2 H 0 V 200 H 200 V 0 l 0,0 z"
         display="inline"
         inkscape:connector-curvature="0"
         style="fill:#a9a9a9;display:inline" />
    </g>
    <g
       id="g5772"
       transform="matrix(1.7603128,0,0,1.7603128,145.81066,350.99683)">
      <g
         id="g5774" />
      <g
         id="g5776" />
    </g>
    <g
       id="Guides"
       transform="matrix(1.7603128,0,0,1.7603128,145.81066,350.99683)" />
    <g
       id="layer1-8"
       style="fill:#4d4d4d;fill-opacity:1"
       transform="matrix(0.3659654,0,0,0.3659654,153.88936,481.02101)">
      <path
         id="path2078"
         style="fill:#4d4d4d;fill-opacity:1;fill-rule:evenodd"
         d="m 65.810198,116.71476 13.882322,0 0,2.7528 -42.450944,0 0,-2.7528 14.024764,0 0,-86.219287 -6.293268,0 c -8.65063,0 -12.58122,1.570039 -16.38248,6.941338 -3.930236,5.500276 -5.631732,10.613622 -6.422244,19.135276 l -3.529842,0 0,-29.358779 80.060313,0 0,29.358779 -3.80126,0 C 94.368189,48.447992 92.795315,43.337481 88.736103,37.305 85.464213,32.45563 80.743819,30.495473 73.012323,30.495473 l -7.202125,0 0,86.219287 0,0 z m 101.674482,-46.259997 0,-40.48866 -11.53275,0 0,-2.752795 37.8698,0 0,2.752795 -11.92252,0 0,86.748657 11.92252,0 0,2.7528 -37.8698,0 0,-2.7528 11.53275,0 0,-43.238619 -39.30838,0 0,43.238619 11.53276,0 0,2.7528 -37.99914,0 0,-2.7528 11.92252,0 0,-86.748657 -11.92252,0 0,-2.752795 37.99914,0 0,2.752795 -11.53276,0 0,40.48866 39.30838,0 0,0 z m 99.84614,-14.933621 -3.54295,0 c -0.64807,-12.713031 -1.82835,-16.113898 -6.28016,-20.444527 -3.67228,-3.400866 -7.8633,-4.581142 -16.38496,-4.581142 l -18.73488,0 0,39.95929 6.16146,0 c 12.44409,0 16.24535,-3.669803 16.24535,-15.853109 l 0,-0.782363 c 0,-0.790157 0,-1.970433 0,-3.018897 l 3.26906,0 0,44.029133 -3.26906,0 c 0,-2.099764 0.12898,-4.849725 0.12898,-5.500276 0,-12.06248 -3.41114,-15.202559 -16.37433,-15.202559 l -6.16146,0 0,42.058698 18.08398,0 c 8.64319,0 13.49539,-1.04846 17.42563,-3.66945 7.20212,-4.84193 9.17256,-9.17256 9.56232,-21.095429 0,-0.782362 0,-1.830472 0.12898,-3.400512 l 3.54047,0 0.66118,31.447561 -75.86894,0 0,-2.7528 11.92252,0 0,-86.748657 -11.92252,0 0,-2.752795 71.9387,0 -0.52937,28.307834 0,0 z m -237.688929,80.868898 -11.925354,0 0,-2.7528 38.391732,0 0,2.7528 -11.922874,0 0,86.74086 11.922874,0 0,2.74996 -38.391732,0 0,-2.74996 11.925354,0 0,-86.74086 0,0 z m 103.905709,63.28523 0,-63.28523 -13.49539,0 0,-2.7528 29.21917,0 0,2.7528 -11.92288,0 0,90.14173 -2.10189,0.66118 -59.354995,-88.18441 0,84.12236 13.763976,0 0,2.74996 -29.48811,0 0,-2.74996 11.922874,0 0,-86.74086 -11.922874,0 0,-2.7528 29.48811,0 43.892009,66.03803 0,0 z m 29.83004,-63.28523 -11.92252,0 0,-2.7528 48.74173,0 c 27.12472,0 41.27067,15.5948 41.27067,45.46205 0,19.26425 -6.28264,34.32968 -17.55461,41.5396 -5.50275,3.67193 -12.71303,5.24197 -23.45527,5.24197 l -49.00252,0 0,-2.74996 11.92252,0 0,-86.74086 z m 33.40771,86.21114 c 9.04359,0 14.15374,-1.96229 18.74551,-7.0728 6.15083,-7.07031 9.82311,-20.5735 9.82311,-36.0287 0,-18.74551 -5.11299,-33.93708 -13.2346,-39.30838 -3.80126,-2.49201 -7.60252,-3.28217 -15.72378,-3.28217 l -18.47409,0 0,85.69205 18.86385,0 z m 115.0487,-60.66425 -3.54047,0 c -0.65091,-12.70489 -1.83083,-16.11638 -6.29079,-20.43638 -3.66165,-3.4115 -7.85268,-4.59142 -16.37433,-4.59142 l -18.73488,0 0,39.96957 6.16146,0 c 12.44161,0 16.24287,-3.66981 16.24287,-15.86374 l 0,-0.77953 c 0,-0.79051 0,-1.97043 0,-3.0111 l 3.27153,0 0,44.02098 -3.27153,0 c 0,-2.09941 0.13181,-4.84937 0.13181,-5.50027 0,-12.05433 -3.4115,-15.20469 -16.37468,-15.20469 l -6.16146,0 0,42.06083 18.08398,0 c 8.64318,0 13.49291,-1.04032 17.42314,-3.6613 7.20213,-4.85256 9.17256,-9.17256 9.56233,-21.09543 0,-0.79016 0,-1.84111 0.13181,-3.41115 l 3.54047,0 0.65055,31.44756 -75.85866,0 0,-2.74996 11.92252,0 0,-86.74086 -11.92252,0 0,-2.7528 71.92843,0 -0.52158,28.29969 z m 34.7563,61.19397 12.7024,0 0,2.74996 -39.17941,0 0,-2.74996 11.93315,0 0,-86.74086 -11.93315,0 0,-2.7528 41.02087,0 c 18.21295,0 27.11693,8.1241 27.11693,24.89634 0,17.68642 -8.25308,25.2861 -27.11693,25.2861 l -14.54386,0 0,39.31122 z m 7.7237,-42.85134 c 14.81244,0 18.87165,-4.44933 18.87165,-20.70531 0,-10.08142 -2.36019,-17.55496 -6.41976,-20.30492 -2.74996,-1.97043 -4.98118,-2.3602 -12.18331,-2.3602 l -7.99228,0 0,43.37043 7.7237,0 z m 106.53449,-18.34263 -3.54048,0 c -0.66118,-12.70489 -1.83082,-16.11638 -6.29043,-20.43638 -3.67228,-3.4115 -7.86331,-4.59142 -16.37468,-4.59142 l -18.73489,0 0,39.96957 6.15118,0 c 12.45189,0 16.25315,-3.66981 16.25315,-15.86374 l 0,-0.77953 c 0,-0.79051 0,-1.97043 0,-3.0111 l 3.27189,0 0,44.02098 -3.27189,0 c 0,-2.09941 0.13182,-4.84937 0.13182,-5.50027 0,-12.05433 -3.4115,-15.20469 -16.38497,-15.20469 l -6.15118,0 0,42.06083 18.0737,0 c 8.65347,0 13.50319,-1.04032 17.42563,-3.6613 7.20992,-4.85256 9.17256,-9.17256 9.57012,-21.09543 0,-0.79016 0,-1.84111 0.13181,-3.41115 l 3.54048,0 0.65055,31.44756 -75.86929,0 0,-2.74996 11.92287,0 0,-86.74086 -11.92287,0 0,-2.7528 71.93905,0 -0.52157,28.29969 z m 81.7409,37.73834 0,-63.28523 -13.49256,0 0,-2.7528 29.21669,0 0,2.7528 -11.92287,0 0,90.14173 -2.09941,0.66118 -59.355,-88.18441 0,84.12236 13.75335,0 0,2.74996 -29.47748,0 0,-2.74996 11.92287,0 0,-86.74086 -11.92287,0 0,-2.7528 29.47748,0 43.8998,66.03803 z m 29.73827,-63.28523 -11.92252,0 0,-2.7528 48.74137,0 c 27.12756,0 41.28166,15.5948 41.28166,45.46205 0,19.26425 -6.29327,34.32968 -17.55496,41.5396 -5.51056,3.67193 -12.71268,5.24197 -23.45528,5.24197 l -49.01279,0 0,-2.74996 11.92252,0 0,-86.74086 z m 33.41799,86.21114 c 9.04358,0 14.15409,-1.96229 18.73488,-7.0728 6.16146,-7.07031 9.83374,-20.5735 9.83374,-36.0287 0,-18.74551 -5.11299,-33.93708 -13.23461,-39.30838 -3.80126,-2.49201 -7.60216,-3.28217 -15.73441,-3.28217 l -18.46346,0 0,85.69205 18.86386,0 z m 117.10346,-60.66425 -3.54047,0 c -0.65055,-12.70489 -1.83083,-16.11638 -6.28264,-20.43638 -3.67228,-3.4115 -7.86331,-4.59142 -16.38532,-4.59142 l -18.73452,0 0,39.96957 6.16145,0 c 12.4441,0 16.24536,-3.66981 16.24536,-15.85311 l 0,-0.79016 c 0,-0.79051 0,-1.97043 0,-3.0111 l 3.27968,0 0,44.02098 -3.27968,0 c 0,-2.09161 0.12897,-4.84937 0.12897,-5.50027 0,-12.05433 -3.41114,-15.20469 -16.37433,-15.20469 l -6.16145,0 0,42.06083 18.08397,0 c 8.64319,0 13.4954,-1.04032 17.42563,-3.6613 7.21276,-4.85256 9.17256,-9.17256 9.56233,-21.09543 0,-0.79016 0,-1.84111 0.12897,-3.41115 l 3.54331,0 0.65835,31.44756 -75.86894,0 0,-2.74996 11.92252,0 0,-86.74086 -11.92252,0 0,-2.7528 71.9387,0 -0.52937,28.29969 z m 81.76996,37.73834 0,-63.28523 -13.50319,0 0,-2.7528 29.22697,0 0,2.7528 -11.93315,0 0,90.14173 -2.09162,0.66118 -59.355,-88.18441 0,84.12236 13.75335,0 0,2.74996 -29.47712,0 0,-2.74996 11.92251,0 0,-86.74086 -11.92251,0 0,-2.7528 29.47712,0 43.90264,66.03803 z m 66.03555,23.45563 13.88232,0 0,2.74996 -42.44811,0 0,-2.74996 14.02193,0 0,-86.22177 -6.29043,0 c -8.65382,0 -12.58406,1.57004 -16.38532,6.94099 -3.92244,5.5109 -5.63208,10.62425 -6.41161,19.13527 l -3.54047,0 0,-29.34815 80.06031,0 0,29.34815 -3.80126,0 c -0.52158,-8.12126 -2.09941,-13.23177 -6.16146,-19.26425 -3.27189,-4.84158 -7.99228,-6.81201 -15.72378,-6.81201 l -7.20212,0 0,86.22177 z M 376.29956,69.719527 c 0.37134,0.187087 -0.0925,1.190906 -1.03004,0.940748 -0.69803,-0.187086 -0.88264,-0.911693 -0.66118,-1.375157 0.0946,-0.205512 0.40819,-0.289843 0.43724,-0.09496 0.0369,0.187087 0,0.466299 0.28701,0.558425 0.27922,0.09213 0.52973,0.03685 0.65091,-0.02905 0.13145,-0.06307 0.19488,-0.06307 0.31606,0 z m -28.56614,26.403307 c -0.23173,0.352913 -0.42661,0.297637 -0.44504,-0.131811 l -0.0843,-2.191536 c -0.0106,-0.426968 0.22146,-0.529724 0.51909,-0.223937 l 0.4741,0.474095 c 0.29764,0.297637 0.35291,0.827008 0.12118,1.180275 l -0.585,0.892914 z M 369.2661,76.877007 c -0.29764,0.334489 -0.54,1.087796 -1.8124,0.360709 0,0 -1.08815,0.903543 -1.53319,1.62815 -0.45567,0.724251 -0.81922,0.816732 -1.36737,0.455669 0,0 -0.99283,1.085315 -1.4485,2.442047 -0.45602,1.367008 -1.35673,0.819213 -1.62815,0.819213 0,0 -1.72807,1.904527 -3.0848,2.897716 0,0 0.54815,3.448346 0.91169,4.444016 0,0 0,0.993189 -0.64028,0.455669 l 1.36453,3.437716 c 0,0 0.26858,0.547796 0,1.087796 0,0 1.89673,1.72807 4.52551,2.629133 0,0 1.36737,0 1.90489,-0.54 0.55027,-0.548149 1.08779,-1.180275 1.63559,-1.003818 0.54,0.187086 0.7246,0.187086 1.08815,-0.176457 0.35291,-0.360709 0.80858,-0.908858 1.53318,-0.724252 0.72426,0.176457 1.36701,0.176457 1.72808,-0.268937 0.36354,-0.455669 1.45133,-1.272047 2.08098,-0.363543 0.63213,0.903543 1.02472,0.661181 1.02472,0.661181 0,0 7.98166,-1.430079 9.49642,-1.683071 0.5478,-0.09213 0.97477,-0.01843 1.44886,0.271417 0.52157,0.323859 8.80122,4.970551 9.88902,5.603032 1.08779,0.632126 0.90106,2.080987 0.26858,2.628777 -0.63213,0.54 -3.76441,3.22441 -3.76441,3.22441 0,0 -0.72425,0.64276 -1.63559,0.5478 -0.90107,-0.0921 -12.44162,0.83799 -16.69854,1.20153 -1.44886,0.11835 -3.17693,0.5478 -4.34941,1.00347 -1.17993,0.44504 -22.77815,10.82409 -24.49595,11.45622 -1.71992,0.63248 -1.54346,1.18027 -4.61764,0.36354 -3.08728,-0.81921 -9.51767,-2.9002 -10.96653,-3.71693 -1.45134,-0.80858 -1.00347,-2.62098 0.63212,-3.16878 1.63595,-0.54815 6.34607,-2.17594 6.34607,-2.17594 0,0 -2.23902,-2.11004 -3.51142,-2.73969 -1.26461,-0.63212 -1.68343,-1.09842 0.18425,-1.54382 3.23504,-0.77173 9.10666,-3.15815 13.34516,-4.2013 0,0 -2.74996,-1.76527 -3.22441,-2.658185 0,0 -0.63213,0.279213 -0.81921,0.790515 -0.28701,0.80858 -0.62965,0.66118 -0.72425,-0.15839 -0.0921,-0.816377 -0.36107,-2.992322 -0.36107,-2.992322 0,0 -1.17992,0.455669 -1.17992,-0.816732 0,-1.264252 0.0921,-4.256929 0.0921,-4.256929 0,0 -0.99319,2.073189 -0.99319,4.712598 0,0.816732 -0.0209,1.356732 -0.67961,1.125 -1.00382,-0.363543 -1.68342,-0.763937 -1.68342,-0.763937 0,0 -0.0553,1.135276 -0.90071,0.808583 -1.25398,-0.49252 -3.6248,-1.261772 -4.1726,-1.261772 0,0 -0.43724,1.169646 -1.04067,1.07752 -0.90106,-0.139606 -5.48185,-0.624331 -5.48185,-0.624331 0,0 -0.44787,0.271417 -0.72461,0.819213 -0.27106,0.537519 -0.29763,0.779882 -0.92976,0.500669 -0.64276,-0.268937 -3.32717,-1.680945 -3.32717,-1.680945 0,0 -3.26125,2.72126 -4.17259,3.624805 -0.90071,0.90886 -1.0878,0.54815 -1.0878,-0.27142 0,-0.816377 0,-2.265235 0,-2.265235 0,0 -2.87149,2.860865 -3.98586,4.349055 -0.80859,1.08531 -0.72426,0.26858 -0.80859,-0.80858 -0.0921,-1.09843 -0.38197,-1.691223 -0.28984,-2.146893 0,0 0.64276,-0.763937 1.28303,-1.301456 0.63213,-0.547796 5.43721,-6.069331 5.89288,-6.525 0.44503,-0.453189 0.80858,-0.632126 1.16964,-0.816732 0.36354,-0.176457 15.67878,-7.249252 15.67878,-7.249252 l -1.17213,-3.530197 c 0,0 -1.8124,1.085315 -2.36019,1.356732 -0.53752,0.268583 -1.01162,0.677126 -1.28303,0.045 -0.26859,-0.629645 -1.25363,-2.76874 -1.25363,-2.76874 0,0 -1.71779,0.819213 -2.17346,1.180276 -0.45567,0.363543 -0.84543,0.56622 -1.20898,0.0287 -0.36354,-0.547796 -1.42263,-3.105709 -1.42263,-3.105709 0,0 -0.72426,0.54 -1.26178,0.727087 -0.55063,0.176456 -0.827,0.510944 -1.00382,0.06307 -0.18673,-0.455669 -1.08779,-3.150354 -1.08779,-3.150354 0,0 -0.72425,0.271418 -1.26461,0.55063 -0.54779,0.268583 -0.73488,0.574016 -1.09559,0.02622 -0.36354,-0.53752 -1.44106,-3.569528 -1.44106,-3.569528 0,0 -1.62531,0.966969 -1.62531,0.06591 0,-0.911339 0.26858,-3.772205 0.26858,-3.772205 0,0 -1.63559,0.426614 -2.09162,0.705827 -0.44504,0.268937 -0.72425,-0.168307 -0.72425,-0.705827 0,-0.547795 0.18425,-3.27189 0.18425,-3.27189 0,0 -3.01889,0.129331 -3.78,0.529725 -1.53319,0.819212 -0.84578,-0.0737 -0.029,-0.974764 0.81921,-0.911339 1.08779,-1.728071 1.36736,-2.815866 0,0 -4.5365,1.272047 -6.98102,0.455669 -2.45233,-0.819212 -0.86386,-0.921968 0.13181,-0.921968 1.00346,0 2.86086,-0.621851 3.57732,-1.886103 0,0 -2.82649,0.661181 -9.23846,-1.085315 -0.99284,-0.271417 -2.03351,-1.180275 -0.22111,-0.911692 1.81241,0.268937 5.29477,0 6.11398,-0.632126 0,0 -5.445,-0.326693 -10.60264,-2.900197 -0.7246,-0.361063 -1.72027,-1.430433 -0.27141,-0.974764 1.45133,0.455669 3.16878,0.798307 5.9772,0.705827 0,0 -0.81957,-1.179921 -4.08047,-1.812402 0,0 -0.99319,-0.184252 -1.8124,-0.724252 -0.81674,-0.547795 -3.34559,-2.26807 -3.89339,-2.72374 -0.54035,-0.445393 -1.05909,-1.319882 0.11055,-0.772086 1.17992,0.540354 3.96992,1.683425 6.50658,1.859881 0,0 -1.72028,-1.719921 -3.54048,-2.17311 0,0 -0.63212,-0.363543 -1.62815,-1.264606 -0.99283,-0.911339 -3.71692,-3.811535 -4.44118,-4.712598 -0.72425,-0.911339 -0.95633,-1.849252 0.0369,-1.03004 0.99567,0.806103 3.85654,2.025709 5.13142,3.111024 0,0 -1.8124,-2.442047 -2.53913,-3.16878 -0.72461,-0.724606 -1.35673,-1.541338 -1.62532,-2.173464 -0.27956,-0.642756 -1.2724,-2.992323 -1.72807,-4.080472 -0.44539,-1.087796 -0.40075,-1.988859 0.32386,-1.087796 0.72709,0.911339 6.28264,6.988465 10.46587,8.245276 -0.72709,-0.54 -4.1726,-5.437205 -4.7126,-6.161811 -0.54815,-0.724252 -0.9117,-1.356378 -1.09595,-2.083465 -0.17645,-0.724606 -0.71645,-3.622322 -0.99567,-4.802244 -0.26858,-1.180275 0.12118,-1.730905 0.66118,-0.642756 0.53752,1.087796 3.68788,5.716418 4.05142,6.532796 0.36106,0.819212 1.00382,1.356732 1.72807,1.988858 0.72461,0.642756 3.26126,2.452677 3.80126,2.900551 -1.08779,-1.356732 -3.35586,-6.246142 -3.80126,-6.970394 -0.45567,-0.724606 -0.54779,-2.18374 -0.72425,-2.815866 -0.18709,-0.63248 -0.64276,-3.437716 -0.64276,-4.441535 0,-0.995669 0.23422,-1.728071 0.59528,-0.642756 0.36354,1.087795 2.76059,5.808543 3.21626,6.812362 0.45567,0.995669 1.54098,1.812047 2.17346,2.352402 0.63213,0.547795 6.61713,5.43685 6.61713,5.43685 0,0 -5.07366,-7.705275 -5.35287,-8.337401 -0.26859,-0.632126 -0.90071,-1.812402 -0.90071,-2.723741 0,-0.901062 -0.0925,-5.155157 -0.0925,-5.155157 0,-0.302953 0.0237,-0.56374 0.0687,-0.763937 l 0.53468,0 c 0.17646,0.911339 2.29429,6.198307 3.83811,7.649646 1.54382,1.448858 6.88607,6.791102 7.70244,7.518188 0.80894,0.724607 1.72028,0.993189 2.63162,1.356733 0.90106,0.361063 11.41157,4.533661 12.32327,4.897204 0.9007,0.360709 2.44169,1.540984 2.89771,2.444528 0.45567,0.908858 8.69811,13.500354 8.69811,13.500354 0,0 1.90736,3.448346 3.53268,4.620472 1.63594,1.180276 5.4372,4.533661 5.985,4.805079 0.53752,0.268582 0.80858,-0.363544 0.26858,-0.819213 -0.54,-0.445394 -1.63594,-1.717441 -2.08098,-2.080984 -0.45567,-0.363543 -0.26859,-1.448858 0.36106,-1.08815 0.63213,0.363544 1.45134,0.271418 1.45134,0.271418 0,0 1.18027,-0.632126 -0.36354,-0.808583 -1.54099,-0.187087 -2.53666,-0.363543 -3.17693,-0.279567 -0.63213,0.09248 -0.44788,-1.087795 1.08531,-1.988858 0,0 -0.62964,-0.09213 -1.35673,0 -0.72425,0.09248 -2.53665,-0.363189 -0.0815,-0.911339 2.44205,-0.54 5.61083,-1.264252 6.87544,-1.625315 0,0 1.367,-0.271417 2.45515,0 1.08532,0.268583 7.8789,1.448859 7.8789,1.448859 l -7.24961,-2.360197 c 0,0 -6.35633,0.287008 -6.98598,0.194882 -0.64276,-0.08433 -0.35539,-0.463819 0.82736,-0.734882 1.17992,-0.268937 4.70977,-0.993189 4.70977,-0.993189 0,0 1.44885,-0.187087 2.17594,0.176457 0.72461,0.363543 6.16181,2.444527 6.88606,2.80559 0.72461,0.363543 1.44886,0.09461 0.36107,-0.53752 -1.08532,-0.632126 -6.25394,-2.72374 -6.25394,-2.72374 0,0 -1.62531,-0.361063 -2.53665,-0.445393 -0.90107,-0.09461 -3.89339,-0.790158 -4.33878,-0.882284 -0.45567,-0.08433 -0.37382,-0.484724 0.62964,-0.484724 0.99567,0 4.52551,-0.08433 4.52551,-0.08433 0,0 1.35674,-0.184252 2.44489,0.447874 1.08779,0.639921 5.71606,2.72126 5.71606,2.72126 0,0 0.72461,0.271063 1.62531,0.271063 0.9117,0 1.4517,-0.176457 1.4517,-0.176457 0,0 0.62964,-0.279212 -0.45567,-0.724252 l -4.98154,-2.539488 c 0,0 -1.8124,-0.816732 -3.16913,-1.180276 -1.36701,-0.360708 -3.69036,-1.029685 -4.59921,-1.298622 -0.90355,-0.271417 -0.83764,-0.605905 0.51874,-0.605905 1.35673,0 3.89374,0.09248 3.89374,0.09248 0,0 1.367,0.08398 2.36019,0.726733 0.99567,0.63248 5.61366,2.897716 6.525,3.437716 0.91134,0.54815 1.54099,-0.268583 0.53752,-0.995669 -0.99319,-0.724252 -10.01834,-4.934055 -10.82445,-5.471221 -0.81921,-0.55063 0.40855,-0.418818 1.40174,-0.418818 1.00346,0 1.72807,0.184251 2.45515,0.184251 0.72426,0 1.8939,0.271418 2.53666,0.808937 0.63212,0.547796 3.62197,2.631615 3.62197,2.631615 0,0 0.63248,0.360708 1.45169,0.455669 0.81638,0.09213 1.26425,-0.09496 1.26425,-0.09496 0,0 1.08532,-0.0815 -0.0946,-0.724252 -1.16964,-0.63248 -6.03,-4.786653 -10.38968,-5.761417 -0.80858,-0.176457 -1.29083,-0.668976 0.52157,-0.57685 1.81241,0.08433 3.89339,0.445393 3.89339,0.445393 0,0 1.44886,0.45567 2.17346,1.274882 0.72709,0.816733 4.1726,3.529843 4.7126,3.893386 0.5478,0.363543 0.91134,-0.268583 0.36355,-0.995669 -0.54,-0.724607 -5.13957,-5.945669 -9.12792,-7.655315 -0.63212,-0.271063 -1.02189,-0.948189 0.52158,-0.50315 1.53319,0.456024 3.6248,1.08815 3.6248,1.08815 0,0 1.7178,0.911339 2.71347,2.091614 0.99318,1.169646 2.99232,4.349055 3.26125,4.886575 0.27922,0.547795 1.17993,0.455669 0.72426,-0.361063 -0.44504,-0.808583 -4.51524,-8.532283 -8.86429,-11.43248 -0.5478,-0.361063 -1.0141,-1.161851 0.71397,-0.258307 1.72028,0.908858 4.7126,3.084803 4.7126,3.084803 0,0 0.90106,0.537165 1.26461,1.356732 0.36071,0.816378 1.72807,4.172598 1.90452,5.073307 0.18709,0.911693 0.81638,0.724606 0.5478,-0.360709 -0.27921,-1.088149 -1.2724,-3.988346 -1.44886,-4.712598 -0.18709,-0.724606 -0.91134,-1.543819 -1.72807,-2.444882 -0.80858,-0.911338 -3.12413,-5.044606 -3.5798,-5.676732 -0.4454,-0.632126 -0.49252,-1.396063 0.50315,-0.213307 0.99319,1.180275 3.98551,4.254449 4.61763,4.897205 0.63248,0.632125 1.18028,1.532834 1.35674,2.349566 0.18708,0.819213 1.08815,6.161457 1.18027,6.886063 0.0946,0.724252 0.45567,0.819213 0.45567,-0.361063 0,-1.172126 -0.63212,-5.43685 -0.81673,-6.617126 -0.17646,-1.172126 -0.90071,-2.444527 -1.35673,-3.261259 -0.45567,-0.808583 -3.31902,-6.198307 -3.67973,-6.830433 -0.36354,-0.632481 0.13961,-0.419173 0.87166,0.305433 0.7246,0.724252 3.44055,4.349055 4.07019,5.073661 0.64276,0.724252 1.0878,2.091614 1.17992,3.540472 0.095,1.451339 0.45567,8.244922 0.45567,9.061654 0,0.816732 0.63248,1.088149 0.63248,-0.363544 0,-1.448858 -0.0925,-7.70244 -0.17645,-8.974842 -0.0925,-1.264606 -0.45603,-2.715945 -1.09595,-3.89622 -0.63212,-1.179921 -3.47456,-7.00689 -4.10669,-8.363622 -0.63248,-1.356732 0.48189,-0.334488 1.02968,0.392598 0.54815,0.724252 3.98835,5.705788 4.34941,6.161457 0.36355,0.453189 0.81922,1.356732 0.81922,2.080984 0,0.724606 0.17645,9.783779 0.26858,10.695118 0.0921,0.911339 0.91134,1.356732 0.81673,0.09213 -0.0921,-1.272402 -0.54815,-10.239094 -0.54815,-11.327244 0,-1.087795 -0.53716,-2.17311 -0.90071,-2.992323 -0.36354,-0.816732 -2.46295,-6.411968 -2.73189,-7.499763 -0.27921,-1.085315 0.19489,-0.930118 0.91949,0.158031 0.72425,1.087796 3.07666,4.804725 3.6248,5.716063 0.54,0.901063 0.63213,1.989213 0.72426,2.897717 0.0921,0.903543 0.0921,8.514212 0.0921,9.425551 0,0.900708 0.63248,1.625314 0.63248,-0.09496 0,-1.717441 0.54,-7.971024 0.45567,-9.33059 -0.0921,-1.364528 -0.45567,-2.62878 -0.81673,-3.901181 -0.36354,-1.264607 -1.09843,-5.800748 -1.45949,-6.793583 -0.36319,-0.993189 0.0659,-1.180275 0.5191,-0.09248 0.45567,1.085315 2.29712,5.257913 2.5657,6.07748 0.26894,0.808583 0.26894,1.719921 0.36355,2.805236 0.0921,1.08815 -0.63213,10.510866 -0.63213,11.411575 0,0.911692 0.63213,0.911692 0.63213,-0.0815 0,-1.003819 0.1846,-2.816221 0.27921,-3.988347 0.0819,-1.180275 0.53752,-0.724252 0.72461,-0.09213 0.17645,0.632126 0.26858,1.356732 0.63212,0.900709 0.36107,-0.44504 1.26177,-1.717441 1.18028,-2.444528 -0.095,-0.724252 0.99283,0.187087 0.99283,0.187087 0,0 0.54815,0.08433 0.81957,-0.819213 0.26858,-0.908858 0.36071,-1.085315 0.53717,-1.904527 0.18708,-0.816732 -0.36071,-1.625315 -0.80859,-0.724606 -0.45567,0.911692 -1.54098,2.80559 -2.09161,3.261259 -0.53752,0.45567 -1.08532,1.543819 -0.81673,-0.632126 0.27921,-2.17311 -0.17646,-11.51185 -0.63213,-13.500708 -0.45567,-1.999134 0.22394,-1.356378 0.57685,-0.410669 0.46347,1.264252 2.59228,7.752401 2.77902,8.477007 0.1846,0.724252 0.1846,0.724252 0.90885,0.268583 0.71646,-0.455669 7.61315,-4.804724 8.60634,-5.621456 0.99567,-0.808583 1.0878,0.09213 0.45567,0.816732 -0.64027,0.724252 -8.52201,9.970511 -10.42653,13.326732 -1.90453,3.345236 -4.62048,12.322913 -4.98118,13.503188 -0.36355,1.169292 -0.18709,1.717441 -1.63595,2.173111 -1.44886,0.447874 -8.15031,3.076653 -8.15031,3.076653 0,0 -0.99319,0.268937 -1.2724,0.724606 -0.26894,0.45567 -1.44886,2.175945 -1.44886,2.175945 0,0 -0.36355,0.724252 0.45319,0.816378 0.81921,0.09248 5.80039,1.264606 6.8857,1.988858 1.08815,0.724607 3.98835,2.992677 5.07615,3.356221 0.54815,0.184252 0.99318,1.180275 0.90885,2.088779 0,0 1.08815,1.17248 1.81241,2.083819 0.7246,0.901063 0.93011,1.448858 1.10657,2.080984 0.18709,0.632481 0.22394,1.412008 -0.29764,1.997008 -1.05909,1.198346 -2.62134,1.533189 -2.62134,1.533189 0,0 0.27922,-1.74685 -0.27637,-2.537008 -0.51378,-0.732401 -1.09843,-0.808582 -1.49634,-0.592795 -0.54,0.287362 -0.49252,0.687756 -0.22394,1.14059 0.26858,0.456024 0.81673,1.356733 0.81673,1.356733 0,0 0.38977,0.57685 0.0946,0.995669 -0.13146,0.176811 -0.33449,0.334842 -0.41067,0.381968 -0.37949,0.250512 -1.55976,0.324213 -2.27622,-0.131456 -0.56622,-0.361063 -0.86386,-0.761457 -1.10622,-1.08815 -0.23209,-0.334488 -0.90106,-0.01842 -0.90106,-0.01842 -1.50414,0.223937 -3.01075,0.02905 -3.65103,-0.221102 0,0 -0.31606,-0.168662 -0.63212,0.176456 z m -32.00634,35.451853 c 0,0 3.73535,1.97043 4.47838,2.37862 0.75331,0.41102 1.0878,-0.13961 0.48473,-0.67713 -0.61406,-0.54779 -4.34941,-2.85271 -4.34941,-2.85271 l -0.95598,0.6137 c -0.41103,0.19488 0.34228,0.53752 0.34228,0.53752 z m 4.47838,5.16826 c -0.33484,0.4741 -0.74303,0.0634 -0.74303,0.0634 0,0 -4.55208,-1.69937 -5.57397,-2.23937 -1.0141,-0.5478 -0.41103,-0.67677 0.34228,-0.47409 0.74303,0.20551 2.30492,0.33448 3.46677,0.54 1.15122,0.20303 0.6137,-0.4741 0.12898,-0.81922 -0.4741,-0.33449 -2.37862,-1.01161 -3.18721,-1.29082 -0.81673,-0.26859 -1.97043,0.1396 -3.19535,0.34511 -1.22776,0.20304 -1.08815,1.02225 -0.20551,1.55941 0.88228,0.54815 5.77949,2.51859 6.58807,2.78965 0.81921,0.26894 2.17594,0.53752 3.4037,0.61122 1.22492,0.0659 0.94571,-0.61122 1.02189,-1.22492 0.0634,-0.6137 0.0634,-2.03634 0.0634,-2.03634 0,0 -1.76492,1.70185 -2.11004,2.17594 z m 36.22607,-44.653105 c 0,0 0.93011,0.05528 1.69937,0.882284 0.58712,0.62185 0.7533,1.904527 0.7533,1.904527 0.54,-0.408189 0.95599,-0.992834 0.67961,-1.701496 -0.72709,-1.783346 -3.19819,-3.938385 -3.19819,-3.938385 l 0.0659,2.85307 z m -1.6278,4.28315 c 0.3926,0.287362 0.88512,0.205512 0.67961,-0.279213 -0.20551,-0.474094 -0.79831,-1.551614 -0.79831,-1.551614 0,0 -0.20551,-0.205512 -0.48472,-0.205512 -0.26859,0 -1.09559,-0.0078 -1.09559,-0.0078 0,0 0.94818,1.496339 1.69901,2.044134 z m -0.20303,-4.349055 c 0,0 -0.0659,-0.54815 -0.95882,-0.345118 -0.88228,0.205511 -1.62531,0.6137 -1.62531,0.6137 0,0 -0.4741,0.271418 -0.20552,0.745512 0.27142,0.482244 0.67961,0.611221 0.88512,0.203032 0.20303,-0.408544 0.88264,-0.816733 1.02225,-0.53752 0.12897,0.268583 0.81637,0.742677 1.01161,0.408189 0.21331,-0.345118 0.0737,-0.819213 -0.12933,-1.087795 z m -1.80425,-3.911811 c 0,0 -0.20303,-0.03685 -0.39012,0.650551 -0.23173,0.816732 0.27142,2.025709 1.55161,2.051929 1.01445,0.02905 1.49634,-0.705827 1.57288,-1.290472 0.0737,-0.566575 -0.13961,-1.235551 -0.53221,-1.151221 -0.69555,0.128977 -2.20216,-0.260787 -2.20216,-0.260787 z m -2.95299,-4.043622 c 0,0 -0.47445,-0.408543 -0.67961,-0.06342 -0.20551,0.334842 -0.47445,1.496338 0.6137,1.830826 1.0878,0.342638 2.0335,0.611221 2.0335,0.611221 0,0 1.02473,0.06591 0.13961,-0.611221 -0.57402,-0.437244 -1.69902,-1.422283 -2.1072,-1.767401 z m -7.67622,1.56189 c -0.61406,-0.268583 -1.16185,-0.176457 -0.75367,0.268937 0.88264,0.958819 0.75367,1.570039 0.75367,1.570039 0,0 0,0.400394 0.9457,0.400394 0.94819,0 2.03599,-0.06591 2.91863,-0.06591 0.88263,0 0.88263,-0.334488 0.1396,-0.61122 -0.74267,-0.271418 -4.00393,-1.562244 -4.00393,-1.562244 z m 2.80523,4.080472 c -0.63212,-0.205157 -1.16964,-0.04713 -0.71645,0.353268 0.68775,0.592441 0.91169,1.467283 0.91169,1.467283 0,0 0.0368,0.408189 0.98504,0.305433 0.94819,-0.09213 2.02571,-0.276732 2.90019,-0.371338 0.88264,-0.09213 0.84579,-0.426969 0.0741,-0.621851 -0.77209,-0.194882 -4.15453,-1.132795 -4.15453,-1.132795 z M 362.0087,62.94685 c -0.58749,-0.316063 -1.14343,-0.252638 -0.76394,0.221457 0.6796,0.837638 0.64275,1.60937 0.64275,1.60937 0,0 -0.0291,0.397913 0.92729,0.463819 0.94819,0.06591 2.03634,0.06591 2.91862,0.121181 0.88264,0.06591 0.90106,-0.279213 0.17646,-0.595276 -0.73241,-0.324212 -3.90118,-1.820551 -3.90118,-1.820551 z m -5.90351,5.007756 c -0.60307,-0.287008 -1.12216,-0.223937 -0.75083,0.250512 0.5928,0.763937 0.70619,1.580315 0.70619,1.580315 0,0 -0.0106,0.408543 0.93755,0.437244 0.94855,0.02657 2.03634,-0.01028 2.91898,0.0081 0.89043,0.02906 0.89043,-0.316063 0.15803,-0.603425 -0.74303,-0.297638 -3.96992,-1.672795 -3.96992,-1.672795 z m 3.11386,3.709134 c -0.65091,-0.158032 -1.15122,0.0078 -0.68776,0.408189 0.74304,0.63248 1.01445,1.404212 1.01445,1.404212 0,0 0.0631,0.397914 1.00347,0.231733 0.93791,-0.168662 1.99665,-0.426615 2.86086,-0.584646 0.87449,-0.158032 0.81922,-0.49252 0.0291,-0.624331 -0.77988,-0.139606 -4.22008,-0.835157 -4.22008,-0.835157 z m 5.01803,1.988858 c -0.51874,-0.131811 -0.90071,-0.01842 -0.54779,0.316063 0.6137,0.57437 0.80858,1.122165 0.80858,1.122165 0,0 0.0659,0.326693 0.80894,0.187087 0.7533,-0.128976 1.59874,-0.345118 2.29429,-0.463465 0.68775,-0.131811 0.64275,-0.392598 0.0184,-0.503149 -0.63212,-0.110906 -3.38244,-0.658701 -3.38244,-0.658701 z m -7.08094,-8.20559 c -0.50032,-0.271418 -0.96662,-0.223937 -0.65055,0.184252 0.52972,0.687755 0.52972,1.375157 0.52972,1.375157 0,0 -0.0266,0.345118 0.78236,0.400394 0.80575,0.06591 1.72807,0.0737 2.47854,0.139606 0.75367,0.05528 0.77209,-0.231732 0.15804,-0.510945 -0.6215,-0.279212 -3.29811,-1.588464 -3.29811,-1.588464 z m -4.39654,-3.411496 c -0.6215,-0.250158 -1.16964,-0.128977 -0.74268,0.297637 0.66898,0.658701 0.80859,1.533189 0.80859,1.533189 0,0 0.0184,0.408189 0.96696,0.371339 0.95599,-0.03685 2.03634,-0.139606 2.91863,-0.176457 0.88263,-0.03685 0.872,-0.371338 0.11055,-0.613701 -0.75331,-0.250157 -4.06205,-1.412007 -4.06205,-1.412007 z m -2.81338,2.881771 c -0.53186,-0.197362 -0.97725,-0.09461 -0.61371,0.276732 0.70619,0.716457 0.72461,1.283032 0.72461,1.283032 0,0 0.0262,0.345118 0.8348,0.289488 0.80894,-0.06555 1.72028,-0.186732 2.47359,-0.242362 0.75082,-0.05528 0.7246,-0.344764 0.0737,-0.52937 -0.65055,-0.187087 -3.49299,-1.07752 -3.49299,-1.07752 z m -0.4291,18.007795 c -0.61405,0.260787 -0.90106,0.893268 -0.31642,0.735236 1.78618,-0.482244 1.64658,0.52937 1.64658,0.52937 0,0 0.29764,0.287008 0.95634,-0.408189 0.65055,-0.687756 1.34858,-1.525393 1.9598,-2.165669 0.60591,-0.639921 0.36354,-0.874488 -0.35291,-0.521575 -0.70618,0.353268 -3.89339,1.830827 -3.89339,1.830827 z m 11.51433,-6.298228 c -0.6587,0.110551 -1.04846,0.500315 -0.46382,0.639921 1.08815,0.260787 1.49634,0.874488 1.49634,0.874488 0,0 0.29764,-0.139606 1.08532,-0.679606 0.79015,-0.52937 0.36354,-0.316063 1.08779,-0.816378 0.73524,-0.492874 0.50315,-0.874842 -0.26858,-0.679606 -0.77173,0.194882 -2.93705,0.661181 -2.93705,0.661181 z m -3.85653,4.096063 c -0.62185,0.252992 -0.93792,0.698031 -0.33485,0.724606 1.125,0.04713 1.64658,0.558425 1.64658,0.558425 0,0 0.25795,-0.194882 0.92728,-0.874488 0.66118,-0.677126 0.28984,-0.379488 0.90354,-1.011614 0.6215,-0.63248 0.31359,-0.956339 -0.40039,-0.614055 -0.71646,0.345118 -2.74216,1.217126 -2.74216,1.217126 z m -0.13961,-5.239488 c -0.52972,0.02622 -0.89043,0.287008 -0.4376,0.463819 0.77209,0.297637 1.10658,0.845433 1.10658,0.845433 0,0 0.15023,0.287007 0.827,-0.05528 0.67961,-0.345118 1.09595,-0.57685 1.72807,-0.901063 0.63248,-0.316063 0.5113,-0.558425 -0.12118,-0.484724 -0.62964,0.0737 -3.10287,0.131811 -3.10287,0.131811 z m -1.97043,-1.348583 c -0.20303,0.948189 0.47409,0.408189 0.47409,0.408189 0,0 0.6137,-0.613701 1.1537,-1.290827 0.5478,-0.679606 0.0737,-0.956338 -0.13181,-1.290826 -0.20268,-0.345119 -0.34228,-0.55063 -0.48189,-0.205512 0,0 -0.80894,1.422637 -1.01409,2.378976 z m 13.08401,1.941378 0.26114,-0.287362 c 0.28949,-0.316063 0.17646,-0.49252 -0.24236,-0.408189 l -0.7324,0.158031 c -0.40854,0.08433 -0.54,0.371339 -0.27142,0.632126 0.26079,0.258307 0.70866,0.221457 0.98504,-0.09461 z m -5.40779,3.698504 c 0.12118,-0.408544 -0.23989,-0.434764 -0.54815,-0.137126 l -1.2724,1.235551 c -0.30792,0.287008 -0.21331,0.57437 0.21366,0.632126 l 0.1024,0.0082 c 0.41917,0.05528 0.85358,-0.232087 0.97476,-0.640276 l 0.52973,-1.098425 z m -9.59953,20.557556 3.07701,-1.970431 -1.08815,-1.367008 c 0,0 -0.88229,0.650552 -1.0878,1.061575 -0.20267,0.408189 -0.53752,0.471614 -0.81673,-0.205512 -0.26858,-0.679606 -2.03634,-4.488661 -2.03634,-4.488661 l -0.6137,0.547795 c 0,0 -0.53716,0 -0.53716,-0.474094 0,-0.474095 -0.20552,-1.224921 -0.20552,-1.224921 l -0.54815,-0.205512 0.26079,5.668937 3.59575,2.657832 z m -0.54,-9.56232 c -0.21331,-0.363544 -0.34228,-0.326693 -0.27638,0.09213 l 0.45284,3.169134 c 0.0581,0.418818 0.34511,0.510944 0.64275,0.205511 l 0.23209,-0.242362 c 0.28701,-0.305433 0.35291,-0.856063 0.12898,-1.227401 l -1.18028,-1.997008 z m 2.57634,0.890433 c -0.36355,-0.221103 -0.5478,-0.0737 -0.41103,0.326693 l 0.59563,1.7387 c 0.13146,0.397559 0.4004,0.415985 0.57685,0.03685 l 0.28701,-0.58748 c 0.17646,-0.379489 0.0369,-0.872008 -0.32386,-1.085315 l -0.7246,-0.429449 z m 1.22492,-4.227874 c 0.41882,0.01028 0.73488,-0.324213 0.69803,-0.743032 l -0.0656,-0.705826 c -0.0372,-0.426969 -0.37949,-0.613701 -0.75366,-0.418819 l -2.91614,1.533189 c -0.37134,0.194882 -0.63213,0.698031 -0.56622,1.11685 l 0.0446,0.316063 c 0.0659,0.416339 0.34512,0.500315 0.63248,0.194882 l 0.72425,-0.771732 c 0.28985,-0.316063 0.86422,-0.558426 1.29331,-0.54815 l 0.90886,0.02657 z m -0.79795,0.837638 0.38197,1.69122 c 0.0921,0.418819 0.33448,0.790158 0.53716,0.827008 0.20551,0.03685 0.36354,-0.279213 0.35291,-0.705827 l -0.0262,-0.977244 c -0.0106,-0.416338 -0.25299,-0.779882 -0.52937,-0.798307 -0.27921,-0.01842 -0.5113,-0.03685 -0.5113,-0.03685 m -10.48429,9.654448 c -0.0184,0.426969 0.17646,0.808937 0.44788,0.845788 0.2583,0.0287 0.45319,-0.279213 0.42697,-0.706181 l -0.0556,-1.040315 c -0.0184,-0.426969 -0.18674,-1.032874 -0.37134,-1.348937 -0.19737,-0.313583 -0.3554,-0.231733 -0.37382,0.187086 l -0.0741,2.062559 z m 0.9854,-9.636023 1.53319,-1.459488 c 0.30826,-0.287008 0.50315,-0.742677 0.41881,-1.003465 -0.0737,-0.260787 -0.41881,-0.279212 -0.76145,-0.03685 l -1.79398,1.227401 c -0.35291,0.239882 -0.48472,0.743032 -0.29764,1.11437 0.18709,0.381969 0.59528,0.44504 0.90107,0.158032 z m 0.54779,1.720275 c -0.23173,0.352914 -0.26858,0.945709 -0.0815,1.327678 l 0.12897,0.250157 c 0.18425,0.381968 0.51095,0.705827 0.71646,0.724252 0.20303,0.01842 0.38976,-0.305433 0.40854,-0.732047 l 0.12898,-2.808425 c 0.0184,-0.426615 -0.15803,-0.48189 -0.38977,-0.128977 l -0.91169,1.367362 z m 9.14634,-6.830787 c 0.19488,-0.374173 0.0553,-0.503149 -0.30827,-0.271417 l -1.61752,1.014449 c -0.35291,0.221102 -0.40819,0.658346 -0.11834,0.966614 l 0.23173,0.239882 c 0.28701,0.307913 0.6874,0.252637 0.88228,-0.129331 l 0.93012,-1.820197 z m -6.45945,6.327638 c 0.12118,0.400393 0.46382,0.492519 0.77209,0.205512 l 0.31606,-0.297993 c 0.30543,-0.289488 0.52937,-0.734881 0.49252,-0.977244 -0.0393,-0.239527 -0.41102,-0.360708 -0.82701,-0.268582 l -0.32669,0.0737 c -0.41882,0.09496 -0.6587,0.492519 -0.54,0.901063 l 0.11303,0.363543 z m 3.88311,-28.697598 c 1.2274,0.139606 7.7524,1.367008 8.97732,1.495984 1.21713,0.139607 0.67961,-0.808582 0.67961,-0.808582 0,0 0.33484,-0.408189 -0.34476,-0.613701 -0.67713,-0.203032 -4.618,-0.956339 -5.90882,-1.085315 -1.29331,-0.139606 -2.72374,-0.279213 -2.72374,-0.279213 l -3.73536,0.687402 c 0,0 1.83863,0.474094 3.05575,0.603425 z m -35.54397,36.429094 6.80137,-5.297599 c 0.33485,-0.257952 0.28737,-0.352913 -0.11055,-0.194882 l -5.8376,2.297126 c -0.38976,0.147402 -0.73204,0.621496 -0.7533,1.048465 l -0.0999,1.943858 0,0.203032 z m 5.17606,-2.434252 c -0.30827,0.297638 -0.24236,0.695551 0.12933,0.901063 l 0.54,0.287008 c 0.37134,0.205511 0.92728,0.121181 1.2352,-0.165827 l 4.86815,-4.712598 c 0.30826,-0.287363 0.23456,-0.408544 -0.16583,-0.258308 l -3.44835,1.290827 c -0.40039,0.147402 -0.96661,0.510945 -1.2724,0.808583 l -1.8861,1.849252 z m 4.54429,0.603425 2.3602,0.05528 c 0.41882,0 0.99319,-0.250158 1.2724,-0.566221 0,0 3.91181,-4.515236 5.26854,-5.400354 0,0 -5.09208,1.359212 -8.90114,5.911299 z m 8.28992,0 c 0.5478,-1.699016 3.74315,-6.996614 3.74315,-6.996614 -3.87496,2.581653 -5.985,6.003425 -5.985,6.003425 -0.2211,0.361063 -0.0631,0.695551 0.35291,0.750827 l 1.88894,0.242362 z m 3.06638,0.205512 c 0.0631,-1.433268 1.8939,-6.459449 1.8939,-6.459449 -2.17311,2.313071 -3.22441,5.901024 -3.22441,5.901024 -0.10276,0.408189 0.38197,0.455669 0.80078,0.503149 l 0.52973,0.05528 z m -9.26752,-6.588425 c 0.41882,-0.03933 0.90354,-0.392599 1.06972,-0.782362 l 0.48473,-1.161496 c 0.16583,-0.390119 -0.0106,-0.555945 -0.3926,-0.379489 l -4.93405,2.386772 c -0.37914,0.186732 -0.35292,0.307913 0.0737,0.271063 l 3.6985,-0.334488 z m 3.83031,-0.790158 c -0.29763,0.297638 -0.20551,0.437244 0.19489,0.305433 l 5.86382,-1.662165 c 0.40039,-0.131811 0.79051,-0.102756 0.7983,-0.52937 l -0.0184,-2.407677 c 0.0106,-0.418819 -0.28737,-0.603425 -0.66933,-0.418819 l -1.4117,0.724252 c -0.37949,0.194882 -0.93012,0.605905 -1.21712,0.911338 l -3.54048,3.077008 z m 8.87493,-5.474055 c -0.36355,0.231733 -0.65091,0.761457 -0.64028,1.180276 l 0.0369,1.319527 c 0.008,0.418819 0.25016,0.519095 0.54815,0.213307 l 3.07417,-3.234685 c 0.29764,-0.305433 0.58713,-0.901062 0.63213,-1.327677 l 0.0762,-0.57685 c 0.0556,-0.418819 0.33484,-1.022244 0.62185,-1.338307 l 0.86386,-0.956339 c 0.28736,-0.316063 0.50315,-0.771732 0.48224,-1.014094 -0.0184,-0.250158 -0.34263,-0.297638 -0.7324,-0.128976 l -0.83764,0.389763 c -0.38976,0.166181 -0.7324,0.603425 -0.77173,0.956339 -0.0368,0.363543 -0.33449,0.874488 -0.6587,1.143071 l -0.79016,0.642756 c -0.32421,0.279567 -0.50067,0.750826 -0.39011,1.077519 0.1109,0.316063 -0.084,0.761457 -0.44504,0.985394 l -1.06937,0.668976 z m 9.01417,-10.326259 c -0.41882,0 -0.88228,0.326693 -1.03252,0.727086 l -0.49252,1.338307 c -0.14776,0.397559 -0.0921,0.797953 0.11339,0.890079 0.20267,0.09496 0.56622,-0.110551 0.81637,-0.463465 l 0.54,-0.771732 c 0.23988,-0.342638 0.6137,-0.614055 0.81674,-0.59563 0.20551,0.01878 0.26078,0.363544 0.13181,0.763937 l -0.80894,2.415827 c -0.13146,0.400394 -0.56906,0.827008 -0.97724,0.956339 l -1.11437,0.352913 c -0.4004,0.131457 -0.69804,0.54 -0.66119,0.911339 0.0397,0.371338 -0.6874,1.032519 -0.96413,1.301456 -0.27921,0.260788 -0.18709,0.595276 0.21331,0.742677 l 0.90886,0 c 0.40039,0.150237 0.99602,0.05528 1.33051,-0.213307 l 3.47456,-2.779015 c 0.33449,-0.260788 0.60591,-0.706182 0.60591,-0.985394 0,-0.279213 -0.25299,-0.279213 -0.55843,0.01842 l -0.0369,0.02905 c -0.30826,0.287008 -0.75366,0.510945 -1.00381,0.49252 -0.24237,-0.01842 -0.3267,-0.363543 -0.19489,-0.761102 l 0.46347,-1.396418 c 0.1396,-0.397559 0.24236,-1.077165 0.24236,-1.504134 l 0,-0.698031 c 0,-0.426614 -0.34512,-0.771732 -0.77173,-0.771732 l -1.04067,0 z M 304.5398,30.72756 c -0.27921,-0.308268 -0.36354,-0.250512 -0.17646,0.128976 l 3.33496,6.904488 c 0.18674,0.381969 0.64276,0.856063 1.0141,1.061575 0,0 6.99661,3.772204 12.63897,4.588937 0,0 -4.88905,-3.466772 -8.15031,-4.683898 -3.26374,-1.224921 -3.36402,-1.635945 -3.36402,-1.635945 -0.0946,-0.408189 -0.41067,-1.003464 -0.6874,-1.319527 L 304.5398,30.72756 z m -3.88559,7.201771 c 0.13181,0.400748 0.51094,0.948543 0.83764,1.217126 l 1.72807,1.404213 c 0.33449,0.268582 0.6587,0.268582 0.73488,0.0078 0.0737,-0.260787 0.45319,-0.342284 0.85358,-0.184252 l 8.89335,4.106693 c 0.48472,0.194882 0.52937,-0.334488 0.11303,-0.650551 0,0 -3.33744,-2.592284 -4.28563,-3.27189 -0.94854,-0.677126 -2.44488,-1.467284 -2.44488,-1.467284 -0.37914,-0.205511 -0.97441,-0.558425 -1.32768,-0.790157 l -5.77949,-3.83811 c -0.35291,-0.232087 -0.52937,-0.102756 -0.40039,0.305433 l 1.07752,3.160984 z m 19.9885,8.724685 c 0.3926,0.168661 0.36355,0.316417 -0.0553,0.345118 l -4.51489,0.305787 c -0.41881,0.0287 -0.43724,0.158032 -0.029,0.279213 l 3.69071,1.172126 c 0.40819,0.128976 0.39756,0.324213 -0.0106,0.437244 l -2.72126,0.743032 c -0.41103,0.110551 -0.55843,0.492519 -0.13181,0.547795 l 4.33098,0.305433 c 0.41882,0.05563 0.43725,0.213661 0.0369,0.363543 l -3.6698,0.845788 c -0.40039,0.139606 -0.14988,0.650551 0.26894,0.650551 l 9.81248,-0.121181 c 0.42944,0 0.45567,-0.158032 0.0765,-0.345118 l -5.74547,-2.786811 c -0.37913,-0.184607 -0.35291,-0.324213 0.0765,-0.305788 l 3.76158,0.194882 c 0.41882,0.02658 0.48472,-0.168307 0.15024,-0.418819 l -5.2976,-3.893386 c 1.84145,0.613701 3.78283,0.658701 3.78283,0.658701 0.42697,0.01843 0.48225,-0.166181 0.13961,-0.408543 l -1.24583,-0.834803 c -0.34512,-0.234567 -0.98539,-0.411024 -1.40421,-0.392599 l -6.5041,0.168662 c -0.41881,0.01843 -0.66897,0.521575 -0.26858,0.679606 l 5.47122,1.809567 z m -19.54063,-2.62878 c 0.84544,0.158032 1.41201,0.297638 1.8202,0.168662 l 0.16583,-0.05811 c 0.40039,-0.139607 1.06157,-0.147402 1.47011,-0.03685 l 8.30835,3.039803 c 0.74268,0.353268 1.03004,-0.308267 0.66898,-0.52937 l -7.90016,-4.702322 c -0.36354,-0.213308 -0.91134,-0.194882 -1.20898,0.045 -0.29515,0.242362 -0.83515,0.260787 -1.1987,0.04748 l -7.04374,-4.238504 c -0.36106,-0.213661 -0.99319,-1.261772 -1.2724,-0.808937 l 6.19051,7.073149 z m -6.82299,-0.985393 c 0.15803,0.390118 0.61406,0.856417 0.99602,1.032874 l 6.95941,3.168779 c 0.38197,0.176457 1.0513,0.342638 1.46729,0.371693 l 0.37169,0.02622 c 0.41882,0.02905 1.0878,0.176456 1.48819,0.326693 l 3.79063,1.430433 c 0.39012,0.149881 1.06972,0.287007 1.48854,0.307913 l 2.87929,0.129331 c 0.41882,0.01843 0.45567,-0.110552 0.0737,-0.287363 l -9.1435,-4.248779 c -0.38197,-0.176457 -0.81673,0 -0.97476,0.400394 l -0.0553,0.168307 c -3.27189,-1.161496 -9.74161,-4.981181 -9.74161,-4.981181 -0.36071,-0.213307 -0.52937,-0.07654 -0.36071,0.316063 l 0.7611,1.838622 z m 2.66882,5.679567 c 0.30543,0.295157 0.89008,0.592795 1.3089,0.650551 l 5.40815,0.798307 c 0.41882,0.05528 0.99602,0.352913 1.2724,0.650551 0.27921,0.305787 0.85606,0.57685 1.28303,0.613701 l 6.61713,0.614055 c 0.42696,0.03685 0.44539,-0.05811 0.0475,-0.216142 l -8.89335,-3.511417 c -0.39224,-0.158032 -1.05095,-0.371339 -1.45913,-0.474095 l -8.02949,-2.062559 c -0.40819,-0.102755 -0.49252,0.04465 -0.19488,0.342284 l 2.63976,2.594764 z m 20.53665,7.265196 c -4.48901,0.271418 -9.09886,-1.179921 -9.09886,-1.179921 -0.41633,-0.05563 -0.41633,-0.139606 0.0106,-0.184606 l 6.14304,-0.595276 c 0.41598,-0.04748 0.42661,-0.128976 0.008,-0.205512 l -9.08823,-1.514763 c -0.41882,-0.06307 -0.98504,-0.334489 -1.26425,-0.603071 -0.27921,-0.260788 -0.85358,-0.510945 -1.28303,-0.566575 l -5.05524,-0.624331 c -0.42661,-0.05528 -0.45567,0.06591 -0.0815,0.260788 l 2.71311,1.393582 c 0.37169,0.194882 1.02224,0.429449 1.43043,0.529725 l 4.47839,1.014094 c 0.41102,0.09213 0.41102,0.168662 -0.0184,0.168662 l -5.05524,-0.05811 c -0.827,-0.0078 -1.3011,0.271418 -0.49251,0.4663 l 8.02133,1.588464 c 0.40819,0.102756 0.41599,0.297638 0.0184,0.437244 l -3.12413,0.52937 c -1.80213,0.632481 -1.28056,0.658701 0.33448,0.761457 l 7.16528,0.445039 c 0.41882,0.02905 0.42909,0.131811 0.0184,0.234567 l -4.57051,0.397914 c -0.41882,0.102755 -0.93012,0.911338 0.65055,0.745511 l 8.61414,-0.447874 c 0.41882,-0.01843 0.71645,-0.0737 0.84543,-0.342637 0.12933,-0.260788 -0.10276,-0.521575 -0.52157,-0.587481 l -6.83859,-1.05874 c -0.41882,-0.06343 -0.41882,-0.147756 0.008,-0.176457 l 6.08776,-0.03685 c 0.42661,-0.03721 0.40819,-0.566575 -0.008,-0.63248 m 2.33149,2.492008 c 3.73536,0.408543 8.72717,-1.208977 8.72717,-1.208977 0.39012,-0.158031 0.43476,-0.437244 0.10028,-0.62185 -0.33449,-0.187087 -0.29516,-0.50315 0.0762,-0.687402 l 1.55161,-0.800787 c 0.37949,-0.194882 0.35291,-0.434764 -0.0659,-0.53752 l -6.25358,-1.590945 c -0.40819,-0.100275 -1.06937,-0.08185 -1.47791,0.03933 l -2.52886,0.787677 c 1.76776,0.885118 4.74945,0.605906 4.74945,0.605906 0.41917,-0.06591 0.44787,0.02658 0.0659,0.213307 l -3.0476,1.496338 c 2.31271,0.334489 4.47803,-0.121181 4.47803,-0.121181 0.41882,-0.08433 1.15405,-0.110551 0.75366,0.04748 0,0 -3.46677,2.18374 -7.12843,2.378622 z m 14.52508,-1.56189 c 0,0 -1.97008,0.04713 -2.58413,0.04713 -0.6137,0 -1.06689,0.232086 -1.06689,0.232086 0,0 -3.19784,1.422284 -4.08047,1.830827 -0.88229,0.408189 -1.30111,0.761103 -3.87496,1.02189 -3.46642,0.334488 -10.66855,0.205512 -10.66855,0.205512 -0.0737,1.085315 -0.75366,2.442047 -0.75366,2.442047 1.02225,-0.139606 3.19819,-0.342638 4.08047,-0.408543 0.88264,-0.06555 1.08815,-0.342284 1.29083,-0.547796 0.20551,-0.194882 1.35673,-0.54 1.35673,-0.54 0,0 2.92926,-0.06307 7.88953,-0.342283 4.96311,-0.268937 8.69847,-3.532677 8.69847,-3.532677 0.37133,-0.287008 -0.28737,-0.408189 -0.28737,-0.408189 z m 7.37859,7.704921 c -1.97823,-0.149882 -4.37811,0.453189 -4.37811,0.453189 2.04696,-1.224921 2.12066,-2.294291 2.12066,-2.294291 0.10276,-0.381969 -0.41881,-0.463819 -1.17212,-0.558426 -0.75083,-0.09248 -4.60736,0.558426 -7.87925,2.10189 -0.52937,0.250512 -1.42229,0.816732 -2.77902,0.750827 -1.36736,-0.06307 -9.38586,-1.224921 -9.38586,-1.224921 14.0694,0.06343 18.96661,-4.006772 18.96661,-4.006772 0,0 0.60342,-0.632126 -3.80906,-0.279212 -0.6796,0.05811 -1.35673,0.411023 -1.35673,0.411023 -4.28598,2.860866 -6.6646,2.581654 -9.78626,2.378622 -3.13228,-0.205512 -8.28992,1.496339 -8.28992,1.496339 l 0.20551,2.249645 c 2.64721,-1.024724 8.21339,-0.345118 8.21339,-0.345118 -3.26126,1.151221 -5.76886,1.022244 -5.76886,1.022244 l 0.20268,2.175945 c 3.94086,0.06307 7.94515,-1.635945 7.94515,-1.635945 -1.21712,0.408189 -3.18755,-0.334488 -3.18755,-0.334488 1.56224,-0.54815 5.15799,-0.882638 7.53661,-1.16185 2.38146,-0.271418 3.81189,-0.948189 5.24232,-1.627796 1.42229,-0.677126 2.30492,-0.139606 2.30492,-0.139606 -0.6796,0.613701 -2.30492,1.767402 -3.12165,2.444528 -0.81921,0.687401 -1.49634,0.753307 -1.49634,0.753307 0,0 -2.44453,0.139606 -4.41496,0 -1.97823,-0.139607 -1.77555,0.948189 -1.77555,0.948189 -3.32717,1.16185 -7.9448,1.970433 -7.9448,1.970433 l 1.01161,2.107559 c 2.45516,-0.137126 9.45142,-1.430433 9.45142,-1.430433 -5.16579,2.044133 -6.86729,2.315551 -6.86729,2.315551 l 1.02189,1.970433 c 3.87497,-1.422638 8.56949,-1.970433 8.56949,-1.970433 -2.58449,1.635945 -5.84539,2.581653 -5.84539,2.581653 l 1.01126,2.036339 7.81583,-3.596102 c -2.03351,0.474448 -4.14355,0.268937 -4.14355,0.268937 4.2176,-0.816733 6.18803,-2.647559 6.18803,-2.647559 -3.33496,0.61122 -8.63256,0.334488 -8.63256,0.334488 l 6.72768,-2.035984 c -3.94051,0.205157 -9.92586,-0.614056 -9.92586,-0.614056 3.81189,0.139607 8.69846,-1.495984 10.8085,-2.378622 2.11004,-0.882637 3.40087,-1.011614 3.40087,-1.011614 -0.5478,1.967953 -2.78717,3.659173 -2.78717,3.659173 4.48087,0 6.58843,-4.617992 6.58843,-4.617992 0.16866,-0.408189 -0.585,-0.519094 -0.585,-0.519094 z m -4.22788,7.070315 c 3.46677,-0.474095 5.985,-2.581299 6.93354,-3.529843 0.94571,-0.958819 0.34229,-0.819212 -0.74551,-0.753307 -1.08531,0.0737 -1.96795,0.0737 -2.37897,0.677126 -0.40819,0.613701 -2.80524,2.492008 -4.28315,3.466417 -0.81674,0.54815 0.47409,0.139607 0.47409,0.139607 z m 3.52205,1.003819 c -0.95634,0.743031 -0.6137,0.911338 -0.6137,0.911338 3.26126,-0.816378 5.10236,-2.823661 5.10236,-2.823661 1.97858,-0.374173 0.88264,1.085315 -0.34512,2.441693 -0.63992,0.716811 -1.08531,1.227756 -1.08531,1.227756 3.46429,-1.04067 4.65484,-2.481378 5.28697,-3.474567 0.79051,-1.264607 0.22393,-0.940394 -0.66119,-0.874488 -0.88228,0.06555 -3.93803,0 -4.89685,-0.06591 -0.94854,-0.07406 -1.08531,0.679606 -1.08531,0.679606 -0.41102,0.537166 -0.75366,1.224922 -1.70185,1.978229 z m -11.00339,4.815354 0.67961,1.970433 c 0,0 4.27287,-1.701496 7.47071,-3.532323 0,0 -0.88229,1.625315 -3.32681,2.918622 l 0.40819,1.904528 c 0,0 3.26126,-0.742678 5.9772,-2.304922 0,0 -0.94854,1.830827 -5.09457,3.392717 l 0,0.956338 c 0,0 3.46642,-0.687401 6.72768,-3.400866 l -0.95598,-0.345118 c 0,0 1.08779,-0.474094 3.87496,-3.260905 0,0 -4.28351,2.110039 -7.75028,2.452323 0,0 3.19819,-1.161851 4.89721,-3.26126 0,0 -6.25359,0.679606 -7.34174,0.743031 0,0 2.44453,-0.882638 4.14638,-2.173464 0,0 -1.83082,0.268937 -3.53268,0.06591 0,0 -0.54779,0.956339 -1.63559,1.57004 -1.08815,0.603425 -4.54429,2.099409 -4.54429,2.099409 m 13.11343,12.676181 c 0.15803,-0.668977 -0.18709,-1.040669 -0.84544,-0.845788 -0.37169,-0.0737 -0.35326,4.199174 -0.27956,6.757087 0.1846,0 0.46382,0.09992 0.56657,-0.08433 0.37134,-1.981063 0.0921,-3.856535 0.55843,-5.826968 z m 1.50413,4.981181 c 0.10276,-0.474095 0.095,-1.040315 -0.37134,-1.411654 -0.10275,-0.09496 -0.37948,0 -0.37948,0 -0.27922,1.59626 -0.27922,3.092599 -0.37382,4.691339 0.0656,0.353267 0.54,0.09248 0.55842,0 0.19488,-0.845433 0.33449,-2.154685 0.56622,-3.279685 z m 12.68646,5.584969 c -8.69032,1.83047 -21.32929,6.95161 -21.32929,6.95161 0,0 7.25988,5.33445 8.25307,5.87161 1.00346,0.54815 0.95598,1.40422 0.95598,2.31555 0,0.90107 -0.16582,2.34993 -0.16582,2.34993 0,0 0,0.18708 1.54381,-0.72461 1.53319,-0.90071 10.26815,-5.60303 11.30882,-6.95941 0.91134,-1.18028 0.97477,0 0.52937,0.63992 -0.45567,0.63213 -0.91134,1.45169 -0.91134,1.45169 0,0 7.52847,-2.44488 10.17603,-5.52153 0.54,-0.64028 1.05094,-0.45567 0.68775,0.18709 -0.36106,0.62964 -0.37948,0.55559 -0.37948,0.55559 0,0 4.68354,-3.02918 8.81681,-3.38209 3.37464,-0.28736 7.61315,-0.53752 9.6098,-1.35673 0,0 0.80858,-0.36107 0.44504,0.36354 -0.35291,0.72425 -0.53717,0.72425 -0.53717,0.72425 0,0 4.42276,-0.0659 7.62874,-1.84925 0.81922,-0.45567 1.45949,-1.83083 0.82701,-2.462956 -0.63992,-0.640276 -8.73496,-5.286969 -8.73496,-5.286969 0,0 -0.0553,-0.168661 -1.21713,0 -2.73188,0.371339 -8.44795,1.60689 -8.44795,1.60689 0,0 0.0921,0.993189 -0.0843,1.448858 -0.1846,0.45567 -0.7246,1.720276 -1.99701,1.451339 L 373.531,98.714769 c 0,0 0,0.724606 -0.72425,1.088149 l -1.90488,-1.180275 -4.7126,0.455669 c 0,0 -0.18425,1.717798 -0.26858,2.442048 -0.095,0.72709 -0.37134,1.72028 -1.54382,1.27489 -1.17992,-0.45567 -0.91134,-0.36319 -0.91134,-0.36319 0,0 -0.36071,2.08098 -1.18028,1.35637 -0.80858,-0.72425 -0.90071,-0.81637 -0.90071,-0.81637 0,0 -0.7246,1.54098 -1.2724,0.72425 -0.54,-0.81921 -2.75031,-2.99232 -2.75031,-2.99232 z m 3.07417,-1.088158 c 0.40039,0.547798 1.28303,1.841458 1.62815,2.315558 0.34228,0.47409 0.74268,0.67712 0.88228,-0.20552 0.13961,-0.88228 0.10276,-1.15122 -0.54,-1.49633 -1.02189,-0.540008 -1.97043,-0.613708 -1.97043,-0.613708 z m -1.48571,0.661188 c 0.40855,0 0.93792,1.58846 1.28303,2.06256 0.33449,0.47444 0.53752,0.26893 0.53752,-0.20552 0,-0.47409 -0.26893,-1.22492 -0.74303,-1.90452 -0.48189,-0.676779 -1.8861,-0.287015 -2.36834,0.12118 0,0 0.88263,-0.0737 1.29082,-0.0737 z m 2.90835,-0.995677 c 1.17213,0.194882 2.23901,1.021897 2.37862,1.830827 0.13961,0.81922 0.61406,0.67961 0.61406,-0.0634 0,-0.74551 0.1396,-2.035989 -0.67713,-2.175595 -0.81921,-0.139607 -1.97043,-0.07406 -2.38146,-0.07406 -0.40819,0 -0.34228,0.408544 0.0659,0.482244 z m 12.23079,-1.764921 c -0.0659,-0.816732 -1.48819,-1.367362 -1.48819,-1.367362 0.40039,0.345118 0.6796,1.040669 0.80858,1.496339 0.13961,0.474094 0.75331,0.679606 0.67961,-0.128977 z m 0.6137,0.128977 c -0.10276,0.706181 0.61122,0.279212 0.67712,-0.408189 0.0737,-0.677126 -0.80858,-1.691221 -1.83082,-1.830827 0,0 1.29082,1.356732 1.1537,2.239016 z m -4.41496,0.07654 c 0.6137,-0.07654 1.08815,0.397559 1.76492,0.806102 0.6796,0.41067 0.61405,-0.12933 0.54815,-0.677126 -0.0737,-0.54 -0.61406,-0.948189 -0.88264,-1.15122 -0.27921,-0.205512 -1.1615,-0.271417 -1.1615,-0.271417 l -3.80126,1.69122 c 0,0 2.91863,-0.334488 3.53233,-0.397559 z M 342.4466,109.50485 c -1.44071,-1.00382 -1.78583,-1.24583 -2.10189,-1.45949 -0.32421,-0.22393 -0.53752,-0.31606 -0.70618,-0.31606 -0.0843,0 -0.16583,0.0106 -0.23173,0.0291 -0.0553,0.0184 -0.10276,0.0184 -0.17646,-0.0397 -0.0553,-0.0369 -0.0369,-0.0631 0.0475,-0.0921 0.20268,-0.0553 1.15122,-0.33448 1.3461,-0.38976 0.0737,-0.0291 0.13961,-0.0291 0.19489,0.0184 0.0737,0.0475 0.0553,0.0737 0.0106,0.0921 -0.0553,0.0106 -0.095,0.0291 -0.13961,0.0659 -0.0925,0.0737 0.0262,0.19488 0.34228,0.43724 0.29764,0.21331 0.64276,0.45567 2.08382,1.45949 l 1.66217,1.16964 c 0.91949,0.65056 2.17594,1.55162 2.60256,1.83083 0.27921,0.17646 0.48224,0.27921 0.67712,0.26079 0.095,-0.0106 0.23457,-0.0291 0.31607,-0.0553 0.0553,-0.0106 0.11338,0 0.15803,0.0262 0.0659,0.0475 0.0553,0.0843 -0.008,0.10276 -0.35291,0.10276 -1.125,0.51094 -1.33831,0.57685 -0.0737,0.0184 -0.1396,0.008 -0.20551,-0.0369 -0.0446,-0.0291 -0.0553,-0.0553 0.0106,-0.0737 0.0815,-0.0291 0.12118,-0.0581 0.15803,-0.0843 0.0631,-0.0553 -0.22393,-0.31606 -0.48472,-0.51095 -0.37134,-0.28984 -1.63594,-1.1987 -2.5448,-1.84145 l -1.6728,-1.16965 z m 5.84575,1.39358 c 0.74268,0.52158 1.41165,0.96662 1.58846,0.98504 0.14741,0.008 0.25016,-0.0103 0.34229,-0.0369 0.0581,-0.0184 0.10275,-0.0103 0.16866,0.0266 0.0737,0.0578 0.0446,0.0843 -0.0369,0.10275 -0.34512,0.10241 -0.87484,0.36319 -1.15406,0.44752 -0.0737,0.0184 -0.12897,0.0266 -0.2133,-0.0287 -0.0553,-0.0475 -0.0446,-0.0659 0.0106,-0.0843 0.0631,-0.0184 0.15803,-0.0553 0.19488,-0.10275 0.0634,-0.0921 -0.62433,-0.67713 -1.44106,-1.25398 l -5.55804,-3.94087 c -0.1846,-0.1396 -0.30578,-0.23173 -0.25015,-0.25015 0.0553,-0.0184 0.23173,0.0553 0.49252,0.15023 0.18708,0.0631 2.53665,0.90851 4.69417,1.64374 1.00346,0.34229 3.0926,1.0878 3.33496,1.16965 l 0.029,-0.008 -4.76822,-3.27154 c -0.57685,-0.40039 -0.80859,-0.5113 -1.03252,-0.53752 -0.13961,-0.0209 -0.26859,0.0184 -0.33449,0.0446 -0.0634,0.0106 -0.12118,0 -0.17646,-0.0369 -0.0737,-0.0553 -0.0266,-0.0737 0.0553,-0.10276 0.27921,-0.0815 0.56905,-0.1396 0.6796,-0.16582 0.0553,-0.0184 0.23174,-0.10276 0.49252,-0.17646 0.0659,-0.0184 0.12933,-0.0291 0.20552,0.0184 0.0553,0.0447 0.0553,0.0737 -0.0106,0.0921 -0.0471,0.0184 -0.0921,0.0291 -0.12898,0.0659 -0.0762,0.10275 0.0819,0.25015 0.60342,0.62185 l 6.37477,4.50708 c 0.20551,0.15024 0.26858,0.21331 0.22393,0.23173 -0.0553,0.0106 -0.22393,-0.0369 -0.38976,-0.0921 -0.90354,-0.30579 -2.82685,-0.97476 -4.35968,-1.49634 -1.60689,-0.54 -3.38244,-1.1987 -3.66166,-1.29083 l -0.0184,0 4.04362,2.76874 z m 1.09559,-3.91181 c -1.44071,-1.01445 -1.7015,-1.1987 -2.01791,-1.412 -0.33449,-0.22394 -0.52937,-0.30827 -0.7689,-0.30827 -0.0659,0 -0.15803,0.0184 -0.23457,0.0475 -0.0631,0.008 -0.11055,0.008 -0.17645,-0.0369 -0.0634,-0.0475 -0.0553,-0.0765 0.0291,-0.095 0.28701,-0.0815 0.65055,-0.16583 0.79795,-0.20268 0.16866,-0.0553 0.4741,-0.16866 0.80079,-0.27142 0.66933,-0.19488 1.55976,-0.45319 3.21378,0.13181 0.76394,0.26859 2.34213,1.06937 3.46677,1.85705 1.1987,0.83764 1.70965,1.47791 1.95201,1.94421 0.19488,0.38977 0.31606,1.02189 -0.67961,1.3089 -0.38976,0.12118 -0.92728,0.28736 -1.1987,0.36354 -0.12118,0.0369 -0.42661,0.15804 -0.63992,0.22146 -0.0737,0.0184 -0.13961,0.0106 -0.20551,-0.0369 -0.045,-0.0266 -0.0553,-0.0553 0.0106,-0.0737 0.084,-0.0291 0.12898,-0.0553 0.15803,-0.0843 0.0659,-0.0553 -0.16866,-0.32421 -0.41882,-0.5191 -0.37169,-0.28984 -1.01161,-0.73488 -1.88645,-1.3383 l -2.20217,-1.49599 z m 2.24965,0.85323 c 1.00381,0.70618 1.62531,1.13563 1.80992,1.25681 0.24236,0.16583 0.63212,0.43441 0.78236,0.49252 0.25016,0.0999 0.65835,0.18425 1.07752,0.0553 0.54779,-0.15803 0.72425,-0.4004 0.54779,-0.83764 -0.17645,-0.46382 -0.81673,-1.02224 -1.79397,-1.69902 -1.2065,-0.84578 -2.80559,-1.63594 -3.42709,-1.84145 -1.31988,-0.43725 -2.04697,-0.33449 -2.46295,-0.21331 -0.10276,0.0291 -0.27142,0.10276 -0.27921,0.1474 -0.0106,0.0397 0.0184,0.0765 0.12897,0.15024 0.31607,0.22394 1.13528,0.80858 1.8861,1.32768 l 1.73056,1.16149 z m 2.80559,-2.39705 c -1.47792,-1.03004 -1.7465,-1.2274 -2.07319,-1.44106 -0.34229,-0.2211 -0.53752,-0.31606 -0.79016,-0.31606 -0.0634,0 -0.16618,0.0184 -0.25051,0.0475 -0.0553,0.0184 -0.11055,0.0106 -0.17646,-0.0369 -0.0656,-0.0475 -0.0471,-0.0737 0.0368,-0.0921 0.28984,-0.0843 0.66154,-0.16866 0.81957,-0.21331 0.17646,-0.0475 1.27205,-0.37417 1.36453,-0.41102 0.0843,-0.0369 0.14988,-0.0819 0.17645,-0.11055 0.0184,-0.0106 0.0184,-0.0369 0.0475,-0.0475 0.0287,-0.008 0.0737,0.0184 0.12118,0.0475 0.0631,0.0471 0.15804,0.13961 0.58465,0.45567 0.0921,0.0737 0.51094,0.37134 0.6137,0.45567 0.0475,0.0369 0.0921,0.0815 0.0553,0.0921 -0.0369,0.008 -0.0921,-0.0184 -0.18709,-0.0843 -0.0631,-0.0446 -0.23953,-0.15803 -0.37913,-0.23173 -0.21331,-0.11055 -0.38977,-0.17645 -0.71646,-0.1396 -0.12118,0.0184 -0.71398,0.16866 -0.82736,0.20551 -0.0262,0.008 0,0.0262 0.0659,0.0737 l 2.46296,1.72027 c 0.0634,0.0447 0.1109,0.0737 0.1396,0.0631 0.12118,-0.0369 0.75083,-0.2211 0.86421,-0.26858 0.11056,-0.0553 0.16583,-0.10275 0.11056,-0.17645 -0.0369,-0.0659 -0.0659,-0.11056 -0.0369,-0.12119 0.0291,0 0.0553,0.0106 0.12119,0.0475 0.0553,0.0369 0.1846,0.15804 0.6587,0.51095 0.18708,0.13961 0.56905,0.40819 0.63212,0.45567 0.0843,0.0553 0.18709,0.12897 0.13961,0.1474 -0.0369,0.0106 -0.0921,-0.0184 -0.13961,-0.0471 -0.10275,-0.0634 -0.23173,-0.15838 -0.37134,-0.23988 -0.22393,-0.13181 -0.44539,-0.20551 -0.68775,-0.17645 -0.12118,0.0184 -0.67677,0.17645 -0.80858,0.2133 -0.0262,0.008 0.0106,0.0369 0.0659,0.0737 l 0.77173,0.54 c 0.32422,0.23209 1.21713,0.85359 1.50414,1.04847 0.6796,0.4663 0.91134,0.54 1.47791,0.38197 0.13961,-0.0475 0.37134,-0.11055 0.40039,-0.23174 0.0262,-0.13181 -0.11338,-0.28984 -0.47409,-0.57685 -0.10276,-0.0843 -0.13181,-0.11055 -0.0843,-0.12118 0.0369,-0.008 0.12118,0.0369 0.21331,0.11055 0.22393,0.15024 0.84543,0.63213 1.01409,0.77174 0.21331,0.18708 0.15803,0.20551 -0.0475,0.26078 -0.82701,0.24237 -1.86768,0.62185 -2.08098,0.68776 -0.0737,0.0184 -0.13961,0.0106 -0.20552,-0.0369 -0.0446,-0.0369 -0.0553,-0.0659 0.0106,-0.0843 0.0843,-0.0266 0.12898,-0.0553 0.15804,-0.0843 0.0737,-0.0553 -0.12119,-0.21331 -0.37134,-0.41634 -0.38197,-0.29764 -1.31988,-0.88228 -2.2128,-1.51476 l -1.70964,-1.19056 z m 3.49299,-1.1987 c -1.43823,-1.00346 -1.70965,-1.18807 -2.02571,-1.40385 -0.32386,-0.22146 -0.51909,-0.31607 -0.76146,-0.30579 -0.0655,0 -0.16582,0.0184 -0.24236,0.0372 -0.0553,0.0184 -0.11055,0.0184 -0.17646,-0.0291 -0.0631,-0.045 -0.0446,-0.0737 0.0369,-0.0921 0.27922,-0.0843 0.64276,-0.16618 0.80115,-0.20303 0.2133,-0.0659 0.50031,-0.18709 0.74267,-0.25299 0.66898,-0.19488 1.30926,0.0106 1.53319,0.0843 0.31607,0.10275 0.89292,0.36354 1.39358,0.71646 1.34859,0.93791 1.73835,1.76527 0.97725,1.98885 -0.0291,0.008 -0.0843,0.0266 -0.12118,0.0266 -0.0369,0 -0.0843,0.0106 -0.15024,-0.0369 -0.0737,-0.0553 -0.0631,-0.0843 0.0475,-0.12118 0.29764,-0.0819 0.12118,-0.63248 -0.84543,-1.30146 -0.31642,-0.2211 -0.96697,-0.66898 -1.7387,-0.90886 -0.50067,-0.15803 -0.77988,-0.1396 -0.90106,-0.10275 -0.0843,0.0266 -0.14741,0.0553 -0.16583,0.0925 -0.0184,0.0184 0.0262,0.0656 0.12897,0.1396 l 3.79063,2.65784 c 0.86422,0.60307 1.85989,1.21712 2.29713,1.48571 0.27921,0.18708 0.5191,0.32669 0.71398,0.29763 0.095,-0.008 0.23456,-0.0262 0.31606,-0.0446 0.0553,-0.0184 0.11339,-0.0106 0.15803,0.0262 0.0659,0.0475 0.0475,0.0765 -0.008,0.095 -0.35292,0.0999 -0.71646,0.18425 -0.85607,0.2211 -0.12118,0.0369 -0.42697,0.15803 -0.6509,0.22394 -0.0631,0.0184 -0.12898,0.008 -0.19488,-0.0369 -0.0446,-0.0368 -0.0553,-0.0659 0.0106,-0.0843 0.0737,-0.0184 0.12118,-0.0553 0.1474,-0.0843 0.0737,-0.0553 -0.11055,-0.20268 -0.36071,-0.40819 -0.37417,-0.28736 -1.35957,-0.89292 -2.23122,-1.50414 l -1.665,-1.17248 z m 8.06882,-4.812515 c 0.0184,-0.01063 0.0446,-0.01063 0.0737,-0.01842 0.0631,-0.02906 0.12897,-0.03685 0.20267,0.01842 0.0659,0.03685 0.0581,0.06307 -0.008,0.09213 -0.0475,0.0078 -0.0921,0.02905 -0.13181,0.06591 -0.0737,0.09213 0.0843,0.239528 0.62433,0.611225 l 5.87197,3.95929 c 0.20551,0.14988 0.27141,0.2133 0.22393,0.22358 -0.0553,0.0184 -0.22393,-0.0369 -0.39011,-0.0921 -0.91914,-0.28984 -2.87115,-0.94819 -4.42276,-1.45913 -0.84543,-0.27957 -1.74898,-0.585 -2.44453,-0.82736 l 0.10276,-0.54 c 0.50031,0.16866 1.02189,0.34512 1.52256,0.51094 1.02189,0.33484 3.13193,1.06973 3.38244,1.14343 l 0.0287,-0.008 -4.22787,-2.73189 c -0.19489,-0.13181 -0.34512,-0.22393 -0.4741,-0.30827 l 0.0659,-0.639916 z m -0.59528,2.852715 3.02917,2.01543 c 0.76146,0.51095 1.07752,0.66118 1.25398,0.66898 0.15803,0.0106 0.26079,-0.008 0.35291,-0.0369 0.0553,-0.0184 0.11091,-0.008 0.16867,0.029 0.0737,0.0553 0.0446,0.0815 -0.0291,0.10276 -0.35291,0.0999 -0.59528,0.1474 -0.69803,0.17646 -0.0446,0.008 -0.26858,0.0999 -0.5478,0.18425 -0.0737,0.029 -0.12897,0.029 -0.2133,-0.0262 -0.0553,-0.0397 -0.045,-0.0659 0.0103,-0.0765 0.0634,-0.0184 0.15803,-0.0553 0.19524,-0.10275 0.0553,-0.0999 -0.19524,-0.29481 -1.03288,-0.86386 l -2.66563,-1.83083 0.17646,-0.23988 z m 9.60697,-3.503621 1.08815,0.695551 c 0.0656,0.04748 0.11303,0.07654 0.13961,0.05528 0.12118,-0.02622 0.74267,-0.213307 0.84543,-0.268583 0.11055,-0.045 0.16866,-0.09213 0.11055,-0.166181 -0.0369,-0.06555 -0.0631,-0.102401 -0.0369,-0.113031 0.0184,-0.0078 0.0581,0 0.11339,0.03685 0.0631,0.03933 0.19488,0.150236 0.67712,0.474095 0.18673,0.139606 0.56622,0.392598 0.64276,0.437244 0.0737,0.05528 0.18425,0.121176 0.12897,0.139596 -0.0369,0.0106 -0.0843,-0.0184 -0.12897,-0.0475 -0.11339,-0.06306 -0.23457,-0.136762 -0.38197,-0.221093 -0.22394,-0.121181 -0.4454,-0.187086 -0.68776,-0.158031 -0.12118,0.01843 -0.66897,0.176456 -0.79795,0.213307 -0.0188,0.0078 0.008,0.03685 0.0737,0.0737 l 0.77173,0.503147 c 0.33449,0.21331 1.23555,0.79831 1.52256,0.98539 0.69803,0.43441 0.92977,0.51095 1.47792,0.34229 0.1396,-0.0447 0.37133,-0.11056 0.38976,-0.23174 0.0184,-0.12118 -0.12118,-0.26858 -0.48189,-0.54779 -0.10276,-0.0659 -0.13181,-0.10276 -0.0925,-0.11339 0.045,-0.008 0.1187,0.0393 0.22146,0.10276 0.22393,0.15023 0.85606,0.59527 1.02189,0.73488 0.22393,0.16583 0.16866,0.18709 -0.0369,0.25016 -0.81638,0.24236 -1.2352,0.31606 -1.55126,0.40854 -0.12934,0.0393 -0.4376,0.15803 -0.65871,0.22394 -0.0659,0.0184 -0.13181,0.0184 -0.20551,-0.0266 -0.0475,-0.0393 -0.0553,-0.0577 0.008,-0.0843 0.0843,-0.0184 0.13181,-0.0553 0.15803,-0.0843 0.0659,-0.0553 -0.11835,-0.20516 -0.38976,-0.38976 -0.37914,-0.27922 -1.16185,-0.77953 -2.06256,-1.36701 L 375.167,99.513104 c -0.45567,-0.287008 -0.75331,-0.48189 -0.95634,-0.611221 l 0.8061,-0.121181 z m 5.03929,-2.202165 c -0.15024,-0.02905 -0.36354,0.01843 -0.43724,0.03685 -0.0762,0.0082 -0.13181,-0.01027 -0.18709,-0.04748 -0.0843,-0.05528 -0.0369,-0.0737 0.0553,-0.08398 0.29763,-0.06343 0.6059,-0.100276 0.7246,-0.118701 0.0659,-0.01063 0.25299,-0.07654 0.54,-0.131811 0.0737,-0.01842 0.13961,-0.01842 0.22394,0.03685 0.0631,0.03685 0.0553,0.06591 -0.0106,0.0737 -0.0553,0.02126 -0.15803,0.04748 -0.19488,0.08433 -0.0843,0.08433 0.76145,0.59563 0.76145,0.59563 l 5.31567,3.308388 c 0.22394,0.13961 0.29764,0.19488 0.253,0.21331 -0.0659,0.0184 -0.24237,-0.0287 -0.41103,-0.084 -0.95634,-0.27956 -2.98205,-0.890435 -4.59921,-1.364884 -1.69122,-0.502795 -3.18756,-0.856063 -3.4852,-0.948189 l -0.008,0 3.96708,2.368353 c 0.80859,0.49252 1.14307,0.63212 1.32768,0.64275 0.15024,0.008 0.26079,-0.0106 0.35539,-0.0369 0.0556,-0.0184 0.11091,-0.0184 0.16619,0.0184 0.0843,0.0553 0.0553,0.0843 -0.0184,0.10276 -0.35291,0.11055 -0.59528,0.1474 -0.69803,0.18425 -0.0553,0.0106 -0.27673,0.10275 -0.55595,0.19488 -0.0659,0.0184 -0.13181,0.029 -0.22393,-0.0262 -0.0553,-0.0369 -0.0475,-0.0659 0.0106,-0.0765 0.0737,-0.0262 0.15803,-0.0631 0.19488,-0.11055 0.0553,-0.0921 -0.22394,-0.27921 -1.10658,-0.82701 l -5.33409,-3.261261 c -0.20551,-0.131811 -0.33449,-0.213661 -0.27921,-0.232086 0.0553,-0.01843 0.24236,0.045 0.52157,0.12933 0.19488,0.06591 2.01508,0.381969 4.28315,1.050945 1.0591,0.316063 3.26126,1.003819 3.52205,1.06689 l 0.0184,0 -3.54047,-2.117835 c 0,0 -0.91134,-0.603425 -1.15122,-0.640275 z"
         inkscape:connector-curvature="0" />
    </g>
  </g>
</svg>
