<?xml version="1.0" encoding="UTF-8" standalone="no"?>
<!-- Created with Inkscape (http://www.inkscape.org/) -->

<svg
   xmlns:dc="http://purl.org/dc/elements/1.1/"
   xmlns:cc="http://creativecommons.org/ns#"
   xmlns:rdf="http://www.w3.org/1999/02/22-rdf-syntax-ns#"
   xmlns:svg="http://www.w3.org/2000/svg"
   xmlns="http://www.w3.org/2000/svg"
   xmlns:sodipodi="http://sodipodi.sourceforge.net/DTD/sodipodi-0.dtd"
   xmlns:inkscape="http://www.inkscape.org/namespaces/inkscape"
   width="744.09448819"
   height="1052.3622047"
   id="svg3782"
   version="1.1"
   inkscape:version="0.48.4 r9939"
   inkscape:export-filename="/home/josh/PycharmProjects/savings_champion/savings_champion/resources/img/press/the_observer.png"
   inkscape:export-xdpi="208.50133"
   inkscape:export-ydpi="208.50133"
   sodipodi:docname="the_sun.svg">
  <defs
     id="defs3784">
    <inkscape:perspective
       sodipodi:type="inkscape:persp3d"
       inkscape:vp_x="0 : 11 : 1"
       inkscape:vp_y="0 : 1000 : 0"
       inkscape:vp_z="39 : 11 : 1"
       inkscape:persp3d-origin="19.5 : 7.3333333 : 1"
       id="perspective2908" />
    <inkscape:perspective
       sodipodi:type="inkscape:persp3d"
       inkscape:vp_x="0 : 0.5 : 1"
       inkscape:vp_y="0 : 1000 : 0"
       inkscape:vp_z="1 : 0.5 : 1"
       inkscape:persp3d-origin="0.5 : 0.33333333 : 1"
       id="perspective2824" />
    <inkscape:perspective
       id="perspective10"
       inkscape:persp3d-origin="372.04724 : 350.78739 : 1"
       inkscape:vp_z="744.09448 : 526.18109 : 1"
       inkscape:vp_y="0 : 1000 : 0"
       inkscape:vp_x="0 : 526.18109 : 1"
       sodipodi:type="inkscape:persp3d" />
    <clipPath
       id="clipPath4006">
      <path
         id="path4008"
         d="m 0,0 782.362,0 0,1000.63 L 0,1000.63 0,0 z" />
    </clipPath>
    <clipPath
       id="clipPath4024">
      <path
         id="path4026"
         d="m 0,890.078 782.362,0 0,110.552 -782.362,0 0,-110.552 z" />
    </clipPath>
    <clipPath
       id="clipPath4620">
      <path
         id="path4622"
         d="m 0,0 782.362,0 0,1000.63 L 0,1000.63 0,0 z" />
    </clipPath>
    <clipPath
       id="clipPath4648">
      <path
         id="path4650"
         d="m 21.827,30.614 740.009,0 0,520.441 -740.009,0 0,-520.441 z" />
    </clipPath>
    <clipPath
       id="clipPath3005">
      <path
         id="path3007"
         d="m 0,0 782.362,0 0,1000.63 L 0,1000.63 0,0 z" />
    </clipPath>
    <clipPath
       id="clipPath3023">
      <path
         id="path3025"
         d="m 0,890.078 782.362,0 0,110.552 -782.362,0 0,-110.552 z" />
    </clipPath>
    <clipPath
       id="clipPath3619">
      <path
         id="path3621"
         d="m 0,0 782.362,0 0,1000.63 L 0,1000.63 0,0 z" />
    </clipPath>
    <clipPath
       id="clipPath3647">
      <path
         id="path3649"
         d="m 21.827,30.614 740.009,0 0,520.441 -740.009,0 0,-520.441 z" />
    </clipPath>
    <clipPath
       id="clipPath4459"
       clipPathUnits="userSpaceOnUse">
      <path
         inkscape:connector-curvature="0"
         id="path4461"
         d="m 13.716,791.221 100.024,0 0,36.496 -100.024,0 0,-36.496 z" />
    </clipPath>
    <clipPath
       id="clipPath4335"
       clipPathUnits="userSpaceOnUse">
      <path
         inkscape:connector-curvature="0"
         id="path4337"
         d="m 0,0 595.276,0 0,841.89 L 0,841.89 0,0 z" />
    </clipPath>
    <clipPath
       id="clipPath4319"
       clipPathUnits="userSpaceOnUse">
      <path
         inkscape:connector-curvature="0"
         id="path4321"
         d="m 0,0 595.276,0 0,841.89 L 0,841.89 0,0 z" />
    </clipPath>
    <clipPath
       id="clipPath4115"
       clipPathUnits="userSpaceOnUse">
      <path
         inkscape:connector-curvature="0"
         id="path4117"
         d="m 0,0 595.276,0 0,841.89 L 0,841.89 0,0 z" />
    </clipPath>
    <clipPath
       id="clipPath4067"
       clipPathUnits="userSpaceOnUse">
      <path
         inkscape:connector-curvature="0"
         id="path4069"
         d="m 0,0 595.276,0 0,841.89 L 0,841.89 0,0 z" />
    </clipPath>
    <clipPath
       id="clipPath4051"
       clipPathUnits="userSpaceOnUse">
      <path
         inkscape:connector-curvature="0"
         id="path4053"
         d="m 0,0 595.276,0 0,841.89 L 0,841.89 0,0 z" />
    </clipPath>
    <clipPath
       id="clipPath3985"
       clipPathUnits="userSpaceOnUse">
      <path
         inkscape:connector-curvature="0"
         id="path3987"
         d="m 0,0 595.276,0 0,841.89 L 0,841.89 0,0 z" />
    </clipPath>
    <clipPath
       id="clipPath3865"
       clipPathUnits="userSpaceOnUse">
      <path
         inkscape:connector-curvature="0"
         id="path3867"
         d="m 0,0 595.276,0 0,841.89 L 0,841.89 0,0 z" />
    </clipPath>
    <clipPath
       id="clipPath3849"
       clipPathUnits="userSpaceOnUse">
      <path
         inkscape:connector-curvature="0"
         id="path3851"
         d="m 0,0 595.276,0 0,841.89 L 0,841.89 0,0 z" />
    </clipPath>
    <clipPath
       id="clipPath3833"
       clipPathUnits="userSpaceOnUse">
      <path
         inkscape:connector-curvature="0"
         id="path3835"
         d="m 0,0 595.276,0 0,841.89 L 0,841.89 0,0 z" />
    </clipPath>
    <clipPath
       id="clipPath3761"
       clipPathUnits="userSpaceOnUse">
      <path
         inkscape:connector-curvature="0"
         id="path3763"
         d="m 0,0 595.276,0 0,841.89 L 0,841.89 0,0 z" />
    </clipPath>
    <clipPath
       id="clipPath3745"
       clipPathUnits="userSpaceOnUse">
      <path
         inkscape:connector-curvature="0"
         id="path3747"
         d="m 0,0 595.276,0 0,841.89 L 0,841.89 0,0 z" />
    </clipPath>
    <clipPath
       id="clipPath3285"
       clipPathUnits="userSpaceOnUse">
      <path
         inkscape:connector-curvature="0"
         id="path3287"
         d="m 0,0 595.276,0 0,841.89 L 0,841.89 0,0 z" />
    </clipPath>
    <clipPath
       id="clipPath3251"
       clipPathUnits="userSpaceOnUse">
      <path
         inkscape:connector-curvature="0"
         id="path3253"
         d="m 0,0 595.276,0 0,841.89 L 0,841.89 0,0 z" />
    </clipPath>
    <clipPath
       id="clipPath3049"
       clipPathUnits="userSpaceOnUse">
      <path
         inkscape:connector-curvature="0"
         id="path3051"
         d="m 0,0 595.276,0 0,841.89 L 0,841.89 0,0 z" />
    </clipPath>
    <clipPath
       id="clipPath3013"
       clipPathUnits="userSpaceOnUse">
      <path
         inkscape:connector-curvature="0"
         id="path3015"
         d="m 0,0 595.276,0 0,841.89 L 0,841.89 0,0 z" />
    </clipPath>
  </defs>
  <sodipodi:namedview
     id="base"
     pagecolor="#ffffff"
     bordercolor="#666666"
     borderopacity="1.0"
     inkscape:pageopacity="0.0"
     inkscape:pageshadow="2"
     inkscape:zoom="1.4"
     inkscape:cx="345.91326"
     inkscape:cy="568.61397"
     inkscape:document-units="px"
     inkscape:current-layer="layer1"
     showgrid="false"
     inkscape:window-width="1920"
     inkscape:window-height="1056"
     inkscape:window-x="0"
     inkscape:window-y="24"
     inkscape:window-maximized="1" />
  <metadata
     id="metadata3787">
    <rdf:RDF>
      <cc:Work
         rdf:about="">
        <dc:format>image/svg+xml</dc:format>
        <dc:type
           rdf:resource="http://purl.org/dc/dcmitype/StillImage" />
        <dc:title></dc:title>
      </cc:Work>
    </rdf:RDF>
  </metadata>
  <g
     inkscape:label="Layer 1"
     inkscape:groupmode="layer"
     id="layer1">
    <rect
       style="fill:none;stroke:#4d4d4d;stroke-width:2;stroke-miterlimit:4;stroke-opacity:1;stroke-dasharray:none"
       id="rect3790"
       width="358.57144"
       height="175.71428"
       x="142.25583"
       y="438.54935"
       ry="28.571428"
       inkscape:export-filename="/home/josh/PycharmProjects/savings_champion/savings_champion/resources/img/press/bbc_radio_4.png"
       inkscape:export-xdpi="208.50133"
       inkscape:export-ydpi="208.50133" />
    <g
       display="none"
       id="_x32_px_Stroke"
       style="display:none"
       transform="matrix(1.7603128,0,0,1.7603128,145.81066,350.99683)">
      <path
         id="path5770"
         d="M 198,2 V 198 H 2 V 2 h 196 m 2,-2 H 0 V 200 H 200 V 0 l 0,0 z"
         display="inline"
         inkscape:connector-curvature="0"
         style="fill:#a9a9a9;display:inline" />
    </g>
    <g
       id="g5772"
       transform="matrix(1.7603128,0,0,1.7603128,145.81066,350.99683)">
      <g
         id="g5774" />
      <g
         id="g5776" />
    </g>
    <g
       id="Guides"
       transform="matrix(1.7603128,0,0,1.7603128,145.81066,350.99683)" />
    <g
       transform="matrix(9.6289936,0,0,9.6289936,860.45814,525.71028)"
       id="g3034" />
    <g
       id="g4063"
       transform="matrix(1.7053571,0,0,-1.7053571,161.7223,1929.423)">
      <g
         id="g4065"
         clip-path="url(#clipPath4067)">
        <g
           id="g4071"
           transform="translate(25.5356,8.4471)" />
      </g>
    </g>
    <g
       id="g4073"
       transform="matrix(1.7053571,0,0,-1.7053571,205.26962,1915.0177)" />
    <g
       id="g4111"
       transform="matrix(1.7053571,0,0,-1.7053571,161.7223,1929.423)">
      <g
         id="g4113"
         clip-path="url(#clipPath4115)">
        <g
           id="g4119"
           transform="translate(283.4478,8.4471)" />
      </g>
    </g>
    <g
       id="g4121"
       transform="matrix(1.7053571,0,0,-1.7053571,645.10202,1915.0177)" />
    <g
       id="g6734"
       transform="translate(-3.1738284e-7,1.6511231e-5)">
      <path
         id="path4441"
         style="fill:#4d4d4d;fill-opacity:1;fill-rule:nonzero;stroke:none"
         d="m 185.11298,579.31391 272.85714,0 0,-105.81488 -272.85714,0 0,105.81488 z"
         inkscape:connector-curvature="0" />
      <g
         transform="matrix(2.7279167,0,0,-2.7279167,327.73964,503.06673)"
         id="g4443">
        <path
           id="path4445"
           style="fill:#ffffff;fill-opacity:1;fill-rule:nonzero;stroke:none"
           d="m 0,0 -2.438,0 1.234,4.539 -1.755,0 0.391,1.438 5.912,0 -0.39,-1.438 -1.72,0 L 0,0 z"
           inkscape:connector-curvature="0" />
      </g>
      <g
         transform="matrix(2.7279167,0,0,-2.7279167,354.1527,503.06673)"
         id="g4447">
        <path
           id="path4449"
           style="fill:#ffffff;fill-opacity:1;fill-rule:nonzero;stroke:none"
           d="m 0,0 -2.561,0 0.633,2.326 -1.975,0 L -4.536,0 l -2.56,0 1.625,5.977 2.56,0 -0.599,-2.204 1.975,0 0.599,2.204 2.561,0 L 0,0 z"
           inkscape:connector-curvature="0" />
      </g>
      <g
         transform="matrix(2.7279167,0,0,-2.7279167,374.20943,503.06673)"
         id="g4451">
        <path
           id="path4453"
           style="fill:#ffffff;fill-opacity:1;fill-rule:nonzero;stroke:none"
           d="m 0,0 -6.279,0 1.625,5.977 6.279,0 -0.374,-1.377 -3.767,0 -0.238,-0.871 3.049,0 -0.362,-1.333 -3.049,0 -0.263,-0.967 3.768,0 L 0,0 z"
           inkscape:connector-curvature="0" />
      </g>
      <g
         transform="matrix(2.7279167,0,0,-2.7279167,147.69687,2738.9701)"
         id="g4455">
        <g
           clip-path="url(#clipPath4459)"
           id="g4457">
          <g
             transform="translate(41.4275,816.2433)"
             id="g4463">
            <path
               id="path4465"
               style="fill:#ffffff;fill-opacity:1;fill-rule:nonzero;stroke:none"
               d="m 0,0 c -0.723,1.976 -3.339,2.732 -5.969,2.732 -1.637,0 -3.749,-0.42 -3.777,-1.849 -0.016,-0.883 0.853,-1.262 1.841,-1.598 1.278,-0.42 2.617,-0.714 3.955,-1.051 1.454,-0.378 2.967,-0.756 4.421,-1.135 4.363,-1.092 7.875,-3.909 7.809,-7.398 -0.128,-6.726 -8.896,-9.795 -17.197,-9.795 -8.301,0 -15.161,1.976 -18.265,7.819 l 11.253,1.556 c 1.298,-2.438 3.978,-2.943 7.368,-2.943 1.754,0 4.335,0.505 4.365,2.06 0.029,1.513 -3.002,1.976 -4.456,2.354 -6.34,1.681 -13.74,2.943 -13.626,8.912 0.126,6.642 7.949,9.164 16.133,9.164 7.073,0 13.76,-1.85 16.235,-6.978 L 0,0 z"
               inkscape:connector-curvature="0" />
          </g>
          <g
             transform="translate(77.7668,796.5702)"
             id="g4471">
            <path
               id="path4473"
               style="fill:#ffffff;fill-opacity:1;fill-rule:nonzero;stroke:none"
               d="m 0,0 -10.405,0 1.009,3.867 c -2.451,-2.858 -5.052,-4.414 -9.846,-4.414 -3.858,0 -7.682,1.808 -7.625,4.793 0.023,1.177 0.338,2.396 0.652,3.531 l 3.228,12.947 11.105,0 -3.03,-11.854 c -0.189,-0.673 -0.376,-1.345 -0.389,-2.018 -0.018,-0.925 0.613,-1.556 1.957,-1.556 3.39,0 4.564,3.321 5.009,5.171 l 2.591,10.257 10.932,0 L 0,0 z"
               inkscape:connector-curvature="0" />
          </g>
          <g
             transform="translate(77.7668,796.5702)"
             id="g4475" />
          <g
             transform="translate(111.9645,810.7365)"
             id="g4479">
            <path
               id="path4481"
               style="fill:#ffffff;fill-opacity:1;fill-rule:nonzero;stroke:none"
               d="m 0,0 -3.544,-14.166 -10.931,0 3.102,12.442 c 0.126,0.547 0.313,1.135 0.323,1.682 0.024,1.219 -1.137,1.639 -2.657,1.639 -2.631,0 -3.715,-1.681 -4.155,-3.321 l -3.16,-12.442 -10.698,0 5.247,20.724 10.054,0 -0.882,-3.363 c 1.807,2.816 5.337,3.993 9.487,3.993 4.326,0 8.21,-1.723 8.146,-5.086 C 0.318,1.387 0.188,0.715 0,0"
               inkscape:connector-curvature="0" />
          </g>
        </g>
      </g>
    </g>
  </g>
</svg>
