<?xml version="1.0" encoding="UTF-8" standalone="no"?>
<!-- Created with Inkscape (http://www.inkscape.org/) -->

<svg
   xmlns:dc="http://purl.org/dc/elements/1.1/"
   xmlns:cc="http://creativecommons.org/ns#"
   xmlns:rdf="http://www.w3.org/1999/02/22-rdf-syntax-ns#"
   xmlns:svg="http://www.w3.org/2000/svg"
   xmlns="http://www.w3.org/2000/svg"
   xmlns:sodipodi="http://sodipodi.sourceforge.net/DTD/sodipodi-0.dtd"
   xmlns:inkscape="http://www.inkscape.org/namespaces/inkscape"
   width="744.09448819"
   height="1052.3622047"
   id="svg3782"
   version="1.1"
   inkscape:version="0.48.4 r9939"
   inkscape:export-filename="/home/josh/PycharmProjects/savings_champion/savings_champion/resources/img/press/the_courier.png"
   inkscape:export-xdpi="208.50133"
   inkscape:export-ydpi="208.50133"
   sodipodi:docname="the_observer.svg">
  <defs
     id="defs3784">
    <inkscape:perspective
       sodipodi:type="inkscape:persp3d"
       inkscape:vp_x="0 : 11 : 1"
       inkscape:vp_y="0 : 1000 : 0"
       inkscape:vp_z="39 : 11 : 1"
       inkscape:persp3d-origin="19.5 : 7.3333333 : 1"
       id="perspective2908" />
    <inkscape:perspective
       sodipodi:type="inkscape:persp3d"
       inkscape:vp_x="0 : 0.5 : 1"
       inkscape:vp_y="0 : 1000 : 0"
       inkscape:vp_z="1 : 0.5 : 1"
       inkscape:persp3d-origin="0.5 : 0.33333333 : 1"
       id="perspective2824" />
    <inkscape:perspective
       id="perspective10"
       inkscape:persp3d-origin="372.04724 : 350.78739 : 1"
       inkscape:vp_z="744.09448 : 526.18109 : 1"
       inkscape:vp_y="0 : 1000 : 0"
       inkscape:vp_x="0 : 526.18109 : 1"
       sodipodi:type="inkscape:persp3d" />
    <clipPath
       id="clipPath4006">
      <path
         id="path4008"
         d="m 0,0 782.362,0 0,1000.63 L 0,1000.63 0,0 z" />
    </clipPath>
    <clipPath
       id="clipPath4024">
      <path
         id="path4026"
         d="m 0,890.078 782.362,0 0,110.552 -782.362,0 0,-110.552 z" />
    </clipPath>
    <clipPath
       id="clipPath4620">
      <path
         id="path4622"
         d="m 0,0 782.362,0 0,1000.63 L 0,1000.63 0,0 z" />
    </clipPath>
    <clipPath
       id="clipPath4648">
      <path
         id="path4650"
         d="m 21.827,30.614 740.009,0 0,520.441 -740.009,0 0,-520.441 z" />
    </clipPath>
    <clipPath
       id="clipPath3005">
      <path
         id="path3007"
         d="m 0,0 782.362,0 0,1000.63 L 0,1000.63 0,0 z" />
    </clipPath>
    <clipPath
       id="clipPath3023">
      <path
         id="path3025"
         d="m 0,890.078 782.362,0 0,110.552 -782.362,0 0,-110.552 z" />
    </clipPath>
    <clipPath
       id="clipPath3619">
      <path
         id="path3621"
         d="m 0,0 782.362,0 0,1000.63 L 0,1000.63 0,0 z" />
    </clipPath>
    <clipPath
       id="clipPath3647">
      <path
         id="path3649"
         d="m 21.827,30.614 740.009,0 0,520.441 -740.009,0 0,-520.441 z" />
    </clipPath>
  </defs>
  <sodipodi:namedview
     id="base"
     pagecolor="#ffffff"
     bordercolor="#666666"
     borderopacity="1.0"
     inkscape:pageopacity="0.0"
     inkscape:pageshadow="2"
     inkscape:zoom="1.4"
     inkscape:cx="141.14696"
     inkscape:cy="568.90258"
     inkscape:document-units="px"
     inkscape:current-layer="layer1"
     showgrid="false"
     inkscape:window-width="1920"
     inkscape:window-height="1056"
     inkscape:window-x="0"
     inkscape:window-y="24"
     inkscape:window-maximized="1" />
  <metadata
     id="metadata3787">
    <rdf:RDF>
      <cc:Work
         rdf:about="">
        <dc:format>image/svg+xml</dc:format>
        <dc:type
           rdf:resource="http://purl.org/dc/dcmitype/StillImage" />
        <dc:title></dc:title>
      </cc:Work>
    </rdf:RDF>
  </metadata>
  <g
     inkscape:label="Layer 1"
     inkscape:groupmode="layer"
     id="layer1">
    <rect
       style="fill:none;stroke:#4d4d4d;stroke-width:2;stroke-miterlimit:4;stroke-opacity:1;stroke-dasharray:none"
       id="rect3790"
       width="358.57144"
       height="175.71428"
       x="142.25583"
       y="438.54935"
       ry="28.571428"
       inkscape:export-filename="/home/josh/PycharmProjects/savings_champion/savings_champion/resources/img/press/bbc_radio_4.png"
       inkscape:export-xdpi="208.50133"
       inkscape:export-ydpi="208.50133" />
    <g
       display="none"
       id="_x32_px_Stroke"
       style="display:none"
       transform="matrix(1.7603128,0,0,1.7603128,145.81066,350.99683)">
      <path
         id="path5770"
         d="M 198,2 V 198 H 2 V 2 h 196 m 2,-2 H 0 V 200 H 200 V 0 l 0,0 z"
         display="inline"
         inkscape:connector-curvature="0"
         style="fill:#a9a9a9;display:inline" />
    </g>
    <g
       id="g5772"
       transform="matrix(1.7603128,0,0,1.7603128,145.81066,350.99683)">
      <g
         id="g5774" />
      <g
         id="g5776" />
    </g>
    <g
       id="Guides"
       transform="matrix(1.7603128,0,0,1.7603128,145.81066,350.99683)" />
    <g
       transform="matrix(9.6289936,0,0,9.6289936,860.45814,525.71028)"
       id="g3034" />
    <g
       id="layer1-1"
       transform="translate(124.08636,100.5694)"
       style="fill:#4d4d4d">
      <path
         style="fill:#4d4d4d;fill-opacity:1;fill-rule:nonzero;stroke:none"
         id="path740"
         d="m 57.67805,415.7631 -10.3125,0 0,-9.6225 31.257499,0 0,9.6225 -10.3125,0 0,29.77 -10.6325,0 0,-29.77 z"
         inkscape:connector-curvature="0" />
      <path
         style="fill:#4d4d4d;fill-opacity:1;fill-rule:nonzero;stroke:none"
         id="path752"
         d="m 79.84505,406.14134 10.1,0 0,10.6325 c 1.382499,-1.595 3.5625,-2.3925 8.2925,-2.3925 7.2825,0 8.7725,4.8375 8.7725,11.11 l 0,20.04 -10.2075,0 0,-17.435 c 0,-2.765 -0.3725,-3.9875 -2.9225,-3.9875 -3.35,0 -3.8825,1.2225 -3.8825,4.0925 l 0,17.33 -10.1525,0 0,-39.39 z"
         inkscape:connector-curvature="0" />
      <path
         style="fill:#4d4d4d;fill-opacity:1;fill-rule:nonzero;stroke:none"
         id="path756"
         d="m 121.94655,445.9046 c 5.4225,0 9.3025,-0.9575 12.545,-2.71 l -3.7725,-7.655 c -2.075,0.9025 -4.1475,1.7525 -8.24,1.7525 -3.19,0 -4.2,-0.7425 -4.465,-3.4025 l 16.4775,0 c 0.2125,-11.64 0.585,-19.5075 -12.28,-19.5075 -10.685,0 -13.98,5.8475 -13.98,15.7875 0,10.1 2.4975,15.735 13.715,15.735 m 0.0525,-22.7 c 3.1375,0 3.455,1.17 3.5625,4.2525 l -7.6025,0 c 0.16,-3.03 0.9575,-4.2525 4.04,-4.2525"
         inkscape:connector-curvature="0" />
      <path
         style="fill:#4d4d4d;fill-opacity:1;fill-rule:nonzero;stroke:none"
         id="path760"
         d="m 155.64855,446.01084 c 14.61751,0 17.22251,-9.6225 17.22251,-20.1475 0,-10.5775 -2.55,-20.2 -17.22251,-20.2 -14.6725,0 -17.2775,9.6225 -17.2775,20.2 0,10.525 2.605,20.1475 17.2775,20.1475 m 0,-9.3025 c -5.795,0 -6.5925,-3.9875 -6.5925,-10.4725 0,-6.4325 0.7975,-10.42 6.5925,-10.42 5.74001,0 6.53751,3.9875 6.53751,10.42 0,6.485 -0.7975,10.4725 -6.53751,10.4725"
         inkscape:connector-curvature="0" />
      <path
         style="fill:#4d4d4d;fill-opacity:1;fill-rule:nonzero;stroke:none"
         id="path764"
         d="m 174.46656,445.21334 7.335,0.69 1.595,-2.3375 c 1.915,1.595 2.925,2.3375 8.665,2.3375 9.1975,0 10.74,-7.175 10.74,-15.735 0,-8.3975 -1.17,-15.7875 -10.26,-15.7875 -3.775,0 -6.38,0.4775 -7.975,2.8175 l 0,-11.0575 -10.1,0 0,39.0725 z m 14.405,-8.0275 c -3.615,0 -4.2525,-1.755 -4.2525,-6.5375 0,-4.89 0.7975,-6.805 4.2525,-6.805 3.19,0 3.67,1.8075 3.67,6.805 0,4.9975 -0.64,6.5375 -3.67,6.5375"
         inkscape:connector-curvature="0" />
      <path
         style="fill:#4d4d4d;fill-opacity:1;fill-rule:nonzero;stroke:none"
         id="path768"
         d="m 202.5878,443.2466 3.7225,-7.4425 c 2.3375,1.1175 6.005,2.1275 9.46,2.1275 1.6475,0 2.2325,-0.585 2.2325,-1.49 0,-1.3275 -1.7,-1.435 -5.6875,-2.605 -5.5825,-1.595 -8.6125,-3.2425 -8.6125,-9.355 0,-7.7625 5.4225,-10.1 12.5475,-10.1 4.73,0 7.175,0.6375 10.2575,1.86 l -3.8275,8.08 c -1.9125,-0.7975 -4.41,-1.275 -6.8575,-1.275 -2.0725,0 -2.445,0.4775 -2.445,1.3275 0,1.2225 1.7025,1.33 4.8375,2.18 6.275,1.7025 9.25,3.5625 9.25,9.835 0,6.6975 -4.9425,9.515 -11.7475,9.515 -4.785,0 -9.57,-0.6375 -13.13,-2.6575"
         inkscape:connector-curvature="0" />
      <path
         style="fill:#4d4d4d;fill-opacity:1;fill-rule:nonzero;stroke:none"
         id="path772"
         d="m 241.97754,445.9046 c 5.42252,0 9.30502,-0.9575 12.54502,-2.71 l -3.7725,-7.655 c -2.07502,0.9025 -4.14751,1.7525 -8.24,1.7525 -3.19002,0 -4.20002,-0.7425 -4.46501,-3.4025 l 16.4775,0 c 0.2125,-11.64 0.5875,-19.5075 -12.2775,-19.5075 -10.6875,0 -13.9825,5.8475 -13.9825,15.7875 0,10.1 2.49752,15.735 13.715,15.735 m 0.0526,-22.7 c 3.13748,0 3.45748,1.17 3.5625,4.2525 l -7.6025,0 c 0.16,-3.03 0.9575,-4.2525 4.04,-4.2525"
         inkscape:connector-curvature="0" />
      <path
         style="fill:#4d4d4d;fill-opacity:1;fill-rule:nonzero;stroke:none"
         id="path776"
         d="m 256.27756,415.5506 8.08,-0.6375 0.85,2.6575 c 1.49,-1.755 3.5625,-2.87 8.56,-2.87 l 0,9.62 c -6.7,0 -7.2825,2.235 -7.2825,5.795 l 0,15.4175 -10.2075,0 0,-29.9825 z"
         inkscape:connector-curvature="0" />
      <path
         style="fill:#4d4d4d;fill-opacity:1;fill-rule:nonzero;stroke:none"
         id="path780"
         d="m 274.02582,414.9656 10.685,0 4.625,17.8625 4.6775,-17.8625 10.04751,0 -9.3025,30.885 -11.48251,0 -9.25,-30.885 z"
         inkscape:connector-curvature="0" />
      <path
         style="fill:#4d4d4d;fill-opacity:1;fill-rule:nonzero;stroke:none"
         id="path784"
         d="m 316.02082,445.9046 c 5.4225,0 9.305,-0.9575 12.545,-2.71 l -3.7725,-7.655 c -2.075,0.9025 -4.1475,1.7525 -8.24,1.7525 -3.19,0 -4.2,-0.7425 -4.465,-3.4025 l 16.47751,0 c 0.21249,-11.64 0.58749,-19.5075 -12.2775,-19.5075 -10.685,0 -13.9825,5.8475 -13.9825,15.7875 0,10.1 2.5,15.735 13.71499,15.735 m 0.0526,-22.7 c 3.1375,0 3.4575,1.17 3.5625,4.2525 l -7.6025,0 c 0.16,-3.03 0.9575,-4.2525 4.04,-4.2525"
         inkscape:connector-curvature="0" />
      <path
         style="fill:#4d4d4d;fill-opacity:1;fill-rule:nonzero;stroke:none"
         id="path788"
         d="m 330.05482,415.5506 8.08,-0.6375 0.85,2.6575 c 1.48998,-1.755 3.56248,-2.87 8.56,-2.87 l 0,9.62 c -6.6975,0 -7.28251,2.235 -7.28251,5.795 l 0,15.4175 -10.20748,0 0,-29.9825 z"
         inkscape:connector-curvature="0" />
    </g>
  </g>
</svg>
